<svg width="46" height="54" viewBox="0 0 46 54" fill="none" xmlns="http://www.w3.org/2000/svg">
<path d="M33.6386 0.132951C37.4461 0.132951 41.2541 0.132396 45.0615 0.133507C45.0637 0.990959 45.0571 1.84897 45.0654 2.70697C44.098 2.74918 43.1089 2.85747 42.2181 3.26232C41.3146 3.66828 40.5571 4.40688 40.1672 5.32154C35.5373 16.2052 30.9108 27.0899 26.2859 37.9758C26.2059 38.1546 26.1415 38.3396 26.0482 38.5123C24.3921 38.4928 22.7355 38.5095 21.0795 38.5034C20.3487 37.0512 19.6295 35.5928 18.8925 34.1439C18.0479 36.4075 17.1982 38.6689 16.3535 40.9319C21.8164 40.9325 27.2794 40.9319 32.7423 40.9325C33.7425 40.9458 34.7726 40.9041 35.7084 40.5132C37.2634 39.8884 38.5012 38.6811 39.5086 37.3721C40.7248 35.7861 41.6478 34.0006 42.4703 32.1863C43.3927 32.1786 44.3146 32.1891 45.2364 32.1874C43.4882 35.9216 41.7311 39.6524 39.9673 43.3793C27.3788 43.3799 14.7908 43.3793 2.20222 43.3793C2.50877 42.5791 2.80033 41.7721 3.12909 40.9802C3.14908 40.8986 3.25071 40.9191 3.31235 40.9114C4.88398 40.8997 6.46616 40.8386 8.00835 40.5115C8.81082 40.3232 9.64106 40.0722 10.2586 39.4991C10.5851 39.1876 10.6868 38.7327 10.7951 38.3129C12.2817 34.3344 13.7706 30.3565 15.2584 26.3785C12.114 19.6789 8.9591 12.9831 5.81307 6.28395C5.55983 5.69806 5.22552 5.11772 4.69961 4.7362C3.61113 3.92096 2.19667 3.81766 0.886053 3.76546C0.884943 2.80527 0.886053 1.84563 0.885498 0.885443C5.30549 0.883777 9.72492 0.884333 14.1449 0.884888C14.1455 1.84508 14.146 2.80527 14.1444 3.76546C13.5685 3.80211 12.957 3.79267 12.4356 4.07756C12.1768 4.19974 12.0246 4.5074 12.0912 4.78729C12.1729 5.24545 12.535 5.57255 12.7182 5.98628C14.5847 10.0064 16.4513 14.0271 18.3233 18.0456C19.2613 15.4227 20.1993 12.8004 21.1411 10.1791C21.2794 9.81483 21.3283 9.39388 21.1706 9.02735C21.0467 8.73802 20.7657 8.5592 20.4886 8.43869C19.9499 8.21655 19.3579 8.21877 18.787 8.17767C19.0786 7.36743 19.3718 6.55718 19.6739 5.75137C19.7439 5.70639 19.8411 5.74082 19.9216 5.72971C24.406 5.73249 28.891 5.72971 33.3759 5.73138C33.0661 6.54552 32.7578 7.35965 32.4513 8.1749C31.3711 8.22488 30.2577 8.25209 29.2447 8.67415C28.7805 8.86852 28.3412 9.16563 28.0668 9.59547C27.8764 9.91035 27.7581 10.2619 27.6303 10.6051C25.7566 15.7154 23.8657 20.819 22.013 25.937C23.0393 28.2567 24.1089 30.5564 25.1557 32.8666C28.9571 23.89 32.7573 14.9123 36.5631 5.93741C36.8196 5.39762 37.2373 4.90503 37.27 4.28415C37.3017 3.79823 36.9413 3.37894 36.5236 3.17957C35.6234 2.76417 34.6116 2.74363 33.6386 2.70864C33.6375 1.85008 33.6375 0.991514 33.6386 0.132951Z" fill="black"/>
<path d="M40.5509 48.4668C41.751 49.7097 42.9417 50.9609 44.1301 52.2143C44.1285 51.0491 44.1351 49.8835 44.134 48.7184C44.3395 48.7189 44.545 48.7167 44.751 48.7139C44.7516 50.3772 44.7516 52.041 44.751 53.7042C43.5498 52.4675 42.3664 51.2141 41.1713 49.9712C41.1729 51.1436 41.1685 52.3164 41.1679 53.4893C40.9619 53.491 40.7564 53.4904 40.5509 53.4904C40.5504 51.8155 40.5498 50.1412 40.5509 48.4668Z" fill="black"/>
<path d="M5.61493 48.6379C6.93721 48.4346 8.33612 49.4698 8.45386 50.8181C8.56492 51.5895 8.26559 52.3937 7.70081 52.9251C6.77227 53.8337 5.10235 53.817 4.20103 52.8762C3.71399 52.4042 3.43632 51.7239 3.46575 51.0447C3.47908 49.863 4.45593 48.8072 5.61493 48.6379ZM5.61549 49.2487C4.84578 49.3742 4.21935 50.0501 4.11162 50.8159C3.965 51.6861 4.50202 52.6225 5.34226 52.9068C6.07754 53.1845 6.9722 52.9229 7.44424 52.2954C8.05456 51.5295 7.95127 50.2939 7.20044 49.658C6.77838 49.2743 6.16806 49.1477 5.61549 49.2487Z" fill="black"/>
<path d="M15.1633 48.8946C15.8409 48.3859 16.9477 48.5964 17.3386 49.365C17.1753 49.4572 17.0121 49.5499 16.8488 49.6421C16.555 49.1829 15.8392 49.0707 15.4443 49.4605C15.2772 49.5827 15.2955 49.8065 15.3133 49.9903C15.361 50.2302 15.6165 50.3319 15.8048 50.4446C16.2901 50.7001 16.8732 50.8472 17.2142 51.3104C17.5946 51.8274 17.5319 52.5971 17.117 53.0758C16.6833 53.6006 15.8903 53.7284 15.2838 53.4535C14.8185 53.2235 14.5308 52.7376 14.4375 52.2395C14.6458 52.19 14.8551 52.1445 15.0639 52.0979C15.085 52.5521 15.4377 53.0114 15.9175 53.0197C16.565 53.0903 17.0798 52.2484 16.7027 51.7113C16.3001 51.1632 15.5238 51.1554 15.0606 50.6817C14.5152 50.2358 14.5702 49.2745 15.1633 48.8946Z" fill="black"/>
<path d="M37.27 48.6348C38.1363 48.5265 39.0316 48.9263 39.5636 49.6116C40.3305 50.5713 40.2078 52.1023 39.2976 52.9276C38.7778 53.4413 38.0136 53.6529 37.2961 53.5768C36.5869 53.5301 35.9233 53.1325 35.514 52.5572C35.0731 51.9435 34.9587 51.1233 35.1675 50.4019C35.4401 49.4672 36.3098 48.757 37.27 48.6348ZM37.1639 49.2573C36.2087 49.42 35.5257 50.4374 35.6934 51.3837C35.7995 52.2939 36.663 53.0348 37.5766 53.0175C38.1997 53.0281 38.7939 52.6749 39.1299 52.1584C39.6402 51.4187 39.5058 50.3258 38.8483 49.7171C38.4179 49.2812 37.7532 49.134 37.1639 49.2573Z" fill="black"/>
<path d="M1.38208 48.7147C1.57923 48.7136 1.77637 48.7136 1.97352 48.7147C1.97408 50.1247 1.97297 51.5353 1.97408 52.9453C2.46389 52.9464 2.95315 52.9453 3.44296 52.9459C3.44407 53.1269 3.44407 53.308 3.44352 53.4896C2.756 53.4901 2.06904 53.4907 1.38208 53.4896C1.38264 51.8979 1.38264 50.3063 1.38208 48.7147Z" fill="black"/>
<path d="M8.93196 48.719C9.14077 48.7173 9.34958 48.7179 9.55895 48.7184C9.56061 49.6581 9.55617 50.5983 9.56117 51.5379C9.57061 51.9511 9.6217 52.4053 9.91381 52.7236C10.3786 53.1795 11.2916 53.1145 11.6159 52.5236C11.7798 52.246 11.8275 51.9172 11.8231 51.5995C11.8192 50.6393 11.8192 49.6792 11.8198 48.7184C12.0286 48.7173 12.2374 48.7179 12.4462 48.7184C12.4462 49.6986 12.4484 50.6788 12.4456 51.659C12.4467 52.1038 12.3695 52.5742 12.0852 52.9318C11.4738 53.7787 10.0565 53.827 9.38679 53.0268C9.06858 52.6936 8.93751 52.2237 8.93307 51.7717C8.93029 50.7543 8.93252 49.7364 8.93196 48.719Z" fill="black"/>
<path d="M13.2176 48.7154C13.4231 48.7132 13.6291 48.7137 13.8351 48.7148C13.8351 50.3065 13.8357 51.8981 13.8346 53.4902C13.6291 53.4902 13.4231 53.4908 13.217 53.4891C13.2182 51.8981 13.2182 50.3065 13.2176 48.7154Z" fill="black"/>
<path d="M19.4014 48.7193C19.6274 48.7132 19.8545 48.7132 20.0811 48.7143C20.5554 49.875 21.0224 51.0384 21.4884 52.2024C21.9532 51.0423 22.4313 49.8877 22.8856 48.7237C23.1183 48.7043 23.3515 48.7176 23.5848 48.7143C22.8912 50.4031 22.1947 52.0908 21.495 53.7768C20.7831 52.0969 20.0967 50.4059 19.4014 48.7193Z" fill="black"/>
<path d="M23.8673 48.7139C24.0728 48.7166 24.2783 48.7189 24.4843 48.7183C24.4915 49.6435 24.4832 50.5693 24.491 51.4945C24.5054 51.9338 24.5393 52.4319 24.8747 52.7573C25.2618 53.0889 25.8782 53.1094 26.2914 52.8145C26.5319 52.6435 26.6641 52.3591 26.7163 52.0759C26.7985 51.5883 26.769 51.0924 26.7746 50.6004C26.7779 49.9734 26.7785 49.3464 26.7773 48.7194C26.9751 48.7172 27.1733 48.7178 27.3716 48.7183C27.3805 49.588 27.3732 50.4571 27.3755 51.3268C27.3893 51.866 27.3721 52.4513 27.0439 52.9067C26.4691 53.7358 25.1463 53.8253 24.4188 53.1516C24.055 52.8151 23.8723 52.3186 23.8696 51.8288C23.864 50.7903 23.8684 49.7524 23.8673 48.7139Z" fill="black"/>
<path d="M28.1468 48.7187C28.3612 48.7193 28.5756 48.7171 28.7905 48.7148C28.7905 50.3065 28.7899 51.8981 28.7905 53.4903C28.5744 53.4908 28.359 53.4908 28.1435 53.4903C28.1413 51.8997 28.1485 50.3092 28.1468 48.7187Z" fill="black"/>
<path d="M29.176 48.7186C31.1013 48.7203 33.0262 48.7153 34.9515 48.7159C34.951 48.9063 34.951 49.0968 34.9515 49.2879C34.5822 49.2895 34.2135 49.2879 33.8447 49.2884C33.8431 50.689 33.8442 52.0896 33.8442 53.4902C33.6293 53.4907 33.4149 53.4907 33.2 53.4902C33.1989 52.0896 33.2039 50.689 33.1978 49.2884C32.4419 49.2895 31.6861 49.2879 30.9303 49.289C30.9292 50.6896 30.9303 52.0896 30.9297 53.4902C30.7326 53.4907 30.5354 53.4907 30.3388 53.4902C30.3383 52.0896 30.3394 50.6896 30.3383 49.289C29.9507 49.2879 29.5636 49.2895 29.176 49.2879C29.1754 49.0979 29.1754 48.908 29.176 48.7186Z" fill="black"/>
</svg>
