<svg width="93" height="113" viewBox="0 0 93 113" fill="none" xmlns="http://www.w3.org/2000/svg">
<path d="M68.4863 0.508102C76.4313 0.508102 84.3776 0.506943 92.3227 0.509261C92.3273 2.29853 92.3134 4.08895 92.3308 5.87938C90.3121 5.96745 88.2481 6.19343 86.3893 7.03823C84.5039 7.88535 82.9232 9.42662 82.1097 11.3352C72.4484 34.0464 62.794 56.7599 53.1431 79.4757C52.9762 79.8488 52.8418 80.2347 52.6471 80.5951C49.1914 80.5546 45.7345 80.5893 42.2788 80.5766C40.7538 77.5462 39.2531 74.5031 37.7153 71.4796C35.9527 76.2031 34.1796 80.9219 32.417 85.6442C43.8166 85.6454 55.2162 85.6442 66.6159 85.6454C68.703 85.6732 70.8526 85.5863 72.8053 84.7705C76.0501 83.4668 78.6332 80.9474 80.7353 78.216C83.2732 74.9063 85.1992 71.1806 86.9155 67.3947C88.8403 67.3784 90.764 67.4005 92.6877 67.397C89.0396 75.1891 85.373 82.9743 81.6925 90.7513C55.4237 90.7525 29.156 90.7513 2.88716 90.7513C3.52685 89.0814 4.13524 87.3976 4.82128 85.7451C4.863 85.5747 5.07507 85.6176 5.20371 85.6014C8.48325 85.577 11.7848 85.4496 15.003 84.767C16.6775 84.3741 18.41 83.8503 19.6986 82.6544C20.38 82.0043 20.5921 81.0552 20.8181 80.1791C23.9203 71.8771 27.0272 63.5762 30.1318 55.2754C23.5703 41.295 16.9869 27.3228 10.422 13.3435C9.89358 12.1209 9.19595 10.9099 8.09852 10.1138C5.82717 8.41262 2.87557 8.19708 0.140685 8.08815C0.138368 6.08449 0.140685 4.082 0.139526 2.07835C9.36282 2.07487 18.585 2.07603 27.8083 2.07719C27.8094 4.08084 27.8106 6.08449 27.8071 8.08815C26.6054 8.16463 25.3295 8.14493 24.2413 8.73942C23.7013 8.99437 23.3838 9.63637 23.5228 10.2204C23.6932 11.1765 24.4487 11.859 24.8312 12.7224C28.7261 21.1113 32.621 29.5014 36.5275 37.8868C38.4848 32.4136 40.4421 26.9415 42.4075 21.4717C42.696 20.7115 42.798 19.8331 42.4689 19.0683C42.2105 18.4645 41.6241 18.0913 41.0458 17.8399C39.9217 17.3763 38.6864 17.381 37.4951 17.2952C38.1035 15.6045 38.7154 13.9137 39.3458 12.2322C39.4918 12.1383 39.6946 12.2102 39.8626 12.187C49.2203 12.1928 58.5792 12.187 67.9381 12.1905C67.2915 13.8894 66.6483 15.5882 66.0086 17.2894C63.7547 17.3937 61.4312 17.4505 59.3174 18.3312C58.3486 18.7368 57.432 19.3568 56.8595 20.2538C56.462 20.9108 56.2152 21.6444 55.9486 22.3606C52.0387 33.0243 48.0928 43.6741 44.2269 54.3541C46.3684 59.1946 48.6004 63.9934 50.7848 68.8143C58.7171 50.0826 66.6472 31.3486 74.5888 12.6204C75.1242 11.494 75.9956 10.4661 76.064 9.17051C76.13 8.15652 75.3779 7.28159 74.5065 6.86556C72.628 5.99874 70.5166 5.95586 68.4863 5.88285C68.4839 4.09127 68.4839 2.29969 68.4863 0.508102Z" fill="black"/>
<path d="M82.9105 101.367C85.4148 103.961 87.8994 106.572 90.3793 109.187C90.3758 106.756 90.3897 104.323 90.3874 101.892C90.8162 101.893 91.245 101.889 91.6749 101.883C91.6761 105.354 91.6761 108.826 91.6749 112.296C89.1683 109.716 86.6988 107.1 84.205 104.507C84.2084 106.953 84.1992 109.4 84.198 111.848C83.7681 111.851 83.3393 111.85 82.9105 111.85C82.9094 108.355 82.9082 104.861 82.9105 101.367Z" fill="black"/>
<path d="M10.0082 101.724C12.7675 101.3 15.6866 103.46 15.9323 106.274C16.1641 107.884 15.5394 109.562 14.3609 110.671C12.4233 112.566 8.93861 112.532 7.0578 110.569C6.04149 109.584 5.46206 108.164 5.52348 106.747C5.55129 104.281 7.58971 102.078 10.0082 101.724ZM10.0094 102.999C8.40323 103.261 7.09604 104.671 6.87122 106.269C6.56529 108.085 7.6859 110.039 9.43924 110.632C10.9736 111.212 12.8405 110.666 13.8255 109.356C15.0991 107.758 14.8835 105.18 13.3168 103.853C12.436 103.052 11.1624 102.788 10.0094 102.999Z" fill="black"/>
<path d="M29.9336 102.261C31.3474 101.199 33.657 101.638 34.4728 103.242C34.1321 103.435 33.7914 103.628 33.4507 103.82C32.8376 102.862 31.3439 102.628 30.5199 103.441C30.1711 103.696 30.2094 104.163 30.2465 104.547C30.3461 105.048 30.8792 105.26 31.272 105.495C32.2849 106.028 33.5017 106.335 34.2132 107.302C35.007 108.38 34.8761 109.987 34.0104 110.986C33.1053 112.081 31.4505 112.347 30.185 111.774C29.2139 111.294 28.6136 110.28 28.4189 109.24C28.8535 109.137 29.2904 109.042 29.7261 108.945C29.7702 109.893 30.506 110.851 31.5073 110.869C32.8585 111.016 33.9328 109.259 33.1459 108.138C32.3057 106.995 30.6857 106.978 29.7192 105.99C28.5812 105.059 28.6959 103.053 29.9336 102.261Z" fill="black"/>
<path d="M76.064 101.717C77.8718 101.491 79.7399 102.326 80.8501 103.756C82.4504 105.758 82.1943 108.953 80.295 110.675C79.2103 111.747 77.6157 112.189 76.1185 112.03C74.6386 111.933 73.2538 111.103 72.3997 109.902C71.4796 108.622 71.2409 106.91 71.6766 105.405C72.2456 103.454 74.0604 101.972 76.064 101.717ZM75.8427 103.016C73.8494 103.356 72.4241 105.479 72.774 107.454C72.9954 109.353 74.7974 110.899 76.7037 110.863C78.0039 110.885 79.2439 110.148 79.945 109.07C81.01 107.527 80.7295 105.246 79.3575 103.976C78.4593 103.066 77.0722 102.759 75.8427 103.016Z" fill="black"/>
<path d="M1.17554 101.886C1.58693 101.883 1.99832 101.883 2.40971 101.886C2.41087 104.828 2.40855 107.771 2.41087 110.714C3.43298 110.716 4.45393 110.714 5.47603 110.715C5.47835 111.093 5.47835 111.47 5.47719 111.849C4.04253 111.85 2.60904 111.852 1.17554 111.849C1.1767 108.528 1.1767 105.207 1.17554 101.886Z" fill="black"/>
<path d="M16.9301 101.893C17.3658 101.89 17.8016 101.891 18.2385 101.892C18.2419 103.853 18.2327 105.815 18.2431 107.775C18.2628 108.638 18.3694 109.586 18.979 110.25C19.9489 111.201 21.8541 111.065 22.5308 109.832C22.8727 109.253 22.9724 108.567 22.9631 107.904C22.955 105.9 22.955 103.897 22.9561 101.892C23.3919 101.89 23.8276 101.891 24.2633 101.892C24.2633 103.937 24.268 105.983 24.2622 108.028C24.2645 108.956 24.1034 109.938 23.5101 110.684C22.2342 112.451 19.2768 112.552 17.8792 110.882C17.2152 110.187 16.9417 109.207 16.9324 108.263C16.9266 106.14 16.9313 104.016 16.9301 101.893Z" fill="black"/>
<path d="M25.873 101.887C26.3018 101.882 26.7317 101.883 27.1616 101.886C27.1616 105.207 27.1628 108.528 27.1605 111.851C26.7317 111.851 26.3018 111.852 25.8718 111.848C25.8741 108.528 25.8741 105.207 25.873 101.887Z" fill="black"/>
<path d="M38.7769 101.895C39.2485 101.882 39.7225 101.882 40.1953 101.885C41.1849 104.307 42.1595 106.735 43.1318 109.163C44.1018 106.743 45.0995 104.333 46.0475 101.904C46.533 101.864 47.0198 101.892 47.5065 101.885C46.0591 105.409 44.6059 108.931 43.1457 112.449C41.6601 108.943 40.2277 105.415 38.7769 101.895Z" fill="black"/>
<path d="M48.0963 101.884C48.5251 101.89 48.9539 101.894 49.3838 101.893C49.3989 103.824 49.3815 105.756 49.3977 107.686C49.4278 108.603 49.4985 109.642 50.1985 110.321C51.0062 111.013 52.2925 111.056 53.1547 110.441C53.6565 110.084 53.9323 109.49 54.0412 108.899C54.2127 107.882 54.1513 106.847 54.1629 105.82C54.1699 104.512 54.171 103.204 54.1687 101.895C54.5812 101.891 54.995 101.892 55.4087 101.893C55.4272 103.708 55.4121 105.521 55.4168 107.336C55.4457 108.461 55.4098 109.683 54.7249 110.633C53.5255 112.363 50.7651 112.55 49.247 111.144C48.488 110.442 48.1067 109.406 48.1009 108.384C48.0894 106.217 48.0986 104.051 48.0963 101.884Z" fill="black"/>
<path d="M57.0264 101.893C57.4737 101.894 57.921 101.889 58.3695 101.885C58.3695 105.206 58.3683 108.527 58.3695 111.85C57.9187 111.851 57.4691 111.851 57.0194 111.85C57.0148 108.531 57.0299 105.212 57.0264 101.893Z" fill="black"/>
<path d="M59.1737 101.893C63.1915 101.896 67.208 101.886 71.2258 101.887C71.2246 102.284 71.2246 102.682 71.2258 103.08C70.4551 103.084 69.6857 103.08 68.9162 103.082C68.9127 106.004 68.915 108.927 68.915 111.849C68.4665 111.851 68.0192 111.851 67.5707 111.849C67.5684 108.927 67.5789 106.004 67.5661 103.082C65.9889 103.084 64.4117 103.08 62.8345 103.083C62.8322 106.005 62.8345 108.927 62.8334 111.849C62.422 111.851 62.0106 111.851 61.6004 111.849C61.5992 108.927 61.6015 106.005 61.5992 103.083C60.7903 103.08 59.9826 103.084 59.1737 103.08C59.1726 102.684 59.1726 102.288 59.1737 101.893Z" fill="black"/>
</svg>
