<svg width="59" height="48" viewBox="0 0 59 48" fill="none" xmlns="http://www.w3.org/2000/svg">
<g filter="url(#filter0_d)">
<path d="M11.2322 1.5L4.20091 5.71875V13.5312L11.2322 9.20833V39H18.4717V1.5H11.2322ZM40.8896 39.7292C36.9313 39.7292 32.8167 38.3229 30.1604 35.1979C27.5042 31.8646 26.9833 29.1042 26.9833 24.8333V15.6146C26.9833 11.4479 27.4 8.6875 30.1604 5.25C32.6083 2.33333 36.6708 0.614582 40.8896 0.718747C44.8479 0.614582 48.9104 2.07291 51.6188 5.25C54.3271 8.42708 54.7958 11.3437 54.7958 15.6146V24.8333C54.7958 28.8958 54.3271 31.9688 51.6188 35.1979C48.9625 38.2708 45.1083 39.7292 40.8896 39.7292ZM40.8896 7.38542C38.5458 7.33333 36.2542 8.73958 35.1083 10.7708C34.275 12.1771 34.2229 13.6354 34.2229 15.6146V24.8333C34.2229 26.6042 34.1708 28.375 35.2646 29.9896C36.5146 31.8646 38.65 33.1146 40.8896 33.0625C43.1813 33.1146 45.3688 31.8646 46.5667 29.9375C47.6083 28.4271 47.5563 27.0729 47.5563 24.8333V15.6146C47.5563 13.7396 47.6604 12.5937 46.775 10.8229C45.6292 8.73958 43.2854 7.33333 40.8896 7.38542Z" fill="url(#paint0_linear)"/>
</g>
<defs>
<filter id="filter0_d" x="0.201172" y="0.713867" width="58.5949" height="47.0156" filterUnits="userSpaceOnUse" color-interpolation-filters="sRGB">
<feFlood flood-opacity="0" result="BackgroundImageFix"/>
<feColorMatrix in="SourceAlpha" type="matrix" values="0 0 0 0 0 0 0 0 0 0 0 0 0 0 0 0 0 0 127 0"/>
<feOffset dy="4"/>
<feGaussianBlur stdDeviation="2"/>
<feColorMatrix type="matrix" values="0 0 0 0 0 0 0 0 0 0 0 0 0 0 0 0 0 0 0.25 0"/>
<feBlend mode="normal" in2="BackgroundImageFix" result="effect1_dropShadow"/>
<feBlend mode="normal" in="SourceGraphic" in2="effect1_dropShadow" result="shape"/>
</filter>
<linearGradient id="paint0_linear" x1="-3.34408" y1="-49.7838" x2="9.98206" y2="35.2403" gradientUnits="userSpaceOnUse">
<stop stop-color="#FB09C6"/>
<stop offset="1" stop-color="#35168A"/>
</linearGradient>
</defs>
</svg>
