<svg width="104" height="48" viewBox="0 0 104 48" fill="none" xmlns="http://www.w3.org/2000/svg">
<g filter="url(#filter0_d)">
<path d="M11.6939 1.5L4.66263 5.71875V13.5312L11.6939 9.20833V39H18.9335V1.5H11.6939ZM41.3513 39.7292C37.393 39.7292 33.2784 38.3229 30.6221 35.1979C27.9659 31.8646 27.4451 29.1042 27.4451 24.8333V15.6146C27.4451 11.4479 27.8617 8.6875 30.6221 5.25C33.0701 2.33333 37.1326 0.614582 41.3513 0.718747C45.3096 0.614582 49.3721 2.07291 52.0805 5.25C54.7888 8.42708 55.2576 11.3437 55.2576 15.6146V24.8333C55.2576 28.8958 54.7888 31.9688 52.0805 35.1979C49.4242 38.2708 45.5701 39.7292 41.3513 39.7292ZM41.3513 7.38542C39.0076 7.33333 36.7159 8.73958 35.5701 10.7708C34.7367 12.1771 34.6846 13.6354 34.6846 15.6146V24.8333C34.6846 26.6042 34.6326 28.375 35.7263 29.9896C36.9763 31.8646 39.1117 33.1146 41.3513 33.0625C43.643 33.1146 45.8305 31.8646 47.0284 29.9375C48.0701 28.4271 48.018 27.0729 48.018 24.8333V15.6146C48.018 13.7396 48.1221 12.5937 47.2367 10.8229C46.0909 8.73958 43.7471 7.33333 41.3513 7.38542ZM59.7229 31.9167V39H66.8062V31.9167H59.7229ZM76.8608 1.5L75.715 20.7708L81.8087 24.2604C82.0171 23.8437 82.3296 23.4271 82.6941 23.0625C83.7879 21.9687 85.2983 21.3437 86.8087 21.3437C88.3712 21.3437 89.8816 21.9687 90.9754 23.0625C92.0691 24.1562 92.6941 25.6667 92.6941 27.1771C92.6941 28.7396 92.0691 30.25 90.9754 31.3437C89.8816 32.3854 88.3712 33.0104 86.8087 33.0104C85.2983 33.0104 83.7879 32.3854 82.6941 31.2917C81.965 30.6146 81.4441 29.6771 81.1837 28.6875L74.3608 30.5104C74.9858 32.6979 76.1837 34.6771 77.7983 36.1875C80.1941 38.4792 83.5796 39.7812 86.8087 39.6771C90.09 39.7812 93.4233 38.5312 95.8712 36.2396C98.2671 33.9479 99.7775 30.5625 99.8296 27.1771C99.9858 23.7396 98.7879 20.4583 96.0275 17.9583C93.7358 16.0312 90.715 14.9896 87.8504 14.9896C86.2358 14.9896 84.3087 15.4062 82.6421 16.2917L83.1108 8.11458H96.5483V1.5H76.8608Z" fill="url(#paint0_linear)"/>
</g>
<defs>
<filter id="filter0_d" x="0.663086" y="0.713867" width="103.18" height="47.0156" filterUnits="userSpaceOnUse" color-interpolation-filters="sRGB">
<feFlood flood-opacity="0" result="BackgroundImageFix"/>
<feColorMatrix in="SourceAlpha" type="matrix" values="0 0 0 0 0 0 0 0 0 0 0 0 0 0 0 0 0 0 127 0"/>
<feOffset dy="4"/>
<feGaussianBlur stdDeviation="2"/>
<feColorMatrix type="matrix" values="0 0 0 0 0 0 0 0 0 0 0 0 0 0 0 0 0 0 0.25 0"/>
<feBlend mode="normal" in2="BackgroundImageFix" result="effect1_dropShadow"/>
<feBlend mode="normal" in="SourceGraphic" in2="effect1_dropShadow" result="shape"/>
</filter>
<linearGradient id="paint0_linear" x1="19.6559" y1="-49.7838" x2="32.9821" y2="35.2403" gradientUnits="userSpaceOnUse">
<stop stop-color="#FB09C6"/>
<stop offset="1" stop-color="#35168A"/>
</linearGradient>
</defs>
</svg>
