<svg width="59" height="47" viewBox="0 0 59 47" fill="none" xmlns="http://www.w3.org/2000/svg">
<g filter="url(#filter0_d)">
<path d="M11.4763 1.5L4.44505 5.71875V13.5312L11.4763 9.20833V39H18.7159V1.5H11.4763ZM27.9046 13.2708H35.1962C35.1441 11.6562 35.8733 10.0417 37.0191 8.94792C38.0608 7.95833 39.4671 7.38542 40.9254 7.38542C42.8004 7.38542 44.415 8.11458 45.5608 9.52083C46.4462 10.6146 46.8629 11.9687 46.8629 13.3229C46.8629 14.9375 46.0296 16.8125 43.6337 18.8437L27.7483 32.2812V38.9479H53.3733V32.2812H38.9983L47.2796 25.1458C51.7066 21.2917 54.1546 18.7396 54.1546 13.4271C54.1546 10.4062 53.165 7.33333 51.1858 5.04167C48.8421 2.02083 45.1962 0.718747 41.3421 0.718747C38.165 0.718747 34.6754 1.44791 32.1233 3.6875C29.4671 6.03125 27.7483 9.625 27.9046 13.2708Z" fill="url(#paint0_linear)"/>
</g>
<defs>
<filter id="filter0_d" x="0.445312" y="0.71875" width="57.7095" height="46.2813" filterUnits="userSpaceOnUse" color-interpolation-filters="sRGB">
<feFlood flood-opacity="0" result="BackgroundImageFix"/>
<feColorMatrix in="SourceAlpha" type="matrix" values="0 0 0 0 0 0 0 0 0 0 0 0 0 0 0 0 0 0 127 0"/>
<feOffset dy="4"/>
<feGaussianBlur stdDeviation="2"/>
<feColorMatrix type="matrix" values="0 0 0 0 0 0 0 0 0 0 0 0 0 0 0 0 0 0 0.25 0"/>
<feBlend mode="normal" in2="BackgroundImageFix" result="effect1_dropShadow"/>
<feBlend mode="normal" in="SourceGraphic" in2="effect1_dropShadow" result="shape"/>
</filter>
<linearGradient id="paint0_linear" x1="-3.34408" y1="-49.7838" x2="9.98206" y2="35.2403" gradientUnits="userSpaceOnUse">
<stop stop-color="#FB09C6"/>
<stop offset="1" stop-color="#35168A"/>
</linearGradient>
</defs>
</svg>
