<svg width="106" height="48" viewBox="0 0 106 48" fill="none" xmlns="http://www.w3.org/2000/svg">
<g filter="url(#filter0_d)">
<path d="M11.6441 1.5L4.61282 5.71875V13.5312L11.6441 9.20833V39H18.8837V1.5H11.6441ZM28.0723 13.2708H35.364C35.3119 11.6562 36.0411 10.0417 37.1869 8.94792C38.2286 7.95833 39.6348 7.38542 41.0932 7.38542C42.9682 7.38542 44.5827 8.11458 45.7286 9.52083C46.614 10.6146 47.0307 11.9687 47.0307 13.3229C47.0307 14.9375 46.1973 16.8125 43.8015 18.8437L27.9161 32.2812V38.9479H53.5411V32.2812H39.1661L47.4473 25.1458C51.8744 21.2917 54.3223 18.7396 54.3223 13.4271C54.3223 10.4062 53.3327 7.33333 51.3536 5.04167C49.0098 2.02083 45.364 0.718747 41.5098 0.718747C38.3327 0.718747 34.8432 1.44791 32.2911 3.6875C29.6348 6.03125 27.9161 9.625 28.0723 13.2708ZM61.7727 31.9167V39H68.8561V31.9167H61.7727ZM78.9106 1.5L77.7648 20.7708L83.8585 24.2604C84.0669 23.8437 84.3794 23.4271 84.7439 23.0625C85.8377 21.9687 87.3481 21.3437 88.8585 21.3437C90.421 21.3437 91.9314 21.9687 93.0252 23.0625C94.1189 24.1562 94.7439 25.6667 94.7439 27.1771C94.7439 28.7396 94.1189 30.25 93.0252 31.3437C91.9314 32.3854 90.421 33.0104 88.8585 33.0104C87.3481 33.0104 85.8377 32.3854 84.7439 31.2917C84.0148 30.6146 83.4939 29.6771 83.2335 28.6875L76.4106 30.5104C77.0356 32.6979 78.2335 34.6771 79.8481 36.1875C82.2439 38.4792 85.6294 39.7812 88.8585 39.6771C92.1398 39.7812 95.4731 38.5312 97.921 36.2396C100.317 33.9479 101.827 30.5625 101.879 27.1771C102.036 23.7396 100.838 20.4583 98.0773 17.9583C95.7856 16.0312 92.7648 14.9896 89.9002 14.9896C88.2856 14.9896 86.3585 15.4062 84.6919 16.2917L85.1606 8.11458H98.5981V1.5H78.9106Z" fill="url(#paint0_linear)"/>
</g>
<defs>
<filter id="filter0_d" x="0.613281" y="0.71875" width="105.28" height="46.9644" filterUnits="userSpaceOnUse" color-interpolation-filters="sRGB">
<feFlood flood-opacity="0" result="BackgroundImageFix"/>
<feColorMatrix in="SourceAlpha" type="matrix" values="0 0 0 0 0 0 0 0 0 0 0 0 0 0 0 0 0 0 127 0"/>
<feOffset dy="4"/>
<feGaussianBlur stdDeviation="2"/>
<feColorMatrix type="matrix" values="0 0 0 0 0 0 0 0 0 0 0 0 0 0 0 0 0 0 0.25 0"/>
<feBlend mode="normal" in2="BackgroundImageFix" result="effect1_dropShadow"/>
<feBlend mode="normal" in="SourceGraphic" in2="effect1_dropShadow" result="shape"/>
</filter>
<linearGradient id="paint0_linear" x1="20.6559" y1="-49.7838" x2="33.9821" y2="35.2403" gradientUnits="userSpaceOnUse">
<stop stop-color="#FB09C6"/>
<stop offset="1" stop-color="#35168A"/>
</linearGradient>
</defs>
</svg>
