<svg width="106" height="47" viewBox="0 0 106 47" fill="none" xmlns="http://www.w3.org/2000/svg">
<g filter="url(#filter0_d)">
<path d="M11.7417 0.499997L4.71048 4.71875V12.5312L11.7417 8.20833V38H18.9813V0.499997H11.7417ZM52.0242 18.8333C50.5137 16.8542 48.4825 15.2917 45.8262 14.5104L53.4304 7.42708V0.499997H29.9929V7.16667H44.0033L34.9408 15.5521L38.1179 21.125C39.0033 20.6042 39.9929 20.2917 41.0346 20.2917C42.5971 20.2917 44.0554 20.7604 45.2012 21.9062C46.3471 23.0521 46.92 24.6146 46.92 26.1771C46.92 27.6875 46.295 29.1979 45.2012 30.2917C44.1075 31.3854 42.5971 32.0104 41.0346 32.0104C39.4721 32.0104 37.9617 31.3854 36.8679 30.2917C36.1387 29.5625 35.67 28.6771 35.4096 27.6875L28.5346 29.5104C29.1596 31.6979 30.3575 33.6771 31.9721 35.1875C34.42 37.4792 37.7533 38.7812 41.0346 38.6771C44.3158 38.7812 47.6492 37.5312 50.0971 35.2396C52.545 32.9479 54.0033 29.5625 54.1075 26.1771C54.2117 23.5729 53.4304 21.0208 52.0242 18.8333ZM61.6751 30.9167V38H68.7584V30.9167H61.6751ZM78.813 0.499997L77.6671 19.7708L83.7609 23.2604C83.9692 22.8437 84.2817 22.4271 84.6463 22.0625C85.74 20.9687 87.2505 20.3437 88.7609 20.3437C90.3234 20.3437 91.8338 20.9687 92.9275 22.0625C94.0213 23.1562 94.6463 24.6667 94.6463 26.1771C94.6463 27.7396 94.0213 29.25 92.9275 30.3437C91.8338 31.3854 90.3234 32.0104 88.7609 32.0104C87.2505 32.0104 85.74 31.3854 84.6463 30.2917C83.9171 29.6146 83.3963 28.6771 83.1359 27.6875L76.313 29.5104C76.938 31.6979 78.1359 33.6771 79.7505 35.1875C82.1463 37.4792 85.5317 38.7812 88.7609 38.6771C92.0421 38.7812 95.3755 37.5312 97.8234 35.2396C100.219 32.9479 101.73 29.5625 101.782 26.1771C101.938 22.7396 100.74 19.4583 97.9796 16.9583C95.688 15.0312 92.6671 13.9896 89.8025 13.9896C88.188 13.9896 86.2609 14.4062 84.5942 15.2917L85.063 7.11458H98.5005V0.499997H78.813Z" fill="url(#paint0_linear)"/>
</g>
<defs>
<filter id="filter0_d" x="0.710938" y="0.5" width="105.085" height="46.1831" filterUnits="userSpaceOnUse" color-interpolation-filters="sRGB">
<feFlood flood-opacity="0" result="BackgroundImageFix"/>
<feColorMatrix in="SourceAlpha" type="matrix" values="0 0 0 0 0 0 0 0 0 0 0 0 0 0 0 0 0 0 127 0"/>
<feOffset dy="4"/>
<feGaussianBlur stdDeviation="2"/>
<feColorMatrix type="matrix" values="0 0 0 0 0 0 0 0 0 0 0 0 0 0 0 0 0 0 0.25 0"/>
<feBlend mode="normal" in2="BackgroundImageFix" result="effect1_dropShadow"/>
<feBlend mode="normal" in="SourceGraphic" in2="effect1_dropShadow" result="shape"/>
</filter>
<linearGradient id="paint0_linear" x1="20.6559" y1="-50.7838" x2="33.9821" y2="34.2403" gradientUnits="userSpaceOnUse">
<stop stop-color="#FB09C6"/>
<stop offset="1" stop-color="#35168A"/>
</linearGradient>
</defs>
</svg>
