<svg width="106" height="47" viewBox="0 0 106 47" fill="none" xmlns="http://www.w3.org/2000/svg">
<g filter="url(#filter0_d)">
<path d="M11.7661 0.499997L4.7349 4.71875V12.5312L11.7661 8.20833V38H19.0057V0.499997H11.7661ZM51.2673 25.5521V16.1771H44.0798V25.5521H35.3819L47.2048 0.499997H39.8611L28.0381 25.5521V32.1667H44.0798V38H51.2673V32.1667H54.6007V25.5521H51.2673ZM61.6506 30.9167V38H68.734V30.9167H61.6506ZM78.7885 0.499997L77.6427 19.7708L83.7365 23.2604C83.9448 22.8437 84.2573 22.4271 84.6219 22.0625C85.7156 20.9687 87.226 20.3437 88.7365 20.3437C90.299 20.3437 91.8094 20.9687 92.9031 22.0625C93.9969 23.1562 94.6219 24.6667 94.6219 26.1771C94.6219 27.7396 93.9969 29.25 92.9031 30.3437C91.8094 31.3854 90.299 32.0104 88.7365 32.0104C87.226 32.0104 85.7156 31.3854 84.6219 30.2917C83.8927 29.6146 83.3719 28.6771 83.1115 27.6875L76.2885 29.5104C76.9135 31.6979 78.1115 33.6771 79.726 35.1875C82.1219 37.4792 85.5073 38.7812 88.7365 38.6771C92.0177 38.7812 95.351 37.5312 97.799 35.2396C100.195 32.9479 101.705 29.5625 101.757 26.1771C101.914 22.7396 100.716 19.4583 97.9552 16.9583C95.6635 15.0312 92.6427 13.9896 89.7781 13.9896C88.1635 13.9896 86.2365 14.4062 84.5698 15.2917L85.0385 7.11458H98.476V0.499997H78.7885Z" fill="url(#paint0_linear)"/>
</g>
<defs>
<filter id="filter0_d" x="0.735352" y="0.5" width="105.036" height="46.1831" filterUnits="userSpaceOnUse" color-interpolation-filters="sRGB">
<feFlood flood-opacity="0" result="BackgroundImageFix"/>
<feColorMatrix in="SourceAlpha" type="matrix" values="0 0 0 0 0 0 0 0 0 0 0 0 0 0 0 0 0 0 127 0"/>
<feOffset dy="4"/>
<feGaussianBlur stdDeviation="2"/>
<feColorMatrix type="matrix" values="0 0 0 0 0 0 0 0 0 0 0 0 0 0 0 0 0 0 0.25 0"/>
<feBlend mode="normal" in2="BackgroundImageFix" result="effect1_dropShadow"/>
<feBlend mode="normal" in="SourceGraphic" in2="effect1_dropShadow" result="shape"/>
</filter>
<linearGradient id="paint0_linear" x1="20.6559" y1="-50.7838" x2="33.9821" y2="34.2403" gradientUnits="userSpaceOnUse">
<stop stop-color="#FB09C6"/>
<stop offset="1" stop-color="#35168A"/>
</linearGradient>
</defs>
</svg>
