<svg width="82" height="47" viewBox="0 0 82 47" fill="none" xmlns="http://www.w3.org/2000/svg">
<g filter="url(#filter0_d)">
<path d="M27.6329 18.8333C26.1225 16.8542 24.0913 15.2917 21.435 14.5104L29.0392 7.42708V0.499997H5.60169V7.16667H19.6121L10.5496 15.5521L13.7267 21.125C14.6121 20.6042 15.6017 20.2917 16.6434 20.2917C18.2059 20.2917 19.6642 20.7604 20.81 21.9062C21.9559 23.0521 22.5288 24.6146 22.5288 26.1771C22.5288 27.6875 21.9038 29.1979 20.81 30.2917C19.7163 31.3854 18.2059 32.0104 16.6434 32.0104C15.0809 32.0104 13.5704 31.3854 12.4767 30.2917C11.7475 29.5625 11.2788 28.6771 11.0184 27.6875L4.14336 29.5104C4.76836 31.6979 5.96628 33.6771 7.58086 35.1875C10.0288 37.4792 13.3621 38.7812 16.6434 38.6771C19.9246 38.7812 23.2579 37.5312 25.7059 35.2396C28.1538 32.9479 29.6121 29.5625 29.7163 26.1771C29.8204 23.5729 29.0392 21.0208 27.6329 18.8333ZM37.2839 30.9167V38H44.3672V30.9167H37.2839ZM54.4217 0.499997L53.2759 19.7708L59.3697 23.2604C59.578 22.8437 59.8905 22.4271 60.2551 22.0625C61.3488 20.9687 62.8592 20.3437 64.3697 20.3437C65.9322 20.3437 67.4426 20.9687 68.5363 22.0625C69.6301 23.1562 70.2551 24.6667 70.2551 26.1771C70.2551 27.7396 69.6301 29.25 68.5363 30.3437C67.4426 31.3854 65.9322 32.0104 64.3697 32.0104C62.8592 32.0104 61.3488 31.3854 60.2551 30.2917C59.5259 29.6146 59.0051 28.6771 58.7447 27.6875L51.9217 29.5104C52.5467 31.6979 53.7447 33.6771 55.3592 35.1875C57.7551 37.4792 61.1405 38.7812 64.3697 38.6771C67.6509 38.7812 70.9842 37.5312 73.4322 35.2396C75.828 32.9479 77.3384 29.5625 77.3905 26.1771C77.5467 22.7396 76.3488 19.4583 73.5884 16.9583C71.2967 15.0312 68.2759 13.9896 65.4113 13.9896C63.7967 13.9896 61.8697 14.4062 60.203 15.2917L60.6717 7.11458H74.1092V0.499997H54.4217Z" fill="url(#paint0_linear)"/>
</g>
<defs>
<filter id="filter0_d" x="0.142578" y="0.5" width="81.2606" height="46.1831" filterUnits="userSpaceOnUse" color-interpolation-filters="sRGB">
<feFlood flood-opacity="0" result="BackgroundImageFix"/>
<feColorMatrix in="SourceAlpha" type="matrix" values="0 0 0 0 0 0 0 0 0 0 0 0 0 0 0 0 0 0 127 0"/>
<feOffset dy="4"/>
<feGaussianBlur stdDeviation="2"/>
<feColorMatrix type="matrix" values="0 0 0 0 0 0 0 0 0 0 0 0 0 0 0 0 0 0 0.25 0"/>
<feBlend mode="normal" in2="BackgroundImageFix" result="effect1_dropShadow"/>
<feBlend mode="normal" in="SourceGraphic" in2="effect1_dropShadow" result="shape"/>
</filter>
<linearGradient id="paint0_linear" x1="5.15352" y1="-50.7838" x2="17.5769" y2="34.5196" gradientUnits="userSpaceOnUse">
<stop stop-color="#FB09C6"/>
<stop offset="1" stop-color="#35168A"/>
</linearGradient>
</defs>
</svg>
