<svg width="83" height="47" viewBox="0 0 83 47" fill="none" xmlns="http://www.w3.org/2000/svg">
<g filter="url(#filter0_d)">
<path d="M7.43991 0.499997L6.29408 19.7708L12.3878 23.2604C12.5962 22.8437 12.9087 22.4271 13.2732 22.0625C14.367 20.9687 15.8774 20.3437 17.3878 20.3437C18.9503 20.3437 20.4607 20.9687 21.5545 22.0625C22.6482 23.1562 23.2732 24.6667 23.2732 26.1771C23.2732 27.7396 22.6482 29.25 21.5545 30.3437C20.4607 31.3854 18.9503 32.0104 17.3878 32.0104C15.8774 32.0104 14.367 31.3854 13.2732 30.2917C12.5441 29.6146 12.0232 28.6771 11.7628 27.6875L4.93991 29.5104C5.56491 31.6979 6.76283 33.6771 8.37741 35.1875C10.7732 37.4792 14.1587 38.7812 17.3878 38.6771C20.6691 38.7812 24.0024 37.5312 26.4503 35.2396C28.8462 32.9479 30.3566 29.5625 30.4087 26.1771C30.5649 22.7396 29.367 19.4583 26.6066 16.9583C24.3149 15.0312 21.2941 13.9896 18.4295 13.9896C16.8149 13.9896 14.8878 14.4062 13.2212 15.2917L13.6899 7.11458H27.1274V0.499997H7.43991ZM37.9665 30.9167V38H45.0498V30.9167H37.9665ZM55.1044 0.499997L53.9585 19.7708L60.0523 23.2604C60.2606 22.8437 60.5731 22.4271 60.9377 22.0625C62.0314 20.9687 63.5419 20.3437 65.0523 20.3437C66.6148 20.3437 68.1252 20.9687 69.2189 22.0625C70.3127 23.1562 70.9377 24.6667 70.9377 26.1771C70.9377 27.7396 70.3127 29.25 69.2189 30.3437C68.1252 31.3854 66.6148 32.0104 65.0523 32.0104C63.5419 32.0104 62.0314 31.3854 60.9377 30.2917C60.2085 29.6146 59.6877 28.6771 59.4273 27.6875L52.6044 29.5104C53.2294 31.6979 54.4273 33.6771 56.0419 35.1875C58.4377 37.4792 61.8231 38.7812 65.0523 38.6771C68.3335 38.7812 71.6669 37.5312 74.1148 35.2396C76.5106 32.9479 78.021 29.5625 78.0731 26.1771C78.2294 22.7396 77.0314 19.4583 74.271 16.9583C71.9794 15.0312 68.9585 13.9896 66.0939 13.9896C64.4794 13.9896 62.5523 14.4062 60.8856 15.2917L61.3544 7.11458H74.7919V0.499997H55.1044Z" fill="url(#paint0_linear)"/>
</g>
<defs>
<filter id="filter0_d" x="0.939453" y="0.5" width="81.1467" height="46.1831" filterUnits="userSpaceOnUse" color-interpolation-filters="sRGB">
<feFlood flood-opacity="0" result="BackgroundImageFix"/>
<feColorMatrix in="SourceAlpha" type="matrix" values="0 0 0 0 0 0 0 0 0 0 0 0 0 0 0 0 0 0 127 0"/>
<feOffset dy="4"/>
<feGaussianBlur stdDeviation="2"/>
<feColorMatrix type="matrix" values="0 0 0 0 0 0 0 0 0 0 0 0 0 0 0 0 0 0 0.25 0"/>
<feBlend mode="normal" in2="BackgroundImageFix" result="effect1_dropShadow"/>
<feBlend mode="normal" in="SourceGraphic" in2="effect1_dropShadow" result="shape"/>
</filter>
<linearGradient id="paint0_linear" x1="8.65592" y1="-50.7838" x2="21.9821" y2="34.2403" gradientUnits="userSpaceOnUse">
<stop stop-color="#FB09C6"/>
<stop offset="1" stop-color="#35168A"/>
</linearGradient>
</defs>
</svg>
