<svg width="35" height="47" viewBox="0 0 35 47" fill="none" xmlns="http://www.w3.org/2000/svg">
<g filter="url(#filter0_d)">
<path d="M7.27214 0.499997L6.1263 19.7708L12.2201 23.2604C12.4284 22.8437 12.7409 22.4271 13.1055 22.0625C14.1992 20.9687 15.7096 20.3437 17.2201 20.3437C18.7826 20.3437 20.293 20.9687 21.3867 22.0625C22.4805 23.1562 23.1055 24.6667 23.1055 26.1771C23.1055 27.7396 22.4805 29.25 21.3867 30.3437C20.293 31.3854 18.7826 32.0104 17.2201 32.0104C15.7096 32.0104 14.1992 31.3854 13.1055 30.2917C12.3763 29.6146 11.8555 28.6771 11.5951 27.6875L4.77214 29.5104C5.39714 31.6979 6.59505 33.6771 8.20964 35.1875C10.6055 37.4792 13.9909 38.7812 17.2201 38.6771C20.5013 38.7812 23.8346 37.5312 26.2826 35.2396C28.6784 32.9479 30.1888 29.5625 30.2409 26.1771C30.3971 22.7396 29.1992 19.4583 26.4388 16.9583C24.1471 15.0312 21.1263 13.9896 18.2617 13.9896C16.6471 13.9896 14.7201 14.4062 13.0534 15.2917L13.5221 7.11458H26.9596V0.499997H7.27214Z" fill="url(#paint0_linear)"/>
</g>
<defs>
<filter id="filter0_d" x="0.771484" y="0.5" width="33.4822" height="46.1831" filterUnits="userSpaceOnUse" color-interpolation-filters="sRGB">
<feFlood flood-opacity="0" result="BackgroundImageFix"/>
<feColorMatrix in="SourceAlpha" type="matrix" values="0 0 0 0 0 0 0 0 0 0 0 0 0 0 0 0 0 0 127 0"/>
<feOffset dy="4"/>
<feGaussianBlur stdDeviation="2"/>
<feColorMatrix type="matrix" values="0 0 0 0 0 0 0 0 0 0 0 0 0 0 0 0 0 0 0.25 0"/>
<feBlend mode="normal" in2="BackgroundImageFix" result="effect1_dropShadow"/>
<feBlend mode="normal" in="SourceGraphic" in2="effect1_dropShadow" result="shape"/>
</filter>
<linearGradient id="paint0_linear" x1="2.79836" y1="-50.7838" x2="29.9695" y2="26.8149" gradientUnits="userSpaceOnUse">
<stop stop-color="#FB09C6"/>
<stop offset="1" stop-color="#35168A"/>
</linearGradient>
</defs>
</svg>
