<svg width="83" height="48" viewBox="0 0 83 48" fill="none" xmlns="http://www.w3.org/2000/svg">
<g filter="url(#filter0_d)">
<path d="M28.2439 4.3125C25.4835 1.76042 22.1502 0.718747 18.5044 0.770833C14.4939 0.666664 10.5877 1.96875 7.7752 5.30208C5.17103 8.375 4.59811 11.4479 4.59811 15.6146V24.8333C4.59811 29.4687 5.22311 32.9583 8.66061 36.1875C11.0564 38.5312 14.4419 39.7812 17.671 39.6771C20.9523 39.7812 24.3377 38.5312 26.7335 36.2396C29.1814 33.9479 30.6919 30.5625 30.7439 27.1771C30.8481 23.4792 29.6502 20.4583 26.9419 17.9583C24.6502 15.9792 21.6294 14.9375 18.7648 14.9375C16.2648 14.9375 13.8169 15.7708 11.8377 17.2812V15.6146C11.8377 14.0521 11.7856 12.8021 12.3585 11.5C13.296 9.05208 15.8481 7.38542 18.5044 7.38542C20.2231 7.38542 21.9419 8.11458 23.1919 9.36458L28.2439 4.3125ZM21.8377 31.2917C20.7439 32.3854 19.2335 33.0625 17.671 33.0104C16.1606 33.0625 14.6502 32.3854 13.5564 31.2917C12.4627 30.25 11.8377 28.6875 11.8377 27.1771C11.8377 25.6146 12.4627 24.1042 13.5564 23.0104C14.6502 21.9167 16.1606 21.2917 17.7231 21.2917C19.2335 21.2917 20.7439 21.9167 21.8377 23.0104C22.9314 24.1042 23.5564 25.6146 23.5564 27.1771C23.5564 28.7396 22.9314 30.25 21.8377 31.2917ZM38.3083 31.9167V39H45.3916V31.9167H38.3083ZM55.4462 1.5L54.3003 20.7708L60.3941 24.2604C60.6024 23.8437 60.9149 23.4271 61.2795 23.0625C62.3732 21.9687 63.8837 21.3437 65.3941 21.3437C66.9566 21.3437 68.467 21.9687 69.5607 23.0625C70.6545 24.1562 71.2795 25.6667 71.2795 27.1771C71.2795 28.7396 70.6545 30.25 69.5607 31.3437C68.467 32.3854 66.9566 33.0104 65.3941 33.0104C63.8837 33.0104 62.3732 32.3854 61.2795 31.2917C60.5503 30.6146 60.0295 29.6771 59.7691 28.6875L52.9462 30.5104C53.5712 32.6979 54.7691 34.6771 56.3837 36.1875C58.7795 38.4792 62.1649 39.7812 65.3941 39.6771C68.6753 39.7812 72.0087 38.5312 74.4566 36.2396C76.8524 33.9479 78.3628 30.5625 78.4149 27.1771C78.5712 23.7396 77.3732 20.4583 74.6128 17.9583C72.3212 16.0312 69.3003 14.9896 66.4357 14.9896C64.8212 14.9896 62.8941 15.4062 61.2274 16.2917L61.6962 8.11458H75.1337V1.5H55.4462Z" fill="url(#paint0_linear)"/>
</g>
<defs>
<filter id="filter0_d" x="0.597656" y="0.764648" width="81.8303" height="46.918" filterUnits="userSpaceOnUse" color-interpolation-filters="sRGB">
<feFlood flood-opacity="0" result="BackgroundImageFix"/>
<feColorMatrix in="SourceAlpha" type="matrix" values="0 0 0 0 0 0 0 0 0 0 0 0 0 0 0 0 0 0 127 0"/>
<feOffset dy="4"/>
<feGaussianBlur stdDeviation="2"/>
<feColorMatrix type="matrix" values="0 0 0 0 0 0 0 0 0 0 0 0 0 0 0 0 0 0 0.25 0"/>
<feBlend mode="normal" in2="BackgroundImageFix" result="effect1_dropShadow"/>
<feBlend mode="normal" in="SourceGraphic" in2="effect1_dropShadow" result="shape"/>
</filter>
<linearGradient id="paint0_linear" x1="8.65592" y1="-49.7838" x2="21.9821" y2="35.2403" gradientUnits="userSpaceOnUse">
<stop stop-color="#FB09C6"/>
<stop offset="1" stop-color="#35168A"/>
</linearGradient>
</defs>
</svg>
