<svg width="76" height="47" viewBox="0 0 76 47" fill="none" xmlns="http://www.w3.org/2000/svg">
<g filter="url(#filter0_d)">
<path d="M8.36992 38H15.5574L28.1095 7.16667V0.499997H4.46367V7.16667H20.9741L8.36992 38ZM30.9635 30.9167V38H38.0469V30.9167H30.9635ZM48.1014 0.499997L46.9556 19.7708L53.0493 23.2604C53.2577 22.8437 53.5702 22.4271 53.9348 22.0625C55.0285 20.9687 56.5389 20.3437 58.0493 20.3437C59.6118 20.3437 61.1223 20.9687 62.216 22.0625C63.3098 23.1562 63.9348 24.6667 63.9348 26.1771C63.9348 27.7396 63.3098 29.25 62.216 30.3437C61.1223 31.3854 59.6118 32.0104 58.0493 32.0104C56.5389 32.0104 55.0285 31.3854 53.9348 30.2917C53.2056 29.6146 52.6848 28.6771 52.4243 27.6875L45.6014 29.5104C46.2264 31.6979 47.4243 33.6771 49.0389 35.1875C51.4348 37.4792 54.8202 38.7812 58.0493 38.6771C61.3306 38.7812 64.6639 37.5312 67.1118 35.2396C69.5077 32.9479 71.0181 29.5625 71.0702 26.1771C71.2264 22.7396 70.0285 19.4583 67.2681 16.9583C64.9764 15.0312 61.9556 13.9896 59.091 13.9896C57.4764 13.9896 55.5493 14.4062 53.8827 15.2917L54.3514 7.11458H67.7889V0.499997H48.1014Z" fill="url(#paint0_linear)"/>
</g>
<defs>
<filter id="filter0_d" x="0.462891" y="0.5" width="74.62" height="46.1831" filterUnits="userSpaceOnUse" color-interpolation-filters="sRGB">
<feFlood flood-opacity="0" result="BackgroundImageFix"/>
<feColorMatrix in="SourceAlpha" type="matrix" values="0 0 0 0 0 0 0 0 0 0 0 0 0 0 0 0 0 0 127 0"/>
<feOffset dy="4"/>
<feGaussianBlur stdDeviation="2"/>
<feColorMatrix type="matrix" values="0 0 0 0 0 0 0 0 0 0 0 0 0 0 0 0 0 0 0.25 0"/>
<feBlend mode="normal" in2="BackgroundImageFix" result="effect1_dropShadow"/>
<feBlend mode="normal" in="SourceGraphic" in2="effect1_dropShadow" result="shape"/>
</filter>
<linearGradient id="paint0_linear" x1="4.65592" y1="-50.7838" x2="17.9821" y2="34.2403" gradientUnits="userSpaceOnUse">
<stop stop-color="#FB09C6"/>
<stop offset="1" stop-color="#35168A"/>
</linearGradient>
</defs>
</svg>
