<svg width="83" height="48" viewBox="0 0 83 48" fill="none" xmlns="http://www.w3.org/2000/svg">
<g filter="url(#filter0_d)">
<path d="M5.56328 11.5C5.61537 12.8542 5.8237 14.4167 6.50078 15.9792C6.96953 17.0208 7.6987 17.9583 8.47995 18.8437C7.17787 19.9896 6.1362 21.4479 5.5112 22.9583C4.83412 24.625 4.5737 26.2396 4.5737 27.75C4.5737 31.2396 6.08412 34.6771 8.74037 36.8646C11.032 38.7917 14.4174 39.7812 17.6466 39.7812C20.7716 39.7812 24.1049 38.9479 26.6049 36.8646C29.3654 34.625 30.6154 31.3958 30.7716 27.75C30.7195 26.2396 30.5112 24.625 29.8341 22.9583C29.2091 21.4479 28.1675 19.9896 26.8654 18.8437C27.6466 17.9583 28.3237 17.0208 28.7925 15.9792C29.5216 14.4167 29.73 12.8542 29.73 11.5C29.73 8.16667 28.2716 4.98958 25.6154 3.0625C23.4799 1.39583 20.6154 0.718747 17.6466 0.718747C14.8862 0.718747 11.9695 1.34375 9.72995 3.0625C6.96953 5.04167 5.71953 7.95833 5.56328 11.5ZM13.0633 11.5C13.0633 10.25 13.4279 9.15625 14.3133 8.42708C15.1466 7.69791 16.3966 7.38542 17.6466 7.33333C18.9487 7.38542 20.1987 7.69791 21.032 8.42708C21.8654 9.15625 22.282 10.25 22.2299 11.5C22.282 12.75 21.8654 13.8437 21.032 14.5729C20.1987 15.3021 18.9487 15.6146 17.6466 15.6146C16.3966 15.6146 15.1466 15.3021 14.3133 14.5729C13.4279 13.8437 13.0633 12.75 13.0633 11.5ZM21.7612 31.7083C20.7716 32.6458 19.2091 33.1146 17.6466 33.1146C16.0841 33.1146 14.5737 32.6458 13.532 31.7083C12.4904 30.7187 12.0737 29.2604 12.0737 27.75C12.0737 26.1875 12.4904 24.7292 13.532 23.7917C14.5737 22.8021 16.0841 22.3333 17.6466 22.3333C19.2091 22.3333 20.7716 22.8021 21.7612 23.7917C22.8029 24.7292 23.2716 26.1875 23.2716 27.75C23.2716 29.2604 22.8029 30.7187 21.7612 31.7083ZM38.3327 31.9167V39H45.416V31.9167H38.3327ZM55.4706 1.5L54.3247 20.7708L60.4185 24.2604C60.6268 23.8437 60.9393 23.4271 61.3039 23.0625C62.3977 21.9687 63.9081 21.3437 65.4185 21.3437C66.981 21.3437 68.4914 21.9687 69.5852 23.0625C70.6789 24.1562 71.3039 25.6667 71.3039 27.1771C71.3039 28.7396 70.6789 30.25 69.5852 31.3437C68.4914 32.3854 66.981 33.0104 65.4185 33.0104C63.9081 33.0104 62.3977 32.3854 61.3039 31.2917C60.5747 30.6146 60.0539 29.6771 59.7935 28.6875L52.9706 30.5104C53.5956 32.6979 54.7935 34.6771 56.4081 36.1875C58.8039 38.4792 62.1893 39.7812 65.4185 39.6771C68.6997 39.7812 72.0331 38.5312 74.481 36.2396C76.8768 33.9479 78.3872 30.5625 78.4393 27.1771C78.5956 23.7396 77.3977 20.4583 74.6372 17.9583C72.3456 16.0312 69.3247 14.9896 66.4602 14.9896C64.8456 14.9896 62.9185 15.4062 61.2518 16.2917L61.7206 8.11458H75.1581V1.5H55.4706Z" fill="url(#paint0_linear)"/>
</g>
<defs>
<filter id="filter0_d" x="0.574219" y="0.71875" width="81.8791" height="47.0625" filterUnits="userSpaceOnUse" color-interpolation-filters="sRGB">
<feFlood flood-opacity="0" result="BackgroundImageFix"/>
<feColorMatrix in="SourceAlpha" type="matrix" values="0 0 0 0 0 0 0 0 0 0 0 0 0 0 0 0 0 0 127 0"/>
<feOffset dy="4"/>
<feGaussianBlur stdDeviation="2"/>
<feColorMatrix type="matrix" values="0 0 0 0 0 0 0 0 0 0 0 0 0 0 0 0 0 0 0.25 0"/>
<feBlend mode="normal" in2="BackgroundImageFix" result="effect1_dropShadow"/>
<feBlend mode="normal" in="SourceGraphic" in2="effect1_dropShadow" result="shape"/>
</filter>
<linearGradient id="paint0_linear" x1="8.65592" y1="-49.7838" x2="21.9821" y2="35.2403" gradientUnits="userSpaceOnUse">
<stop stop-color="#FB09C6"/>
<stop offset="1" stop-color="#35168A"/>
</linearGradient>
</defs>
</svg>
