<svg width="35" height="48" viewBox="0 0 35 48" fill="none" xmlns="http://www.w3.org/2000/svg">
<g filter="url(#filter0_d)">
<path d="M5.39551 11.5C5.44759 12.8542 5.65592 14.4167 6.33301 15.9792C6.80176 17.0208 7.53092 17.9583 8.31217 18.8437C7.01009 19.9896 5.96842 21.4479 5.34342 22.9583C4.66634 24.625 4.40592 26.2396 4.40592 27.75C4.40592 31.2396 5.91634 34.6771 8.57259 36.8646C10.8643 38.7917 14.2497 39.7812 17.4788 39.7812C20.6038 39.7812 23.9372 38.9479 26.4372 36.8646C29.1976 34.625 30.4476 31.3958 30.6038 27.75C30.5518 26.2396 30.3434 24.625 29.6663 22.9583C29.0413 21.4479 27.9997 19.9896 26.6976 18.8437C27.4788 17.9583 28.1559 17.0208 28.6247 15.9792C29.3538 14.4167 29.5622 12.8542 29.5622 11.5C29.5622 8.16667 28.1038 4.98958 25.4476 3.0625C23.3122 1.39583 20.4476 0.718747 17.4788 0.718747C14.7184 0.718747 11.8018 1.34375 9.56217 3.0625C6.80176 5.04167 5.55176 7.95833 5.39551 11.5ZM12.8955 11.5C12.8955 10.25 13.2601 9.15625 14.1455 8.42708C14.9788 7.69791 16.2288 7.38542 17.4788 7.33333C18.7809 7.38542 20.0309 7.69791 20.8643 8.42708C21.6976 9.15625 22.1143 10.25 22.0622 11.5C22.1143 12.75 21.6976 13.8437 20.8643 14.5729C20.0309 15.3021 18.7809 15.6146 17.4788 15.6146C16.2288 15.6146 14.9788 15.3021 14.1455 14.5729C13.2601 13.8437 12.8955 12.75 12.8955 11.5ZM21.5934 31.7083C20.6038 32.6458 19.0413 33.1146 17.4788 33.1146C15.9163 33.1146 14.4059 32.6458 13.3643 31.7083C12.3226 30.7187 11.9059 29.2604 11.9059 27.75C11.9059 26.1875 12.3226 24.7292 13.3643 23.7917C14.4059 22.8021 15.9163 22.3333 17.4788 22.3333C19.0413 22.3333 20.6038 22.8021 21.5934 23.7917C22.6351 24.7292 23.1038 26.1875 23.1038 27.75C23.1038 29.2604 22.6351 30.7187 21.5934 31.7083Z" fill="url(#paint0_linear)"/>
</g>
<defs>
<filter id="filter0_d" x="0.40625" y="0.71875" width="34.1979" height="47.0625" filterUnits="userSpaceOnUse" color-interpolation-filters="sRGB">
<feFlood flood-opacity="0" result="BackgroundImageFix"/>
<feColorMatrix in="SourceAlpha" type="matrix" values="0 0 0 0 0 0 0 0 0 0 0 0 0 0 0 0 0 0 127 0"/>
<feOffset dy="4"/>
<feGaussianBlur stdDeviation="2"/>
<feColorMatrix type="matrix" values="0 0 0 0 0 0 0 0 0 0 0 0 0 0 0 0 0 0 0.25 0"/>
<feBlend mode="normal" in2="BackgroundImageFix" result="effect1_dropShadow"/>
<feBlend mode="normal" in="SourceGraphic" in2="effect1_dropShadow" result="shape"/>
</filter>
<linearGradient id="paint0_linear" x1="-15.3441" y1="-49.7838" x2="-2.01794" y2="35.2403" gradientUnits="userSpaceOnUse">
<stop stop-color="#FB09C6"/>
<stop offset="1" stop-color="#35168A"/>
</linearGradient>
</defs>
</svg>
