<svg width="82" height="48" viewBox="0 0 82 48" fill="none" xmlns="http://www.w3.org/2000/svg">
<g filter="url(#filter0_d)">
<path d="M7.38066 36.2396C10.1411 38.7917 13.4744 39.8333 17.1202 39.7812C21.1307 39.8854 25.0369 38.5833 27.8494 35.25C30.4536 32.1771 31.0265 29.1042 31.0265 24.9375V15.7187C31.0265 11.0833 30.4015 7.59375 26.964 4.36458C24.5682 2.02083 21.1827 0.770833 17.9536 0.874998C14.6723 0.770833 11.2869 2.02083 8.89108 4.3125C6.44317 6.60417 4.93275 9.98958 4.88067 13.375C4.7765 17.0729 5.97442 20.0937 8.68275 22.5937C10.9744 24.5729 13.9952 25.6146 16.8598 25.6146C19.3598 25.6146 21.8077 24.7812 23.7869 23.2708V24.9375C23.7869 26.5 23.839 27.75 23.2661 29.0521C22.3286 31.5 19.7765 33.1667 17.1202 33.1667C15.4015 33.1667 13.6827 32.4375 12.4327 31.1875L7.38066 36.2396ZM13.7869 9.26041C14.8807 8.16667 16.3911 7.48958 17.9536 7.54166C19.464 7.48958 20.9744 8.16667 22.0682 9.26041C23.1619 10.3021 23.7869 11.8646 23.7869 13.375C23.7869 14.9375 23.1619 16.4479 22.0682 17.5417C20.9744 18.6354 19.464 19.2604 17.9015 19.2604C16.3911 19.2604 14.8807 18.6354 13.7869 17.5417C12.6932 16.4479 12.0682 14.9375 12.0682 13.375C12.0682 11.8125 12.6932 10.3021 13.7869 9.26041ZM37.0153 31.9167V39H44.0986V31.9167H37.0153ZM54.1532 1.5L53.0074 20.7708L59.1011 24.2604C59.3094 23.8437 59.6219 23.4271 59.9865 23.0625C61.0803 21.9687 62.5907 21.3437 64.1011 21.3437C65.6636 21.3437 67.174 21.9687 68.2678 23.0625C69.3615 24.1562 69.9865 25.6667 69.9865 27.1771C69.9865 28.7396 69.3615 30.25 68.2678 31.3437C67.174 32.3854 65.6636 33.0104 64.1011 33.0104C62.5907 33.0104 61.0803 32.3854 59.9865 31.2917C59.2574 30.6146 58.7365 29.6771 58.4761 28.6875L51.6532 30.5104C52.2782 32.6979 53.4761 34.6771 55.0907 36.1875C57.4865 38.4792 60.8719 39.7812 64.1011 39.6771C67.3824 39.7812 70.7157 38.5312 73.1636 36.2396C75.5594 33.9479 77.0699 30.5625 77.1219 27.1771C77.2782 23.7396 76.0803 20.4583 73.3199 17.9583C71.0282 16.0312 68.0074 14.9896 65.1428 14.9896C63.5282 14.9896 61.6011 15.4062 59.9344 16.2917L60.4032 8.11458H73.8407V1.5H54.1532Z" fill="url(#paint0_linear)"/>
</g>
<defs>
<filter id="filter0_d" x="0.875" y="0.869141" width="80.261" height="46.918" filterUnits="userSpaceOnUse" color-interpolation-filters="sRGB">
<feFlood flood-opacity="0" result="BackgroundImageFix"/>
<feColorMatrix in="SourceAlpha" type="matrix" values="0 0 0 0 0 0 0 0 0 0 0 0 0 0 0 0 0 0 127 0"/>
<feOffset dy="4"/>
<feGaussianBlur stdDeviation="2"/>
<feColorMatrix type="matrix" values="0 0 0 0 0 0 0 0 0 0 0 0 0 0 0 0 0 0 0.25 0"/>
<feBlend mode="normal" in2="BackgroundImageFix" result="effect1_dropShadow"/>
<feBlend mode="normal" in="SourceGraphic" in2="effect1_dropShadow" result="shape"/>
</filter>
<linearGradient id="paint0_linear" x1="7.65592" y1="-49.7838" x2="20.9821" y2="35.2403" gradientUnits="userSpaceOnUse">
<stop stop-color="#FB09C6"/>
<stop offset="1" stop-color="#35168A"/>
</linearGradient>
</defs>
</svg>
