<svg width="36" height="48" viewBox="0 0 36 48" fill="none" xmlns="http://www.w3.org/2000/svg">
<g filter="url(#filter0_d)">
<path d="M7.43164 36.2396C10.1921 38.7917 13.5254 39.8333 17.1712 39.7812C21.1816 39.8854 25.0879 38.5833 27.9004 35.25C30.5046 32.1771 31.0775 29.1042 31.0775 24.9375V15.7187C31.0775 11.0833 30.4525 7.59375 27.015 4.36458C24.6191 2.02083 21.2337 0.770833 18.0046 0.874998C14.7233 0.770833 11.3379 2.02083 8.94206 4.3125C6.49414 6.60417 4.98372 9.98958 4.93164 13.375C4.82747 17.0729 6.02539 20.0937 8.73372 22.5937C11.0254 24.5729 14.0462 25.6146 16.9108 25.6146C19.4108 25.6146 21.8587 24.7812 23.8379 23.2708V24.9375C23.8379 26.5 23.89 27.75 23.3171 29.0521C22.3796 31.5 19.8275 33.1667 17.1712 33.1667C15.4525 33.1667 13.7337 32.4375 12.4837 31.1875L7.43164 36.2396ZM13.8379 9.26041C14.9316 8.16667 16.4421 7.48958 18.0046 7.54166C19.515 7.48958 21.0254 8.16667 22.1191 9.26041C23.2129 10.3021 23.8379 11.8646 23.8379 13.375C23.8379 14.9375 23.2129 16.4479 22.1191 17.5417C21.0254 18.6354 19.515 19.2604 17.9525 19.2604C16.4421 19.2604 14.9316 18.6354 13.8379 17.5417C12.7441 16.4479 12.1191 14.9375 12.1191 13.375C12.1191 11.8125 12.7441 10.3021 13.8379 9.26041Z" fill="url(#paint0_linear)"/>
</g>
<defs>
<filter id="filter0_d" x="0.925781" y="0.869141" width="34.1521" height="46.918" filterUnits="userSpaceOnUse" color-interpolation-filters="sRGB">
<feFlood flood-opacity="0" result="BackgroundImageFix"/>
<feColorMatrix in="SourceAlpha" type="matrix" values="0 0 0 0 0 0 0 0 0 0 0 0 0 0 0 0 0 0 127 0"/>
<feOffset dy="4"/>
<feGaussianBlur stdDeviation="2"/>
<feColorMatrix type="matrix" values="0 0 0 0 0 0 0 0 0 0 0 0 0 0 0 0 0 0 0.25 0"/>
<feBlend mode="normal" in2="BackgroundImageFix" result="effect1_dropShadow"/>
<feBlend mode="normal" in="SourceGraphic" in2="effect1_dropShadow" result="shape"/>
</filter>
<linearGradient id="paint0_linear" x1="-15.3441" y1="-49.7838" x2="-2.01794" y2="35.2403" gradientUnits="userSpaceOnUse">
<stop stop-color="#FB09C6"/>
<stop offset="1" stop-color="#35168A"/>
</linearGradient>
</defs>
</svg>
