<svg width="94" height="94" viewBox="0 0 94 94" fill="none" xmlns="http://www.w3.org/2000/svg">
<g filter="url(#filter0_d)">
<path d="M47.4079 45.152L46.5429 46.0053L45.6741 45.152C44.0597 43.5581 41.8824 42.6644 39.6138 42.6644C37.3451 42.6644 35.1678 43.5581 33.5534 45.152C32.7522 45.9228 32.1147 46.8474 31.6793 47.8704C31.244 48.8935 31.0195 49.9938 31.0195 51.1057C31.0195 52.2175 31.244 53.3179 31.6793 54.3409C32.1147 55.3639 32.7522 56.2886 33.5534 57.0594L46.5429 69.8162L59.5325 57.0594C60.3337 56.2886 60.9711 55.3639 61.4065 54.3409C61.8419 53.3179 62.0663 52.2175 62.0663 51.1057C62.0663 49.9938 61.8419 48.8935 61.4065 47.8704C60.9711 46.8474 60.3337 45.9228 59.5325 45.152C57.9174 43.5579 55.7394 42.6641 53.4702 42.6641C51.2009 42.6641 49.0229 43.5579 47.4079 45.152Z" fill="url(#paint0_linear)"/>
<path d="M84.1931 43.8017L49.2855 8.89405C48.9256 8.53355 48.4981 8.24755 48.0276 8.05241C47.5571 7.85728 47.0527 7.75684 46.5433 7.75684C46.0339 7.75684 45.5295 7.85728 45.059 8.05241C44.5884 8.24755 44.161 8.53355 43.8011 8.89405L8.89342 43.8017C8.35116 44.3441 7.98188 45.0352 7.8323 45.7875C7.68271 46.5397 7.75952 47.3195 8.05301 48.0281C8.34651 48.7367 8.84351 49.3424 9.4812 49.7686C10.1189 50.1948 10.8686 50.4224 11.6356 50.4225H15.5142V77.5729C15.5142 81.8511 18.9934 85.3302 23.2715 85.3302H69.8151C74.0932 85.3302 77.5723 81.8511 77.5723 77.5729V50.4225H81.4509C82.2179 50.4224 82.9677 50.1948 83.6054 49.7686C84.243 49.3424 84.7401 48.7367 85.0335 48.0281C85.327 47.3195 85.4039 46.5397 85.2543 45.7875C85.1047 45.0352 84.7354 44.3441 84.1931 43.8017ZM69.8189 77.5729H23.2715V40.3963L46.5433 17.1245L69.8151 40.3963V58.1798L69.8189 77.5729Z" fill="url(#paint1_linear)"/>
</g>
<defs>
<filter id="filter0_d" x="-4" y="-3" width="101.087" height="101.087" filterUnits="userSpaceOnUse" color-interpolation-filters="sRGB">
<feFlood flood-opacity="0" result="BackgroundImageFix"/>
<feColorMatrix in="SourceAlpha" type="matrix" values="0 0 0 0 0 0 0 0 0 0 0 0 0 0 0 0 0 0 127 0"/>
<feOffset dy="1"/>
<feGaussianBlur stdDeviation="2"/>
<feColorMatrix type="matrix" values="0 0 0 0 0 0 0 0 0 0 0 0 0 0 0 0 0 0 0.2 0"/>
<feBlend mode="normal" in2="BackgroundImageFix" result="effect1_dropShadow"/>
<feBlend mode="normal" in="SourceGraphic" in2="effect1_dropShadow" result="shape"/>
</filter>
<linearGradient id="paint0_linear" x1="39.3375" y1="26.7509" x2="46.5429" y2="69.8162" gradientUnits="userSpaceOnUse">
<stop stop-color="#FB09C6"/>
<stop offset="1" stop-color="#35168A"/>
</linearGradient>
<linearGradient id="paint1_linear" x1="23.6023" y1="-23.6027" x2="46.5433" y2="85.3302" gradientUnits="userSpaceOnUse">
<stop stop-color="#FB09C6"/>
<stop offset="1" stop-color="#35168A"/>
</linearGradient>
</defs>
</svg>
