<svg width="34" height="34" viewBox="0 0 34 34" fill="none" xmlns="http://www.w3.org/2000/svg">
<g filter="url(#filter0_d)">
<path d="M17.0644 15.315L16.7896 15.5861L16.5135 15.315C16.0005 14.8085 15.3087 14.5245 14.5878 14.5245C13.8669 14.5245 13.1751 14.8085 12.6621 15.315C12.4075 15.5599 12.2049 15.8537 12.0666 16.1788C11.9282 16.5038 11.8569 16.8535 11.8569 17.2068C11.8569 17.5601 11.9282 17.9097 12.0666 18.2348C12.2049 18.5599 12.4075 18.8537 12.6621 19.0986L16.7896 23.1521L20.9171 19.0986C21.1717 18.8537 21.3742 18.5599 21.5126 18.2348C21.6509 17.9097 21.7222 17.5601 21.7222 17.2068C21.7222 16.8535 21.6509 16.5038 21.5126 16.1788C21.3742 15.8537 21.1717 15.5599 20.9171 15.315C20.4039 14.8084 19.7118 14.5244 18.9907 14.5244C18.2697 14.5244 17.5776 14.8084 17.0644 15.315Z" fill="url(#paint0_linear)"/>
<path d="M28.7528 14.8861L17.6607 3.79397C17.5464 3.67942 17.4105 3.58854 17.261 3.52654C17.1115 3.46453 16.9512 3.43262 16.7894 3.43262C16.6275 3.43262 16.4672 3.46453 16.3177 3.52654C16.1682 3.58854 16.0324 3.67942 15.918 3.79397L4.82593 14.8861C4.65363 15.0584 4.53629 15.278 4.48876 15.517C4.44122 15.7561 4.46563 16.0039 4.55889 16.229C4.65215 16.4542 4.81007 16.6467 5.0127 16.7821C5.21533 16.9175 5.45356 16.9898 5.69728 16.9899H6.92974V25.6171C6.92974 26.9765 8.03525 28.082 9.39465 28.082H24.1841C25.5435 28.082 26.649 26.9765 26.649 25.6171V16.9899H27.8815C28.1252 16.9898 28.3634 16.9175 28.566 16.7821C28.7687 16.6467 28.9266 16.4542 29.0199 16.229C29.1131 16.0039 29.1375 15.7561 29.09 15.517C29.0425 15.278 28.9251 15.0584 28.7528 14.8861ZM24.1853 25.6171H9.39465V13.804L16.7894 6.40924L24.1841 13.804V19.4548L24.1853 25.6171Z" fill="url(#paint1_linear)"/>
</g>
<defs>
<filter id="filter0_d" x="-2" y="-2.03223" width="37.5789" height="37.5789" filterUnits="userSpaceOnUse" color-interpolation-filters="sRGB">
<feFlood flood-opacity="0" result="BackgroundImageFix"/>
<feColorMatrix in="SourceAlpha" type="matrix" values="0 0 0 0 0 0 0 0 0 0 0 0 0 0 0 0 0 0 127 0"/>
<feOffset dy="1"/>
<feGaussianBlur stdDeviation="2"/>
<feColorMatrix type="matrix" values="0 0 0 0 0 0 0 0 0 0 0 0 0 0 0 0 0 0 0.2 0"/>
<feBlend mode="normal" in2="BackgroundImageFix" result="effect1_dropShadow"/>
<feBlend mode="normal" in="SourceGraphic" in2="effect1_dropShadow" result="shape"/>
</filter>
<linearGradient id="paint0_linear" x1="14.5" y1="9.46793" x2="16.7896" y2="23.1521" gradientUnits="userSpaceOnUse">
<stop stop-color="#FB09C6"/>
<stop offset="1" stop-color="#35168A"/>
</linearGradient>
<linearGradient id="paint1_linear" x1="9.49976" y1="-6.53203" x2="16.7894" y2="28.082" gradientUnits="userSpaceOnUse">
<stop stop-color="#FB09C6"/>
<stop offset="1" stop-color="#35168A"/>
</linearGradient>
</defs>
</svg>
