<svg width="18" height="12" viewBox="0 0 18 12" fill="none" xmlns="http://www.w3.org/2000/svg">
<path fill-rule="evenodd" clip-rule="evenodd" d="M16.6667 0.435059H15.6667C15.1145 0.435059 14.6667 0.90224 14.6667 1.47854V10.522C14.6667 11.0983 15.1145 11.5655 15.6667 11.5655H16.6667C17.219 11.5655 17.6667 11.0983 17.6667 10.522V1.47854C17.6667 0.90224 17.219 0.435059 16.6667 0.435059ZM11.0001 2.86984H12.0001C12.5524 2.86984 13.0001 3.33702 13.0001 3.91332V10.522C13.0001 11.0983 12.5524 11.5655 12.0001 11.5655H11.0001C10.4478 11.5655 10.0001 11.0983 10.0001 10.522V3.91332C10.0001 3.33702 10.4478 2.86984 11.0001 2.86984ZM7.33341 5.30462H6.33341C5.78113 5.30462 5.33341 5.7718 5.33341 6.3481V10.522C5.33341 11.0983 5.78113 11.5655 6.33341 11.5655H7.33341C7.8857 11.5655 8.33341 11.0983 8.33341 10.522V6.3481C8.33341 5.7718 7.8857 5.30462 7.33341 5.30462ZM2.66675 7.39158H1.66675C1.11446 7.39158 0.666748 7.85876 0.666748 8.43506V10.522C0.666748 11.0983 1.11446 11.5655 1.66675 11.5655H2.66675C3.21903 11.5655 3.66675 11.0983 3.66675 10.522V8.43506C3.66675 7.85876 3.21903 7.39158 2.66675 7.39158Z" fill="white"/>
</svg>
