<svg width="18" height="12" viewBox="0 0 18 12" fill="none" xmlns="http://www.w3.org/2000/svg">
<path d="M16.3391 11.334H15.3391C15.0739 11.334 14.8195 11.2286 14.632 11.0411C14.4445 10.8536 14.3391 10.5992 14.3391 10.334V1.66699C14.3391 1.40178 14.4445 1.14742 14.632 0.959885C14.8195 0.772349 15.0739 0.666992 15.3391 0.666992H16.3391C16.6043 0.666992 16.8587 0.772349 17.0462 0.959885C17.2338 1.14742 17.3391 1.40178 17.3391 1.66699V10.334C17.3391 10.5992 17.2338 10.8536 17.0462 11.0411C16.8587 11.2286 16.6043 11.334 16.3391 11.334ZM11.6721 11.334H10.6721C10.4069 11.334 10.1525 11.2286 9.965 11.0411C9.77747 10.8536 9.67211 10.5992 9.67211 10.334V4.00099C9.67211 3.73578 9.77747 3.48142 9.965 3.29389C10.1525 3.10635 10.4069 3.00099 10.6721 3.00099H11.6721C11.9373 3.00099 12.1917 3.10635 12.3792 3.29389C12.5668 3.48142 12.6721 3.73578 12.6721 4.00099V10.334C12.6721 10.599 12.5669 10.8532 12.3796 11.0407C12.1923 11.2283 11.9382 11.3337 11.6731 11.334H11.6721ZM7.00511 11.334H6.00511C5.73989 11.334 5.48554 11.2286 5.298 11.0411C5.11047 10.8536 5.00511 10.5992 5.00511 10.334V6.33399C5.00511 6.06878 5.11047 5.81442 5.298 5.62689C5.48554 5.43935 5.73989 5.33399 6.00511 5.33399H7.00511C7.27033 5.33399 7.52468 5.43935 7.71222 5.62689C7.89975 5.81442 8.00511 6.06878 8.00511 6.33399V10.334C8.00511 10.5992 7.89975 10.8536 7.71222 11.0411C7.52468 11.2286 7.27033 11.334 7.00511 11.334ZM2.33911 11.334H1.33911C1.07389 11.334 0.819541 11.2286 0.632005 11.0411C0.444468 10.8536 0.339111 10.5992 0.339111 10.334V8.33399C0.339111 8.06878 0.444468 7.81442 0.632005 7.62689C0.819541 7.43935 1.07389 7.33399 1.33911 7.33399H2.33911C2.60433 7.33399 2.85868 7.43935 3.04622 7.62689C3.23375 7.81442 3.33911 8.06878 3.33911 8.33399V10.334C3.33911 10.5992 3.23375 10.8536 3.04622 11.0411C2.85868 11.2286 2.60433 11.334 2.33911 11.334Z" fill="white"/>
</svg>
