<svg width="18" height="12" viewBox="0 0 18 12" fill="none" xmlns="http://www.w3.org/2000/svg">
<path fill-rule="evenodd" clip-rule="evenodd" d="M16.6665 0.43457H15.6665C15.1142 0.43457 14.6665 0.901751 14.6665 1.47805V10.5215C14.6665 11.0978 15.1142 11.565 15.6665 11.565H16.6665C17.2188 11.565 17.6665 11.0978 17.6665 10.5215V1.47805C17.6665 0.901751 17.2188 0.43457 16.6665 0.43457ZM10.9998 2.86935H11.9998C12.5521 2.86935 12.9998 3.33653 12.9998 3.91283V10.5215C12.9998 11.0978 12.5521 11.565 11.9998 11.565H10.9998C10.4476 11.565 9.99984 11.0978 9.99984 10.5215V3.91283C9.99984 3.33653 10.4476 2.86935 10.9998 2.86935ZM7.33317 5.30414H6.33317C5.78089 5.30414 5.33317 5.77132 5.33317 6.34761V10.5215C5.33317 11.0978 5.78089 11.565 6.33317 11.565H7.33317C7.88546 11.565 8.33317 11.0978 8.33317 10.5215V6.34761C8.33317 5.77132 7.88546 5.30414 7.33317 5.30414ZM2.6665 7.39109H1.6665C1.11422 7.39109 0.666504 7.85827 0.666504 8.43457V10.5215C0.666504 11.0978 1.11422 11.565 1.6665 11.565H2.6665C3.21879 11.565 3.6665 11.0978 3.6665 10.5215V8.43457C3.6665 7.85827 3.21879 7.39109 2.6665 7.39109Z" fill="white"/>
</svg>
