<svg width="18" height="12" viewBox="0 0 18 12" fill="none" xmlns="http://www.w3.org/2000/svg">
<path fill-rule="evenodd" clip-rule="evenodd" d="M16.6666 0.43457H15.6666C15.1143 0.43457 14.6666 0.901751 14.6666 1.47805V10.5215C14.6666 11.0978 15.1143 11.565 15.6666 11.565H16.6666C17.2189 11.565 17.6666 11.0978 17.6666 10.5215V1.47805C17.6666 0.901751 17.2189 0.43457 16.6666 0.43457ZM11 2.86935H12C12.5522 2.86935 13 3.33653 13 3.91283V10.5215C13 11.0978 12.5522 11.565 12 11.565H11C10.4477 11.565 9.99996 11.0978 9.99996 10.5215V3.91283C9.99996 3.33653 10.4477 2.86935 11 2.86935ZM7.33329 5.30414H6.33329C5.78101 5.30414 5.33329 5.77132 5.33329 6.34761V10.5215C5.33329 11.0978 5.78101 11.565 6.33329 11.565H7.33329C7.88558 11.565 8.33329 11.0978 8.33329 10.5215V6.34761C8.33329 5.77132 7.88558 5.30414 7.33329 5.30414ZM2.66663 7.39109H1.66663C1.11434 7.39109 0.666626 7.85827 0.666626 8.43457V10.5215C0.666626 11.0978 1.11434 11.565 1.66663 11.565H2.66663C3.21891 11.565 3.66663 11.0978 3.66663 10.5215V8.43457C3.66663 7.85827 3.21891 7.39109 2.66663 7.39109Z" fill="white"/>
</svg>
