<svg width="18" height="12" viewBox="0 0 18 12" fill="none" xmlns="http://www.w3.org/2000/svg">
<path d="M16.839 11.334H15.839C15.5738 11.334 15.3194 11.2286 15.1319 11.0411C14.9443 10.8536 14.839 10.5992 14.839 10.334V1.66699C14.839 1.40178 14.9443 1.14742 15.1319 0.959885C15.3194 0.772349 15.5738 0.666992 15.839 0.666992H16.839C17.1042 0.666992 17.3586 0.772349 17.5461 0.959885C17.7336 1.14742 17.839 1.40178 17.839 1.66699V10.334C17.839 10.5992 17.7336 10.8536 17.5461 11.0411C17.3586 11.2286 17.1042 11.334 16.839 11.334ZM12.172 11.334H11.172C10.9068 11.334 10.6524 11.2286 10.4649 11.0411C10.2773 10.8536 10.172 10.5992 10.172 10.334V4.00099C10.172 3.73578 10.2773 3.48142 10.4649 3.29389C10.6524 3.10635 10.9068 3.00099 11.172 3.00099H12.172C12.4372 3.00099 12.6916 3.10635 12.8791 3.29389C13.0666 3.48142 13.172 3.73578 13.172 4.00099V10.334C13.172 10.599 13.0668 10.8532 12.8794 11.0407C12.6921 11.2283 12.438 11.3337 12.173 11.334H12.172ZM7.50499 11.334H6.50499C6.23977 11.334 5.98542 11.2286 5.79788 11.0411C5.61035 10.8536 5.50499 10.5992 5.50499 10.334V6.33399C5.50499 6.06878 5.61035 5.81442 5.79788 5.62689C5.98542 5.43935 6.23977 5.33399 6.50499 5.33399H7.50499C7.77021 5.33399 8.02456 5.43935 8.2121 5.62689C8.39963 5.81442 8.50499 6.06878 8.50499 6.33399V10.334C8.50499 10.5992 8.39963 10.8536 8.2121 11.0411C8.02456 11.2286 7.77021 11.334 7.50499 11.334ZM2.83899 11.334H1.83899C1.57377 11.334 1.31942 11.2286 1.13188 11.0411C0.944346 10.8536 0.838989 10.5992 0.838989 10.334V8.33399C0.838989 8.06878 0.944346 7.81442 1.13188 7.62689C1.31942 7.43935 1.57377 7.33399 1.83899 7.33399H2.83899C3.10421 7.33399 3.35856 7.43935 3.5461 7.62689C3.73363 7.81442 3.83899 8.06878 3.83899 8.33399V10.334C3.83899 10.5992 3.73363 10.8536 3.5461 11.0411C3.35856 11.2286 3.10421 11.334 2.83899 11.334Z" fill="black"/>
</svg>
