<svg width="18" height="12" viewBox="0 0 18 12" fill="none" xmlns="http://www.w3.org/2000/svg">
<path d="M16.8379 11.334H15.8379C15.5727 11.334 15.3183 11.2286 15.1308 11.0411C14.9432 10.8536 14.8379 10.5992 14.8379 10.334V1.66699C14.8379 1.40178 14.9432 1.14742 15.1308 0.959885C15.3183 0.772349 15.5727 0.666992 15.8379 0.666992H16.8379C17.1031 0.666992 17.3575 0.772349 17.545 0.959885C17.7325 1.14742 17.8379 1.40178 17.8379 1.66699V10.334C17.8379 10.5992 17.7325 10.8536 17.545 11.0411C17.3575 11.2286 17.1031 11.334 16.8379 11.334ZM12.1709 11.334H11.1709C10.9057 11.334 10.6513 11.2286 10.4638 11.0411C10.2762 10.8536 10.1709 10.5992 10.1709 10.334V4.00099C10.1709 3.73578 10.2762 3.48142 10.4638 3.29389C10.6513 3.10635 10.9057 3.00099 11.1709 3.00099H12.1709C12.4361 3.00099 12.6905 3.10635 12.878 3.29389C13.0655 3.48142 13.1709 3.73578 13.1709 4.00099V10.334C13.1709 10.599 13.0657 10.8532 12.8784 11.0407C12.691 11.2283 12.4369 11.3337 12.1719 11.334H12.1709ZM7.50389 11.334H6.50389C6.23867 11.334 5.98432 11.2286 5.79678 11.0411C5.60925 10.8536 5.50389 10.5992 5.50389 10.334V6.33399C5.50389 6.06878 5.60925 5.81442 5.79678 5.62689C5.98432 5.43935 6.23867 5.33399 6.50389 5.33399H7.50389C7.76911 5.33399 8.02346 5.43935 8.211 5.62689C8.39853 5.81442 8.50389 6.06878 8.50389 6.33399V10.334C8.50389 10.5992 8.39853 10.8536 8.211 11.0411C8.02346 11.2286 7.76911 11.334 7.50389 11.334ZM2.83789 11.334H1.83789C1.57267 11.334 1.31832 11.2286 1.13078 11.0411C0.943247 10.8536 0.837891 10.5992 0.837891 10.334V8.33399C0.837891 8.06878 0.943247 7.81442 1.13078 7.62689C1.31832 7.43935 1.57267 7.33399 1.83789 7.33399H2.83789C3.10311 7.33399 3.35746 7.43935 3.545 7.62689C3.73253 7.81442 3.83789 8.06878 3.83789 8.33399V10.334C3.83789 10.5992 3.73253 10.8536 3.545 11.0411C3.35746 11.2286 3.10311 11.334 2.83789 11.334Z" fill="white"/>
</svg>
