<svg width="18" height="12" viewBox="0 0 18 12" fill="none" xmlns="http://www.w3.org/2000/svg">
<path fill-rule="evenodd" clip-rule="evenodd" d="M16.6665 0.435059H15.6665C15.1142 0.435059 14.6665 0.90224 14.6665 1.47854V10.522C14.6665 11.0983 15.1142 11.5655 15.6665 11.5655H16.6665C17.2188 11.5655 17.6665 11.0983 17.6665 10.522V1.47854C17.6665 0.90224 17.2188 0.435059 16.6665 0.435059ZM10.9998 2.86984H11.9998C12.5521 2.86984 12.9998 3.33702 12.9998 3.91332V10.522C12.9998 11.0983 12.5521 11.5655 11.9998 11.5655H10.9998C10.4476 11.5655 9.99984 11.0983 9.99984 10.522V3.91332C9.99984 3.33702 10.4476 2.86984 10.9998 2.86984ZM7.33317 5.30462H6.33317C5.78089 5.30462 5.33317 5.7718 5.33317 6.3481V10.522C5.33317 11.0983 5.78089 11.5655 6.33317 11.5655H7.33317C7.88546 11.5655 8.33317 11.0983 8.33317 10.522V6.3481C8.33317 5.7718 7.88546 5.30462 7.33317 5.30462ZM2.6665 7.39158H1.6665C1.11422 7.39158 0.666504 7.85876 0.666504 8.43506V10.522C0.666504 11.0983 1.11422 11.5655 1.6665 11.5655H2.6665C3.21879 11.5655 3.6665 11.0983 3.6665 10.522V8.43506C3.6665 7.85876 3.21879 7.39158 2.6665 7.39158Z" fill="white"/>
</svg>
