<svg width="18" height="12" viewBox="0 0 18 12" fill="none" xmlns="http://www.w3.org/2000/svg">
<path d="M16.8391 11.334H15.8391C15.5739 11.334 15.3195 11.2286 15.132 11.0411C14.9445 10.8536 14.8391 10.5992 14.8391 10.334V1.66699C14.8391 1.40178 14.9445 1.14742 15.132 0.959885C15.3195 0.772349 15.5739 0.666992 15.8391 0.666992H16.8391C17.1043 0.666992 17.3587 0.772349 17.5462 0.959885C17.7338 1.14742 17.8391 1.40178 17.8391 1.66699V10.334C17.8391 10.5992 17.7338 10.8536 17.5462 11.0411C17.3587 11.2286 17.1043 11.334 16.8391 11.334ZM12.1721 11.334H11.1721C10.9069 11.334 10.6525 11.2286 10.465 11.0411C10.2775 10.8536 10.1721 10.5992 10.1721 10.334V4.00099C10.1721 3.73578 10.2775 3.48142 10.465 3.29389C10.6525 3.10635 10.9069 3.00099 11.1721 3.00099H12.1721C12.4373 3.00099 12.6917 3.10635 12.8792 3.29389C13.0668 3.48142 13.1721 3.73578 13.1721 4.00099V10.334C13.1721 10.599 13.0669 10.8532 12.8796 11.0407C12.6923 11.2283 12.4382 11.3337 12.1731 11.334H12.1721ZM7.50511 11.334H6.50511C6.23989 11.334 5.98554 11.2286 5.798 11.0411C5.61047 10.8536 5.50511 10.5992 5.50511 10.334V6.33399C5.50511 6.06878 5.61047 5.81442 5.798 5.62689C5.98554 5.43935 6.23989 5.33399 6.50511 5.33399H7.50511C7.77033 5.33399 8.02468 5.43935 8.21222 5.62689C8.39975 5.81442 8.50511 6.06878 8.50511 6.33399V10.334C8.50511 10.5992 8.39975 10.8536 8.21222 11.0411C8.02468 11.2286 7.77033 11.334 7.50511 11.334ZM2.83911 11.334H1.83911C1.57389 11.334 1.31954 11.2286 1.132 11.0411C0.944468 10.8536 0.839111 10.5992 0.839111 10.334V8.33399C0.839111 8.06878 0.944468 7.81442 1.132 7.62689C1.31954 7.43935 1.57389 7.33399 1.83911 7.33399H2.83911C3.10433 7.33399 3.35868 7.43935 3.54622 7.62689C3.73375 7.81442 3.83911 8.06878 3.83911 8.33399V10.334C3.83911 10.5992 3.73375 10.8536 3.54622 11.0411C3.35868 11.2286 3.10433 11.334 2.83911 11.334Z" fill="black"/>
</svg>
