<svg width="18" height="12" viewBox="0 0 18 12" fill="none" xmlns="http://www.w3.org/2000/svg">
<path fill-rule="evenodd" clip-rule="evenodd" d="M16.6666 0.435059H15.6666C15.1143 0.435059 14.6666 0.90224 14.6666 1.47854V10.522C14.6666 11.0983 15.1143 11.5655 15.6666 11.5655H16.6666C17.2189 11.5655 17.6666 11.0983 17.6666 10.522V1.47854C17.6666 0.90224 17.2189 0.435059 16.6666 0.435059ZM11 2.86984H12C12.5522 2.86984 13 3.33702 13 3.91332V10.522C13 11.0983 12.5522 11.5655 12 11.5655H11C10.4477 11.5655 9.99996 11.0983 9.99996 10.522V3.91332C9.99996 3.33702 10.4477 2.86984 11 2.86984ZM7.33329 5.30462H6.33329C5.78101 5.30462 5.33329 5.7718 5.33329 6.3481V10.522C5.33329 11.0983 5.78101 11.5655 6.33329 11.5655H7.33329C7.88558 11.5655 8.33329 11.0983 8.33329 10.522V6.3481C8.33329 5.7718 7.88558 5.30462 7.33329 5.30462ZM2.66663 7.39158H1.66663C1.11434 7.39158 0.666626 7.85876 0.666626 8.43506V10.522C0.666626 11.0983 1.11434 11.5655 1.66663 11.5655H2.66663C3.21891 11.5655 3.66663 11.0983 3.66663 10.522V8.43506C3.66663 7.85876 3.21891 7.39158 2.66663 7.39158Z" fill="white"/>
</svg>
