<svg width="18" height="12" viewBox="0 0 18 12" fill="none" xmlns="http://www.w3.org/2000/svg">
<path d="M16.8391 11.334H15.8391C15.5738 11.334 15.3195 11.2286 15.1319 11.0411C14.9444 10.8536 14.8391 10.5992 14.8391 10.334V1.66699C14.8391 1.40178 14.9444 1.14742 15.1319 0.959885C15.3195 0.772349 15.5738 0.666992 15.8391 0.666992H16.8391C17.1043 0.666992 17.3586 0.772349 17.5462 0.959885C17.7337 1.14742 17.8391 1.40178 17.8391 1.66699V10.334C17.8391 10.5992 17.7337 10.8536 17.5462 11.0411C17.3586 11.2286 17.1043 11.334 16.8391 11.334ZM12.1721 11.334H11.1721C10.9068 11.334 10.6525 11.2286 10.4649 11.0411C10.2774 10.8536 10.1721 10.5992 10.1721 10.334V4.00099C10.1721 3.73578 10.2774 3.48142 10.4649 3.29389C10.6525 3.10635 10.9068 3.00099 11.1721 3.00099H12.1721C12.4373 3.00099 12.6916 3.10635 12.8792 3.29389C13.0667 3.48142 13.1721 3.73578 13.1721 4.00099V10.334C13.1721 10.599 13.0668 10.8532 12.8795 11.0407C12.6922 11.2283 12.4381 11.3337 12.173 11.334H12.1721ZM7.50505 11.334H6.50505C6.23983 11.334 5.98548 11.2286 5.79794 11.0411C5.61041 10.8536 5.50505 10.5992 5.50505 10.334V6.33399C5.50505 6.06878 5.61041 5.81442 5.79794 5.62689C5.98548 5.43935 6.23983 5.33399 6.50505 5.33399H7.50505C7.77027 5.33399 8.02462 5.43935 8.21216 5.62689C8.39969 5.81442 8.50505 6.06878 8.50505 6.33399V10.334C8.50505 10.5992 8.39969 10.8536 8.21216 11.0411C8.02462 11.2286 7.77027 11.334 7.50505 11.334ZM2.83905 11.334H1.83905C1.57383 11.334 1.31948 11.2286 1.13194 11.0411C0.944407 10.8536 0.83905 10.5992 0.83905 10.334V8.33399C0.83905 8.06878 0.944407 7.81442 1.13194 7.62689C1.31948 7.43935 1.57383 7.33399 1.83905 7.33399H2.83905C3.10427 7.33399 3.35862 7.43935 3.54616 7.62689C3.73369 7.81442 3.83905 8.06878 3.83905 8.33399V10.334C3.83905 10.5992 3.73369 10.8536 3.54616 11.0411C3.35862 11.2286 3.10427 11.334 2.83905 11.334Z" fill="black"/>
</svg>
