<svg width="18" height="12" viewBox="0 0 18 12" fill="none" xmlns="http://www.w3.org/2000/svg">
<path fill-rule="evenodd" clip-rule="evenodd" d="M16.666 0.43457H15.666C15.1137 0.43457 14.666 0.901751 14.666 1.47805V10.5215C14.666 11.0978 15.1137 11.565 15.666 11.565H16.666C17.2183 11.565 17.666 11.0978 17.666 10.5215V1.47805C17.666 0.901751 17.2183 0.43457 16.666 0.43457ZM10.9993 2.86935H11.9993C12.5516 2.86935 12.9993 3.33653 12.9993 3.91283V10.5215C12.9993 11.0978 12.5516 11.565 11.9993 11.565H10.9993C10.4471 11.565 9.99935 11.0978 9.99935 10.5215V3.91283C9.99935 3.33653 10.4471 2.86935 10.9993 2.86935ZM7.33268 5.30414H6.33268C5.7804 5.30414 5.33268 5.77132 5.33268 6.34761V10.5215C5.33268 11.0978 5.7804 11.565 6.33268 11.565H7.33268C7.88497 11.565 8.33268 11.0978 8.33268 10.5215V6.34761C8.33268 5.77132 7.88497 5.30414 7.33268 5.30414ZM2.66602 7.39109H1.66602C1.11373 7.39109 0.666016 7.85827 0.666016 8.43457V10.5215C0.666016 11.0978 1.11373 11.565 1.66602 11.565H2.66602C3.2183 11.565 3.66602 11.0978 3.66602 10.5215V8.43457C3.66602 7.85827 3.2183 7.39109 2.66602 7.39109Z" fill="white"/>
</svg>
