<svg width="18" height="12" viewBox="0 0 18 12" fill="none" xmlns="http://www.w3.org/2000/svg">
<path fill-rule="evenodd" clip-rule="evenodd" d="M16.667 0.43457H15.667C15.1147 0.43457 14.667 0.901751 14.667 1.47805V10.5215C14.667 11.0978 15.1147 11.565 15.667 11.565H16.667C17.2193 11.565 17.667 11.0978 17.667 10.5215V1.47805C17.667 0.901751 17.2193 0.43457 16.667 0.43457ZM11.0003 2.86935H12.0003C12.5526 2.86935 13.0003 3.33653 13.0003 3.91283V10.5215C13.0003 11.0978 12.5526 11.565 12.0003 11.565H11.0003C10.448 11.565 10.0003 11.0978 10.0003 10.5215V3.91283C10.0003 3.33653 10.448 2.86935 11.0003 2.86935ZM7.33366 5.30414H6.33366C5.78137 5.30414 5.33366 5.77132 5.33366 6.34761V10.5215C5.33366 11.0978 5.78137 11.565 6.33366 11.565H7.33366C7.88594 11.565 8.33366 11.0978 8.33366 10.5215V6.34761C8.33366 5.77132 7.88594 5.30414 7.33366 5.30414ZM2.66699 7.39109H1.66699C1.11471 7.39109 0.666992 7.85827 0.666992 8.43457V10.5215C0.666992 11.0978 1.11471 11.565 1.66699 11.565H2.66699C3.21928 11.565 3.66699 11.0978 3.66699 10.5215V8.43457C3.66699 7.85827 3.21928 7.39109 2.66699 7.39109Z" fill="white"/>
</svg>
