<svg width="18" height="12" viewBox="0 0 18 12" fill="none" xmlns="http://www.w3.org/2000/svg">
<path fill-rule="evenodd" clip-rule="evenodd" d="M16.6667 0.43457H15.6667C15.1145 0.43457 14.6667 0.901751 14.6667 1.47805V10.5215C14.6667 11.0978 15.1145 11.565 15.6667 11.565H16.6667C17.219 11.565 17.6667 11.0978 17.6667 10.5215V1.47805C17.6667 0.901751 17.219 0.43457 16.6667 0.43457ZM11.0001 2.86935H12.0001C12.5524 2.86935 13.0001 3.33653 13.0001 3.91283V10.5215C13.0001 11.0978 12.5524 11.565 12.0001 11.565H11.0001C10.4478 11.565 10.0001 11.0978 10.0001 10.5215V3.91283C10.0001 3.33653 10.4478 2.86935 11.0001 2.86935ZM7.33341 5.30414H6.33341C5.78113 5.30414 5.33341 5.77132 5.33341 6.34761V10.5215C5.33341 11.0978 5.78113 11.565 6.33341 11.565H7.33341C7.8857 11.565 8.33341 11.0978 8.33341 10.5215V6.34761C8.33341 5.77132 7.8857 5.30414 7.33341 5.30414ZM2.66675 7.39109H1.66675C1.11446 7.39109 0.666748 7.85827 0.666748 8.43457V10.5215C0.666748 11.0978 1.11446 11.565 1.66675 11.565H2.66675C3.21903 11.565 3.66675 11.0978 3.66675 10.5215V8.43457C3.66675 7.85827 3.21903 7.39109 2.66675 7.39109Z" fill="white"/>
</svg>
