<svg width="32" height="28" viewBox="0 0 32 28" fill="none" xmlns="http://www.w3.org/2000/svg">
<path d="M29.9026 27.5792H2.13682C1.60157 27.5792 1.107 27.2936 0.839381 26.8301C0.571766 26.3665 0.571769 25.7955 0.83939 25.3319L14.7215 1.36101C14.9894 0.898239 15.4835 0.613281 16.0182 0.613281C16.5529 0.613281 17.0471 0.898239 17.3149 1.36101L31.197 25.3319C31.4645 25.7952 31.4647 26.366 31.1974 26.8294C30.9302 27.2929 30.4361 27.5786 29.9011 27.5792H29.9026ZM14.5223 20.0883V23.0846H15.9201H16.0175H16.1149H17.5156V20.0883H14.5223ZM14.5223 9.60101V17.0919H17.5186V9.60101H14.5223Z" fill="#FCCA3D"/>
</svg>
