<svg width="48" height="48" viewBox="0 0 48 48" fill="none" xmlns="http://www.w3.org/2000/svg">
<path d="M0.666016 47.334V26.9172H21.0827L11.6998 36.3089C14.9371 39.6194 19.369 41.4901 23.9993 41.5006C31.4061 41.4896 38.0038 36.817 40.4727 29.8339H40.5252C40.8593 28.8849 41.112 27.9091 41.2806 26.9172H47.1489C45.6791 38.5836 35.758 47.3335 23.9993 47.334H23.9702C17.7832 47.3524 11.8461 44.8948 7.48226 40.5089L0.666016 47.334ZM6.71518 21.0839H0.846849C2.31612 9.42192 12.2306 0.673481 23.9848 0.667111H23.9993C30.1874 0.647311 36.126 3.1051 40.4902 7.49223L47.3327 0.667111V21.0839H26.916L36.3135 11.6922C33.0728 8.37787 28.6348 6.5068 23.9993 6.50056C16.5926 6.5115 9.99492 11.1841 7.52602 18.1672H7.47352C7.13681 19.1155 6.88403 20.0914 6.7181 21.0839H6.71518Z" fill="white"/>
</svg>
