<svg width="82" height="66" viewBox="0 0 82 66" fill="none" xmlns="http://www.w3.org/2000/svg">
<path d="M73.7759 65.7759H8.35531C3.98242 65.9068 0.326633 62.4777 0.177734 58.1054V8.02179C0.32662 3.65009 3.9831 0.222139 8.35531 0.355315H73.7759C78.1481 0.222139 81.8046 3.65009 81.9535 8.02179V58.1094C81.8024 62.4801 78.1473 65.9068 73.7759 65.7759ZM8.35531 8.53289V57.5534L73.7759 57.5983V8.57787L8.35531 8.53289ZM46.9126 49.4208H16.5329C16.8335 46.0355 18.4356 42.8988 21.0019 40.6708C23.8593 37.8361 27.6986 36.2107 31.7227 36.1322C35.7469 36.2107 39.5862 37.8361 42.4435 40.6708C45.0092 42.8994 46.6111 46.0357 46.9126 49.4208ZM65.5983 45.332H53.332V37.1544H65.5983V45.332ZM31.7227 33.0656C29.5314 33.1418 27.4069 32.3047 25.8565 30.7543C24.3061 29.2039 23.469 27.0793 23.5452 24.888C23.4702 22.6971 24.3077 20.5733 25.8579 19.0232C27.408 17.473 29.5318 16.6355 31.7227 16.7105C33.9137 16.6355 36.0375 17.473 37.5876 19.0232C39.1377 20.5733 39.9752 22.6971 39.9003 24.888C39.9765 27.0793 39.1394 29.2039 37.589 30.7543C36.0386 32.3047 33.914 33.1418 31.7227 33.0656ZM65.5983 28.9768H49.2432V20.7993H65.5983V28.9768Z" fill="white"/>
</svg>
