<svg width="48" height="64" viewBox="0 0 48 64" fill="none" xmlns="http://www.w3.org/2000/svg">
<path d="M15.4582 0.126453L33.1397 10.3348L22.9313 28.0162L19.4894 15.1945C15.0037 16.3429 11.1677 19.2457 8.84347 23.2504C5.14958 29.6703 5.89731 37.7204 10.7104 43.3501L10.6842 43.3956C11.339 44.1594 12.0577 44.8661 12.8324 45.5081L9.89821 50.5902C0.529739 43.4841 -2.08733 30.5172 3.79156 20.3337L3.80615 20.3085C6.88369 14.9412 11.9806 11.0283 17.9608 9.44205L15.4582 0.126453ZM35.1669 18.4902L38.1011 13.4081C47.466 20.5115 50.0851 33.4719 44.2136 43.6545L44.2063 43.6672C41.1294 49.0361 36.0316 52.9502 30.0501 54.5361L32.5396 63.8744L14.8582 53.666L25.0665 35.9847L28.5012 48.819C32.9919 47.6696 36.8312 44.7617 39.1544 40.7504C42.8483 34.3306 42.1005 26.2805 37.2874 20.6508L37.3136 20.6053C36.6608 19.8396 35.942 19.1327 35.1654 18.4928L35.1669 18.4902Z" fill="white"/>
</svg>
