<svg width="66" height="48" viewBox="0 0 66 48" fill="none" xmlns="http://www.w3.org/2000/svg">
<path d="M0.00144044 24.0005L14.4383 9.56368L28.875 24.0004L15.5994 24.0066C15.5477 28.6367 17.3587 33.0933 20.6255 36.3748C25.8705 41.6044 33.8398 42.9657 40.5234 39.7736L40.5606 39.8108C41.4679 39.3759 42.3365 38.8647 43.1571 38.2825L47.3067 42.4321C38.018 49.6421 24.8155 48.8139 16.5006 40.4997L16.48 40.479C12.0921 36.1172 9.63174 30.1812 9.64733 23.9943L0.00144044 24.0005ZM22.8405 9.71629L18.6909 5.56675C27.9761 -1.64058 41.1728 -0.816064 49.4888 7.49088L49.4991 7.50119C53.8887 11.8628 56.35 17.8 56.3338 23.9881L65.9982 24.0004L51.5614 38.4372L37.1246 24.0004L50.4106 24.0046C50.4626 19.3694 48.6475 14.9082 45.3742 11.6261C40.1291 6.39646 32.1598 5.0352 25.4762 8.22724L25.4391 8.19012C24.5305 8.62253 23.6616 9.13391 22.8425 9.71835L22.8405 9.71629Z" fill="white"/>
</svg>
