<svg width="24" height="18" viewBox="0 0 24 18" fill="none" xmlns="http://www.w3.org/2000/svg">
<path fill-rule="evenodd" clip-rule="evenodd" d="M4.21283 4.77835C4.19791 4.79199 4.16863 4.8203 4.13633 4.85212C4.11292 4.87518 4.09421 4.89382 4.05548 4.93255L1.91232 7.07571C1.8562 7.13449 1.81721 7.17396 1.72664 7.26454C1.67611 7.31507 1.639 7.35389 1.55916 7.43872C1.41071 7.58239 1.25417 7.75389 1.10748 7.93494C0.969168 8.08126 0.858656 8.25168 0.781475 8.43786C0.622572 8.92198 0.622572 9.39253 0.764118 9.82955L0.783078 9.88047C0.860884 10.0647 0.970736 10.2336 1.10746 10.3793C1.25427 10.5591 1.4108 10.7306 1.57632 10.8933C1.639 10.9606 1.67611 10.9994 1.72664 11.05L1.91232 11.2356L3.86629 13.1928C3.95767 13.2841 4.00254 13.3285 4.05452 13.3782C4.10992 13.4365 4.1681 13.4945 4.22651 13.5494C4.23696 13.5587 6.72734 16.0475 6.72734 16.0475C6.80426 16.1244 6.8663 16.1849 7.00586 16.3196C7.02068 16.3341 7.04316 16.357 7.05007 16.3642C7.086 16.402 7.10683 16.4239 7.12073 16.4378C7.41115 16.7285 7.74503 16.973 8.11031 17.1621C8.48458 17.3484 8.87402 17.4766 9.27574 17.5473C9.65523 17.6093 10.0311 17.6426 10.408 17.648C10.4728 17.6493 10.5267 17.65 10.6468 17.6512C10.7627 17.6523 10.8137 17.653 10.8765 17.6542L18.2973 17.6543C18.3738 17.653 18.4255 17.6523 18.5427 17.6512C18.6639 17.65 18.7184 17.6493 18.788 17.6479C19.1664 17.6412 19.5449 17.6069 19.9195 17.5453C20.3301 17.4758 20.7251 17.3454 21.0938 17.158C21.4653 16.9694 21.8044 16.7226 22.0983 16.4271C22.3907 16.1336 22.6361 15.7963 22.8256 15.4275C23.0127 15.053 23.1412 14.6598 23.2104 14.2543C23.2732 13.8752 23.3065 13.4948 23.3106 13.1135C23.3139 13.035 23.3154 12.96 23.3175 12.7941C23.3186 12.7152 23.3191 12.6804 23.3199 12.6377L23.32 5.64827C23.3191 5.59381 23.3186 5.55922 23.3175 5.48178L23.3164 5.40132C23.3149 5.29985 23.3131 5.22372 23.3101 5.1479C23.306 4.789 23.2739 4.41342 23.2146 4.04169C23.1423 3.63004 23.0141 3.2406 22.8324 2.87541C22.6415 2.50247 22.3976 2.16769 22.1065 1.87667C21.8164 1.58426 21.4794 1.33849 21.11 1.15041C20.7431 0.966585 20.3554 0.838202 19.9554 0.76736C19.5718 0.706264 19.1953 0.674219 18.8179 0.669644C18.6931 0.664408 18.5826 0.663303 18.3382 0.663303C18.2581 0.661881 18.1645 0.660998 18.0592 0.660555C17.98 0.660222 17.917 0.660156 17.7749 0.660156H11.4524C11.1688 0.660156 11.0404 0.660694 10.8786 0.663391C10.6447 0.663303 10.5342 0.664408 10.3919 0.6701C10.0331 0.673929 9.65721 0.706019 9.28518 0.765648C8.87402 0.837911 8.48458 0.966067 8.11939 1.14776C7.74503 1.34154 7.41115 1.58597 7.12045 1.87702C7.10683 1.89064 7.086 1.91248 7.05149 1.94882C7.04317 1.95753 7.00586 1.99489 7.00586 1.99489C6.8663 2.12964 6.80426 2.19007 6.72734 2.26698L6.40634 2.58799L4.27139 4.72603C4.25268 4.74096 4.23266 4.75852 4.21283 4.77835ZM17.7749 1.91899C17.9152 1.91899 17.977 1.91905 18.0539 1.91937C18.1543 1.9198 18.2428 1.92063 18.3277 1.92204C18.5659 1.92213 18.6652 1.92313 18.7851 1.92792C19.1189 1.93221 19.4345 1.95907 19.7468 2.00874C20.0163 2.05655 20.288 2.14653 20.5425 2.27405C20.7889 2.39952 21.0171 2.56594 21.2148 2.76516C21.4148 2.96517 21.5809 3.19318 21.7087 3.44272C21.8332 3.69314 21.9234 3.96719 21.9732 4.24988C22.0211 4.55116 22.048 4.86559 22.0518 5.18071C22.0548 5.26151 22.0564 5.32819 22.0577 5.42001L22.0588 5.49841C22.0599 5.5787 22.0604 5.61519 22.0613 5.66085L22.0612 12.6253C22.0604 12.6594 22.0599 12.696 22.0588 12.7776C22.0568 12.9326 22.0555 13.0003 22.0522 13.0822C22.0484 13.417 22.0208 13.7331 21.969 14.0456C21.9211 14.3263 21.8312 14.6012 21.7027 14.8586C21.5758 15.1056 21.4072 15.3373 21.2062 15.5391C21.0063 15.74 20.776 15.9076 20.5236 16.0358C20.2682 16.1656 19.9947 16.2559 19.7123 16.3036C19.4008 16.3549 19.0831 16.3837 18.7645 16.3893C18.6992 16.3906 18.6474 16.3912 18.5303 16.3924C18.409 16.3936 18.3546 16.3943 18.285 16.3956L10.8891 16.3955C10.8333 16.3943 10.7795 16.3936 10.6594 16.3924C10.5434 16.3912 10.4924 16.3906 10.4296 16.3894C10.1112 16.3848 9.79709 16.357 9.48629 16.3062C9.21117 16.2577 8.93711 16.1676 8.68013 16.0397C8.43898 15.9147 8.21026 15.7473 8.01112 15.5479L7.96197 15.4964C7.91313 15.4453 7.89198 15.4235 7.86767 15.4019C7.74227 15.2808 7.68519 15.2251 7.61747 15.1574L5.12184 12.6618C5.09905 12.641 5.08526 12.6285 5.07574 12.62C5.03064 12.5767 4.99375 12.5394 4.95888 12.5024C4.88682 12.4326 4.84735 12.3936 4.75678 12.303L2.8028 10.3459L2.61677 10.1598C2.57814 10.1212 2.54706 10.0887 2.47584 10.013C2.32083 9.86002 2.19078 9.71687 2.06912 9.5667L2.03105 9.52385C1.99933 9.49126 1.97299 9.4539 1.95297 9.41317C1.90455 9.24535 1.90473 9.0672 1.95352 8.89946C1.97239 8.86036 1.99759 8.82459 2.02815 8.79362L2.07105 8.74542C2.19071 8.59623 2.31943 8.45455 2.45648 8.32116C2.54706 8.22581 2.57814 8.19329 2.61677 8.15466C2.71502 8.05641 2.75891 8.01196 2.81371 7.95428L4.75678 6.01151L4.9456 5.82268C4.98319 5.7851 4.99931 5.76903 5.01974 5.74891L5.06132 5.71154L5.06133 5.71153L5.06137 5.71149C5.09159 5.6844 5.10835 5.66937 5.12499 5.65274L7.29679 3.47779L7.61747 3.15711C7.68519 3.08939 7.74227 3.03374 7.86767 2.91263C7.89198 2.89103 7.91313 2.86924 7.96034 2.81981L8.01085 2.76687C8.21026 2.56722 8.43898 2.39978 8.68921 2.27019C8.93711 2.14694 9.21117 2.05676 9.49386 2.00702C9.79527 1.95879 10.1094 1.93197 10.4242 1.92839C10.5621 1.92313 10.6615 1.92213 10.8891 1.92213C11.0521 1.9195 11.1758 1.91899 11.4524 1.91899H17.7749ZM11.8129 12.4886C11.762 12.5386 11.7012 12.5793 11.6326 12.6076C11.4206 12.6952 11.1768 12.6462 11.015 12.4837C10.7949 12.2627 10.7949 11.9054 11.015 11.6844C11.0471 11.6521 11.0823 11.6244 11.12 11.6013L13.5641 9.15453L11.015 6.60812L11.0227 6.60042C10.9727 6.54947 10.932 6.48864 10.9037 6.42011C10.8161 6.20813 10.865 5.96429 11.0276 5.80247C11.2486 5.58242 11.6059 5.58242 11.8269 5.80247C11.8591 5.83451 11.8868 5.86975 11.9099 5.90733L14.3621 8.35564L16.8374 5.87771C16.8558 5.85131 16.8766 5.82612 16.9 5.80247C17.0612 5.64057 17.3041 5.59183 17.5152 5.67902C17.7264 5.76621 17.8642 5.97212 17.8642 6.20058C17.8642 6.35286 17.803 6.49513 17.6996 6.59889L17.7057 6.60498L15.1606 9.15278L17.6445 11.6327C17.6669 11.6491 17.6884 11.6674 17.7088 11.6875C17.8707 11.8487 17.9194 12.0916 17.8323 12.3027C17.7451 12.5139 17.5392 12.6517 17.3107 12.6517C17.1584 12.6517 17.0161 12.5904 16.9124 12.4871L16.9063 12.4931L14.3623 9.95189L11.8206 12.4963L11.8129 12.4886Z" fill="black"/>
</svg>
