<svg width="375" height="75" viewBox="0 0 375 75" fill="none" xmlns="http://www.w3.org/2000/svg">
<g clip-path="url(#clip0)">
<path d="M25.7861 24.436H27.3221L30.6981 34.5H29.3861L28.5221 31.94H24.5221L23.6581 34.5H22.3301L25.7861 24.436ZM24.8581 30.948H28.2021L26.5381 25.988L24.8581 30.948ZM32.7332 23.604H33.9972V34.5H32.7332V23.604ZM37.2176 23.604H38.4816V34.5H37.2176V23.604Z" fill="white"/>
<rect x="160.598" y="41.5" width="30.9017" height="4" fill="white"/>
<path d="M163.205 24.436L166.597 31.252L169.957 24.436H171.733V34.5H170.469V26.228L167.013 33.236H166.165L162.661 26.116V34.5H161.397V24.436H163.205ZM177.6 33.652C178.656 33.652 179.258 33.188 179.408 32.26H180.704C180.586 33.028 180.245 33.6253 179.68 34.052C179.125 34.468 178.432 34.676 177.6 34.676C176.576 34.676 175.744 34.3133 175.104 33.588C174.464 32.852 174.144 31.876 174.144 30.66C174.144 29.444 174.464 28.4733 175.104 27.748C175.754 27.0227 176.613 26.66 177.68 26.66C178.757 26.66 179.557 27.076 180.08 27.908C180.613 28.74 180.8 29.7533 180.64 30.948H175.408C175.408 31.7373 175.6 32.388 175.984 32.9C176.368 33.4013 176.906 33.652 177.6 33.652ZM178.528 27.86C178.282 27.732 177.984 27.668 177.632 27.668C176.981 27.668 176.464 27.892 176.08 28.34C175.706 28.7773 175.488 29.3267 175.424 29.988H179.504C179.504 28.9213 179.178 28.212 178.528 27.86ZM184.41 28.324C184.911 27.2147 185.77 26.66 186.986 26.66C187.893 26.66 188.597 26.9587 189.098 27.556C189.61 28.1533 189.866 28.9693 189.866 30.004V34.5H188.618V30.004C188.618 29.268 188.442 28.7133 188.09 28.34C187.749 27.9667 187.258 27.78 186.618 27.78C185.978 27.78 185.461 28.0413 185.066 28.564C184.671 29.0867 184.463 29.812 184.442 30.74V34.5H183.178V26.852H184.266L184.41 28.324Z" fill="white"/>
<path d="M73.9601 24.436L76.4081 32.804L78.8881 25.476H79.7361L82.2001 32.804L85.0161 24.436H86.4081L82.8561 34.5H81.5281L79.3361 28.052L77.0641 34.5H75.7361L72.5521 24.436H73.9601ZM90.4774 26.66C91.544 26.66 92.4027 27.0067 93.0534 27.7C93.7147 28.3933 94.0454 29.3853 94.0454 30.676C94.0454 31.956 93.7147 32.9427 93.0534 33.636C92.4027 34.3293 91.544 34.676 90.4774 34.676C89.4107 34.676 88.5467 34.3293 87.8854 33.636C87.2347 32.9427 86.9094 31.956 86.9094 30.676C86.9094 29.3853 87.2347 28.3933 87.8854 27.7C88.5467 27.0067 89.4107 26.66 90.4774 26.66ZM92.7654 30.676C92.7654 29.7587 92.5734 29.044 92.1894 28.532C91.8054 28.0093 91.24 27.748 90.4934 27.748C89.7574 27.748 89.192 28.0093 88.7974 28.532C88.4027 29.044 88.2054 29.7587 88.2054 30.676C88.2054 31.5827 88.392 32.2973 88.7654 32.82C89.1387 33.332 89.6934 33.588 90.4294 33.588C91.176 33.588 91.752 33.332 92.1574 32.82C92.5627 32.2973 92.7654 31.5827 92.7654 30.676ZM97.6758 28.324C98.1771 27.2147 99.0358 26.66 100.252 26.66C100.913 26.66 101.468 26.8253 101.916 27.156C102.364 27.476 102.689 27.924 102.892 28.5C103.372 27.2733 104.262 26.66 105.564 26.66C106.481 26.66 107.19 26.9587 107.692 27.556C108.193 28.1533 108.444 28.9693 108.444 30.004V34.5H107.196V30.004C107.196 29.268 107.02 28.7133 106.668 28.34C106.326 27.9667 105.83 27.78 105.18 27.78C104.529 27.78 104.022 28.0467 103.66 28.58C103.308 29.1133 103.132 29.8493 103.132 30.788V34.5H101.884V30.004C101.884 29.268 101.708 28.7133 101.356 28.34C101.014 27.9667 100.524 27.78 99.8838 27.78C99.2438 27.78 98.7264 28.0413 98.3318 28.564C97.9371 29.0867 97.7291 29.812 97.7078 30.74V34.5H96.4438V26.852H97.5318L97.6758 28.324ZM114.053 33.652C115.109 33.652 115.712 33.188 115.861 32.26H117.157C117.04 33.028 116.698 33.6253 116.133 34.052C115.578 34.468 114.885 34.676 114.053 34.676C113.029 34.676 112.197 34.3133 111.557 33.588C110.917 32.852 110.597 31.876 110.597 30.66C110.597 29.444 110.917 28.4733 111.557 27.748C112.208 27.0227 113.066 26.66 114.133 26.66C115.21 26.66 116.01 27.076 116.533 27.908C117.066 28.74 117.253 29.7533 117.093 30.948H111.861C111.861 31.7373 112.053 32.388 112.437 32.9C112.821 33.4013 113.36 33.652 114.053 33.652ZM114.981 27.86C114.736 27.732 114.437 27.668 114.085 27.668C113.434 27.668 112.917 27.892 112.533 28.34C112.16 28.7773 111.941 29.3267 111.877 29.988H115.957C115.957 28.9213 115.632 28.212 114.981 27.86ZM120.863 28.324C121.365 27.2147 122.223 26.66 123.439 26.66C124.346 26.66 125.05 26.9587 125.551 27.556C126.063 28.1533 126.319 28.9693 126.319 30.004V34.5H125.071V30.004C125.071 29.268 124.895 28.7133 124.543 28.34C124.202 27.9667 123.711 27.78 123.071 27.78C122.431 27.78 121.914 28.0413 121.519 28.564C121.125 29.0867 120.917 29.812 120.895 30.74V34.5H119.631V26.852H120.719L120.863 28.324Z" fill="white"/>
<path d="M226.669 24.436V29.092L231.165 24.436H232.909L228.509 28.964L233.181 34.5H231.549L227.661 29.844L226.669 30.868V34.5H225.389V24.436H226.669ZM235.219 26.836H236.483V34.5H235.219V26.836ZM235.843 25.044C235.587 25.044 235.385 24.9747 235.235 24.836C235.097 24.6867 235.027 24.4947 235.027 24.26C235.027 24.0147 235.097 23.8227 235.235 23.684C235.385 23.5347 235.587 23.46 235.843 23.46C236.099 23.46 236.302 23.5347 236.451 23.684C236.611 23.8227 236.691 24.0147 236.691 24.26C236.691 24.4947 236.611 24.6867 236.451 24.836C236.302 24.9747 236.099 25.044 235.843 25.044ZM244.929 27.988V23.604H246.177V34.5H245.153L244.993 33.22C244.747 33.7 244.422 34.0627 244.017 34.308C243.611 34.5533 243.169 34.676 242.689 34.676C241.718 34.676 240.902 34.3027 240.241 33.556C239.59 32.8093 239.265 31.8387 239.265 30.644C239.265 29.4387 239.585 28.4733 240.225 27.748C240.875 27.0227 241.691 26.66 242.673 26.66C243.665 26.66 244.417 27.1027 244.929 27.988ZM242.753 27.78C242.134 27.78 241.611 28.0413 241.185 28.564C240.769 29.0867 240.561 29.7853 240.561 30.66C240.561 31.5347 240.774 32.2387 241.201 32.772C241.627 33.2947 242.139 33.556 242.737 33.556C243.334 33.556 243.841 33.3587 244.257 32.964C244.683 32.5587 244.907 32.02 244.929 31.348V30.1C244.929 29.3853 244.721 28.82 244.305 28.404C243.889 27.988 243.371 27.78 242.753 27.78ZM249.021 28.724C249.021 28.0947 249.287 27.5933 249.821 27.22C250.365 26.8467 251.095 26.66 252.013 26.66C252.93 26.66 253.645 26.852 254.157 27.236C254.679 27.62 254.951 28.1053 254.973 28.692H253.741C253.645 27.9987 253.058 27.652 251.981 27.652C251.458 27.652 251.053 27.7693 250.765 28.004C250.487 28.2387 250.349 28.4947 250.349 28.772C250.349 29.0387 250.455 29.268 250.669 29.46C250.882 29.6413 251.223 29.8013 251.693 29.94L253.229 30.452C253.879 30.6547 254.375 30.916 254.717 31.236C255.069 31.5453 255.245 31.9773 255.245 32.532C255.245 33.076 254.962 33.572 254.397 34.02C253.831 34.4573 253.042 34.676 252.029 34.676C251.015 34.676 250.226 34.452 249.661 34.004C249.095 33.5453 248.797 32.9587 248.765 32.244H249.981C250.002 32.724 250.194 33.0867 250.557 33.332C250.93 33.5667 251.394 33.684 251.949 33.684C252.503 33.684 252.962 33.5667 253.325 33.332C253.687 33.0973 253.869 32.82 253.869 32.5C253.869 32.1693 253.762 31.9187 253.549 31.748C253.335 31.5773 252.989 31.428 252.509 31.3L251.021 30.804C249.687 30.4093 249.021 29.716 249.021 28.724Z" fill="white"/>
<path d="M294.043 24.436C295.152 24.436 295.995 24.7187 296.571 25.284C297.158 25.8387 297.451 26.5907 297.451 27.54C297.451 28.4893 297.158 29.2413 296.571 29.796C295.995 30.34 295.152 30.612 294.043 30.612H292.059V34.5H290.795V24.436H294.043ZM294.043 29.524C294.736 29.524 295.259 29.348 295.611 28.996C295.974 28.644 296.155 28.164 296.155 27.556C296.155 26.9373 295.974 26.4467 295.611 26.084C295.259 25.7107 294.736 25.524 294.043 25.524H292.059V29.524H294.043ZM299.686 23.604H300.95V34.5H299.686V23.604ZM309.371 32.98C308.848 34.0893 308 34.644 306.827 34.644C305.963 34.644 305.264 34.404 304.731 33.924C304.208 33.444 303.947 32.7027 303.947 31.7V26.836H305.211V31.604C305.211 32.8947 305.808 33.54 307.003 33.54C307.696 33.54 308.256 33.2733 308.683 32.74C309.12 32.2067 309.349 31.524 309.371 30.692V26.836H310.635V34.5H309.371V32.98ZM313.474 28.724C313.474 28.0947 313.74 27.5933 314.274 27.22C314.818 26.8467 315.548 26.66 316.466 26.66C317.383 26.66 318.098 26.852 318.61 27.236C319.132 27.62 319.404 28.1053 319.426 28.692H318.194C318.098 27.9987 317.511 27.652 316.434 27.652C315.911 27.652 315.506 27.7693 315.218 28.004C314.94 28.2387 314.802 28.4947 314.802 28.772C314.802 29.0387 314.908 29.268 315.122 29.46C315.335 29.6413 315.676 29.8013 316.146 29.94L317.682 30.452C318.332 30.6547 318.828 30.916 319.17 31.236C319.522 31.5453 319.698 31.9773 319.698 32.532C319.698 33.076 319.415 33.572 318.85 34.02C318.284 34.4573 317.495 34.676 316.482 34.676C315.468 34.676 314.679 34.452 314.114 34.004C313.548 33.5453 313.25 32.9587 313.218 32.244H314.434C314.455 32.724 314.647 33.0867 315.01 33.332C315.383 33.5667 315.847 33.684 316.402 33.684C316.956 33.684 317.415 33.5667 317.778 33.332C318.14 33.0973 318.322 32.82 318.322 32.5C318.322 32.1693 318.215 31.9187 318.002 31.748C317.788 31.5773 317.442 31.428 316.962 31.3L315.474 30.804C314.14 30.4093 313.474 29.716 313.474 28.724ZM331.468 26.884C331.287 25.9027 330.567 25.412 329.308 25.412C328.636 25.412 328.119 25.5613 327.756 25.86C327.394 26.148 327.212 26.5 327.212 26.916C327.212 27.3213 327.324 27.6307 327.548 27.844C327.772 28.0573 328.135 28.244 328.636 28.404L330.732 29.124C331.447 29.3693 332.012 29.7053 332.428 30.132C332.855 30.5587 333.068 31.1613 333.068 31.94C333.068 32.708 332.738 33.3587 332.076 33.892C331.415 34.4147 330.53 34.676 329.42 34.676C328.311 34.676 327.399 34.3987 326.684 33.844C325.98 33.2787 325.618 32.4893 325.596 31.476H326.828C326.828 32.1373 327.058 32.644 327.516 32.996C327.986 33.348 328.583 33.524 329.308 33.524C330.044 33.524 330.626 33.364 331.052 33.044C331.479 32.7133 331.692 32.3293 331.692 31.892C331.692 31.444 331.559 31.092 331.292 30.836C331.036 30.58 330.652 30.3667 330.14 30.196L328.364 29.54C327.532 29.2627 326.903 28.932 326.476 28.548C326.05 28.164 325.836 27.604 325.836 26.868C325.836 26.1213 326.135 25.5027 326.732 25.012C327.33 24.5107 328.167 24.26 329.244 24.26C330.322 24.26 331.143 24.5 331.708 24.98C332.284 25.4493 332.615 26.084 332.7 26.884H331.468ZM335.876 26.836H337.14V34.5H335.876V26.836ZM336.5 25.044C336.244 25.044 336.041 24.9747 335.892 24.836C335.753 24.6867 335.684 24.4947 335.684 24.26C335.684 24.0147 335.753 23.8227 335.892 23.684C336.041 23.5347 336.244 23.46 336.5 23.46C336.756 23.46 336.958 23.5347 337.108 23.684C337.268 23.8227 337.348 24.0147 337.348 24.26C337.348 24.4947 337.268 24.6867 337.108 24.836C336.958 24.9747 336.756 25.044 336.5 25.044ZM339.809 33.476L344.305 27.876H339.809V26.852H345.729V27.876L341.297 33.476H345.729V34.5H339.809V33.476ZM350.811 33.652C351.867 33.652 352.469 33.188 352.619 32.26H353.915C353.797 33.028 353.456 33.6253 352.891 34.052C352.336 34.468 351.643 34.676 350.811 34.676C349.787 34.676 348.955 34.3133 348.315 33.588C347.675 32.852 347.355 31.876 347.355 30.66C347.355 29.444 347.675 28.4733 348.315 27.748C348.965 27.0227 349.824 26.66 350.891 26.66C351.968 26.66 352.768 27.076 353.291 27.908C353.824 28.74 354.011 29.7533 353.851 30.948H348.619C348.619 31.7373 348.811 32.388 349.195 32.9C349.579 33.4013 350.117 33.652 350.811 33.652ZM351.739 27.86C351.493 27.732 351.195 27.668 350.843 27.668C350.192 27.668 349.675 27.892 349.291 28.34C348.917 28.7773 348.699 29.3267 348.635 29.988H352.715C352.715 28.9213 352.389 28.212 351.739 27.86Z" fill="white"/>
</g>
<defs>
<clipPath id="clip0">
<rect width="375" height="75" fill="white"/>
</clipPath>
</defs>
</svg>
