<svg width="32" height="34" viewBox="0 0 32 34" fill="none" xmlns="http://www.w3.org/2000/svg">
<g filter="url(#filter0_d)">
<path fill-rule="evenodd" clip-rule="evenodd" d="M19.9337 10.4932C19.9337 11.616 19.4877 12.6928 18.6937 13.4867C17.8998 14.2806 16.823 14.7266 15.7002 14.7266C14.5775 14.7266 13.5007 14.2806 12.7067 13.4867C11.9128 12.6928 11.4668 11.616 11.4668 10.4932C11.4668 9.37043 11.9128 8.29364 12.7067 7.49971C13.5007 6.70579 14.5775 6.25977 15.7002 6.25977C16.823 6.25977 17.8998 6.70579 18.6937 7.49971C19.4877 8.29364 19.9337 9.37043 19.9337 10.4932ZM17.817 10.4932C17.817 11.0546 17.5939 11.593 17.197 11.99C16.8 12.3869 16.2616 12.6099 15.7002 12.6099C15.1388 12.6099 14.6005 12.3869 14.2035 11.99C13.8065 11.593 13.5835 11.0546 13.5835 10.4932C13.5835 9.93182 13.8065 9.39342 14.2035 8.99646C14.6005 8.5995 15.1388 8.37649 15.7002 8.37649C16.2616 8.37649 16.8 8.5995 17.197 8.99646C17.5939 9.39342 17.817 9.93182 17.817 10.4932Z" fill="url(#paint0_linear)"/>
<path fill-rule="evenodd" clip-rule="evenodd" d="M15.7003 2.02637C9.27077 2.02637 4.05835 7.23879 4.05835 13.6683C4.05835 20.0979 9.27077 25.3103 15.7003 25.3103C22.1298 25.3103 27.3423 20.0979 27.3423 13.6683C27.3423 7.23879 22.1298 2.02637 15.7003 2.02637ZM6.17507 13.6683C6.17507 15.8803 6.92968 17.9166 8.19442 19.5338C9.08263 18.3673 10.2285 17.4221 11.5425 16.7718C12.8565 16.1215 14.303 15.7838 15.7691 15.785C17.2162 15.7837 18.6446 16.1126 19.9453 16.7469C21.2461 17.3811 22.3849 18.3039 23.275 19.4449C24.192 18.2421 24.8094 16.8383 25.0762 15.3496C25.343 13.8609 25.2514 12.3301 24.8091 10.8838C24.3668 9.43746 23.5864 8.11728 22.5325 7.03245C21.4787 5.94762 20.1817 5.12933 18.7488 4.64529C17.3159 4.16125 15.7884 4.02537 14.2925 4.24889C12.7967 4.47242 11.3756 5.04893 10.1469 5.93071C8.91807 6.8125 7.91693 7.97421 7.22626 9.31973C6.5356 10.6653 6.17526 12.1559 6.17507 13.6683ZM15.7003 23.1936C13.5137 23.1968 11.3931 22.4446 9.69729 21.0641C10.3799 20.087 11.2884 19.2892 12.3455 18.7386C13.4027 18.188 14.5772 17.9009 15.7691 17.9018C16.9462 17.9008 18.1065 18.1807 19.1537 18.7182C20.2008 19.2557 21.1047 20.0353 21.7901 20.9922C20.0812 22.4175 17.9256 23.1967 15.7003 23.1936Z" fill="url(#paint1_linear)"/>
</g>
<defs>
<filter id="filter0_d" x="-1" y="0.967773" width="33.4006" height="33.4006" filterUnits="userSpaceOnUse" color-interpolation-filters="sRGB">
<feFlood flood-opacity="0" result="BackgroundImageFix"/>
<feColorMatrix in="SourceAlpha" type="matrix" values="0 0 0 0 0 0 0 0 0 0 0 0 0 0 0 0 0 0 127 0"/>
<feOffset dy="4"/>
<feGaussianBlur stdDeviation="2"/>
<feColorMatrix type="matrix" values="0 0 0 0 0.429167 0 0 0 0 0.429167 0 0 0 0 0.429167 0 0 0 0.25 0"/>
<feBlend mode="normal" in2="BackgroundImageFix" result="effect1_dropShadow"/>
<feBlend mode="normal" in="SourceGraphic" in2="effect1_dropShadow" result="shape"/>
</filter>
<linearGradient id="paint0_linear" x1="13.0518" y1="-10.6086" x2="35.6945" y2="13.4755" gradientUnits="userSpaceOnUse">
<stop stop-color="#FB09C6"/>
<stop offset="1" stop-color="#35168A"/>
</linearGradient>
<linearGradient id="paint1_linear" x1="7" y1="-35.5" x2="61.426" y2="19.2024" gradientUnits="userSpaceOnUse">
<stop stop-color="#FB09C6"/>
<stop offset="1" stop-color="#35168A"/>
</linearGradient>
</defs>
</svg>
