<svg width="72" height="30" viewBox="0 0 72 30" fill="none" xmlns="http://www.w3.org/2000/svg">
<path d="M3.1536 5.80541V0.407263H4.80549C6.80778 0.407263 7.50858 1.73134 7.50858 3.00448C7.50858 4.73597 6.45738 5.85634 4.25486 5.85634H3.1536V5.80541ZM5.55635 6.11097C8.25944 5.90726 9.66104 4.73597 9.66104 3.05541C9.66104 1.47671 8.60984 0.0507812 5.40618 0.0507812H0V0.458189H1.15132V12.0693H0V12.4767H4.50515V12.0693H3.1536V6.16189H3.20366L7.90904 12.4258H10.9125V12.0184H10.0114L5.55635 6.11097Z" fill="black"/>
<path d="M17.8704 7.23148L19.7226 1.98611H19.7726L21.5747 7.23148H17.8704ZM21.0741 0H19.8727L15.6179 12.0694H14.5166V12.4769H17.9205V12.0694H16.1184L17.7203 7.48611H21.6748L23.2266 12.0694H21.875V12.4769H25.9797V12.0694H25.2288L21.0741 0Z" fill="black"/>
<path d="M36.6919 12.0184H33.9388V0.458189H35.7909V0.0507812H30.7852V0.458189H31.9365V12.0693H30.7852V12.4767H39.7955V7.48597H39.395C38.2937 11.8147 37.9433 12.0184 36.6919 12.0184Z" fill="black"/>
<path d="M48.8057 0.610966H50.7079C52.6601 0.610966 53.461 1.73134 53.461 3.46282C53.461 5.65263 52.56 6.16189 50.5577 6.16189H48.8057C48.8057 6.06004 48.8057 0.610966 48.8057 0.610966ZM50.5577 12.0693H48.8057V6.41652H51.0583C54.1118 6.41652 55.5634 5.14337 55.5634 3.31004C55.5634 1.47671 53.9616 0.0507812 51.0583 0.0507812H45.7021V0.458189H46.8535V12.0184H45.7021V12.4258H50.5076V12.0693H50.5577Z" fill="black"/>
<path d="M67.477 12.0184V12.4767H71.832V12.0184H70.6806V0.56004H71.832V0.0507812H67.477V0.56004H68.6283V5.85634H63.7727V0.56004H64.9741V0.0507812H60.6191V0.56004H61.7204V12.0184H60.6191V12.4767H64.9741V12.0184H63.7727V6.21282H68.6283V12.0184H67.477Z" fill="black"/>
<path d="M8 25.5369H7.64444C6.62222 29.3689 6.31111 29.5943 5.24445 29.5943H2.8V19.3607H4.44444V19H0V19.3607H1.02222V29.6393H0V30H8V25.5369Z" fill="black"/>
<path d="M14.5939 25.3755L16.048 20.751H16.0873L17.5022 25.3755H14.5939ZM17.1485 19H16.2052L12.8253 29.6408H12V30H14.6725V29.6408H13.2576L14.5153 25.6H17.6201L18.8384 29.6408H17.7773V30H21V29.6408H20.4498L17.1485 19Z" fill="black"/>
<path d="M30.4106 19.4418H31.686V27.1285C31.686 28.7631 30.7198 29.7349 29.3285 29.7349C28.401 29.7349 27.4348 29.1165 27.4348 27.2169V19.4418H28.4396V19H25V19.3534H25.8889V26.8193C25.8889 28.9398 26.9324 30 29.2899 30C30.9903 30 32.1111 28.8514 32.1111 27.0843V19.4418H33V19H30.4106V19.4418Z" fill="black"/>
<path d="M40.5833 24.0943V19.3156H41.9583C43.625 19.3156 44.2083 20.4877 44.2083 21.6148C44.2083 23.1475 43.3333 24.1393 41.5 24.1393H40.5833V24.0943ZM42.625 24.3648C44.875 24.1844 46.0417 23.1475 46.0417 21.6598C46.0417 20.2623 45.1667 19 42.5 19H38V19.3607H38.9583V29.6393H38V30H41.75V29.6393H40.5417V24.4098H40.5833L44.5 29.9549H47V29.5943H46.2917L42.625 24.3648Z" fill="black"/>
<path d="M55.3057 29.5943H52.6114V24.4098H53.8135C54.601 24.4098 54.9326 24.9057 55.2642 26.5738H55.5959V21.8402H55.2642C54.9741 23.5533 54.5596 24.0041 53.8135 24.0041H52.6114V19.3156H55.6788C56.4249 19.3156 56.6736 19.541 57.5026 22.4713H57.8342V19H50V19.3607H50.9534V29.6393H50V30H58V25.8975H57.6269C56.715 29.1434 56.3834 29.5943 55.3057 29.5943Z" fill="black"/>
<path d="M69.3333 19V19.4508H70.5833V26.9344H70.5417L65.9583 19H63V19.4508H64.0417V29.5943H63V30H65.75V29.5943H64.4583V19.7213L70.5 30H70.9583V19.4508H72V19H69.3333Z" fill="black"/>
</svg>
