<svg width="343" height="80" viewBox="0 0 343 80" fill="none" xmlns="http://www.w3.org/2000/svg">
<g filter="url(#filter0_d)">
<g filter="url(#filter1_d)">
<rect x="4" width="335" height="72" rx="36" fill="url(#paint0_linear)"/>
</g>
<g filter="url(#filter2_d)">
<path d="M38.3465 50V54.55H33.734V50H32.5215V59H33.734V55.75H38.3465V59H39.559V50H38.3465ZM44.3316 59.1875C45.3316 59.1875 46.2191 58.825 46.8316 58.075C47.3941 57.3625 47.6191 56.5375 47.6191 55.625C47.6191 54.7375 47.4066 53.8875 46.8316 53.1625C46.2316 52.425 45.3066 52.0625 44.3316 52.0625C43.3566 52.0625 42.4191 52.45 41.8441 53.1625C41.2941 53.85 41.0566 54.7125 41.0566 55.625C41.0566 56.5125 41.2691 57.3625 41.8441 58.075C42.4441 58.8125 43.3566 59.1875 44.3316 59.1875ZM45.8691 57.3375C45.5191 57.8 44.9441 58.0375 44.3316 58.0375C43.7191 58.0375 43.1441 57.8 42.8066 57.3375C42.4566 56.875 42.3441 56.25 42.3441 55.625C42.3441 55 42.4566 54.3625 42.8066 53.9C43.1441 53.4375 43.7191 53.2125 44.3316 53.2125C44.9441 53.2125 45.5191 53.4375 45.8691 53.9C46.2191 54.3625 46.3316 55 46.3316 55.625C46.3316 56.25 46.2191 56.875 45.8691 57.3375ZM57.5277 52.75C57.1027 52.4 56.5402 52.2 56.0152 52.2C55.2152 52.2 54.4402 52.5875 54.0027 53.25L53.9652 53.325C53.8402 53.1125 53.6902 52.925 53.4777 52.75C53.0527 52.4 52.5027 52.2 51.9777 52.2C51.2277 52.2 50.5152 52.5375 50.0652 53.1125V52.25H48.9902V59H50.2027V54.8625C50.2027 54.475 50.2527 54.125 50.5527 53.775C50.8152 53.45 51.2152 53.275 51.6402 53.275C51.9902 53.275 52.3277 53.4125 52.5777 53.65C52.9777 54.0125 53.0402 54.3625 53.0402 54.975V59H54.2527V54.975V54.8625C54.2527 54.475 54.3027 54.125 54.5902 53.775C54.8527 53.45 55.2652 53.275 55.6902 53.275C56.0277 53.275 56.3777 53.4125 56.6152 53.65C57.0277 54.0125 57.0902 54.3625 57.0902 54.975L57.0777 59H58.2902L58.3027 54.975C58.3027 54.05 58.2027 53.3125 57.5277 52.75ZM60.7316 55.9625H65.9691C65.9691 55.85 65.9816 55.7375 65.9816 55.625C65.9816 54.75 65.7566 53.8625 65.2066 53.1625C64.5941 52.425 63.6941 52.0625 62.7066 52.0625C61.7316 52.0625 60.8191 52.4375 60.2191 53.1625C59.6566 53.8625 59.4566 54.725 59.4316 55.625C59.4191 56.4875 59.6441 57.3625 60.2191 58.075C60.8066 58.8125 61.7316 59.1625 62.7066 59.1875C63.6816 59.2125 64.6191 58.8375 65.2441 58.1C65.3816 57.925 65.5066 57.7375 65.6191 57.5375L64.4191 57.025C64.3566 57.125 64.3066 57.225 64.2316 57.3375C63.8816 57.8 63.3191 58.0375 62.7066 58.0375C62.1066 58.0375 61.5316 57.8 61.1816 57.3375C60.8941 56.9625 60.7691 56.475 60.7316 55.9625ZM62.7066 53.2125C63.3191 53.2 63.8816 53.4375 64.2316 53.9125C64.4566 54.2125 64.5816 54.5875 64.6441 54.975H60.7691C60.8316 54.5875 60.9566 54.2125 61.1816 53.9125C61.5316 53.4375 62.1066 53.2 62.7066 53.2125Z" fill="url(#paint1_linear)"/>
</g>
<path d="M129.729 52.275C129.404 51.4 128.854 50.6875 128.104 50.275C127.542 49.95 126.867 49.825 126.242 49.8125C125.642 49.8125 125.029 49.875 124.429 50.175C123.667 50.55 123.079 51.35 123.079 52.2375C123.079 52.8125 123.292 53.45 123.779 53.875C124.229 54.2875 124.829 54.5125 125.454 54.7L127.117 55.1875C127.542 55.3125 127.892 55.475 128.154 55.725C128.392 55.95 128.517 56.25 128.517 56.575C128.517 56.9375 128.379 57.3375 128.017 57.6125C127.629 57.9 126.967 58.0375 126.404 58.0375C125.667 58.0375 124.879 57.7875 124.442 57.175C124.192 56.85 124.029 56.4125 123.942 55.9375L122.717 56.275C122.854 56.8375 123.067 57.4375 123.467 57.95C124.167 58.8375 125.192 59.1875 126.367 59.1875C127.242 59.1875 128.079 59.05 128.729 58.6C129.379 58.15 129.804 57.375 129.804 56.6125C129.804 55.9375 129.517 55.3125 129.029 54.85C128.617 54.45 128.104 54.2 127.404 54L125.804 53.525C125.317 53.3875 124.867 53.2 124.629 52.9625C124.454 52.775 124.354 52.525 124.354 52.2625C124.354 51.8625 124.592 51.4625 124.992 51.2375C125.317 51.05 125.767 50.9625 126.229 50.9625C126.692 50.9625 127.154 51.1125 127.504 51.325C127.992 51.625 128.279 52.05 128.504 52.6L129.729 52.275ZM131.982 55.9625H137.219C137.219 55.85 137.232 55.7375 137.232 55.625C137.232 54.75 137.007 53.8625 136.457 53.1625C135.844 52.425 134.944 52.0625 133.957 52.0625C132.982 52.0625 132.069 52.4375 131.469 53.1625C130.907 53.8625 130.707 54.725 130.682 55.625C130.669 56.4875 130.894 57.3625 131.469 58.075C132.057 58.8125 132.982 59.1625 133.957 59.1875C134.932 59.2125 135.869 58.8375 136.494 58.1C136.632 57.925 136.757 57.7375 136.869 57.5375L135.669 57.025C135.607 57.125 135.557 57.225 135.482 57.3375C135.132 57.8 134.569 58.0375 133.957 58.0375C133.357 58.0375 132.782 57.8 132.432 57.3375C132.144 56.9625 132.019 56.475 131.982 55.9625ZM133.957 53.2125C134.569 53.2 135.132 53.4375 135.482 53.9125C135.707 54.2125 135.832 54.5875 135.894 54.975H132.019C132.082 54.5875 132.207 54.2125 132.432 53.9125C132.782 53.4375 133.357 53.2 133.957 53.2125ZM138.604 59V49.8125H139.816V59H138.604ZM141.568 59V49.8125H142.781V59H141.568Z" fill="#696767"/>
<path d="M203.615 59H204.865L201.902 50H200.177L197.215 59H198.465L199.002 57.3625H203.065L203.615 59ZM199.377 56.225L201.027 51.25L202.69 56.225H199.377ZM205.797 59V49.8125H207.009V59H205.797ZM209.687 55.9625H214.924C214.924 55.85 214.937 55.7375 214.937 55.625C214.937 54.75 214.712 53.8625 214.162 53.1625C213.549 52.425 212.649 52.0625 211.662 52.0625C210.687 52.0625 209.774 52.4375 209.174 53.1625C208.612 53.8625 208.412 54.725 208.387 55.625C208.374 56.4875 208.599 57.3625 209.174 58.075C209.762 58.8125 210.687 59.1625 211.662 59.1875C212.637 59.2125 213.574 58.8375 214.199 58.1C214.337 57.925 214.462 57.7375 214.574 57.5375L213.374 57.025C213.312 57.125 213.262 57.225 213.187 57.3375C212.837 57.8 212.274 58.0375 211.662 58.0375C211.062 58.0375 210.487 57.8 210.137 57.3375C209.849 56.9625 209.724 56.475 209.687 55.9625ZM211.662 53.2125C212.274 53.2 212.837 53.4375 213.187 53.9125C213.412 54.2125 213.537 54.5875 213.599 54.975H209.724C209.787 54.5875 209.912 54.2125 210.137 53.9125C210.487 53.4375 211.062 53.2 211.662 53.2125ZM219.446 52.075C218.934 52.0875 218.421 52.225 218.009 52.55C217.734 52.75 217.534 52.975 217.384 53.2375V52.25H216.309V59H217.521V55.65C217.521 54.8375 217.584 54.1875 218.096 53.7C218.384 53.4 218.821 53.225 219.346 53.2C219.746 53.1875 220.121 53.2375 220.434 53.3625V52.225C220.109 52.1 219.771 52.05 219.446 52.075ZM223.555 53.2375H225.58V52.25H223.555V50.375H222.342V52.25H220.867V53.2375H222.342V56.4C222.342 57.075 222.367 57.625 222.617 58.125C222.867 58.625 223.33 58.9125 223.93 59.05C224.392 59.15 225.105 59.125 225.58 59V57.9375C225.23 58 224.817 58.0125 224.467 57.9875C224.155 57.95 223.855 57.775 223.705 57.5C223.542 57.2375 223.555 56.875 223.555 56.325V53.2375ZM232.378 54.025C232.166 53.35 231.628 52.725 230.966 52.4C230.516 52.1625 230.016 52.0625 229.541 52.0625C229.078 52.05 228.591 52.1 228.091 52.325C227.441 52.6125 226.941 53.25 226.941 54C226.941 54.45 227.141 54.9625 227.566 55.3C227.941 55.6 228.353 55.7375 228.891 55.8875C229.328 56.0125 229.703 56.1 230.041 56.2C230.466 56.325 230.741 56.425 230.941 56.6125C231.116 56.775 231.191 56.9625 231.178 57.1875C231.153 57.4125 231.053 57.5875 230.853 57.7375C230.578 57.95 230.053 58.025 229.628 58.025C229.116 58.025 228.591 57.9125 228.228 57.5125C227.991 57.2625 227.841 56.8375 227.803 56.5125L226.641 56.8C226.703 57.225 226.991 57.9 227.353 58.3C227.941 58.9375 228.741 59.1875 229.641 59.1875C230.316 59.1875 230.991 59.075 231.516 58.7375C232.028 58.4125 232.366 57.8875 232.416 57.2875C232.466 56.6625 232.216 56.1375 231.691 55.725C231.278 55.375 230.891 55.2625 230.378 55.1125C229.903 54.9875 229.478 54.875 229.153 54.775C228.728 54.65 228.491 54.5375 228.328 54.3875C228.228 54.275 228.178 54.1375 228.178 53.975C228.178 53.7625 228.328 53.55 228.603 53.4C228.853 53.275 229.178 53.2125 229.528 53.2125C229.853 53.2125 230.178 53.2875 230.441 53.425C230.791 53.6 231.066 53.95 231.191 54.3125L232.378 54.025Z" fill="#696767"/>
<path d="M283.493 52.8625C283.493 52.1875 283.23 51.525 282.793 51.025C282.48 50.625 282.03 50.325 281.543 50.1625C281.243 50.05 280.93 50 280.618 50H276.73V59H277.943V55.7125H280.618C281.493 55.7125 282.343 55.3 282.855 54.6375C283.255 54.15 283.505 53.5 283.493 52.8625ZM281.88 53.925C281.568 54.325 281.055 54.5625 280.605 54.5625H277.943V51.15H280.605C281.03 51.15 281.493 51.375 281.793 51.6875C282.08 52 282.243 52.425 282.255 52.8625C282.268 53.25 282.118 53.625 281.88 53.925ZM287.864 52.075C287.352 52.0875 286.839 52.225 286.427 52.55C286.152 52.75 285.952 52.975 285.802 53.2375V52.25H284.727V59H285.939V55.65C285.939 54.8375 286.002 54.1875 286.514 53.7C286.802 53.4 287.239 53.225 287.764 53.2C288.164 53.1875 288.539 53.2375 288.852 53.3625V52.225C288.527 52.1 288.189 52.05 287.864 52.075ZM292.748 59.1875C293.748 59.1875 294.635 58.825 295.248 58.075C295.81 57.3625 296.035 56.5375 296.035 55.625C296.035 54.7375 295.823 53.8875 295.248 53.1625C294.648 52.425 293.723 52.0625 292.748 52.0625C291.773 52.0625 290.835 52.45 290.26 53.1625C289.71 53.85 289.473 54.7125 289.473 55.625C289.473 56.5125 289.685 57.3625 290.26 58.075C290.86 58.8125 291.773 59.1875 292.748 59.1875ZM294.285 57.3375C293.935 57.8 293.36 58.0375 292.748 58.0375C292.135 58.0375 291.56 57.8 291.223 57.3375C290.873 56.875 290.76 56.25 290.76 55.625C290.76 55 290.873 54.3625 291.223 53.9C291.56 53.4375 292.135 53.2125 292.748 53.2125C293.36 53.2125 293.935 53.4375 294.285 53.9C294.635 54.3625 294.748 55 294.748 55.625C294.748 56.25 294.635 56.875 294.285 57.3375ZM300.206 50.9125C300.519 50.8375 300.894 50.85 301.231 50.9V49.8375C300.306 49.75 299.406 49.8 298.756 50.375C298.269 50.85 298.144 51.525 298.144 52.0625V52.25H296.656V53.2375H298.144V59H299.344V53.2375H301.231V52.25H299.344V51.975C299.344 51.3875 299.556 51.025 300.206 50.9125ZM302.547 49.9375V51.15H303.759V49.9375H302.547ZM302.547 52.25V59H303.759V52.25H302.547ZM305.633 59V49.8125H306.845V59H305.633ZM309.523 55.9625H314.76C314.76 55.85 314.773 55.7375 314.773 55.625C314.773 54.75 314.548 53.8625 313.998 53.1625C313.385 52.425 312.485 52.0625 311.498 52.0625C310.523 52.0625 309.61 52.4375 309.01 53.1625C308.448 53.8625 308.248 54.725 308.223 55.625C308.21 56.4875 308.435 57.3625 309.01 58.075C309.598 58.8125 310.523 59.1625 311.498 59.1875C312.473 59.2125 313.41 58.8375 314.035 58.1C314.173 57.925 314.298 57.7375 314.41 57.5375L313.21 57.025C313.148 57.125 313.098 57.225 313.023 57.3375C312.673 57.8 312.11 58.0375 311.498 58.0375C310.898 58.0375 310.323 57.8 309.973 57.3375C309.685 56.9625 309.56 56.475 309.523 55.9625ZM311.498 53.2125C312.11 53.2 312.673 53.4375 313.023 53.9125C313.248 54.2125 313.373 54.5875 313.435 54.975H309.56C309.623 54.5875 309.748 54.2125 309.973 53.9125C310.323 53.4375 310.898 53.2 311.498 53.2125Z" fill="#696767"/>
<g filter="url(#filter3_d)">
<path d="M49.0639 26.3472L48.7891 26.6183L48.513 26.3472C48 25.8407 47.3082 25.5567 46.5873 25.5567C45.8664 25.5567 45.1746 25.8407 44.6616 26.3472C44.407 26.5921 44.2045 26.8859 44.0661 27.211C43.9278 27.5361 43.8564 27.8857 43.8564 28.239C43.8564 28.5923 43.9278 28.9419 44.0661 29.267C44.2045 29.5921 44.407 29.8859 44.6616 30.1308L48.7891 34.1844L52.9166 30.1308C53.1712 29.8859 53.3737 29.5921 53.5121 29.267C53.6504 28.9419 53.7217 28.5923 53.7217 28.239C53.7217 27.8857 53.6504 27.5361 53.5121 27.211C53.3737 26.8859 53.1712 26.5921 52.9166 26.3472C52.4034 25.8407 51.7113 25.5566 50.9903 25.5566C50.2692 25.5566 49.5771 25.8407 49.0639 26.3472Z" fill="url(#paint2_linear)"/>
<path d="M60.7526 25.9183L49.6605 14.8262C49.5461 14.7116 49.4103 14.6208 49.2608 14.5588C49.1113 14.4968 48.951 14.4648 48.7891 14.4648C48.6273 14.4648 48.467 14.4968 48.3175 14.5588C48.168 14.6208 48.0321 14.7116 47.9178 14.8262L36.8257 25.9183C36.6534 26.0907 36.536 26.3102 36.4885 26.5493C36.441 26.7883 36.4654 27.0361 36.5586 27.2612C36.6519 27.4864 36.8098 27.6789 37.0125 27.8143C37.2151 27.9497 37.4533 28.022 37.697 28.0221H38.9295V36.6493C38.9295 38.0087 40.035 39.1142 41.3944 39.1142H56.1839C57.5433 39.1142 58.6488 38.0087 58.6488 36.6493V28.0221H59.8812C60.1249 28.022 60.3632 27.9497 60.5658 27.8143C60.7684 27.6789 60.9264 27.4864 61.0196 27.2612C61.1129 27.0361 61.1373 26.7883 61.0898 26.5493C61.0422 26.3102 60.9249 26.0907 60.7526 25.9183ZM56.1851 36.6493H41.3944V24.8362L48.7891 17.4415L56.1839 24.8362V30.487L56.1851 36.6493Z" fill="url(#paint3_linear)"/>
</g>
<path d="M221.05 24.5841C221.05 22.8999 220.381 21.2847 219.19 20.0938C218 18.9029 216.384 18.2339 214.7 18.2339C213.016 18.2339 211.401 18.9029 210.21 20.0938C209.019 21.2847 208.35 22.8999 208.35 24.5841V33.0509H221.05V24.5841ZM223.167 33.7569L223.59 34.321C223.649 34.3996 223.685 34.4931 223.694 34.591C223.703 34.6888 223.684 34.7872 223.64 34.8751C223.596 34.963 223.529 35.037 223.445 35.0886C223.362 35.1403 223.265 35.1677 223.167 35.1677H206.233C206.135 35.1677 206.039 35.1403 205.955 35.0886C205.871 35.037 205.804 34.963 205.76 34.8751C205.716 34.7872 205.697 34.6888 205.706 34.591C205.715 34.4931 205.751 34.3996 205.81 34.321L206.233 33.7569V24.5841C206.233 22.3385 207.125 20.1849 208.713 18.5971C210.301 17.0092 212.455 16.1172 214.7 16.1172C216.946 16.1172 219.099 17.0092 220.687 18.5971C222.275 20.1849 223.167 22.3385 223.167 24.5841V33.7569ZM212.054 36.226H217.346C217.346 36.9278 217.067 37.6008 216.571 38.097C216.075 38.5932 215.402 38.8719 214.7 38.8719C213.998 38.8719 213.325 38.5932 212.829 38.097C212.333 37.6008 212.054 36.9278 212.054 36.226Z" fill="#696767"/>
<path fill-rule="evenodd" clip-rule="evenodd" d="M299.934 23.5254C299.934 24.6482 299.488 25.725 298.694 26.5189C297.9 27.3128 296.823 27.7589 295.7 27.7589C294.577 27.7589 293.501 27.3128 292.707 26.5189C291.913 25.725 291.467 24.6482 291.467 23.5254C291.467 22.4027 291.913 21.3259 292.707 20.5319C293.501 19.738 294.577 19.292 295.7 19.292C296.823 19.292 297.9 19.738 298.694 20.5319C299.488 21.3259 299.934 22.4027 299.934 23.5254ZM297.817 23.5254C297.817 24.0868 297.594 24.6252 297.197 25.0222C296.8 25.4191 296.262 25.6422 295.7 25.6422C295.139 25.6422 294.6 25.4191 294.203 25.0222C293.807 24.6252 293.584 24.0868 293.584 23.5254C293.584 22.964 293.807 22.4256 294.203 22.0287C294.6 21.6317 295.139 21.4087 295.7 21.4087C296.262 21.4087 296.8 21.6317 297.197 22.0287C297.594 22.4256 297.817 22.964 297.817 23.5254Z" fill="#696767"/>
<path fill-rule="evenodd" clip-rule="evenodd" d="M295.701 15.0586C289.271 15.0586 284.059 20.271 284.059 26.7006C284.059 33.1301 289.271 38.3425 295.701 38.3425C302.13 38.3425 307.343 33.1301 307.343 26.7006C307.343 20.271 302.13 15.0586 295.701 15.0586ZM286.175 26.7006C286.175 28.9125 286.93 30.9488 288.195 32.566C289.083 31.3996 290.229 30.4543 291.543 29.804C292.857 29.1537 294.303 28.816 295.769 28.8173C297.216 28.8159 298.645 29.1449 299.946 29.7791C301.246 30.4133 302.385 31.3361 303.275 32.4771C304.192 31.2744 304.81 29.8706 305.076 28.3819C305.343 26.8931 305.252 25.3623 304.809 23.916C304.367 22.4697 303.587 21.1495 302.533 20.0647C301.479 18.9798 300.182 18.1616 298.749 17.6775C297.316 17.1935 295.789 17.0576 294.293 17.2811C292.797 17.5046 291.376 18.0812 290.147 18.9629C288.918 19.8447 287.917 21.0064 287.227 22.352C286.536 23.6975 286.176 25.1881 286.175 26.7006ZM295.701 36.2258C293.514 36.2291 291.393 35.4768 289.698 34.0964C290.38 33.1192 291.289 32.3214 292.346 31.7708C293.403 31.2202 294.577 30.9331 295.769 30.934C296.946 30.9331 298.107 31.2129 299.154 31.7504C300.201 32.2879 301.105 33.0675 301.79 34.0244C300.081 35.4497 297.926 36.2289 295.701 36.2258Z" fill="#696767"/>
<path d="M143.179 19.3112H139.158L138.2 16.6268C138.134 16.4431 138.012 16.2843 137.853 16.1721C137.693 16.0599 137.502 15.9998 137.307 16H128.237C127.838 16 127.48 16.2513 127.347 16.6268L126.386 19.3112H122.365C121.058 19.3112 120 20.3696 120 21.6764V35.1578C120 36.4646 121.058 37.523 122.365 37.523H143.179C144.485 37.523 145.544 36.4646 145.544 35.1578V21.6764C145.544 20.3696 144.485 19.3112 143.179 19.3112ZM143.415 35.1578C143.415 35.2879 143.309 35.3943 143.179 35.3943H122.365C122.235 35.3943 122.129 35.2879 122.129 35.1578V21.6764C122.129 21.5463 122.235 21.4399 122.365 21.4399H127.885L128.39 20.0267L129.067 18.1286H136.473L137.15 20.0267L137.656 21.4399H143.179C143.309 21.4399 143.415 21.5463 143.415 21.6764V35.1578ZM132.772 23.332C130.158 23.332 128.042 25.4488 128.042 28.0623C128.042 30.6758 130.158 32.7927 132.772 32.7927C135.385 32.7927 137.502 30.6758 137.502 28.0623C137.502 25.4488 135.385 23.332 132.772 23.332ZM132.772 30.9005C131.205 30.9005 129.934 29.6293 129.934 28.0623C129.934 26.4954 131.205 25.2241 132.772 25.2241C134.339 25.2241 135.61 26.4954 135.61 28.0623C135.61 29.6293 134.339 30.9005 132.772 30.9005Z" fill="#696767"/>
</g>
<defs>
<filter id="filter0_d" x="0" y="0" width="343" height="80" filterUnits="userSpaceOnUse" color-interpolation-filters="sRGB">
<feFlood flood-opacity="0" result="BackgroundImageFix"/>
<feColorMatrix in="SourceAlpha" type="matrix" values="0 0 0 0 0 0 0 0 0 0 0 0 0 0 0 0 0 0 127 0"/>
<feOffset dy="4"/>
<feGaussianBlur stdDeviation="2"/>
<feColorMatrix type="matrix" values="0 0 0 0 0.266667 0 0 0 0 0.264444 0 0 0 0 0.264444 0 0 0 0.25 0"/>
<feBlend mode="normal" in2="BackgroundImageFix" result="effect1_dropShadow"/>
<feBlend mode="normal" in="SourceGraphic" in2="effect1_dropShadow" result="shape"/>
</filter>
<filter id="filter1_d" x="0" y="0" width="343" height="80" filterUnits="userSpaceOnUse" color-interpolation-filters="sRGB">
<feFlood flood-opacity="0" result="BackgroundImageFix"/>
<feColorMatrix in="SourceAlpha" type="matrix" values="0 0 0 0 0 0 0 0 0 0 0 0 0 0 0 0 0 0 127 0"/>
<feOffset dy="4"/>
<feGaussianBlur stdDeviation="2"/>
<feColorMatrix type="matrix" values="0 0 0 0 0 0 0 0 0 0 0 0 0 0 0 0 0 0 0.15 0"/>
<feBlend mode="normal" in2="BackgroundImageFix" result="effect1_dropShadow"/>
<feBlend mode="normal" in="SourceGraphic" in2="effect1_dropShadow" result="shape"/>
</filter>
<filter id="filter2_d" x="28.5215" y="47" width="41.4602" height="17.1887" filterUnits="userSpaceOnUse" color-interpolation-filters="sRGB">
<feFlood flood-opacity="0" result="BackgroundImageFix"/>
<feColorMatrix in="SourceAlpha" type="matrix" values="0 0 0 0 0 0 0 0 0 0 0 0 0 0 0 0 0 0 127 0"/>
<feOffset dy="1"/>
<feGaussianBlur stdDeviation="2"/>
<feColorMatrix type="matrix" values="0 0 0 0 0 0 0 0 0 0 0 0 0 0 0 0 0 0 0.2 0"/>
<feBlend mode="normal" in2="BackgroundImageFix" result="effect1_dropShadow"/>
<feBlend mode="normal" in="SourceGraphic" in2="effect1_dropShadow" result="shape"/>
</filter>
<filter id="filter3_d" x="30" y="9" width="37.5789" height="37.5789" filterUnits="userSpaceOnUse" color-interpolation-filters="sRGB">
<feFlood flood-opacity="0" result="BackgroundImageFix"/>
<feColorMatrix in="SourceAlpha" type="matrix" values="0 0 0 0 0 0 0 0 0 0 0 0 0 0 0 0 0 0 127 0"/>
<feOffset dy="1"/>
<feGaussianBlur stdDeviation="2"/>
<feColorMatrix type="matrix" values="0 0 0 0 0 0 0 0 0 0 0 0 0 0 0 0 0 0 0.2 0"/>
<feBlend mode="normal" in2="BackgroundImageFix" result="effect1_dropShadow"/>
<feBlend mode="normal" in="SourceGraphic" in2="effect1_dropShadow" result="shape"/>
</filter>
<linearGradient id="paint0_linear" x1="171.5" y1="0" x2="171.5" y2="72" gradientUnits="userSpaceOnUse">
<stop offset="0.213542" stop-color="white"/>
<stop offset="1" stop-color="#E9E7E7"/>
</linearGradient>
<linearGradient id="paint1_linear" x1="44.5" y1="37.5" x2="49" y2="64" gradientUnits="userSpaceOnUse">
<stop stop-color="#FB09C6"/>
<stop offset="1" stop-color="#35168A"/>
</linearGradient>
<linearGradient id="paint2_linear" x1="46.4995" y1="20.5002" x2="48.7891" y2="34.1844" gradientUnits="userSpaceOnUse">
<stop stop-color="#FB09C6"/>
<stop offset="1" stop-color="#35168A"/>
</linearGradient>
<linearGradient id="paint3_linear" x1="41.4995" y1="4.50019" x2="48.7891" y2="39.1142" gradientUnits="userSpaceOnUse">
<stop stop-color="#FB09C6"/>
<stop offset="1" stop-color="#35168A"/>
</linearGradient>
</defs>
</svg>
