<svg width="65" height="27" viewBox="0 0 65 27" fill="none" xmlns="http://www.w3.org/2000/svg">
<path d="M3.76318 5.24171V0.500593H5.21401C6.97259 0.500593 7.58809 1.66351 7.58809 2.7817C7.58809 4.30243 6.66484 5.28644 4.7304 5.28644H3.76318V5.24171ZM5.87347 5.51008C8.24756 5.33117 9.47857 4.30243 9.47857 2.82642C9.47857 1.43987 8.55531 0.1875 5.74158 0.1875H0.993408V0.54532H2.00459V10.7432H0.993408V11.101H4.95022V10.7432H3.76318V5.5548H3.80714L7.93981 11.0563H10.5777V10.6985H9.78632L5.87347 5.51008Z" fill="black"/>
<path d="M16.6888 6.49486L18.3155 1.88793H18.3594L19.9422 6.49486H16.6888ZM19.5025 0.143555H18.4474L14.7104 10.744H13.7432V11.1018H16.7328V10.744H15.15L16.5569 6.7185H20.0301L21.393 10.744H20.206V11.1018H23.811V10.744H23.1516L19.5025 0.143555Z" fill="black"/>
<path d="M33.2193 10.6994H30.8013V0.546297H32.4279V0.188477H28.0315V0.546297H29.0427V10.7442H28.0315V11.102H35.9451V6.7187H35.5934C34.6262 10.5205 34.3184 10.6994 33.2193 10.6994Z" fill="black"/>
<path d="M43.8589 0.680479H45.5295C47.2441 0.680479 47.9476 1.66448 47.9476 3.18522C47.9476 5.1085 47.1562 5.55578 45.3976 5.55578H43.8589C43.8589 5.46633 43.8589 0.680479 43.8589 0.680479ZM45.3976 10.7442H43.8589V5.77942H45.8373C48.5191 5.77942 49.7941 4.66123 49.7941 3.05104C49.7941 1.44085 48.3872 0.188477 45.8373 0.188477H41.1331V0.546297H42.1442V10.6994H41.1331V11.0573H45.3537V10.7442H45.3976Z" fill="black"/>
<path d="M60.2575 10.6994V11.102H64.0824V10.6994H63.0712V0.635752H64.0824V0.188477H60.2575V0.635752H61.2687V5.28742H57.0041V0.635752H58.0593V0.188477H54.2344V0.635752H55.2016V10.6994H54.2344V11.102H58.0593V10.6994H57.0041V5.60051H61.2687V10.6994H60.2575Z" fill="black"/>
<path d="M8.0197 22.5723H7.70742C6.80961 25.9379 6.53637 26.1358 5.59953 26.1358H3.45261V17.1478H4.8969V16.8311H0.993408V17.1478H1.89121V26.1754H0.993408V26.4922H8.0197V22.5723Z" fill="black"/>
<path d="M13.8111 22.4306L15.0883 18.369H15.1228L16.3654 22.4306H13.8111ZM16.0548 16.8311H15.2264L12.2578 26.1767H11.533V26.4922H13.8802V26.1767H12.6375L13.7421 22.6277H16.469L17.5391 26.1767H16.6071V26.4922H19.4375V26.1767H18.9543L16.0548 16.8311Z" fill="black"/>
<path d="M27.7025 17.2191H28.8227V23.9702C28.8227 25.4058 27.9741 26.2594 26.7521 26.2594C25.9375 26.2594 25.0889 25.7162 25.0889 24.0478V17.2191H25.9714V16.8311H22.9504V17.1415H23.7311V23.6986C23.7311 25.561 24.6476 26.4922 26.7182 26.4922C28.2117 26.4922 29.196 25.4834 29.196 23.9314V17.2191H29.9767V16.8311H27.7025V17.2191Z" fill="black"/>
<path d="M36.6371 21.3053V17.1082H37.8447C39.3085 17.1082 39.8209 18.1377 39.8209 19.1276C39.8209 20.4738 39.0524 21.3449 37.4422 21.3449H36.6371V21.3053ZM38.4302 21.5428C40.4064 21.3845 41.431 20.4738 41.431 19.1672C41.431 17.9397 40.6625 16.8311 38.3204 16.8311H34.3682V17.1478H35.2099V26.1754H34.3682V26.4922H37.6617V26.1754H36.6005V21.5824H36.6371L40.077 26.4526H42.2727V26.1358H41.6506L38.4302 21.5428Z" fill="black"/>
<path d="M49.5676 26.1358H47.2013V21.5824H48.257C48.9487 21.5824 49.24 22.018 49.5312 23.483H49.8225V19.3255H49.5312C49.2764 20.8301 48.9123 21.2261 48.257 21.2261H47.2013V17.1082H49.8953C50.5506 17.1082 50.769 17.3062 51.4971 19.8799H51.7884V16.8311H44.9077V17.1478H45.745V26.1754H44.9077V26.4922H51.934V22.8891H51.6064C50.8054 25.7399 50.5142 26.1358 49.5676 26.1358Z" fill="black"/>
<path d="M61.8879 16.8311V17.227H62.9858V23.7998H62.9492L58.9237 16.8311H56.3254V17.227H57.2403V26.1358H56.3254V26.4922H58.7407V26.1358H57.6063V17.4646L62.9126 26.4922H63.3151V17.227H64.23V16.8311H61.8879Z" fill="black"/>
</svg>
