<svg width="43" height="43" viewBox="0 0 43 43" fill="none" xmlns="http://www.w3.org/2000/svg">
<g filter="url(#filter0_d)">
<circle cx="21.5" cy="22.5" r="17.5" fill="url(#paint0_linear)"/>
<path d="M25.15 17C23.932 17 22.763 17.5297 22 18.3668C21.237 17.5297 20.068 17 18.85 17C16.694 17 15 18.5826 15 20.5967C15 23.0687 17.38 25.0828 20.985 28.1433L22 29L23.015 28.1368C26.62 25.0828 29 23.0687 29 20.5967C29 18.5826 27.306 17 25.15 17ZM22.07 27.1689L22 27.2343L21.93 27.1689C18.598 24.3504 16.4 22.4866 16.4 20.5967C16.4 19.2888 17.45 18.3079 18.85 18.3079C19.928 18.3079 20.978 18.9553 21.349 19.8512H22.658C23.022 18.9553 24.072 18.3079 25.15 18.3079C26.55 18.3079 27.6 19.2888 27.6 20.5967C27.6 22.4866 25.402 24.3504 22.07 27.1689Z" fill="white"/>
<path d="M22.07 27.1689L22 27.2343L21.93 27.1689C18.598 24.3504 16.4 22.4866 16.4 20.5967C16.4 19.2888 17.45 18.3079 18.85 18.3079C19.928 18.3079 20.978 18.9553 21.349 19.8512H22.658C23.022 18.9553 24.072 18.3079 25.15 18.3079C26.55 18.3079 27.6 19.2888 27.6 20.5967C27.6 22.4866 25.402 24.3504 22.07 27.1689Z" fill="white"/>
</g>
<defs>
<filter id="filter0_d" x="0" y="0" width="43" height="43" filterUnits="userSpaceOnUse" color-interpolation-filters="sRGB">
<feFlood flood-opacity="0" result="BackgroundImageFix"/>
<feColorMatrix in="SourceAlpha" type="matrix" values="0 0 0 0 0 0 0 0 0 0 0 0 0 0 0 0 0 0 127 0"/>
<feOffset dy="-1"/>
<feGaussianBlur stdDeviation="2"/>
<feColorMatrix type="matrix" values="0 0 0 0 0 0 0 0 0 0 0 0 0 0 0 0 0 0 0.2 0"/>
<feBlend mode="normal" in2="BackgroundImageFix" result="effect1_dropShadow"/>
<feBlend mode="normal" in="SourceGraphic" in2="effect1_dropShadow" result="shape"/>
</filter>
<linearGradient id="paint0_linear" x1="10.552" y1="-64.7297" x2="58.1202" y2="16.2028" gradientUnits="userSpaceOnUse">
<stop offset="0.177083" stop-color="#FB09C6"/>
<stop offset="1" stop-color="#9169FF"/>
</linearGradient>
</defs>
</svg>
