<svg width="73" height="74" viewBox="0 0 73 74" fill="none" xmlns="http://www.w3.org/2000/svg">
<g filter="url(#filter0_d)">
<path d="M28.8925 50.29L10.2821 31.6974C9.98976 31.3561 9.83701 30.917 9.85436 30.468C9.8717 30.0189 10.0579 29.5929 10.3756 29.2751C10.6934 28.9573 11.1194 28.7712 11.5685 28.7538C12.0175 28.7365 12.4566 28.8892 12.798 29.1816L28.8568 45.2404L60.2429 13.89C60.5842 13.5977 61.0233 13.4449 61.4723 13.4623C61.9214 13.4796 62.3474 13.6658 62.6652 13.9836C62.9829 14.3013 63.1691 14.7273 63.1865 15.1764C63.2038 15.6255 63.0511 16.0645 62.7587 16.4059L28.8925 50.29Z" fill="white"/>
</g>
<defs>
<filter id="filter0_d" x="0.411621" y="0.882812" width="72.2353" height="72.2353" filterUnits="userSpaceOnUse" color-interpolation-filters="sRGB">
<feFlood flood-opacity="0" result="BackgroundImageFix"/>
<feColorMatrix in="SourceAlpha" type="matrix" values="0 0 0 0 0 0 0 0 0 0 0 0 0 0 0 0 0 0 127 0"/>
<feOffset dy="4"/>
<feGaussianBlur stdDeviation="2"/>
<feColorMatrix type="matrix" values="0 0 0 0 0 0 0 0 0 0 0 0 0 0 0 0 0 0 0.25 0"/>
<feBlend mode="normal" in2="BackgroundImageFix" result="effect1_dropShadow"/>
<feBlend mode="normal" in="SourceGraphic" in2="effect1_dropShadow" result="shape"/>
</filter>
</defs>
</svg>
