<svg width="64" height="28" viewBox="0 0 64 28" fill="none" xmlns="http://www.w3.org/2000/svg">
<path d="M3.45409 5.92433V1.18321H4.90492C6.66351 1.18321 7.27901 2.34613 7.27901 3.46431C7.27901 4.98505 6.35575 5.96906 4.42131 5.96906H3.45409V5.92433ZM5.56439 6.19269C7.93848 6.01378 9.16948 4.98505 9.16948 3.50904C9.16948 2.12249 8.24623 0.870117 5.4325 0.870117H0.684326V1.22794H1.69551V11.4258H0.684326V11.7836H4.64114V11.4258H3.45409V6.23742H3.49806L7.63073 11.7389H10.2686V11.3811H9.47724L5.56439 6.19269Z" fill="black"/>
<path d="M16.3797 7.17748L18.0064 2.57055H18.0504L19.6331 7.17748H16.3797ZM19.1934 0.826172H18.1383L14.4013 11.4266H13.4341V11.7844H16.4237V11.4266H14.8409L16.2478 7.40112H19.721L21.0839 11.4266H19.8969V11.7844H23.502V11.4266H22.8425L19.1934 0.826172Z" fill="black"/>
<path d="M32.9102 11.3821H30.4922V1.22891H32.1189V0.871094H27.7224V1.22891H28.7336V11.4268H27.7224V11.7846H35.636V7.40131H35.2843C34.3171 11.2032 34.0093 11.3821 32.9102 11.3821Z" fill="black"/>
<path d="M43.5498 1.3631H45.2204C46.935 1.3631 47.6385 2.3471 47.6385 3.86784C47.6385 5.79112 46.8471 6.2384 45.0885 6.2384H43.5498C43.5498 6.14894 43.5498 1.3631 43.5498 1.3631ZM45.0885 11.4268H43.5498V6.46204H45.5282C48.21 6.46204 49.485 5.34385 49.485 3.73366C49.485 2.12346 48.0781 0.871094 45.5282 0.871094H40.824V1.22891H41.8352V11.3821H40.824V11.7399H45.0446V11.4268H45.0885Z" fill="black"/>
<path d="M59.9484 11.3821V11.7846H63.7734V11.3821H62.7622V1.31837H63.7734V0.871094H59.9484V1.31837H60.9596V5.97003H56.6951V1.31837H57.7502V0.871094H53.9253V1.31837H54.8925V11.3821H53.9253V11.7846H57.7502V11.3821H56.6951V6.28312H60.9596V11.3821H59.9484Z" fill="black"/>
<path d="M7.71062 23.2549H7.39833C6.50053 26.6205 6.22729 26.8185 5.29045 26.8185H3.14353V17.8304H4.58782V17.5137H0.684326V17.8304H1.58213V26.8581H0.684326V27.1748H7.71062V23.2549Z" fill="black"/>
<path d="M13.5021 23.1132L14.7792 19.0516H14.8137L16.0564 23.1132H13.5021ZM15.7457 17.5137H14.9173L11.9488 26.8594H11.2239V27.1748H13.5711V26.8594H12.3284L13.433 23.3104H16.1599L17.23 26.8594H16.298V27.1748H19.1285V26.8594H18.6452L15.7457 17.5137Z" fill="black"/>
<path d="M27.3934 17.9017H28.5136V24.6528C28.5136 26.0884 27.665 26.942 26.443 26.942C25.6284 26.942 24.7798 26.3988 24.7798 24.7304V17.9017H25.6623V17.5137H22.6414V17.8241H23.4221V24.3812C23.4221 26.2436 24.3385 27.1748 26.4091 27.1748C27.9026 27.1748 28.887 26.166 28.887 24.614V17.9017H29.6676V17.5137H27.3934V17.9017Z" fill="black"/>
<path d="M36.328 21.9879V17.7908H37.5356C38.9994 17.7908 39.5118 18.8203 39.5118 19.8102C39.5118 21.1564 38.7433 22.0275 37.1331 22.0275H36.328V21.9879ZM38.1212 22.2255C40.0973 22.0671 41.122 21.1564 41.122 19.8498C41.122 18.6223 40.3535 17.5137 38.0114 17.5137H34.0591V17.8304H34.9008V26.8581H34.0591V27.1748H37.3527V26.8581H36.2914V22.2651H36.328L39.7679 27.1352H41.9637V26.8185H41.3415L38.1212 22.2255Z" fill="black"/>
<path d="M49.2586 26.8185H46.8922V22.2651H47.9479C48.6397 22.2651 48.9309 22.7006 49.2221 24.1656H49.5134V20.0081H49.2221C48.9673 21.5128 48.6032 21.9087 47.9479 21.9087H46.8922V17.7908H49.5862C50.2415 17.7908 50.4599 17.9888 51.1881 20.5625H51.4793V17.5137H44.5986V17.8304H45.436V26.8581H44.5986V27.1748H51.6249V23.5717H51.2973C50.4963 26.4225 50.2051 26.8185 49.2586 26.8185Z" fill="black"/>
<path d="M61.5788 17.5137V17.9096H62.6767V24.4824H62.6401L58.6146 17.5137H56.0164V17.9096H56.9312V26.8185H56.0164V27.1748H58.4316V26.8185H57.2972V18.1472L62.6035 27.1748H63.0061V17.9096H63.9209V17.5137H61.5788Z" fill="black"/>
</svg>
