<svg width="363" height="208" viewBox="0 0 363 208" fill="none" xmlns="http://www.w3.org/2000/svg">
<path fill-rule="evenodd" clip-rule="evenodd" d="M301.427 175.704C301.33 175.799 301.226 175.902 301.087 176.042C301.087 176.042 298.798 178.332 298.791 178.339C298.72 178.406 298.66 178.464 298.599 178.525C298.571 178.553 298.546 178.578 298.493 178.63C298.447 178.675 298.425 178.696 298.399 178.723L296.329 180.795C296.285 180.841 296.247 180.879 296.198 180.929L296.142 180.985C296.079 181.048 296.029 181.1 295.958 181.173C295.796 181.333 295.632 181.514 295.477 181.704C295.333 181.857 295.217 182.034 295.134 182.227L295.112 182.286C294.963 182.749 294.963 183.248 295.112 183.712L295.135 183.772C295.219 183.965 295.336 184.142 295.48 184.294C295.634 184.483 295.798 184.664 295.972 184.836C296.008 184.875 296.062 184.93 296.134 185.002C296.184 185.052 296.205 185.073 296.232 185.1C296.266 185.135 296.296 185.165 296.323 185.194L298.398 187.273C298.501 187.375 298.547 187.421 298.63 187.501C298.697 187.568 298.737 187.607 298.811 187.676L301.089 189.957C301.26 190.127 301.336 190.204 301.433 190.298C301.558 190.424 301.641 190.505 301.77 190.631C301.819 190.683 301.837 190.701 301.862 190.725C302.154 191.018 302.509 191.277 302.899 191.475C303.289 191.672 303.702 191.808 304.129 191.882C304.528 191.948 304.927 191.983 305.327 191.988C305.496 191.992 305.667 191.994 305.835 191.995L306.235 191.995H313.68C313.835 191.995 313.988 191.992 314.201 191.988C314.598 191.983 315.001 191.948 315.399 191.882C315.834 191.807 316.251 191.669 316.64 191.473C317.034 191.273 317.394 191.012 317.706 190.7C318.017 190.388 318.277 190.03 318.477 189.639C318.675 189.244 318.812 188.827 318.886 188.397C318.952 187.994 318.987 187.591 318.992 187.188C318.995 187.089 318.996 187.001 318.998 186.807L319 186.683L319 186.07V179.282L318.999 179.175C318.998 179.055 318.997 179.003 318.996 178.936C318.995 178.873 318.993 178.815 318.992 178.759C318.987 178.372 318.953 177.973 318.888 177.578C318.814 177.146 318.678 176.733 318.484 176.346C318.282 175.953 318.024 175.597 317.716 175.288C317.408 174.978 317.051 174.718 316.66 174.52C316.273 174.325 315.86 174.188 315.434 174.114C315.032 174.049 314.634 174.014 314.234 174.009C314.053 174.004 313.886 174.002 313.725 174.002C313.563 174 313.429 174 313.128 174H306.432C306.134 174 305.999 174 305.829 174.002C305.676 174.002 305.509 174.004 305.318 174.009C304.926 174.014 304.528 174.049 304.134 174.113C303.7 174.188 303.287 174.325 302.9 174.52C302.508 174.72 302.152 174.979 301.844 175.289C301.829 175.303 301.819 175.314 301.732 175.407C301.623 175.51 301.524 175.607 301.427 175.704ZM298.836 178.301L298.838 178.299C298.835 178.302 298.833 178.303 298.83 178.305L298.836 178.301ZM302.032 189.014L299.73 186.709C299.73 186.709 299.684 186.667 299.679 186.663C299.644 186.629 299.613 186.599 299.537 186.524C299.482 186.47 299.439 186.428 299.341 186.33L297.275 184.26C297.251 184.235 297.217 184.2 297.179 184.162C297.15 184.133 297.127 184.11 297.077 184.06C297.014 183.996 296.968 183.95 296.926 183.905C296.764 183.744 296.627 183.593 296.499 183.434L296.455 183.385C296.421 183.35 296.393 183.311 296.371 183.268C296.321 183.092 296.321 182.905 296.371 182.728C296.393 182.685 296.421 182.644 296.456 182.609L296.496 182.564C296.625 182.405 296.762 182.253 296.908 182.109C296.986 182.028 297.031 181.981 297.065 181.947C297.109 181.904 297.109 181.903 297.143 181.869L297.143 181.869L297.143 181.869C297.197 181.815 297.24 181.771 297.282 181.727L299.341 179.666C299.363 179.644 299.382 179.625 299.437 179.572C299.483 179.526 299.51 179.499 299.54 179.469C299.587 179.423 299.633 179.378 299.677 179.335C299.687 179.327 299.699 179.316 299.731 179.286L299.731 179.286L302.031 176.983C302.167 176.846 302.267 176.747 302.365 176.652C302.459 176.557 302.549 176.469 302.645 176.378C302.667 176.358 302.679 176.345 302.738 176.283L302.785 176.234C302.998 176.019 303.239 175.843 303.503 175.709C303.77 175.574 304.058 175.479 304.355 175.428C304.677 175.375 305.009 175.346 305.343 175.342C305.531 175.337 305.687 175.335 305.836 175.335C306.006 175.333 306.138 175.333 306.432 175.333H313.128C313.424 175.333 313.556 175.333 313.718 175.335C313.874 175.335 314.031 175.337 314.209 175.342C314.55 175.346 314.884 175.375 315.213 175.429C315.503 175.479 315.789 175.574 316.058 175.71C316.322 175.843 316.563 176.019 316.771 176.229C316.983 176.441 317.159 176.683 317.294 176.948C317.427 177.213 317.522 177.501 317.573 177.798C317.626 178.122 317.655 178.454 317.659 178.787C317.661 178.849 317.662 178.901 317.663 178.959C317.664 179.022 317.665 179.072 317.666 179.189L317.667 179.29L317.667 179.88V186.668L317.665 186.791C317.663 186.978 317.662 187.06 317.659 187.16C317.655 187.509 317.625 187.845 317.571 188.177C317.52 188.472 317.424 188.763 317.288 189.036C317.153 189.3 316.975 189.545 316.762 189.758C316.551 189.97 316.306 190.147 316.038 190.283C315.767 190.42 315.477 190.516 315.178 190.567C314.851 190.621 314.515 190.651 314.178 190.655C313.968 190.659 313.823 190.661 313.68 190.661H305.837C305.68 190.661 305.518 190.659 305.35 190.655C305.011 190.651 304.679 190.621 304.35 190.567C304.059 190.517 303.771 190.422 303.502 190.286C303.24 190.153 302.999 189.977 302.789 189.767C302.776 189.754 302.759 189.736 302.737 189.713L302.734 189.71C302.682 189.655 302.67 189.642 302.658 189.631L302.643 189.617C302.566 189.545 302.492 189.472 302.371 189.351C302.274 189.256 302.2 189.182 302.032 189.014ZM306.813 186.525C306.759 186.579 306.694 186.622 306.621 186.653C306.397 186.745 306.14 186.694 305.969 186.523C305.857 186.411 305.793 186.258 305.793 186.1C305.793 185.941 305.857 185.788 305.969 185.676V185.677C306.001 185.645 306.037 185.617 306.074 185.594L308.669 182.996L305.969 180.299L305.978 180.291C305.924 180.236 305.88 180.171 305.85 180.098C305.757 179.875 305.808 179.618 305.98 179.447C306.092 179.334 306.244 179.27 306.404 179.27C306.563 179.27 306.715 179.334 306.828 179.447H306.825C306.854 179.476 306.88 179.507 306.902 179.54L309.513 182.15L312.132 179.528C312.152 179.499 312.176 179.471 312.202 179.445C312.373 179.274 312.63 179.223 312.853 179.315C313.077 179.408 313.222 179.626 313.222 179.868C313.222 180.029 313.158 180.179 313.049 180.289L313.056 180.295L310.359 182.996L312.969 185.604C313.001 185.625 313.031 185.65 313.059 185.678L313.058 185.679C313.229 185.85 313.28 186.107 313.187 186.331C313.095 186.554 312.877 186.7 312.635 186.7C312.474 186.7 312.324 186.635 312.214 186.526L312.209 186.532L309.515 183.841L306.823 186.536L306.813 186.525Z" fill="black"/>
<g filter="url(#filter0_d)">
<path fill-rule="evenodd" clip-rule="evenodd" d="M123 166C123 163.239 125.239 161 128 161H235C237.761 161 240 163.239 240 166V202C240 204.761 237.761 207 235 207H128C125.239 207 123 204.761 123 202V166Z" fill="#FCFCFE"/>
</g>
<path d="M181.488 192.293C185.541 192.293 187.97 188.79 187.97 183.199V183.174C187.97 177.583 185.541 174.092 181.488 174.092C177.435 174.092 175.03 177.583 175.03 183.174V183.199C175.03 188.79 177.435 192.293 181.488 192.293ZM181.488 190.376C178.802 190.376 177.24 187.618 177.24 183.199V183.174C177.24 178.755 178.802 176.021 181.488 176.021C184.173 176.021 185.76 178.755 185.76 183.174V183.199C185.76 187.618 184.173 190.376 181.488 190.376Z" fill="black"/>
<g filter="url(#filter1_d)">
<path fill-rule="evenodd" clip-rule="evenodd" d="M246 112C246 109.239 248.239 107 251 107H358C360.761 107 363 109.239 363 112V149C363 151.761 360.761 154 358 154H251C248.239 154 246 151.761 246 149V112Z" fill="#FCFCFE"/>
</g>
<path d="M288.18 146.63H289.571L290.89 141.884H290.968L292.301 146.63H293.683L295.553 139.584H294.029L292.94 144.619H292.862L291.554 139.584H290.309L289.024 144.619H288.946L287.848 139.584H286.314L288.18 146.63ZM298.412 146.63H300.004L301.542 144.16H301.591L303.134 146.63H304.813L302.538 143.11V143.09L304.848 139.584H303.197L301.713 142.124H301.654L300.16 139.584H298.422L300.648 143.066V143.081L298.412 146.63ZM310.08 146.63H311.555V143.999L314.011 139.584H312.414L310.866 142.548H310.778L309.226 139.584H307.629L310.08 143.999V146.63ZM317.017 146.63H322.456V145.415H318.823V145.327L322.358 140.542V139.584H317.1V140.8H320.562V140.888L317.017 145.668V146.63Z" fill="black"/>
<path d="M304.415 114.114C300.813 114.114 298.177 116.629 298.177 120.096V120.12C298.177 123.465 300.667 125.943 304.024 125.943C306.417 125.943 308.223 124.673 308.931 123.111H308.98C308.98 123.245 308.98 123.367 308.968 123.489C308.87 127.188 307.576 130.374 304.292 130.374C302.486 130.374 301.229 129.471 300.704 128.018L300.655 127.884H298.421L298.458 128.042C299.043 130.606 301.277 132.315 304.268 132.315C308.577 132.315 311.104 128.848 311.104 122.916V122.891C311.104 116.36 307.662 114.114 304.415 114.114ZM304.402 124.014C302.083 124.014 300.411 122.366 300.411 120.071V120.047C300.411 117.825 302.193 116.067 304.439 116.067C306.697 116.067 308.455 117.862 308.455 120.12V120.132C308.455 122.378 306.709 124.014 304.402 124.014Z" fill="black"/>
<g filter="url(#filter2_d)">
<path fill-rule="evenodd" clip-rule="evenodd" d="M123 112C123 109.239 125.239 107 128 107H235C237.761 107 240 109.239 240 112V149C240 151.761 237.761 154 235 154H128C125.239 154 123 151.761 123 149V112Z" fill="#FCFCFE"/>
</g>
<path d="M171.351 146.63H172.825V140.8H174.939V139.584H169.236V140.8H171.351V146.63ZM181.192 146.811C183.009 146.811 184.142 145.761 184.142 144.199V139.584H182.667V144.067C182.667 144.98 182.14 145.561 181.192 145.561C180.245 145.561 179.713 144.98 179.713 144.067V139.584H178.238V144.199C178.238 145.766 179.386 146.811 181.192 146.811ZM189.696 146.63H191.513L193.861 139.584H192.201L190.648 144.99H190.561L189.003 139.584H187.348L189.696 146.63Z" fill="black"/>
<path d="M181.5 132.315C185.235 132.315 187.896 130.215 187.896 127.261V127.237C187.896 125.064 186.371 123.257 184.112 122.732V122.684C186.041 122.085 187.262 120.621 187.262 118.765V118.741C187.262 116.08 184.833 114.114 181.5 114.114C178.167 114.114 175.738 116.08 175.738 118.741V118.765C175.738 120.621 176.959 122.085 178.888 122.684V122.732C176.629 123.257 175.104 125.064 175.104 127.237V127.261C175.104 130.215 177.765 132.315 181.5 132.315ZM181.5 121.866C179.376 121.866 177.923 120.657 177.923 118.948V118.924C177.923 117.215 179.376 116.006 181.5 116.006C183.624 116.006 185.077 117.215 185.077 118.924V118.948C185.077 120.657 183.624 121.866 181.5 121.866ZM181.5 130.398C179.071 130.398 177.337 129.031 177.337 127.127V127.103C177.337 125.174 179.059 123.794 181.5 123.794C183.941 123.794 185.663 125.174 185.663 127.103V127.127C185.663 129.031 183.929 130.398 181.5 130.398Z" fill="black"/>
<g filter="url(#filter3_d)">
<path fill-rule="evenodd" clip-rule="evenodd" d="M0 112C0 109.239 2.23858 107 5 107H112C114.761 107 117 109.239 117 112V149C117 151.761 114.761 154 112 154H5C2.23858 154 0 151.761 0 149V112Z" fill="#FCFCFE"/>
</g>
<path d="M42.1992 146.63H43.6738V144.409H45.1045C46.5889 144.409 47.5801 143.452 47.5801 142.001V141.992C47.5801 140.542 46.5889 139.584 45.1045 139.584H42.1992V146.63ZM44.7432 140.751C45.5879 140.751 46.0859 141.196 46.0859 141.997V142.006C46.0859 142.807 45.5879 143.256 44.7432 143.256H43.6738V140.751H44.7432ZM54.0186 146.811C54.4727 146.811 54.8926 146.743 55.2686 146.611L55.8057 147.329H57.1777L56.2305 146.064C56.9824 145.429 57.4072 144.409 57.4072 143.11V143.1C57.4072 140.825 56.0938 139.404 54.0186 139.404C51.9434 139.404 50.625 140.82 50.625 143.1V143.11C50.625 145.385 51.9238 146.811 54.0186 146.811ZM54.0186 145.561C52.8564 145.561 52.1289 144.599 52.1289 143.11V143.1C52.1289 141.606 52.8711 140.654 54.0186 140.654C55.1611 140.654 55.9033 141.606 55.9033 143.1V143.11C55.9033 143.872 55.708 144.492 55.3662 144.921L54.9121 144.311H53.54L54.4434 145.512C54.3066 145.546 54.165 145.561 54.0186 145.561ZM60.8086 146.63H62.2832V144.052H63.4893L64.8027 146.63H66.4727L64.9883 143.833C65.7939 143.515 66.2627 142.739 66.2627 141.835V141.826C66.2627 140.439 65.3447 139.584 63.7432 139.584H60.8086V146.63ZM62.2832 142.978V140.737H63.5625C64.2998 140.737 64.7539 141.176 64.7539 141.855V141.865C64.7539 142.558 64.3193 142.978 63.582 142.978H62.2832ZM72.2715 146.811C74.0293 146.811 75.1133 145.927 75.1133 144.531V144.526C75.1133 143.427 74.4639 142.832 72.9746 142.524L72.2275 142.373C71.3975 142.202 71.0557 141.928 71.0557 141.469V141.464C71.0557 140.937 71.5391 140.605 72.2666 140.6C73.0088 140.6 73.4971 140.952 73.5801 141.455L73.5898 141.513H74.9766L74.9717 141.45C74.8789 140.273 73.9121 139.404 72.2666 139.404C70.7041 139.404 69.5811 140.268 69.5811 141.577V141.582C69.5811 142.651 70.2109 143.334 71.6758 143.632L72.418 143.784C73.292 143.964 73.6387 144.223 73.6387 144.687V144.692C73.6387 145.234 73.0967 145.61 72.3105 145.61C71.4854 145.61 70.9141 145.253 70.8604 144.726L70.8555 144.677H69.4346L69.4395 144.755C69.5225 146.005 70.5869 146.811 72.2715 146.811Z" fill="black"/>
<path d="M54.1055 132.022H56.4126L64.2495 116.446V114.407H52.5918V116.36H62.0767V116.409L54.1055 132.022Z" fill="black"/>
<g filter="url(#filter4_d)">
<path fill-rule="evenodd" clip-rule="evenodd" d="M246 58C246 55.2386 248.239 53 251 53H358C360.761 53 363 55.2386 363 58V95C363 97.7614 360.761 100 358 100H251C248.239 100 246 97.7614 246 95V58Z" fill="#FCFCFE"/>
</g>
<path d="M291.04 92.6304H292.354V87.8354H292.451L294.258 92.6304H295.181L296.987 87.8354H297.085V92.6304H298.398V85.5845H296.709L294.766 90.7407H294.678L292.729 85.5845H291.04V92.6304ZM302.112 92.6304H303.523V88.1235H303.602L306.863 92.6304H308.084V85.5845H306.673V90.0718H306.595L303.343 85.5845H302.112V92.6304ZM314.879 92.811C316.959 92.811 318.268 91.3853 318.268 89.1099V89.1001C318.268 86.8247 316.954 85.4038 314.879 85.4038C312.804 85.4038 311.485 86.8198 311.485 89.1001V89.1099C311.485 91.3853 312.784 92.811 314.879 92.811ZM314.879 91.561C313.717 91.561 312.989 90.5991 312.989 89.1099V89.1001C312.989 87.606 313.731 86.6538 314.879 86.6538C316.021 86.6538 316.764 87.606 316.764 89.1001V89.1099C316.764 90.5991 316.026 91.561 314.879 91.561Z" fill="black"/>
<path d="M304.585 78.3149C308.187 78.3149 310.823 75.8003 310.823 72.3335V72.3091C310.823 68.9644 308.333 66.4863 304.976 66.4863C302.583 66.4863 300.777 67.7559 300.069 69.3184H300.02C300.02 69.1841 300.02 69.062 300.032 68.9399C300.13 65.2412 301.424 62.0552 304.708 62.0552C306.514 62.0552 307.771 62.9585 308.296 64.4111L308.345 64.5454H310.579L310.542 64.3867C309.957 61.8232 307.723 60.1143 304.732 60.1143C300.423 60.1143 297.896 63.5811 297.896 69.5137V69.5381C297.896 76.0688 301.338 78.3149 304.585 78.3149ZM300.545 72.3091V72.2969C300.545 70.0508 302.291 68.415 304.598 68.415C306.917 68.415 308.589 70.063 308.589 72.3579V72.3823C308.589 74.604 306.807 76.3618 304.561 76.3618C302.303 76.3618 300.545 74.5674 300.545 72.3091Z" fill="black"/>
<g filter="url(#filter5_d)">
<path fill-rule="evenodd" clip-rule="evenodd" d="M123 58C123 55.2386 125.239 53 128 53H235C237.761 53 240 55.2386 240 58V95C240 97.7614 237.761 100 235 100H128C125.239 100 123 97.7614 123 95V58Z" fill="#FCFCFE"/>
</g>
<path d="M172.718 92.811C174.241 92.811 175.125 91.9468 175.125 90.4624V85.5845H173.65V90.4526C173.65 91.1606 173.323 91.5366 172.698 91.5366C172.122 91.5366 171.8 91.1558 171.771 90.6138V90.5845H170.34V90.6235C170.379 91.9468 171.263 92.811 172.718 92.811ZM178.839 92.6304H180.313V90.4771L181.012 89.6372L183.058 92.6304H184.825L182.076 88.6704L184.645 85.5845H183.004L180.401 88.7485H180.313V85.5845H178.839V92.6304ZM187.938 92.6304H192.548V91.4146H189.413V85.5845H187.938V92.6304Z" fill="black"/>
<path d="M181.671 78.3149C185.333 78.3149 187.933 75.8491 187.945 72.3213V72.2969C187.945 68.9155 185.504 66.4619 182.123 66.4619C180.414 66.4619 178.949 67.0967 178.119 68.2808H178.07L178.668 62.3604H186.944V60.4072H176.861L175.958 70.4536H177.899C178.131 70.0508 178.412 69.709 178.729 69.416C179.51 68.708 180.536 68.354 181.732 68.354C184.063 68.354 185.736 70.0142 185.748 72.3335V72.3579C185.748 74.7261 184.088 76.3862 181.695 76.3862C179.583 76.3862 178.021 75.0557 177.801 73.3101L177.789 73.2124H175.628L175.641 73.3467C175.897 76.2153 178.302 78.3149 181.671 78.3149Z" fill="black"/>
<g filter="url(#filter6_d)">
<path fill-rule="evenodd" clip-rule="evenodd" d="M0 58C0 55.2386 2.23858 53 5 53H112C114.761 53 117 55.2386 117 58V95C117 97.7614 114.761 100 112 100H5C2.23858 100 0 97.7614 0 95V58Z" fill="#FCFCFE"/>
</g>
<path d="M51.1094 92.811C53.0332 92.811 54.2344 91.6392 54.2344 89.769V88.8755H51.2754V89.9497H52.7988L52.7939 90.0815C52.7646 90.9702 52.1006 91.561 51.1338 91.561C49.9717 91.561 49.2344 90.6187 49.2344 89.0903V89.0806C49.2344 87.5815 49.9375 86.6538 51.0752 86.6538C51.9004 86.6538 52.501 87.0688 52.7012 87.7671L52.7109 87.8159H54.1758L54.166 87.7671C53.9561 86.3608 52.7402 85.4038 51.0752 85.4038C49.0244 85.4038 47.7305 86.8345 47.7305 89.0952V89.105C47.7305 91.3999 49.0146 92.811 51.1094 92.811ZM57.6504 92.6304H59.125V89.6616H62.2988V92.6304H63.7734V85.5845H62.2988V88.4458H59.125V85.5845H57.6504V92.6304ZM67.4824 92.6304H68.957V85.5845H67.4824V92.6304Z" fill="black"/>
<path d="M60.7461 78.022H62.8701V74.3599H65.3604V72.4312H62.8701V60.4072H59.623L51.896 72.3701V74.3599H60.7461V78.022ZM54.0688 72.4312V72.3823L60.6729 62.2871H60.7461V72.4312H54.0688Z" fill="black"/>
<g filter="url(#filter7_d)">
<path fill-rule="evenodd" clip-rule="evenodd" d="M246 5C246 2.23858 248.239 0 251 0H358C360.761 0 363 2.23858 363 5V41C363 43.7614 360.761 46 358 46H251C248.239 46 246 43.7614 246 41V5Z" fill="#FCFCFE"/>
</g>
<path d="M293.516 39H296.289C298.398 39 299.595 37.7109 299.595 35.4355V35.4258C299.595 33.2188 298.384 31.9541 296.289 31.9541H293.516V39ZM294.99 37.7842V33.1699H296.055C297.334 33.1699 298.091 34 298.091 35.4502V35.46C298.091 36.9639 297.358 37.7842 296.055 37.7842H294.99ZM302.996 39H307.664V37.7842H304.471V36.002H307.483V34.8691H304.471V33.1699H307.664V31.9541H302.996V39ZM311.217 39H312.691V36.2266H315.558V35.0596H312.691V33.1699H315.831V31.9541H311.217V39Z" fill="black"/>
<path d="M304.463 25.293C307.991 25.293 310.579 23.1201 310.579 20.1782V20.1538C310.579 17.6514 308.833 16.0522 306.27 15.8325V15.7837C308.467 15.3198 310.005 13.8306 310.005 11.6577V11.6333C310.005 8.95996 307.796 7.09229 304.439 7.09229C301.143 7.09229 298.873 9.00879 298.592 11.8774L298.58 11.9995H300.691L300.704 11.8774C300.887 10.0952 302.364 8.99658 304.439 8.99658C306.587 8.99658 307.796 10.0586 307.796 11.9019V11.9263C307.796 13.6841 306.331 14.978 304.231 14.978H302.12V16.8335H304.329C306.795 16.8335 308.345 18.042 308.345 20.2026V20.2271C308.345 22.0947 306.771 23.3887 304.463 23.3887C302.12 23.3887 300.533 22.1924 300.35 20.459L300.337 20.3369H298.226L298.238 20.4834C298.47 23.2666 300.826 25.293 304.463 25.293Z" fill="black"/>
<g filter="url(#filter8_d)">
<path fill-rule="evenodd" clip-rule="evenodd" d="M123 5C123 2.23858 125.239 0 128 0H235C237.761 0 240 2.23858 240 5V41C240 43.7614 237.761 46 235 46H128C125.239 46 123 43.7614 123 41V5Z" fill="#FCFCFE"/>
</g>
<path d="M169.017 39H170.564L171.087 37.291H173.572L174.095 39H175.647L173.196 31.9541H171.463L169.017 39ZM172.288 33.3604H172.376L173.235 36.1875H171.424L172.288 33.3604ZM178.844 39H182.008C183.512 39 184.444 38.2236 184.444 36.9883V36.9785C184.444 36.0752 183.766 35.377 182.833 35.3037V35.2158C183.556 35.1084 184.107 34.459 184.107 33.7168V33.707C184.107 32.623 183.292 31.9541 181.925 31.9541H178.844V39ZM181.549 33.0479C182.252 33.0479 182.657 33.3896 182.657 33.9609V33.9707C182.657 34.5518 182.223 34.8838 181.427 34.8838H180.318V33.0479H181.549ZM181.598 35.8555C182.467 35.8555 182.94 36.207 182.94 36.8613V36.8711C182.94 37.54 182.481 37.9014 181.632 37.9014H180.318V35.8555H181.598ZM190.771 39.1807C192.47 39.1807 193.676 38.1748 193.827 36.7002L193.832 36.6465H192.396L192.387 36.6855C192.23 37.4375 191.62 37.9307 190.775 37.9307C189.662 37.9307 188.974 36.9932 188.974 35.4795V35.4697C188.974 33.9561 189.662 33.0234 190.771 33.0234C191.61 33.0234 192.24 33.5605 192.392 34.3516V34.3857H193.827V34.3271C193.69 32.8379 192.44 31.7734 190.771 31.7734C188.725 31.7734 187.465 33.1846 187.465 35.4697V35.4795C187.465 37.7646 188.729 39.1807 190.771 39.1807Z" fill="black"/>
<path d="M175.848 25H187.469V23.0469H178.863V22.998L183.05 18.7012C186.285 15.3931 187.176 13.9404 187.176 12.0117V11.9873C187.176 9.22852 184.845 7.09229 181.659 7.09229C178.375 7.09229 175.738 9.35059 175.738 12.4023V12.4756H177.862V12.4146C177.862 10.5225 179.498 9.00879 181.695 9.00879C183.612 9.00879 184.967 10.3027 184.979 12.0972V12.1216C184.979 13.5864 184.43 14.5386 182.049 17.0166L175.848 23.4863V25Z" fill="black"/>
<g filter="url(#filter9_d)">
<path fill-rule="evenodd" clip-rule="evenodd" d="M0 5C0 2.23858 2.23858 0 5 0H112C114.761 0 117 2.23858 117 5V41C117 43.7614 114.761 46 112 46H5C2.23858 46 0 43.7614 0 41V5Z" fill="#FCFCFE"/>
</g>
<path d="M58.8784 25H61.0024V7.38525H58.854L54.1665 10.7544V12.9639L58.8296 9.7168H58.8784V25Z" fill="black"/>
<defs>
<filter id="filter0_d" x="123" y="161" width="117" height="47" filterUnits="userSpaceOnUse" color-interpolation-filters="sRGB">
<feFlood flood-opacity="0" result="BackgroundImageFix"/>
<feColorMatrix in="SourceAlpha" type="matrix" values="0 0 0 0 0 0 0 0 0 0 0 0 0 0 0 0 0 0 127 0"/>
<feOffset dy="1"/>
<feColorMatrix type="matrix" values="0 0 0 0 0.537255 0 0 0 0 0.541176 0 0 0 0 0.552941 0 0 0 1 0"/>
<feBlend mode="normal" in2="BackgroundImageFix" result="effect1_dropShadow"/>
<feBlend mode="normal" in="SourceGraphic" in2="effect1_dropShadow" result="shape"/>
</filter>
<filter id="filter1_d" x="246" y="107" width="117" height="48" filterUnits="userSpaceOnUse" color-interpolation-filters="sRGB">
<feFlood flood-opacity="0" result="BackgroundImageFix"/>
<feColorMatrix in="SourceAlpha" type="matrix" values="0 0 0 0 0 0 0 0 0 0 0 0 0 0 0 0 0 0 127 0"/>
<feOffset dy="1"/>
<feColorMatrix type="matrix" values="0 0 0 0 0.537255 0 0 0 0 0.541176 0 0 0 0 0.552941 0 0 0 1 0"/>
<feBlend mode="normal" in2="BackgroundImageFix" result="effect1_dropShadow"/>
<feBlend mode="normal" in="SourceGraphic" in2="effect1_dropShadow" result="shape"/>
</filter>
<filter id="filter2_d" x="123" y="107" width="117" height="48" filterUnits="userSpaceOnUse" color-interpolation-filters="sRGB">
<feFlood flood-opacity="0" result="BackgroundImageFix"/>
<feColorMatrix in="SourceAlpha" type="matrix" values="0 0 0 0 0 0 0 0 0 0 0 0 0 0 0 0 0 0 127 0"/>
<feOffset dy="1"/>
<feColorMatrix type="matrix" values="0 0 0 0 0.537255 0 0 0 0 0.541176 0 0 0 0 0.552941 0 0 0 1 0"/>
<feBlend mode="normal" in2="BackgroundImageFix" result="effect1_dropShadow"/>
<feBlend mode="normal" in="SourceGraphic" in2="effect1_dropShadow" result="shape"/>
</filter>
<filter id="filter3_d" x="0" y="107" width="117" height="48" filterUnits="userSpaceOnUse" color-interpolation-filters="sRGB">
<feFlood flood-opacity="0" result="BackgroundImageFix"/>
<feColorMatrix in="SourceAlpha" type="matrix" values="0 0 0 0 0 0 0 0 0 0 0 0 0 0 0 0 0 0 127 0"/>
<feOffset dy="1"/>
<feColorMatrix type="matrix" values="0 0 0 0 0.537255 0 0 0 0 0.541176 0 0 0 0 0.552941 0 0 0 1 0"/>
<feBlend mode="normal" in2="BackgroundImageFix" result="effect1_dropShadow"/>
<feBlend mode="normal" in="SourceGraphic" in2="effect1_dropShadow" result="shape"/>
</filter>
<filter id="filter4_d" x="246" y="53" width="117" height="48" filterUnits="userSpaceOnUse" color-interpolation-filters="sRGB">
<feFlood flood-opacity="0" result="BackgroundImageFix"/>
<feColorMatrix in="SourceAlpha" type="matrix" values="0 0 0 0 0 0 0 0 0 0 0 0 0 0 0 0 0 0 127 0"/>
<feOffset dy="1"/>
<feColorMatrix type="matrix" values="0 0 0 0 0.537255 0 0 0 0 0.541176 0 0 0 0 0.552941 0 0 0 1 0"/>
<feBlend mode="normal" in2="BackgroundImageFix" result="effect1_dropShadow"/>
<feBlend mode="normal" in="SourceGraphic" in2="effect1_dropShadow" result="shape"/>
</filter>
<filter id="filter5_d" x="123" y="53" width="117" height="48" filterUnits="userSpaceOnUse" color-interpolation-filters="sRGB">
<feFlood flood-opacity="0" result="BackgroundImageFix"/>
<feColorMatrix in="SourceAlpha" type="matrix" values="0 0 0 0 0 0 0 0 0 0 0 0 0 0 0 0 0 0 127 0"/>
<feOffset dy="1"/>
<feColorMatrix type="matrix" values="0 0 0 0 0.537255 0 0 0 0 0.541176 0 0 0 0 0.552941 0 0 0 1 0"/>
<feBlend mode="normal" in2="BackgroundImageFix" result="effect1_dropShadow"/>
<feBlend mode="normal" in="SourceGraphic" in2="effect1_dropShadow" result="shape"/>
</filter>
<filter id="filter6_d" x="0" y="53" width="117" height="48" filterUnits="userSpaceOnUse" color-interpolation-filters="sRGB">
<feFlood flood-opacity="0" result="BackgroundImageFix"/>
<feColorMatrix in="SourceAlpha" type="matrix" values="0 0 0 0 0 0 0 0 0 0 0 0 0 0 0 0 0 0 127 0"/>
<feOffset dy="1"/>
<feColorMatrix type="matrix" values="0 0 0 0 0.537255 0 0 0 0 0.541176 0 0 0 0 0.552941 0 0 0 1 0"/>
<feBlend mode="normal" in2="BackgroundImageFix" result="effect1_dropShadow"/>
<feBlend mode="normal" in="SourceGraphic" in2="effect1_dropShadow" result="shape"/>
</filter>
<filter id="filter7_d" x="246" y="0" width="117" height="47" filterUnits="userSpaceOnUse" color-interpolation-filters="sRGB">
<feFlood flood-opacity="0" result="BackgroundImageFix"/>
<feColorMatrix in="SourceAlpha" type="matrix" values="0 0 0 0 0 0 0 0 0 0 0 0 0 0 0 0 0 0 127 0"/>
<feOffset dy="1"/>
<feColorMatrix type="matrix" values="0 0 0 0 0.537255 0 0 0 0 0.541176 0 0 0 0 0.552941 0 0 0 1 0"/>
<feBlend mode="normal" in2="BackgroundImageFix" result="effect1_dropShadow"/>
<feBlend mode="normal" in="SourceGraphic" in2="effect1_dropShadow" result="shape"/>
</filter>
<filter id="filter8_d" x="123" y="0" width="117" height="47" filterUnits="userSpaceOnUse" color-interpolation-filters="sRGB">
<feFlood flood-opacity="0" result="BackgroundImageFix"/>
<feColorMatrix in="SourceAlpha" type="matrix" values="0 0 0 0 0 0 0 0 0 0 0 0 0 0 0 0 0 0 127 0"/>
<feOffset dy="1"/>
<feColorMatrix type="matrix" values="0 0 0 0 0.537255 0 0 0 0 0.541176 0 0 0 0 0.552941 0 0 0 1 0"/>
<feBlend mode="normal" in2="BackgroundImageFix" result="effect1_dropShadow"/>
<feBlend mode="normal" in="SourceGraphic" in2="effect1_dropShadow" result="shape"/>
</filter>
<filter id="filter9_d" x="0" y="0" width="117" height="47" filterUnits="userSpaceOnUse" color-interpolation-filters="sRGB">
<feFlood flood-opacity="0" result="BackgroundImageFix"/>
<feColorMatrix in="SourceAlpha" type="matrix" values="0 0 0 0 0 0 0 0 0 0 0 0 0 0 0 0 0 0 127 0"/>
<feOffset dy="1"/>
<feColorMatrix type="matrix" values="0 0 0 0 0.537255 0 0 0 0 0.541176 0 0 0 0 0.552941 0 0 0 1 0"/>
<feBlend mode="normal" in2="BackgroundImageFix" result="effect1_dropShadow"/>
<feBlend mode="normal" in="SourceGraphic" in2="effect1_dropShadow" result="shape"/>
</filter>
</defs>
</svg>
