<svg width="118" height="14" viewBox="0 0 118 14" fill="none" xmlns="http://www.w3.org/2000/svg">
<path d="M3.47674 1.318L6.68074 8.266L9.88474 1.318H12.8187V13H10.6767V4.126L7.36474 11.722H5.97874L2.55874 3.874V13H0.434742V1.318H3.47674ZM19.0472 7.888C19.7432 7.888 20.5472 8.002 21.4592 8.23V7.366C21.4592 6.754 21.3332 6.304 21.0812 6.016C20.8412 5.716 20.4392 5.566 19.8752 5.566C19.3232 5.566 18.8972 5.68 18.5972 5.908C18.2972 6.124 18.1472 6.436 18.1472 6.844H15.8252C15.8252 5.848 16.1732 5.128 16.8692 4.684C17.5772 4.24 18.5612 4.018 19.8212 4.018C21.6212 4.018 22.7852 4.648 23.3132 5.908C23.4932 6.34 23.5832 6.85 23.5832 7.438V13H21.7292L21.5672 11.83C21.0032 12.778 20.1392 13.252 18.9752 13.252C17.8472 13.252 16.9712 12.976 16.3472 12.424C15.7712 11.896 15.4832 11.23 15.4832 10.426C15.4832 9.61 15.8012 8.986 16.4372 8.554C17.0732 8.11 17.9432 7.888 19.0472 7.888ZM21.4592 9.58C20.7512 9.388 20.0912 9.292 19.4792 9.292C18.3272 9.292 17.7512 9.676 17.7512 10.444C17.7512 10.768 17.8832 11.05 18.1472 11.29C18.4112 11.518 18.8312 11.632 19.4072 11.632C19.9952 11.632 20.4752 11.44 20.8472 11.056C21.2312 10.66 21.4352 10.168 21.4592 9.58ZM29.7749 8.734L28.8029 9.544V13H26.6789V0.651999H28.8029V7.33L32.2589 4.252H35.1389L31.2689 7.492L35.3549 13H32.7629L29.7749 8.734ZM43.1344 5.296C43.4344 5.68 43.6564 6.124 43.8004 6.628C43.9564 7.132 44.0344 7.594 44.0344 8.014C44.0344 8.434 44.0104 8.812 43.9624 9.148H38.3104C38.3344 9.856 38.5084 10.432 38.8324 10.876C39.1564 11.32 39.6484 11.542 40.3084 11.542C41.1844 11.542 41.7064 11.158 41.8744 10.39H44.0164C43.8724 11.266 43.4704 11.956 42.8104 12.46C42.1264 12.988 41.2924 13.252 40.3084 13.252C39.1564 13.252 38.1904 12.832 37.4104 11.992C36.6064 11.116 36.2044 9.994 36.2044 8.626C36.2044 7.222 36.6064 6.094 37.4104 5.242C38.1784 4.426 39.1444 4.018 40.3084 4.018C41.5204 4.018 42.4624 4.444 43.1344 5.296ZM40.3264 5.71C39.7264 5.71 39.2584 5.908 38.9224 6.304C38.5864 6.688 38.3884 7.186 38.3284 7.798H42.0544C42.0544 6.85 41.7544 6.214 41.1544 5.89C40.9264 5.77 40.6504 5.71 40.3264 5.71ZM54.0101 7.888C54.7061 7.888 55.5101 8.002 56.4221 8.23V7.366C56.4221 6.754 56.2961 6.304 56.0441 6.016C55.8041 5.716 55.4021 5.566 54.8381 5.566C54.2861 5.566 53.8601 5.68 53.5601 5.908C53.2601 6.124 53.1101 6.436 53.1101 6.844H50.7881C50.7881 5.848 51.1361 5.128 51.8321 4.684C52.5401 4.24 53.5241 4.018 54.7841 4.018C56.5841 4.018 57.7481 4.648 58.2761 5.908C58.4561 6.34 58.5461 6.85 58.5461 7.438V13H56.6921L56.5301 11.83C55.9661 12.778 55.1021 13.252 53.9381 13.252C52.8101 13.252 51.9341 12.976 51.3101 12.424C50.7341 11.896 50.4461 11.23 50.4461 10.426C50.4461 9.61 50.7641 8.986 51.4001 8.554C52.0361 8.11 52.9061 7.888 54.0101 7.888ZM56.4221 9.58C55.7141 9.388 55.0541 9.292 54.4421 9.292C53.2901 9.292 52.7141 9.676 52.7141 10.444C52.7141 10.768 52.8461 11.05 53.1101 11.29C53.3741 11.518 53.7941 11.632 54.3701 11.632C54.9581 11.632 55.4381 11.44 55.8101 11.056C56.1941 10.66 56.3981 10.168 56.4221 9.58ZM63.7298 5.764C64.3058 4.6 65.2298 4.018 66.5018 4.018C67.5818 4.018 68.3918 4.372 68.9318 5.08C69.4838 5.788 69.7598 6.724 69.7598 7.888V13H67.6358V7.888C67.6358 7.24 67.4798 6.754 67.1678 6.43C66.8558 6.094 66.4178 5.926 65.8538 5.926C65.2898 5.926 64.8038 6.178 64.3958 6.682C63.9998 7.186 63.7898 7.942 63.7658 8.95V13H61.6418V4.252H63.4958L63.7298 5.764ZM81.8914 1.084C82.6714 1.084 83.3854 1.216 84.0334 1.48C84.6814 1.732 85.2394 2.11 85.7074 2.614C86.6914 3.67 87.1834 5.182 87.1834 7.15C87.1834 9.13 86.6914 10.66 85.7074 11.74C84.7714 12.748 83.4934 13.252 81.8734 13.252C80.2654 13.252 78.9934 12.736 78.0574 11.704C77.0734 10.636 76.5814 9.118 76.5814 7.15C76.5814 5.158 77.0734 3.634 78.0574 2.578C78.9814 1.582 80.2594 1.084 81.8914 1.084ZM84.9874 7.186C84.9874 5.842 84.7054 4.81 84.1414 4.09C83.5894 3.358 82.8394 2.992 81.8914 2.992C80.9434 2.992 80.1874 3.358 79.6234 4.09C79.0594 4.81 78.7774 5.842 78.7774 7.186C78.7774 8.518 79.0594 9.544 79.6234 10.264C80.1874 10.972 80.9434 11.326 81.8914 11.326C82.8394 11.326 83.5894 10.972 84.1414 10.264C84.7054 9.544 84.9874 8.518 84.9874 7.186ZM88.7425 4.252H90.0385V3.226C90.0385 2.326 90.3025 1.636 90.8305 1.156C91.3105 0.724 91.9345 0.508 92.7025 0.508C93.1945 0.508 93.8005 0.58 94.5205 0.723999L94.1065 2.362C93.7705 2.242 93.4645 2.182 93.1885 2.182C92.9245 2.182 92.6905 2.26 92.4865 2.416C92.2825 2.56 92.1805 2.836 92.1805 3.244V4.252H93.7825V5.674H92.1805V13H90.0385V5.674H88.7425V4.252ZM95.3343 4.252H96.6303V3.226C96.6303 2.326 96.8943 1.636 97.4223 1.156C97.9023 0.724 98.5263 0.508 99.2943 0.508C99.7863 0.508 100.392 0.58 101.112 0.723999L100.698 2.362C100.362 2.242 100.056 2.182 99.7803 2.182C99.5163 2.182 99.2823 2.26 99.0783 2.416C98.8743 2.56 98.7723 2.836 98.7723 3.244V4.252H100.374V5.674H98.7723V13H96.6303V5.674H95.3343V4.252ZM108.982 5.296C109.282 5.68 109.504 6.124 109.648 6.628C109.804 7.132 109.882 7.594 109.882 8.014C109.882 8.434 109.858 8.812 109.81 9.148H104.158C104.182 9.856 104.356 10.432 104.68 10.876C105.004 11.32 105.496 11.542 106.156 11.542C107.032 11.542 107.554 11.158 107.722 10.39H109.864C109.72 11.266 109.318 11.956 108.658 12.46C107.974 12.988 107.14 13.252 106.156 13.252C105.004 13.252 104.038 12.832 103.258 11.992C102.454 11.116 102.052 9.994 102.052 8.626C102.052 7.222 102.454 6.094 103.258 5.242C104.026 4.426 104.992 4.018 106.156 4.018C107.368 4.018 108.31 4.444 108.982 5.296ZM106.174 5.71C105.574 5.71 105.106 5.908 104.77 6.304C104.434 6.688 104.236 7.186 104.176 7.798H107.902C107.902 6.85 107.602 6.214 107.002 5.89C106.774 5.77 106.498 5.71 106.174 5.71ZM114.549 5.98C115.077 4.72 115.869 4.09 116.925 4.09C117.129 4.09 117.387 4.132 117.699 4.216L117.663 6.34C117.327 6.268 116.997 6.232 116.673 6.232C115.257 6.232 114.549 7.21 114.549 9.166V13H112.425V4.234H114.549V5.98Z" fill="url(#paint0_linear)"/>
<defs>
<linearGradient id="paint0_linear" x1="-40.6578" y1="-44.8378" x2="-38.1178" y2="20.3978" gradientUnits="userSpaceOnUse">
<stop stop-color="#FB09C6"/>
<stop offset="1" stop-color="#35168A"/>
</linearGradient>
</defs>
</svg>
