<svg width="50" height="35" viewBox="0 0 50 35" fill="none" xmlns="http://www.w3.org/2000/svg">
<path fill-rule="evenodd" clip-rule="evenodd" d="M49.8082 17.0615C49.8082 26.4143 42.1447 34.0019 32.6981 34.0019C29.9766 34.0019 27.4118 33.3829 25.0972 32.2366C22.8134 33.3519 20.2173 34.0019 17.5276 34.0019C8.08057 34.0019 0.416992 26.4143 0.416992 17.0615C0.416992 7.70864 8.08057 0.121094 17.5271 0.121094C20.2486 0.121094 22.8134 0.740542 25.0967 1.85537C27.3805 0.740542 29.9766 0.121094 32.6981 0.121094C42.1447 0.121094 49.8082 7.70864 49.8082 17.0615ZM46.4303 17.0615C46.4303 9.56698 40.2677 3.46602 32.6981 3.46602C31.2593 3.46602 29.8518 3.68269 28.5692 4.08547C31.1966 6.25308 33.1049 9.16421 34.0429 12.5091H30.5083C29.5155 9.71682 27.6258 7.32355 25.1285 5.69567C22.6572 7.30587 20.7803 9.69106 19.7796 12.5091H16.245C17.1706 9.21061 19.078 6.26449 21.7187 4.05445C20.3711 3.64314 18.9687 3.43433 17.5585 3.435C9.98886 3.435 3.82676 9.53597 3.82676 17.0305C3.82676 24.525 9.98886 30.6264 17.5585 30.6264C18.9973 30.6264 20.3734 30.4097 21.6561 30.0069C18.2468 27.1889 16.0261 23.0388 15.682 18.3934H23.8145V21.7069L19.8418 21.7689C20.8742 24.4944 22.7199 26.7865 25.1285 28.3657C27.5367 26.7861 29.3823 24.4944 30.4148 21.7689L26.442 21.7069V18.3934H34.5751C34.1996 23.0388 31.9476 27.1578 28.5378 29.9759C29.8518 30.3787 31.2593 30.6264 32.6981 30.6264C40.299 30.6574 46.4303 24.587 46.4303 17.0615Z" fill="black"/>
</svg>
