<svg width="105" height="72" viewBox="0 0 105 72" fill="none" xmlns="http://www.w3.org/2000/svg">
<path fill-rule="evenodd" clip-rule="evenodd" d="M104.237 36.3274C104.237 55.9806 88.1339 71.9243 68.2838 71.9243C62.5652 71.9243 57.1757 70.6236 52.3119 68.2149C47.513 70.5584 42.0577 71.9243 36.4059 71.9243C16.5548 71.9243 0.451294 55.9806 0.451294 36.3274C0.451294 16.6742 16.5548 0.730469 36.4049 0.730469C42.1235 0.730469 47.513 2.03212 52.3109 4.3747C57.1099 2.03212 62.5652 0.730469 68.2838 0.730469C88.1339 0.730469 104.237 16.6742 104.237 36.3274ZM97.1392 36.3274C97.1392 20.5792 84.1898 7.75919 68.2838 7.75919C65.2604 7.75919 62.3028 8.21448 59.6076 9.06084C65.1287 13.6156 69.1386 19.7328 71.1097 26.7615H63.6824C61.5961 20.894 57.6253 15.865 52.3777 12.4444C47.1848 15.8279 43.2407 20.8399 41.138 26.7615H33.7107C35.6557 19.8303 39.6638 13.6396 45.2128 8.99565C42.3809 8.13136 39.4341 7.6926 36.4707 7.694C20.5647 7.694 7.61627 20.514 7.61627 36.2622C7.61627 52.0104 20.5647 64.8314 36.4707 64.8314C39.4942 64.8314 42.3859 64.3761 45.0811 63.5297C37.9171 57.6081 33.2508 48.8876 32.5276 39.1262H49.6167V46.0888L41.2687 46.2192C43.4382 51.9462 47.3165 56.7627 52.3777 60.081C57.438 56.7617 61.3163 51.9462 63.4858 46.2192L55.1378 46.0888V39.1262H72.2278C71.4388 48.8876 66.7067 57.5429 59.5418 63.4646C62.3028 64.3109 65.2604 64.8314 68.2838 64.8314C84.2556 64.8966 97.1392 52.1408 97.1392 36.3274Z" fill="black"/>
</svg>
