<svg width="45" height="31" viewBox="0 0 45 31" fill="none" xmlns="http://www.w3.org/2000/svg">
<path fill-rule="evenodd" clip-rule="evenodd" d="M44.5736 15.443C44.5736 23.8683 37.67 30.7033 29.1603 30.7033C26.7087 30.7033 24.3983 30.1457 22.3132 29.1131C20.2559 30.1178 17.9172 30.7033 15.4943 30.7033C6.98413 30.7033 0.0805664 23.8683 0.0805664 15.443C0.0805664 7.01769 6.98413 0.182617 15.4938 0.182617C17.9454 0.182617 20.2559 0.740633 22.3127 1.7449C24.37 0.740633 26.7087 0.182617 29.1603 0.182617C37.67 0.182617 44.5736 7.01769 44.5736 15.443ZM41.5306 15.443C41.5306 8.69173 35.9792 3.19582 29.1603 3.19582C27.8641 3.19582 26.5962 3.391 25.4408 3.75384C27.8077 5.70648 29.5267 8.3289 30.3717 11.3421H27.1877C26.2933 8.82671 24.591 6.67079 22.3414 5.20435C20.1152 6.65486 18.4244 8.8035 17.5229 11.3421H14.3388C15.1727 8.37071 16.8909 5.71676 19.2698 3.72589C18.0557 3.35537 16.7925 3.16727 15.5221 3.16788C8.70317 3.16788 3.15218 8.66379 3.15218 15.415C3.15218 22.1663 8.70317 27.6626 15.5221 27.6626C16.8182 27.6626 18.0579 27.4674 19.2133 27.1046C16.1421 24.566 14.1417 20.8275 13.8317 16.6428H21.1577V19.6277L17.5789 19.6836C18.509 22.1388 20.1716 24.2036 22.3414 25.6261C24.5107 24.2032 26.1733 22.1388 27.1034 19.6836L23.5246 19.6277V16.6428H30.8511C30.5129 20.8275 28.4842 24.5381 25.4126 27.0767C26.5962 27.4395 27.8641 27.6626 29.1603 27.6626C36.0074 27.6906 41.5306 22.2222 41.5306 15.443Z" fill="black"/>
</svg>
