<svg width="20" height="17" viewBox="0 0 20 17" fill="none" xmlns="http://www.w3.org/2000/svg">
<path d="M18.8001 10.6645H14.603V14.6336C14.603 14.7136 14.603 14.7869 14.603 14.8635C14.603 14.9302 14.603 14.9935 14.6004 15.0602C14.5985 15.2031 14.5861 15.3456 14.5634 15.4867C14.5386 15.6269 14.4937 15.7627 14.4301 15.89C14.3649 16.0171 14.2799 16.133 14.1781 16.2332C14.0759 16.3334 13.9591 16.4177 13.8319 16.4832C13.7029 16.5459 13.566 16.5908 13.425 16.6165C13.2835 16.6387 13.1406 16.6509 12.9974 16.6531C12.9307 16.6531 12.8661 16.6565 12.8008 16.6565H7.40165C7.335 16.6565 7.27068 16.6531 7.20503 16.6531C7.06182 16.6509 6.91895 16.6387 6.77746 16.6165C6.63649 16.5908 6.4997 16.5459 6.37088 16.4832C6.24359 16.4177 6.12687 16.3334 6.02463 16.2332C5.9228 16.133 5.83773 16.0172 5.77269 15.89C5.70908 15.7627 5.66418 15.6269 5.63938 15.4867C5.61646 15.3457 5.60398 15.2031 5.60206 15.0602C5.60206 14.9935 5.59939 14.9302 5.59939 14.8635C5.59939 14.7869 5.59939 14.7136 5.59939 14.6336V10.6645H1.33602C0.904788 10.6645 0.35158 9.7347 0.869463 9.21815C1.3097 8.78158 8.2288 1.88315 9.6768 0.446806C9.7832 0.316044 9.9335 0.228402 10.0997 0.200195H10.111C10.2548 0.207993 10.3883 0.277176 10.4776 0.390152C11.9256 1.82649 18.8684 8.78158 19.309 9.21815C19.8272 9.7347 19.3933 10.6645 18.8001 10.6645Z" fill="black"/>
</svg>
