<svg width="121" height="39" viewBox="0 0 121 39" fill="none" xmlns="http://www.w3.org/2000/svg">
<g filter="url(#filter0_d)">
<path d="M23.9049 3V18.1667H8.52995V3H4.48828V33H8.52995V22.1667H23.9049V33H27.9466V3H23.9049ZM43.8555 33.625C47.1888 33.625 50.1471 32.4167 52.1888 29.9167C54.0638 27.5417 54.8138 24.7917 54.8138 21.75C54.8138 18.7917 54.1055 15.9583 52.1888 13.5417C50.1888 11.0833 47.1055 9.875 43.8555 9.875C40.6055 9.875 37.4805 11.1667 35.5638 13.5417C33.7305 15.8333 32.9388 18.7083 32.9388 21.75C32.9388 24.7083 33.6471 27.5417 35.5638 29.9167C37.5638 32.375 40.6055 33.625 43.8555 33.625ZM48.9805 27.4583C47.8138 29 45.8971 29.7917 43.8555 29.7917C41.8138 29.7917 39.8971 29 38.7721 27.4583C37.6055 25.9167 37.2305 23.8333 37.2305 21.75C37.2305 19.6667 37.6055 17.5417 38.7721 16C39.8971 14.4583 41.8138 13.7083 43.8555 13.7083C45.8971 13.7083 47.8138 14.4583 48.9805 16C50.1471 17.5417 50.5221 19.6667 50.5221 21.75C50.5221 23.8333 50.1471 25.9167 48.9805 27.4583ZM87.8424 12.1667C86.4258 11 84.5508 10.3333 82.8008 10.3333C80.1341 10.3333 77.5508 11.625 76.0924 13.8333L75.9674 14.0833C75.5508 13.375 75.0508 12.75 74.3424 12.1667C72.9258 11 71.0924 10.3333 69.3424 10.3333C66.8424 10.3333 64.4674 11.4583 62.9674 13.375V10.5H59.3841V33H63.4258V19.2083C63.4258 17.9167 63.5924 16.75 64.5924 15.5833C65.4674 14.5 66.8008 13.9167 68.2174 13.9167C69.3841 13.9167 70.5091 14.375 71.3424 15.1667C72.6758 16.375 72.8841 17.5417 72.8841 19.5833V33H76.9258V19.5833V19.2083C76.9258 17.9167 77.0924 16.75 78.0508 15.5833C78.9258 14.5 80.3008 13.9167 81.7174 13.9167C82.8424 13.9167 84.0091 14.375 84.8008 15.1667C86.1758 16.375 86.3841 17.5417 86.3841 19.5833L86.3424 33H90.3841L90.4258 19.5833C90.4258 16.5 90.0924 14.0417 87.8424 12.1667ZM98.5221 22.875H115.98C115.98 22.5 116.022 22.125 116.022 21.75C116.022 18.8333 115.272 15.875 113.439 13.5417C111.397 11.0833 108.397 9.875 105.105 9.875C101.855 9.875 98.8138 11.125 96.8138 13.5417C94.9388 15.875 94.2721 18.75 94.1888 21.75C94.1471 24.625 94.8971 27.5417 96.8138 29.9167C98.7721 32.375 101.855 33.5417 105.105 33.625C108.355 33.7083 111.48 32.4583 113.564 30C114.022 29.4167 114.439 28.7917 114.814 28.125L110.814 26.4167C110.605 26.75 110.439 27.0833 110.189 27.4583C109.022 29 107.147 29.7917 105.105 29.7917C103.105 29.7917 101.189 29 100.022 27.4583C99.0638 26.2083 98.6471 24.5833 98.5221 22.875ZM105.105 13.7083C107.147 13.6667 109.022 14.4583 110.189 16.0417C110.939 17.0417 111.355 18.2917 111.564 19.5833H98.6471C98.8555 18.2917 99.2721 17.0417 100.022 16.0417C101.189 14.4583 103.105 13.6667 105.105 13.7083Z" fill="url(#paint0_linear)"/>
</g>
<defs>
<filter id="filter0_d" x="0.488281" y="0" width="119.534" height="38.6289" filterUnits="userSpaceOnUse" color-interpolation-filters="sRGB">
<feFlood flood-opacity="0" result="BackgroundImageFix"/>
<feColorMatrix in="SourceAlpha" type="matrix" values="0 0 0 0 0 0 0 0 0 0 0 0 0 0 0 0 0 0 127 0"/>
<feOffset dy="1"/>
<feGaussianBlur stdDeviation="2"/>
<feColorMatrix type="matrix" values="0 0 0 0 0 0 0 0 0 0 0 0 0 0 0 0 0 0 0.2 0"/>
<feBlend mode="normal" in2="BackgroundImageFix" result="effect1_dropShadow"/>
<feBlend mode="normal" in="SourceGraphic" in2="effect1_dropShadow" result="shape"/>
</filter>
<linearGradient id="paint0_linear" x1="44.5417" y1="-36.4861" x2="59.4167" y2="51.1111" gradientUnits="userSpaceOnUse">
<stop stop-color="#FB09C6"/>
<stop offset="1" stop-color="#35168A"/>
</linearGradient>
</defs>
</svg>
