<svg width="136" height="40" viewBox="0 0 136 40" fill="none" xmlns="http://www.w3.org/2000/svg">
<g filter="url(#filter0_d)">
<path d="M26.9766 13.5417C26.9766 11.2917 26.1016 9.08333 24.6432 7.41666C23.6016 6.08333 22.1016 5.08333 20.4766 4.54167C19.4766 4.16666 18.4349 4 17.3932 4H4.4349V34H8.47656V23.0417H17.3932C20.3099 23.0417 23.1432 21.6667 24.8516 19.4583C26.1849 17.8333 27.0182 15.6667 26.9766 13.5417ZM21.6016 17.0833C20.5599 18.4167 18.8516 19.2083 17.3516 19.2083H8.47656V7.83333H17.3516C18.7682 7.83333 20.3099 8.58333 21.3099 9.625C22.2682 10.6667 22.8099 12.0833 22.8516 13.5417C22.8932 14.8333 22.3932 16.0833 21.6016 17.0833ZM41.5469 10.9167C39.8385 10.9583 38.1302 11.4167 36.7552 12.5C35.8385 13.1667 35.1719 13.9167 34.6719 14.7917V11.5H31.0885V34H35.1302V22.8333C35.1302 20.125 35.3385 17.9583 37.0469 16.3333C38.0052 15.3333 39.4635 14.75 41.2135 14.6667C42.5469 14.625 43.7969 14.7917 44.8385 15.2083V11.4167C43.7552 11 42.6302 10.8333 41.5469 10.9167ZM57.8255 34.625C61.1589 34.625 64.1172 33.4167 66.1589 30.9167C68.0339 28.5417 68.7839 25.7917 68.7839 22.75C68.7839 19.7917 68.0755 16.9583 66.1589 14.5417C64.1589 12.0833 61.0755 10.875 57.8255 10.875C54.5755 10.875 51.4505 12.1667 49.5339 14.5417C47.7005 16.8333 46.9089 19.7083 46.9089 22.75C46.9089 25.7083 47.6172 28.5417 49.5339 30.9167C51.5339 33.375 54.5755 34.625 57.8255 34.625ZM62.9505 28.4583C61.7839 30 59.8672 30.7917 57.8255 30.7917C55.7839 30.7917 53.8672 30 52.7422 28.4583C51.5755 26.9167 51.2005 24.8333 51.2005 22.75C51.2005 20.6667 51.5755 18.5417 52.7422 17C53.8672 15.4583 55.7839 14.7083 57.8255 14.7083C59.8672 14.7083 61.7839 15.4583 62.9505 17C64.1172 18.5417 64.4922 20.6667 64.4922 22.75C64.4922 24.8333 64.1172 26.9167 62.9505 28.4583ZM82.6875 7.04167C83.7292 6.79166 84.9792 6.83333 86.1042 7V3.45833C83.0208 3.16667 80.0208 3.33333 77.8542 5.25C76.2292 6.83333 75.8125 9.08333 75.8125 10.875V11.5H70.8542V14.7917H75.8125V34H79.8125V14.7917H86.1042V11.5H79.8125V10.5833C79.8125 8.625 80.5208 7.41666 82.6875 7.04167ZM90.4896 3.79167V7.83333H94.5313V3.79167H90.4896ZM90.4896 11.5V34H94.5313V11.5H90.4896ZM100.776 34V3.375H104.818V34H100.776ZM113.742 23.875H131.201C131.201 23.5 131.242 23.125 131.242 22.75C131.242 19.8333 130.492 16.875 128.659 14.5417C126.617 12.0833 123.617 10.875 120.326 10.875C117.076 10.875 114.034 12.125 112.034 14.5417C110.159 16.875 109.492 19.75 109.409 22.75C109.367 25.625 110.117 28.5417 112.034 30.9167C113.992 33.375 117.076 34.5417 120.326 34.625C123.576 34.7083 126.701 33.4583 128.784 31C129.242 30.4167 129.659 29.7917 130.034 29.125L126.034 27.4167C125.826 27.75 125.659 28.0833 125.409 28.4583C124.242 30 122.367 30.7917 120.326 30.7917C118.326 30.7917 116.409 30 115.242 28.4583C114.284 27.2083 113.867 25.5833 113.742 23.875ZM120.326 14.7083C122.367 14.6667 124.242 15.4583 125.409 17.0417C126.159 18.0417 126.576 19.2917 126.784 20.5833H113.867C114.076 19.2917 114.492 18.0417 115.242 17.0417C116.409 15.4583 118.326 14.6667 120.326 14.7083Z" fill="url(#paint0_linear)"/>
</g>
<defs>
<filter id="filter0_d" x="0.435059" y="0.345703" width="134.807" height="39.2835" filterUnits="userSpaceOnUse" color-interpolation-filters="sRGB">
<feFlood flood-opacity="0" result="BackgroundImageFix"/>
<feColorMatrix in="SourceAlpha" type="matrix" values="0 0 0 0 0 0 0 0 0 0 0 0 0 0 0 0 0 0 127 0"/>
<feOffset dy="1"/>
<feGaussianBlur stdDeviation="2"/>
<feColorMatrix type="matrix" values="0 0 0 0 0 0 0 0 0 0 0 0 0 0 0 0 0 0 0.2 0"/>
<feBlend mode="normal" in2="BackgroundImageFix" result="effect1_dropShadow"/>
<feBlend mode="normal" in="SourceGraphic" in2="effect1_dropShadow" result="shape"/>
</filter>
<linearGradient id="paint0_linear" x1="5.06545" y1="-30.8456" x2="8.74661" y2="31.1592" gradientUnits="userSpaceOnUse">
<stop stop-color="#FB09C6"/>
<stop offset="1" stop-color="#35168A"/>
</linearGradient>
</defs>
</svg>
