<svg width="76" height="40" viewBox="0 0 76 40" fill="none" xmlns="http://www.w3.org/2000/svg">
<g filter="url(#filter0_d)">
<path d="M28.0977 11.5833C27.0143 8.66666 25.181 6.29167 22.681 4.91666C20.806 3.83333 18.556 3.41667 16.4727 3.375C14.4727 3.375 12.431 3.58333 10.431 4.58333C7.88932 5.83333 5.93099 8.5 5.93099 11.4583C5.93099 13.375 6.63932 15.5 8.26432 16.9167C9.76432 18.2917 11.7643 19.0417 13.8477 19.6667L19.3893 21.2917C20.806 21.7083 21.9727 22.25 22.8477 23.0833C23.6393 23.8333 24.056 24.8333 24.056 25.9167C24.056 27.125 23.5977 28.4583 22.3893 29.375C21.0977 30.3333 18.8893 30.7917 17.0143 30.7917C14.556 30.7917 11.931 29.9583 10.4727 27.9167C9.63932 26.8333 9.09766 25.375 8.80599 23.7917L4.72266 24.9167C5.18099 26.7917 5.88932 28.7917 7.22266 30.5C9.55599 33.4583 12.9727 34.625 16.8893 34.625C19.806 34.625 22.5977 34.1667 24.7643 32.6667C26.931 31.1667 28.3477 28.5833 28.3477 26.0417C28.3477 23.7917 27.3893 21.7083 25.7643 20.1667C24.3893 18.8333 22.681 18 20.3477 17.3333L15.0143 15.75C13.3893 15.2917 11.8893 14.6667 11.0977 13.875C10.5143 13.25 10.181 12.4167 10.181 11.5417C10.181 10.2083 10.9727 8.875 12.306 8.125C13.3893 7.5 14.8893 7.20833 16.431 7.20833C17.9727 7.20833 19.5143 7.70833 20.681 8.41667C22.306 9.41667 23.2643 10.8333 24.0143 12.6667L28.0977 11.5833ZM35.6055 23.875H53.0638C53.0638 23.5 53.1055 23.125 53.1055 22.75C53.1055 19.8333 52.3555 16.875 50.5221 14.5417C48.4805 12.0833 45.4805 10.875 42.1888 10.875C38.9388 10.875 35.8971 12.125 33.8971 14.5417C32.0221 16.875 31.3555 19.75 31.2721 22.75C31.2305 25.625 31.9805 28.5417 33.8971 30.9167C35.8555 33.375 38.9388 34.5417 42.1888 34.625C45.4388 34.7083 48.5638 33.4583 50.6471 31C51.1055 30.4167 51.5221 29.7917 51.8971 29.125L47.8971 27.4167C47.6888 27.75 47.5221 28.0833 47.2721 28.4583C46.1055 30 44.2305 30.7917 42.1888 30.7917C40.1888 30.7917 38.2721 30 37.1055 28.4583C36.1471 27.2083 35.7305 25.5833 35.6055 23.875ZM42.1888 14.7083C44.2305 14.6667 46.1055 15.4583 47.2721 17.0417C48.0221 18.0417 48.4388 19.2917 48.6471 20.5833H35.7305C35.9388 19.2917 36.3555 18.0417 37.1055 17.0417C38.2721 15.4583 40.1888 14.6667 42.1888 14.7083ZM57.6784 34V3.375H61.7201V34H57.6784ZM67.5612 34V3.375H71.6029V34H67.5612Z" fill="url(#paint0_linear)"/>
</g>
<defs>
<filter id="filter0_d" x="0.722656" y="0.375" width="74.8802" height="39.2539" filterUnits="userSpaceOnUse" color-interpolation-filters="sRGB">
<feFlood flood-opacity="0" result="BackgroundImageFix"/>
<feColorMatrix in="SourceAlpha" type="matrix" values="0 0 0 0 0 0 0 0 0 0 0 0 0 0 0 0 0 0 127 0"/>
<feOffset dy="1"/>
<feGaussianBlur stdDeviation="2"/>
<feColorMatrix type="matrix" values="0 0 0 0 0 0 0 0 0 0 0 0 0 0 0 0 0 0 0.2 0"/>
<feBlend mode="normal" in2="BackgroundImageFix" result="effect1_dropShadow"/>
<feBlend mode="normal" in="SourceGraphic" in2="effect1_dropShadow" result="shape"/>
</filter>
<linearGradient id="paint0_linear" x1="-22.9345" y1="-30.8456" x2="-19.2534" y2="31.1592" gradientUnits="userSpaceOnUse">
<stop stop-color="#FB09C6"/>
<stop offset="1" stop-color="#35168A"/>
</linearGradient>
</defs>
</svg>
