<svg width="44" height="18" viewBox="0 0 44 18" fill="none" xmlns="http://www.w3.org/2000/svg">
<g filter="url(#filter0_d)">
<path d="M4.06461 8.96777H5.13261V5.77577H7.47861C7.55861 5.77577 7.65661 5.77177 7.77261 5.76377C7.88861 5.75577 8.00261 5.74377 8.11461 5.72777C8.81061 5.61977 9.34061 5.31977 9.70461 4.82777C10.0686 4.33177 10.2506 3.73977 10.2506 3.05177C10.2506 2.36377 10.0686 1.77377 9.70461 1.28177C9.34461 0.785773 8.81461 0.483773 8.11461 0.375773C8.00261 0.355773 7.88861 0.343773 7.77261 0.339773C7.66061 0.331773 7.56261 0.327773 7.47861 0.327773H4.06461V8.96777ZM5.13261 4.76177V1.34177H7.44261C7.51861 1.34177 7.60461 1.34577 7.70061 1.35377C7.80061 1.36177 7.89461 1.37577 7.98261 1.39577C8.39861 1.48777 8.69861 1.69777 8.88261 2.02577C9.06661 2.34977 9.15861 2.69177 9.15861 3.05177C9.15861 3.41177 9.06661 3.75577 8.88261 4.08377C8.69861 4.40777 8.39861 4.61577 7.98261 4.70777C7.89461 4.72777 7.80061 4.74177 7.70061 4.74977C7.60461 4.75777 7.51861 4.76177 7.44261 4.76177H5.13261ZM11.4474 8.96777H12.5214V5.71577C12.5214 5.33177 12.5734 4.96177 12.6774 4.60577C12.7814 4.24977 12.9914 3.95977 13.3074 3.73577C13.5314 3.57177 13.7774 3.47577 14.0454 3.44777C14.3174 3.41977 14.5654 3.43377 14.7894 3.48977V2.48777C14.5014 2.42377 14.1854 2.42377 13.8414 2.48777C13.4974 2.55177 13.2014 2.68377 12.9534 2.88377C12.7374 3.03577 12.5534 3.24577 12.4014 3.51377V2.48777H11.4474V8.96777ZM18.5668 9.14777C19.2108 9.14777 19.7648 9.00377 20.2288 8.71577C20.6968 8.42777 21.0568 8.02577 21.3088 7.50977C21.5648 6.99377 21.6928 6.39777 21.6928 5.72177C21.6928 5.05377 21.5668 4.46377 21.3148 3.95177C21.0668 3.43577 20.7088 3.03377 20.2408 2.74577C19.7728 2.45377 19.2148 2.30777 18.5668 2.30777C17.9348 2.30777 17.3848 2.45177 16.9168 2.73977C16.4488 3.02377 16.0868 3.42177 15.8308 3.93377C15.5748 4.44577 15.4468 5.04177 15.4468 5.72177C15.4468 6.38977 15.5708 6.98177 15.8188 7.49777C16.0708 8.01377 16.4308 8.41777 16.8988 8.70977C17.3668 9.00177 17.9228 9.14777 18.5668 9.14777ZM18.5668 8.13377C17.9148 8.13377 17.4208 7.91577 17.0848 7.47977C16.7488 7.03977 16.5808 6.45377 16.5808 5.72177C16.5808 5.01377 16.7428 4.43777 17.0668 3.99377C17.3908 3.54577 17.8908 3.32177 18.5668 3.32177C19.2308 3.32177 19.7288 3.53977 20.0608 3.97577C20.3928 4.41177 20.5588 4.99377 20.5588 5.72177C20.5588 6.43377 20.3928 7.01377 20.0608 7.46177C19.7328 7.90977 19.2348 8.13377 18.5668 8.13377ZM23.6318 8.96777H24.6998V3.36977H26.4038V2.48777H24.6998V1.96577C24.6998 1.34577 25.0138 1.03577 25.6418 1.03577H26.4038V0.147773H25.5818C25.3378 0.147773 25.0758 0.171773 24.7958 0.219773C24.5158 0.263773 24.2638 0.407773 24.0398 0.651773C23.8478 0.859773 23.7318 1.09777 23.6918 1.36577C23.6518 1.62977 23.6318 1.88577 23.6318 2.13377V2.48777H22.5338V3.36977H23.6318V8.96777ZM27.6638 1.34177H28.7318V0.237773H27.6638V1.34177ZM27.6638 8.96777H28.7318V2.48777H27.6638V8.96777ZM30.6573 8.96777H31.7253V0.147773H30.6573V8.96777ZM36.3335 9.14777C36.9615 9.14777 37.5275 8.99177 38.0315 8.67977C38.5355 8.36377 38.9155 7.91977 39.1715 7.34777L38.1455 6.99377C37.7735 7.75377 37.1535 8.13377 36.2855 8.13377C35.6895 8.13377 35.2215 7.95177 34.8815 7.58777C34.5455 7.21977 34.3555 6.69977 34.3115 6.02777H39.2795C39.3115 5.25977 39.2115 4.59777 38.9795 4.04177C38.7515 3.48577 38.4075 3.05777 37.9475 2.75777C37.4915 2.45777 36.9375 2.30777 36.2855 2.30777C35.6575 2.30777 35.1095 2.44977 34.6415 2.73377C34.1735 3.01377 33.8095 3.41377 33.5495 3.93377C33.2935 4.44977 33.1655 5.06177 33.1655 5.76977C33.1655 6.44577 33.2955 7.03777 33.5555 7.54577C33.8195 8.04977 34.1895 8.44377 34.6655 8.72777C35.1415 9.00777 35.6975 9.14777 36.3335 9.14777ZM36.3215 3.26777C37.4215 3.26777 38.0375 3.90177 38.1695 5.16977H34.3295C34.4055 4.55377 34.6115 4.08377 34.9475 3.75977C35.2835 3.43177 35.7415 3.26777 36.3215 3.26777Z" fill="url(#paint0_linear)"/>
</g>
<defs>
<filter id="filter0_d" x="0.0646973" y="0.147949" width="43.2208" height="17" filterUnits="userSpaceOnUse" color-interpolation-filters="sRGB">
<feFlood flood-opacity="0" result="BackgroundImageFix"/>
<feColorMatrix in="SourceAlpha" type="matrix" values="0 0 0 0 0 0 0 0 0 0 0 0 0 0 0 0 0 0 127 0"/>
<feOffset dy="4"/>
<feGaussianBlur stdDeviation="2"/>
<feColorMatrix type="matrix" values="0 0 0 0 0.429167 0 0 0 0 0.429167 0 0 0 0 0.429167 0 0 0 0.25 0"/>
<feBlend mode="normal" in2="BackgroundImageFix" result="effect1_dropShadow"/>
<feBlend mode="normal" in="SourceGraphic" in2="effect1_dropShadow" result="shape"/>
</filter>
<linearGradient id="paint0_linear" x1="8.04957" y1="-45.8778" x2="23.8769" y2="12.0188" gradientUnits="userSpaceOnUse">
<stop stop-color="#FB09C6"/>
<stop offset="1" stop-color="#35168A"/>
</linearGradient>
</defs>
</svg>
