<svg width="42" height="18" viewBox="0 0 42 18" fill="none" xmlns="http://www.w3.org/2000/svg">
<g filter="url(#filter0_d)">
<path d="M4.44117 8.96777H5.55117L6.22917 6.94577H9.91917L10.6032 8.96777H11.7132L8.82117 0.327773H7.33317L4.44117 8.96777ZM6.56517 5.94377L8.06517 1.44977L9.58317 5.94377H6.56517ZM12.9073 8.96777H13.9753V0.147773H12.9073V8.96777ZM18.5835 9.14777C19.2115 9.14777 19.7775 8.99177 20.2815 8.67977C20.7855 8.36377 21.1655 7.91977 21.4215 7.34777L20.3955 6.99377C20.0235 7.75377 19.4035 8.13377 18.5355 8.13377C17.9395 8.13377 17.4715 7.95177 17.1315 7.58777C16.7955 7.21977 16.6055 6.69977 16.5615 6.02777H21.5295C21.5615 5.25977 21.4615 4.59777 21.2295 4.04177C21.0015 3.48577 20.6575 3.05777 20.1975 2.75777C19.7415 2.45777 19.1875 2.30777 18.5355 2.30777C17.9075 2.30777 17.3595 2.44977 16.8915 2.73377C16.4235 3.01377 16.0595 3.41377 15.7995 3.93377C15.5435 4.44977 15.4155 5.06177 15.4155 5.76977C15.4155 6.44577 15.5455 7.03777 15.8055 7.54577C16.0695 8.04977 16.4395 8.44377 16.9155 8.72777C17.3915 9.00777 17.9475 9.14777 18.5835 9.14777ZM18.5715 3.26777C19.6715 3.26777 20.2875 3.90177 20.4195 5.16977H16.5795C16.6555 4.55377 16.8615 4.08377 17.1975 3.75977C17.5335 3.43177 17.9915 3.26777 18.5715 3.26777ZM22.8654 8.96777H23.9394V5.71577C23.9394 5.33177 23.9914 4.96177 24.0954 4.60577C24.1994 4.24977 24.4094 3.95977 24.7254 3.73577C24.9494 3.57177 25.1954 3.47577 25.4634 3.44777C25.7354 3.41977 25.9834 3.43377 26.2074 3.48977V2.48777C25.9194 2.42377 25.6034 2.42377 25.2594 2.48777C24.9154 2.55177 24.6194 2.68377 24.3714 2.88377C24.1554 3.03577 23.9714 3.24577 23.8194 3.51377V2.48777H22.8654V8.96777ZM30.96 8.96777V8.04977C30.516 8.11777 30.136 8.12977 29.82 8.08577C29.508 8.04177 29.28 7.89177 29.136 7.63577C29.06 7.49977 29.018 7.33977 29.01 7.15577C29.006 6.96777 29.004 6.73977 29.004 6.47177V3.36977H30.96V2.48777H29.004V0.687773H27.936V2.48777H26.622V3.36977H27.936V6.51977C27.936 6.85577 27.94 7.15577 27.948 7.41977C27.96 7.67977 28.03 7.93577 28.158 8.18777C28.31 8.47977 28.532 8.69577 28.824 8.83577C29.116 8.97177 29.448 9.04577 29.82 9.05777C30.196 9.07377 30.576 9.04377 30.96 8.96777ZM34.7235 9.14177C35.5315 9.14177 36.1655 8.96377 36.6255 8.60777C37.0855 8.25177 37.3155 7.75977 37.3155 7.13177C37.3155 6.79577 37.2455 6.51377 37.1055 6.28577C36.9655 6.05377 36.7295 5.85377 36.3975 5.68577C36.0695 5.51377 35.6195 5.35577 35.0475 5.21177C34.5395 5.08377 34.1515 4.96977 33.8835 4.86977C33.6195 4.76977 33.4375 4.66377 33.3375 4.55177C33.2415 4.43977 33.1935 4.30577 33.1935 4.14977C33.1935 3.87377 33.3235 3.65377 33.5835 3.48977C33.8475 3.32577 34.1895 3.24977 34.6095 3.26177C35.0495 3.27377 35.4115 3.38177 35.6955 3.58577C35.9795 3.78577 36.1475 4.05777 36.1995 4.40177L37.2915 4.20377C37.2235 3.63177 36.9435 3.17377 36.4515 2.82977C35.9635 2.48177 35.3495 2.30777 34.6095 2.30777C33.8615 2.30777 33.2595 2.48177 32.8035 2.82977C32.3475 3.17377 32.1195 3.63177 32.1195 4.20377C32.1195 4.51177 32.1875 4.77377 32.3235 4.98977C32.4635 5.20577 32.6975 5.39577 33.0255 5.55977C33.3575 5.72377 33.8095 5.88177 34.3815 6.03377C34.9095 6.17377 35.3035 6.29577 35.5635 6.39977C35.8275 6.49977 36.0015 6.60577 36.0855 6.71777C36.1695 6.82977 36.2115 6.97777 36.2115 7.16177C36.2115 7.47777 36.0835 7.72777 35.8275 7.91177C35.5755 8.09577 35.2295 8.18777 34.7895 8.18777C34.3215 8.18777 33.9295 8.08577 33.6135 7.88177C33.2975 7.67377 33.0955 7.39377 33.0075 7.04177L31.9155 7.21577C32.0275 7.82377 32.3295 8.29777 32.8215 8.63777C33.3175 8.97377 33.9515 9.14177 34.7235 9.14177Z" fill="url(#paint0_linear)"/>
</g>
<defs>
<filter id="filter0_d" x="0.441162" y="0.147949" width="40.8744" height="17" filterUnits="userSpaceOnUse" color-interpolation-filters="sRGB">
<feFlood flood-opacity="0" result="BackgroundImageFix"/>
<feColorMatrix in="SourceAlpha" type="matrix" values="0 0 0 0 0 0 0 0 0 0 0 0 0 0 0 0 0 0 127 0"/>
<feOffset dy="4"/>
<feGaussianBlur stdDeviation="2"/>
<feColorMatrix type="matrix" values="0 0 0 0 0.383333 0 0 0 0 0.383333 0 0 0 0 0.383333 0 0 0 0.25 0"/>
<feBlend mode="normal" in2="BackgroundImageFix" result="effect1_dropShadow"/>
<feBlend mode="normal" in="SourceGraphic" in2="effect1_dropShadow" result="shape"/>
</filter>
<linearGradient id="paint0_linear" x1="8.48797" y1="-45.8778" x2="25.3202" y2="11.399" gradientUnits="userSpaceOnUse">
<stop stop-color="#FB09C6"/>
<stop offset="1" stop-color="#35168A"/>
</linearGradient>
</defs>
</svg>
