<svg width="127" height="40" viewBox="0 0 127 40" fill="none" xmlns="http://www.w3.org/2000/svg">
<g filter="url(#filter0_d)">
<path d="M26.0495 34H30.2161L20.3411 4H14.5911L4.71615 34H8.88281L10.6745 28.5417H24.2161L26.0495 34ZM11.9245 24.75L17.4245 8.16667L22.9661 24.75H11.9245ZM33.3229 34V3.375H37.3646V34H33.3229ZM46.2891 23.875H63.7474C63.7474 23.5 63.7891 23.125 63.7891 22.75C63.7891 19.8333 63.0391 16.875 61.2057 14.5417C59.1641 12.0833 56.1641 10.875 52.8724 10.875C49.6224 10.875 46.5807 12.125 44.5807 14.5417C42.7057 16.875 42.0391 19.75 41.9557 22.75C41.9141 25.625 42.6641 28.5417 44.5807 30.9167C46.5391 33.375 49.6224 34.5417 52.8724 34.625C56.1224 34.7083 59.2474 33.4583 61.3307 31C61.7891 30.4167 62.2057 29.7917 62.5807 29.125L58.5807 27.4167C58.3724 27.75 58.2057 28.0833 57.9557 28.4583C56.7891 30 54.9141 30.7917 52.8724 30.7917C50.8724 30.7917 48.9557 30 47.7891 28.4583C46.8307 27.2083 46.4141 25.5833 46.2891 23.875ZM52.8724 14.7083C54.9141 14.6667 56.7891 15.4583 57.9557 17.0417C58.7057 18.0417 59.1224 19.2917 59.3307 20.5833H46.4141C46.6224 19.2917 47.0391 18.0417 47.7891 17.0417C48.9557 15.4583 50.8724 14.6667 52.8724 14.7083ZM78.8203 10.9167C77.112 10.9583 75.4036 11.4167 74.0286 12.5C73.112 13.1667 72.4453 13.9167 71.9453 14.7917V11.5H68.362V34H72.4036V22.8333C72.4036 20.125 72.612 17.9583 74.3203 16.3333C75.2786 15.3333 76.737 14.75 78.487 14.6667C79.8203 14.625 81.0703 14.7917 82.112 15.2083V11.4167C81.0286 11 79.9036 10.8333 78.8203 10.9167ZM92.5156 14.7917H99.2656V11.5H92.5156V5.25H88.474V11.5H83.5573V14.7917H88.474V25.3333C88.474 27.5833 88.5573 29.4167 89.3906 31.0833C90.224 32.75 91.7656 33.7083 93.7656 34.1667C95.3073 34.5 97.6823 34.4167 99.2656 34V30.4583C98.099 30.6667 96.724 30.7083 95.5573 30.625C94.5156 30.5 93.5156 29.9167 93.0156 29C92.474 28.125 92.5156 26.9167 92.5156 25.0833V14.7917ZM121.927 17.4167C121.219 15.1667 119.427 13.0833 117.219 12C115.719 11.2083 114.052 10.875 112.469 10.875C110.927 10.8333 109.302 11 107.635 11.75C105.469 12.7083 103.802 14.8333 103.802 17.3333C103.802 18.8333 104.469 20.5417 105.885 21.6667C107.135 22.6667 108.51 23.125 110.302 23.625C111.76 24.0417 113.01 24.3333 114.135 24.6667C115.552 25.0833 116.469 25.4167 117.135 26.0417C117.719 26.5833 117.969 27.2083 117.927 27.9583C117.844 28.7083 117.51 29.2917 116.844 29.7917C115.927 30.5 114.177 30.75 112.76 30.75C111.052 30.75 109.302 30.375 108.094 29.0417C107.302 28.2083 106.802 26.7917 106.677 25.7083L102.802 26.6667C103.01 28.0833 103.969 30.3333 105.177 31.6667C107.135 33.7917 109.802 34.625 112.802 34.625C115.052 34.625 117.302 34.25 119.052 33.125C120.76 32.0417 121.885 30.2917 122.052 28.2917C122.219 26.2083 121.385 24.4583 119.635 23.0833C118.26 21.9167 116.969 21.5417 115.26 21.0417C113.677 20.625 112.26 20.25 111.177 19.9167C109.76 19.5 108.969 19.125 108.427 18.625C108.094 18.25 107.927 17.7917 107.927 17.25C107.927 16.5417 108.427 15.8333 109.344 15.3333C110.177 14.9167 111.26 14.7083 112.427 14.7083C113.51 14.7083 114.594 14.9583 115.469 15.4167C116.635 16 117.552 17.1667 117.969 18.375L121.927 17.4167Z" fill="url(#paint0_linear)"/>
</g>
<defs>
<filter id="filter0_d" x="0.716309" y="0.375" width="125.357" height="39.2539" filterUnits="userSpaceOnUse" color-interpolation-filters="sRGB">
<feFlood flood-opacity="0" result="BackgroundImageFix"/>
<feColorMatrix in="SourceAlpha" type="matrix" values="0 0 0 0 0 0 0 0 0 0 0 0 0 0 0 0 0 0 127 0"/>
<feOffset dy="1"/>
<feGaussianBlur stdDeviation="2"/>
<feColorMatrix type="matrix" values="0 0 0 0 0 0 0 0 0 0 0 0 0 0 0 0 0 0 0.2 0"/>
<feBlend mode="normal" in2="BackgroundImageFix" result="effect1_dropShadow"/>
<feBlend mode="normal" in="SourceGraphic" in2="effect1_dropShadow" result="shape"/>
</filter>
<linearGradient id="paint0_linear" x1="2.06545" y1="-30.8456" x2="5.74661" y2="31.1592" gradientUnits="userSpaceOnUse">
<stop stop-color="#FB09C6"/>
<stop offset="1" stop-color="#35168A"/>
</linearGradient>
</defs>
</svg>
