<svg width="42" height="19" viewBox="0 0 42 19" fill="none" xmlns="http://www.w3.org/2000/svg">
<g filter="url(#filter0_d)">
<path d="M10.3465 3.96777V8.51777H5.73398V3.96777H4.52148V12.9678H5.73398V9.71777H10.3465V12.9678H11.559V3.96777H10.3465ZM16.3316 13.1553C17.3316 13.1553 18.2191 12.7928 18.8316 12.0428C19.3941 11.3303 19.6191 10.5053 19.6191 9.59277C19.6191 8.70527 19.4066 7.85527 18.8316 7.13027C18.2316 6.39277 17.3066 6.03027 16.3316 6.03027C15.3566 6.03027 14.4191 6.41777 13.8441 7.13027C13.2941 7.81777 13.0566 8.68027 13.0566 9.59277C13.0566 10.4803 13.2691 11.3303 13.8441 12.0428C14.4441 12.7803 15.3566 13.1553 16.3316 13.1553ZM17.8691 11.3053C17.5191 11.7678 16.9441 12.0053 16.3316 12.0053C15.7191 12.0053 15.1441 11.7678 14.8066 11.3053C14.4566 10.8428 14.3441 10.2178 14.3441 9.59277C14.3441 8.96777 14.4566 8.33027 14.8066 7.86777C15.1441 7.40527 15.7191 7.18027 16.3316 7.18027C16.9441 7.18027 17.5191 7.40527 17.8691 7.86777C18.2191 8.33027 18.3316 8.96777 18.3316 9.59277C18.3316 10.2178 18.2191 10.8428 17.8691 11.3053ZM29.5277 6.71777C29.1027 6.36777 28.5402 6.16777 28.0152 6.16777C27.2152 6.16777 26.4402 6.55527 26.0027 7.21777L25.9652 7.29277C25.8402 7.08027 25.6902 6.89277 25.4777 6.71777C25.0527 6.36777 24.5027 6.16777 23.9777 6.16777C23.2277 6.16777 22.5152 6.50527 22.0652 7.08027V6.21777H20.9902V12.9678H22.2027V8.83027C22.2027 8.44277 22.2527 8.09277 22.5527 7.74277C22.8152 7.41777 23.2152 7.24277 23.6402 7.24277C23.9902 7.24277 24.3277 7.38027 24.5777 7.61777C24.9777 7.98027 25.0402 8.33027 25.0402 8.94277V12.9678H26.2527V8.94277V8.83027C26.2527 8.44277 26.3027 8.09277 26.5902 7.74277C26.8527 7.41777 27.2652 7.24277 27.6902 7.24277C28.0277 7.24277 28.3777 7.38027 28.6152 7.61777C29.0277 7.98027 29.0902 8.33027 29.0902 8.94277L29.0777 12.9678H30.2902L30.3027 8.94277C30.3027 8.01777 30.2027 7.28027 29.5277 6.71777ZM32.7316 9.93027H37.9691C37.9691 9.81777 37.9816 9.70527 37.9816 9.59277C37.9816 8.71777 37.7566 7.83027 37.2066 7.13027C36.5941 6.39277 35.6941 6.03027 34.7066 6.03027C33.7316 6.03027 32.8191 6.40527 32.2191 7.13027C31.6566 7.83027 31.4566 8.69277 31.4316 9.59277C31.4191 10.4553 31.6441 11.3303 32.2191 12.0428C32.8066 12.7803 33.7316 13.1303 34.7066 13.1553C35.6816 13.1803 36.6191 12.8053 37.2441 12.0678C37.3816 11.8928 37.5066 11.7053 37.6191 11.5053L36.4191 10.9928C36.3566 11.0928 36.3066 11.1928 36.2316 11.3053C35.8816 11.7678 35.3191 12.0053 34.7066 12.0053C34.1066 12.0053 33.5316 11.7678 33.1816 11.3053C32.8941 10.9303 32.7691 10.4428 32.7316 9.93027ZM34.7066 7.18027C35.3191 7.16777 35.8816 7.40527 36.2316 7.88027C36.4566 8.18027 36.5816 8.55527 36.6441 8.94277H32.7691C32.8316 8.55527 32.9566 8.18027 33.1816 7.88027C33.5316 7.40527 34.1066 7.16777 34.7066 7.18027Z" fill="url(#paint0_linear)"/>
</g>
<defs>
<filter id="filter0_d" x="0.521484" y="0.967773" width="41.4602" height="17.1887" filterUnits="userSpaceOnUse" color-interpolation-filters="sRGB">
<feFlood flood-opacity="0" result="BackgroundImageFix"/>
<feColorMatrix in="SourceAlpha" type="matrix" values="0 0 0 0 0 0 0 0 0 0 0 0 0 0 0 0 0 0 127 0"/>
<feOffset dy="1"/>
<feGaussianBlur stdDeviation="2"/>
<feColorMatrix type="matrix" values="0 0 0 0 0 0 0 0 0 0 0 0 0 0 0 0 0 0 0.2 0"/>
<feBlend mode="normal" in2="BackgroundImageFix" result="effect1_dropShadow"/>
<feBlend mode="normal" in="SourceGraphic" in2="effect1_dropShadow" result="shape"/>
</filter>
<linearGradient id="paint0_linear" x1="16.5" y1="-8.53223" x2="21" y2="17.9678" gradientUnits="userSpaceOnUse">
<stop stop-color="#FB09C6"/>
<stop offset="1" stop-color="#35168A"/>
</linearGradient>
</defs>
</svg>
