<svg width="26" height="26" viewBox="0 0 26 26" fill="none" xmlns="http://www.w3.org/2000/svg">
<path d="M24.7531 11.8861L13.661 0.793974C13.5466 0.679423 13.4108 0.588544 13.2613 0.526539C13.1118 0.464533 12.9515 0.432617 12.7896 0.432617C12.6278 0.432617 12.4675 0.464533 12.318 0.526539C12.1685 0.588544 12.0326 0.679423 11.9183 0.793974L0.826179 11.8861C0.65387 12.0584 0.536532 12.278 0.488999 12.517C0.441467 12.7561 0.465873 13.0039 0.559133 13.229C0.652393 13.4542 0.810319 13.6467 1.01295 13.7821C1.21557 13.9175 1.45381 13.9898 1.69752 13.9899H2.92998V22.6171C2.92998 23.9765 4.03549 25.082 5.39489 25.082H20.1844C21.5438 25.082 22.6493 23.9765 22.6493 22.6171V13.9899H23.8817C24.1254 13.9898 24.3637 13.9175 24.5663 13.7821C24.7689 13.6467 24.9268 13.4542 25.0201 13.229C25.1134 13.0039 25.1378 12.7561 25.0902 12.517C25.0427 12.278 24.9254 12.0584 24.7531 11.8861ZM20.1856 22.6171H5.39489V10.804L12.7896 3.40924L20.1844 10.804V16.4548L20.1856 22.6171Z" fill="#696767"/>
</svg>
