<svg width="15" height="13" viewBox="0 0 15 13" fill="none" xmlns="http://www.w3.org/2000/svg">
<path d="M10.4857 0.0136719C9.26769 0.0136719 8.09869 0.543372 7.33569 1.38043C6.57269 0.543372 5.40369 0.0136719 4.18569 0.0136719C2.02969 0.0136719 0.335693 1.59623 0.335693 3.6104C0.335693 6.08234 2.71569 8.09651 6.32069 11.157L7.33569 12.0137L8.35069 11.1505C11.9557 8.09651 14.3357 6.08234 14.3357 3.6104C14.3357 1.59623 12.6417 0.0136719 10.4857 0.0136719ZM7.40569 10.1826L7.33569 10.248L7.26569 10.1826C3.93369 7.36408 1.73569 5.50032 1.73569 3.6104C1.73569 2.3025 2.78569 1.32157 4.18569 1.32157C5.26369 1.32157 6.31369 1.96899 6.68469 2.8649H7.99369C8.35769 1.96899 9.40769 1.32157 10.4857 1.32157C11.8857 1.32157 12.9357 2.3025 12.9357 3.6104C12.9357 5.50032 10.7377 7.36408 7.40569 10.1826Z" fill="url(#paint0_linear)"/>
<defs>
<linearGradient id="paint0_linear" x1="2.95648" y1="-23.8937" x2="17.9576" y2="5.88299" gradientUnits="userSpaceOnUse">
<stop stop-color="#FB09C6"/>
<stop offset="1" stop-color="#35168A"/>
</linearGradient>
</defs>
</svg>
