<svg width="26" height="26" viewBox="0 0 26 26" fill="none" xmlns="http://www.w3.org/2000/svg">
<path d="M24.7528 11.9183L13.6607 0.826201C13.5464 0.71165 13.4105 0.620771 13.261 0.558765C13.1115 0.49676 12.9512 0.464844 12.7894 0.464844C12.6275 0.464844 12.4672 0.49676 12.3177 0.558765C12.1682 0.620771 12.0324 0.71165 11.918 0.826201L0.825935 11.9183C0.653626 12.0907 0.536288 12.3102 0.488755 12.5493C0.441223 12.7883 0.465629 13.0361 0.558889 13.2612C0.652149 13.4864 0.810075 13.6789 1.0127 13.8143C1.21533 13.9497 1.45356 14.022 1.69728 14.0221H2.92974V22.6493C2.92974 24.0087 4.03525 25.1142 5.39465 25.1142H20.1841C21.5435 25.1142 22.649 24.0087 22.649 22.6493V14.0221H23.8815C24.1252 14.022 24.3634 13.9497 24.566 13.8143C24.7687 13.6789 24.9266 13.4864 25.0199 13.2612C25.1131 13.0361 25.1375 12.7883 25.09 12.5493C25.0425 12.3102 24.9251 12.0907 24.7528 11.9183ZM20.1853 22.6493H5.39465V10.8362L12.7894 3.44147L20.1841 10.8362V16.487L20.1853 22.6493Z" fill="black"/>
</svg>
