<svg width="15" height="13" viewBox="0 0 15 13" fill="none" xmlns="http://www.w3.org/2000/svg">
<path d="M10.92 0.271484C9.70202 0.271484 8.53302 0.801185 7.77002 1.63824C7.00702 0.801185 5.83802 0.271484 4.62002 0.271484C2.46402 0.271484 0.77002 1.85405 0.77002 3.86821C0.77002 6.34015 3.15002 8.35432 6.75502 11.4148L7.77002 12.2715L8.78502 11.4083C12.39 8.35432 14.77 6.34015 14.77 3.86821C14.77 1.85405 13.076 0.271484 10.92 0.271484ZM7.84002 10.4404L7.77002 10.5058L7.70002 10.4404C4.36802 7.62189 2.17002 5.75813 2.17002 3.86821C2.17002 2.56031 3.22002 1.57939 4.62002 1.57939C5.69802 1.57939 6.74802 2.2268 7.11902 3.12271H8.42802C8.79202 2.2268 9.84202 1.57939 10.92 1.57939C12.32 1.57939 13.37 2.56031 13.37 3.86821C13.37 5.75813 11.172 7.62189 7.84002 10.4404Z" fill="url(#paint0_linear)"/>
<defs>
<linearGradient id="paint0_linear" x1="3.39081" y1="-23.6359" x2="18.3919" y2="6.1408" gradientUnits="userSpaceOnUse">
<stop stop-color="#FB09C6"/>
<stop offset="1" stop-color="#35168A"/>
</linearGradient>
</defs>
</svg>
