<svg width="29" height="44" viewBox="0 0 29 44" fill="none" xmlns="http://www.w3.org/2000/svg">
<g filter="url(#filter0_d)">
<path d="M21.6362 36C21.1943 36.0005 20.7567 35.9117 20.3485 35.7389C19.9402 35.5661 19.5695 35.3126 19.2575 34.9929L4.98509 20.409C4.35434 19.7644 4 18.8903 4 17.9789C4 17.0675 4.35434 16.1934 4.98509 15.5488L19.2575 0.964858C19.892 0.338748 20.7419 -0.0077014 21.6241 0.000129934C22.5062 0.00796126 23.3501 0.369446 23.9739 1.00673C24.5977 1.64401 24.9516 2.50609 24.9592 3.40731C24.9669 4.30853 24.6278 5.17676 24.0149 5.82502L12.1213 17.9789L24.0149 30.1327C24.4853 30.6134 24.8056 31.2258 24.9354 31.8925C25.0652 32.5591 24.9985 33.2501 24.7439 33.8781C24.4893 34.506 24.0582 35.0428 23.505 35.4205C22.9519 35.7982 22.3015 35.9999 21.6362 36Z" fill="url(#paint0_linear)"/>
</g>
<defs>
<filter id="filter0_d" x="0" y="0" width="29" height="44" filterUnits="userSpaceOnUse" color-interpolation-filters="sRGB">
<feFlood flood-opacity="0" result="BackgroundImageFix"/>
<feColorMatrix in="SourceAlpha" type="matrix" values="0 0 0 0 0 0 0 0 0 0 0 0 0 0 0 0 0 0 127 0"/>
<feOffset dy="4"/>
<feGaussianBlur stdDeviation="2"/>
<feColorMatrix type="matrix" values="0 0 0 0 0.283333 0 0 0 0 0.278611 0 0 0 0 0.278611 0 0 0 0.25 0"/>
<feBlend mode="normal" in2="BackgroundImageFix" result="effect1_dropShadow"/>
<feBlend mode="normal" in="SourceGraphic" in2="effect1_dropShadow" result="shape"/>
</filter>
<linearGradient id="paint0_linear" x1="7.93118" y1="-71.722" x2="63.9306" y2="-16.1435" gradientUnits="userSpaceOnUse">
<stop stop-color="#FB09C6"/>
<stop offset="1" stop-color="#35168A"/>
</linearGradient>
</defs>
</svg>
