<svg width="25" height="27" viewBox="0 0 25 27" fill="none" xmlns="http://www.w3.org/2000/svg">
<path d="M24.2672 8.29153L24.0465 8.36436C23.1875 6.51701 21.9599 5.04634 20.3638 3.95237C18.7929 2.85904 16.817 2.31237 14.4361 2.31237C13.1105 2.31237 11.8461 2.59194 10.6431 3.15106C9.44004 3.68527 8.38448 4.45079 7.47639 5.44764C6.59219 6.41956 5.8803 7.59852 5.34074 8.98452C4.80054 10.3692 4.53044 11.9003 4.53044 13.5777C4.53044 15.2544 4.80054 16.7855 5.34074 18.1708C5.88095 19.5562 6.59283 20.7473 7.47639 21.7441C8.38448 22.716 9.43972 23.4694 10.6421 24.0043C11.8458 24.5391 13.1105 24.8065 14.4361 24.8065C16.7925 24.8065 18.7071 24.442 20.1799 23.7129C21.6772 22.9589 22.9416 21.8163 23.9729 20.2853L24.1937 20.3581L24.1201 22.6911C23.5554 23.2745 22.9048 23.7972 22.1684 24.2592C21.4326 24.697 20.6349 25.074 19.7752 25.3903C18.9407 25.681 18.0694 25.8996 17.1613 26.0459C16.2526 26.2159 15.3442 26.3009 14.4361 26.3009C12.5457 26.3009 10.7415 25.9973 9.02343 25.3903C7.30471 24.7819 5.79479 23.9311 4.49365 22.8378C3.19251 21.7195 2.16148 20.3827 1.40055 18.8274C0.639615 17.2478 0.259155 15.4979 0.259155 13.5777C0.259155 11.6575 0.639944 9.91938 1.40152 8.36341C2.16181 6.7838 3.19251 5.43517 4.49365 4.31756C5.79479 3.1993 7.30471 2.34848 9.02343 1.76507C10.7415 1.15802 12.5454 0.854492 14.4352 0.854492C15.3439 0.854492 16.2526 0.927024 17.1613 1.07208C18.0694 1.21841 18.9407 1.4494 19.7752 1.76507C20.6343 2.05709 21.432 2.43411 22.1684 2.89611C22.9048 3.33319 23.5554 3.84343 24.1201 4.42684L24.2672 8.29153Z" fill="black"/>
</svg>
