<svg width="15" height="13" viewBox="0 0 15 13" fill="none" xmlns="http://www.w3.org/2000/svg">
<path d="M10.858 0.142578C9.64001 0.142578 8.47101 0.672279 7.70801 1.50934C6.94501 0.672279 5.77601 0.142578 4.55801 0.142578C2.40201 0.142578 0.708008 1.72514 0.708008 3.73931C0.708008 6.21124 3.08801 8.22541 6.69301 11.2859L7.70801 12.1426L8.72301 11.2794C12.328 8.22541 14.708 6.21124 14.708 3.73931C14.708 1.72514 13.014 0.142578 10.858 0.142578ZM7.77801 10.3115L7.70801 10.3769L7.63801 10.3115C4.30601 7.49299 2.10801 5.62923 2.10801 3.73931C2.10801 2.43141 3.15801 1.45048 4.55801 1.45048C5.63601 1.45048 6.68601 2.09789 7.05701 2.9938H8.36601C8.73001 2.09789 9.78001 1.45048 10.858 1.45048C12.258 1.45048 13.308 2.43141 13.308 3.73931C13.308 5.62923 11.11 7.49299 7.77801 10.3115Z" fill="url(#paint0_linear)"/>
<defs>
<linearGradient id="paint0_linear" x1="3.3288" y1="-23.7648" x2="18.3299" y2="6.0119" gradientUnits="userSpaceOnUse">
<stop stop-color="#FB09C6"/>
<stop offset="1" stop-color="#35168A"/>
</linearGradient>
</defs>
</svg>
