<svg width="24" height="24" viewBox="0 0 24 24" fill="none" xmlns="http://www.w3.org/2000/svg">
<path fill-rule="evenodd" clip-rule="evenodd" d="M11.7003 0.0585938C5.27077 0.0585938 0.0583496 5.27102 0.0583496 11.7006C0.0583496 18.1301 5.27077 23.3425 11.7003 23.3425C18.1298 23.3425 23.3423 18.1301 23.3423 11.7006C23.3423 5.27102 18.1298 0.0585938 11.7003 0.0585938ZM2.17507 11.7006C2.17507 13.9125 2.92968 15.9488 4.19442 17.566C5.08263 16.3996 6.22848 15.4543 7.54247 14.804C8.85646 14.1537 10.303 13.816 11.7691 13.8173C13.2162 13.8159 14.6446 14.1449 15.9453 14.7791C17.2461 15.4133 18.3849 16.3361 19.275 17.4771C20.192 16.2744 20.8094 14.8706 21.0762 13.3819C21.343 11.8931 21.2514 10.3623 20.8091 8.91599C20.3668 7.46969 19.5864 6.14951 18.5325 5.06468C17.4787 3.97985 16.1817 3.16156 14.7488 2.67751C13.3159 2.19347 11.7884 2.05759 10.2925 2.28112C8.79672 2.50465 7.37563 3.08116 6.14685 3.96294C4.91807 4.84473 3.91693 6.00644 3.22626 7.35196C2.5356 8.69748 2.17526 10.1881 2.17507 11.7006ZM11.7003 21.2258C9.51369 21.2291 7.39307 20.4768 5.69729 19.0964C6.37986 18.1192 7.28836 17.3214 8.34551 16.7708C9.40266 16.2202 10.5772 15.9331 11.7691 15.934C12.9462 15.9331 14.1065 16.2129 15.1537 16.7504C16.2008 17.2879 17.1047 18.0675 17.7901 19.0244C16.0812 20.4497 13.9256 21.2289 11.7003 21.2258Z" fill="black"/>
</svg>
