<svg width="15" height="13" viewBox="0 0 15 13" fill="none" xmlns="http://www.w3.org/2000/svg">
<path d="M10.7726 0.532227C9.55456 0.532227 8.38556 1.06193 7.62256 1.89898C6.85956 1.06193 5.69056 0.532227 4.47256 0.532227C2.31656 0.532227 0.622559 2.11479 0.622559 4.12896C0.622559 6.60089 3.00256 8.61506 6.60756 11.6756L7.62256 12.5322L8.63756 11.669C12.2426 8.61506 14.6226 6.60089 14.6226 4.12896C14.6226 2.11479 12.9286 0.532227 10.7726 0.532227ZM7.69256 10.7012L7.62256 10.7666L7.55256 10.7012C4.22056 7.88263 2.02256 6.01888 2.02256 4.12896C2.02256 2.82105 3.07256 1.84013 4.47256 1.84013C5.55056 1.84013 6.60056 2.48754 6.97156 3.38345H8.28056C8.64456 2.48754 9.69456 1.84013 10.7726 1.84013C12.1726 1.84013 13.2226 2.82105 13.2226 4.12896C13.2226 6.01888 11.0246 7.88263 7.69256 10.7012Z" fill="url(#paint0_linear)"/>
<defs>
<linearGradient id="paint0_linear" x1="3.24335" y1="-23.3751" x2="18.2444" y2="6.40155" gradientUnits="userSpaceOnUse">
<stop stop-color="#FB09C6"/>
<stop offset="1" stop-color="#35168A"/>
</linearGradient>
</defs>
</svg>
