<svg width="25" height="27" viewBox="0 0 25 27" fill="none" xmlns="http://www.w3.org/2000/svg">
<path d="M24.5153 8.29153L24.2946 8.36436C23.4349 6.51701 22.2074 5.04634 20.6119 3.95237C19.041 2.85904 17.0648 2.31237 14.6832 2.31237C13.3582 2.31237 12.0942 2.59194 10.8911 3.15106C9.68809 3.68527 8.63253 4.45079 7.72444 5.44764C6.84024 6.41956 6.12836 7.59852 5.5888 8.98452C5.04859 10.3692 4.77849 11.9003 4.77849 13.5777C4.77849 15.2544 5.04859 16.7855 5.5888 18.1708C6.12836 19.5562 6.84024 20.7473 7.72444 21.7441C8.63253 22.716 9.68777 23.4694 10.8902 24.0043C12.0938 24.5391 13.3582 24.8065 14.6832 24.8065C17.0402 24.8065 18.9552 24.442 20.428 23.7129C21.9253 22.9589 23.1897 21.8163 24.221 20.2853L24.4418 20.3581L24.3682 22.6911C23.8034 23.2745 23.1529 23.7972 22.4165 24.2592C21.6807 24.697 20.883 25.074 20.0233 25.3903C19.1888 25.681 18.3175 25.8996 17.4094 26.0459C16.5007 26.2159 15.5923 26.3009 14.6842 26.3009C12.7931 26.3009 10.9886 25.9973 9.27051 25.3903C7.55244 24.7819 6.04284 23.9311 4.7417 22.8378C3.44056 21.7195 2.40953 20.3827 1.64859 18.8274C0.887015 17.2478 0.506226 15.4979 0.506226 13.5777C0.506226 11.6575 0.887015 9.91938 1.64859 8.36341C2.41017 6.7838 3.44121 5.43517 4.7417 4.31756C6.04284 3.1993 7.55244 2.34848 9.27051 1.76507C10.9892 1.15802 12.7938 0.854492 14.6842 0.854492C15.5923 0.854492 16.5004 0.927024 17.4084 1.07208C18.3172 1.21841 19.1885 1.4494 20.0223 1.76507C20.882 2.05709 21.6801 2.43411 22.4165 2.89611C23.1529 3.33319 23.8034 3.84343 24.3682 4.42684L24.5153 8.29153Z" fill="black"/>
</svg>
