<svg width="15" height="13" viewBox="0 0 15 13" fill="none" xmlns="http://www.w3.org/2000/svg">
<path d="M10.4856 0.0136719C9.26757 0.0136719 8.09857 0.543372 7.33557 1.38043C6.57257 0.543372 5.40357 0.0136719 4.18557 0.0136719C2.02957 0.0136719 0.335571 1.59623 0.335571 3.6104C0.335571 6.08234 2.71557 8.09651 6.32057 11.157L7.33557 12.0137L8.35057 11.1505C11.9556 8.09651 14.3356 6.08234 14.3356 3.6104C14.3356 1.59623 12.6416 0.0136719 10.4856 0.0136719ZM7.40557 10.1826L7.33557 10.248L7.26557 10.1826C3.93357 7.36408 1.73557 5.50032 1.73557 3.6104C1.73557 2.3025 2.78557 1.32157 4.18557 1.32157C5.26357 1.32157 6.31357 1.96899 6.68457 2.8649H7.99357C8.35757 1.96899 9.40757 1.32157 10.4856 1.32157C11.8856 1.32157 12.9356 2.3025 12.9356 3.6104C12.9356 5.50032 10.7376 7.36408 7.40557 10.1826Z" fill="url(#paint0_linear)"/>
<defs>
<linearGradient id="paint0_linear" x1="2.95636" y1="-23.8937" x2="17.9575" y2="5.88299" gradientUnits="userSpaceOnUse">
<stop stop-color="#FB09C6"/>
<stop offset="1" stop-color="#35168A"/>
</linearGradient>
</defs>
</svg>
