<svg width="9" height="9" viewBox="0 0 9 9" fill="none" xmlns="http://www.w3.org/2000/svg">
<path fill-rule="evenodd" clip-rule="evenodd" d="M8.9338 4.52543C8.9338 5.64821 8.48777 6.725 7.69385 7.51893C6.89993 8.31285 5.82314 8.75887 4.70036 8.75887C3.57758 8.75887 2.50079 8.31285 1.70686 7.51893C0.912941 6.725 0.466919 5.64821 0.466919 4.52543C0.466919 3.40265 0.912941 2.32586 1.70686 1.53194C2.50079 0.738014 3.57758 0.291992 4.70036 0.291992C5.82314 0.291992 6.89993 0.738014 7.69385 1.53194C8.48777 2.32586 8.9338 3.40265 8.9338 4.52543ZM6.81708 4.52543C6.81708 5.08682 6.59407 5.62522 6.1971 6.02218C5.80014 6.41914 5.26175 6.64215 4.70036 6.64215C4.13897 6.64215 3.60057 6.41914 3.20361 6.02218C2.80665 5.62522 2.58364 5.08682 2.58364 4.52543C2.58364 3.96404 2.80665 3.42565 3.20361 3.02868C3.60057 2.63172 4.13897 2.40871 4.70036 2.40871C5.26175 2.40871 5.80014 2.63172 6.1971 3.02868C6.59407 3.42565 6.81708 3.96404 6.81708 4.52543Z" fill="black"/>
</svg>
