<svg width="19" height="23" viewBox="0 0 19 23" fill="none" xmlns="http://www.w3.org/2000/svg">
<path d="M16.0504 8.55135C16.0504 6.86719 15.3814 5.252 14.1905 4.06111C12.9996 2.87023 11.3845 2.20119 9.70028 2.20119C8.01612 2.20119 6.40093 2.87023 5.21004 4.06111C4.01916 5.252 3.35012 6.86719 3.35012 8.55135V17.0182H16.0504V8.55135ZM18.1672 17.7242L18.5905 18.2883C18.6495 18.3669 18.6854 18.4604 18.6942 18.5583C18.703 18.6561 18.6844 18.7545 18.6405 18.8424C18.5965 18.9303 18.529 19.0043 18.4454 19.0559C18.3618 19.1076 18.2654 19.135 18.1672 19.135H1.2334C1.13513 19.135 1.0388 19.1076 0.955198 19.0559C0.8716 19.0043 0.804041 18.9303 0.760091 18.8424C0.716141 18.7545 0.697536 18.6561 0.706362 18.5583C0.715188 18.4604 0.751095 18.3669 0.81006 18.2883L1.2334 17.7242V8.55135C1.2334 6.3058 2.12545 4.15221 3.7133 2.56436C5.30114 0.976517 7.45473 0.0844727 9.70028 0.0844727C11.9458 0.0844727 14.0994 0.976517 15.6873 2.56436C17.2751 4.15221 18.1672 6.3058 18.1672 8.55135V17.7242ZM7.05438 20.1933H12.3462C12.3462 20.8951 12.0674 21.568 11.5712 22.0642C11.075 22.5605 10.402 22.8392 9.70028 22.8392C8.99855 22.8392 8.32555 22.5605 7.82935 22.0642C7.33315 21.568 7.05438 20.8951 7.05438 20.1933Z" fill="#696767"/>
</svg>
