<svg width="15" height="13" viewBox="0 0 15 13" fill="none" xmlns="http://www.w3.org/2000/svg">
<path d="M10.4856 0.776367C9.26757 0.776367 8.09857 1.30607 7.33557 2.14312C6.57257 1.30607 5.40357 0.776367 4.18557 0.776367C2.02957 0.776367 0.335571 2.35893 0.335571 4.3731C0.335571 6.84503 2.71557 8.8592 6.32057 11.9197L7.33557 12.7764L8.35057 11.9132C11.9556 8.8592 14.3356 6.84503 14.3356 4.3731C14.3356 2.35893 12.6416 0.776367 10.4856 0.776367ZM7.40557 10.9453L7.33557 11.0107L7.26557 10.9453C3.93357 8.12678 1.73557 6.26302 1.73557 4.3731C1.73557 3.0652 2.78557 2.08427 4.18557 2.08427C5.26357 2.08427 6.31357 2.73168 6.68457 3.62759H7.99357C8.35757 2.73168 9.40757 2.08427 10.4856 2.08427C11.8856 2.08427 12.9356 3.0652 12.9356 4.3731C12.9356 6.26302 10.7376 8.12678 7.40557 10.9453Z" fill="url(#paint0_linear)"/>
<defs>
<linearGradient id="paint0_linear" x1="2.95636" y1="-23.131" x2="17.9575" y2="6.64569" gradientUnits="userSpaceOnUse">
<stop stop-color="#FB09C6"/>
<stop offset="1" stop-color="#35168A"/>
</linearGradient>
</defs>
</svg>
