<svg width="12" height="13" viewBox="0 0 12 13" fill="none" xmlns="http://www.w3.org/2000/svg">
<path d="M11.0438 0.273192C10.9271 0.330971 10.8104 0.406233 10.6937 0.498983C10.5766 0.591429 10.5123 0.764913 10.5006 1.01944C10.4899 1.29708 10.4782 1.64984 10.4656 2.07771C10.4656 2.49432 10.4604 2.96871 10.4499 3.50088C10.4499 4.03275 10.4446 4.611 10.4338 5.23561V7.1788C10.4231 7.93053 10.3295 8.57248 10.1532 9.10465C9.97817 9.63682 9.74459 10.082 9.45249 10.4402C9.17207 10.7991 8.85663 11.0825 8.50618 11.2905C8.1674 11.4988 7.82862 11.655 7.48984 11.759C7.16273 11.8745 6.85312 11.944 6.56103 11.9674C6.26893 12.0021 6.04103 12.0194 5.87732 12.0194C5.21143 12.0194 4.56889 11.9328 3.94968 11.7594C3.33048 11.5973 2.78729 11.3313 2.32012 10.9612C1.85295 10.5908 1.47916 10.1108 1.19874 9.52111C0.918313 8.93116 0.7781 8.21395 0.7781 7.36947V5.40895V3.60443C0.7781 3.04945 0.772725 2.55225 0.761975 2.11283C0.761975 1.66155 0.7566 1.29708 0.74585 1.01944C0.735407 0.764913 0.671214 0.591577 0.553271 0.499435C0.436555 0.406686 0.31984 0.331275 0.203125 0.273192L0.21879 0.186523C0.277147 0.197167 0.370827 0.208717 0.499828 0.221185C0.639886 0.231829 0.779944 0.243386 0.920002 0.255854C1.07204 0.255854 1.21793 0.261178 1.35768 0.271821H1.98887C2.12923 0.261178 2.27528 0.255854 2.42701 0.255854C2.57905 0.245211 2.71926 0.233654 2.84764 0.221185C2.9877 0.210542 3.08691 0.198991 3.14527 0.186523L3.16139 0.273192C3.03301 0.330971 2.9103 0.406233 2.79328 0.498983C2.68824 0.591429 2.62988 0.764913 2.61821 1.01944C2.60746 1.29708 2.59578 1.6614 2.58319 2.11238V7.36947C2.58319 8.63026 2.88112 9.56141 3.47698 10.1629C4.07285 10.7644 4.95481 11.0652 6.12289 11.0652C6.46167 11.0652 6.84713 11.0246 7.27929 10.9434C7.71175 10.8509 8.11488 10.6659 8.48867 10.3882C8.87414 10.1106 9.19541 9.71741 9.45249 9.20865C9.72124 8.69959 9.85562 8.02297 9.85562 7.1788C9.85562 6.26498 9.85024 5.48421 9.83949 4.83649C9.83949 4.1772 9.83412 3.61614 9.82337 3.1533C9.82337 2.67891 9.818 2.27415 9.80724 1.93904C9.7968 1.60362 9.78513 1.29708 9.77223 1.01944C9.76179 0.764913 9.69759 0.591429 9.57965 0.498983C9.46294 0.406537 9.34622 0.331275 9.22951 0.273192L9.24517 0.186523C9.37386 0.209635 9.51991 0.232898 9.68331 0.256314C9.84702 0.266653 9.99906 0.271821 10.1394 0.271821C10.2675 0.271821 10.4134 0.266653 10.5771 0.256314C10.7522 0.233202 10.9041 0.209939 11.0328 0.186523L11.0438 0.273192Z" fill="black"/>
</svg>
