<svg width="11" height="10" viewBox="0 0 11 10" fill="none" xmlns="http://www.w3.org/2000/svg">
<path d="M6.06429 1.31496L5.78945 1.5861L5.51338 1.31496C5.0004 0.808505 4.30854 0.524522 3.58767 0.524522C2.8668 0.524522 2.17495 0.808505 1.66196 1.31496C1.40736 1.55989 1.20482 1.8537 1.06647 2.17877C0.928123 2.50384 0.856812 2.85349 0.856812 3.20678C0.856812 3.56007 0.928123 3.90972 1.06647 4.2348C1.20482 4.55987 1.40736 4.85367 1.66196 5.0986L5.78945 9.15215L9.91694 5.0986C10.1715 4.85367 10.3741 4.55987 10.5124 4.2348C10.6508 3.90972 10.7221 3.56007 10.7221 3.20678C10.7221 2.85349 10.6508 2.50384 10.5124 2.17877C10.3741 1.8537 10.1715 1.55989 9.91694 1.31496C9.40375 0.808428 8.71169 0.524414 7.99062 0.524414C7.26954 0.524414 6.57749 0.808428 6.06429 1.31496Z" fill="#696767"/>
</svg>
