<svg width="83" height="83" viewBox="0 0 83 83" fill="none" xmlns="http://www.w3.org/2000/svg">
<path fill-rule="evenodd" clip-rule="evenodd" d="M41.6833 0.630859C19.019 0.630859 0.64502 18.9851 0.64502 41.6252C0.64502 64.2652 19.019 82.6195 41.6833 82.6195C64.3476 82.6195 82.7215 64.2652 82.7215 41.6252C82.7215 18.9851 64.3476 0.630859 41.6833 0.630859ZM8.10652 41.6252C8.10652 49.4141 10.7665 56.5844 15.2248 62.2788C18.3558 58.1716 22.3949 54.843 27.0268 52.5532C31.6586 50.2633 36.7577 49.0742 41.9258 49.0787C47.0269 49.0738 52.0619 50.2322 56.6471 52.4655C61.2322 54.6988 65.2466 57.9481 68.3843 61.9658C71.6168 57.7307 73.7933 52.7876 74.7336 47.5454C75.674 42.3033 75.3512 36.9128 73.792 31.82C72.2328 26.7272 69.4819 22.0785 65.7671 18.2585C62.0523 14.4386 57.4802 11.5572 52.4293 9.85275C47.3783 8.14831 41.9937 7.66985 36.7209 8.45694C31.448 9.24404 26.4387 11.2741 22.1072 14.3791C17.7757 17.484 14.2466 21.5747 11.812 26.3127C9.37739 31.0506 8.1072 36.2995 8.10652 41.6252ZM41.6833 75.166C33.9754 75.1775 26.5001 72.5287 20.5225 67.6677C22.9285 64.2269 26.131 61.4177 29.8575 59.4789C33.584 57.5401 37.7242 56.5292 41.9258 56.5322C46.075 56.5289 50.1651 57.5145 53.8565 59.4071C57.5478 61.2997 60.7339 64.0448 63.15 67.4143C57.126 72.4331 49.5275 75.1769 41.6833 75.166Z" fill="url(#paint0_linear)"/>
<defs>
<linearGradient id="paint0_linear" x1="16.0097" y1="-162.713" x2="127.382" y2="26.9781" gradientUnits="userSpaceOnUse">
<stop offset="0.410665" stop-color="#FB09C6"/>
<stop offset="1" stop-color="#35168A"/>
</linearGradient>
</defs>
</svg>
