<svg width="30" height="26" viewBox="0 0 30 26" fill="none" xmlns="http://www.w3.org/2000/svg">
<path d="M25.6667 9.00011C24.639 9.00257 23.6247 8.76675 22.7034 8.31116C21.7822 7.85557 20.9791 7.19262 20.3572 6.37437C19.7353 5.55612 19.3116 4.60484 19.1193 3.59525C18.927 2.58565 18.9714 1.54522 19.2489 0.555664H2.55561C2.08411 0.555664 1.63193 0.742965 1.29853 1.07636C0.965133 1.40976 0.777832 1.86195 0.777832 2.33344V23.6668C0.777832 24.1383 0.965133 24.5905 1.29853 24.9239C1.63193 25.2573 2.08411 25.4446 2.55561 25.4446H27.4445C27.916 25.4446 28.3682 25.2573 28.7016 24.9239C29.035 24.5905 29.2223 24.1383 29.2223 23.6668V7.969C28.159 8.64328 26.9258 9.00092 25.6667 9.00011ZM6.92894 4.11122C7.45636 4.11122 7.97193 4.26762 8.41046 4.56063C8.84899 4.85365 9.19079 5.27013 9.39262 5.7574C9.59446 6.24467 9.64726 6.78084 9.54437 7.29813C9.44148 7.81541 9.1875 8.29056 8.81456 8.6635C8.44162 9.03644 7.96647 9.29042 7.44918 9.39331C6.9319 9.49621 6.39572 9.4434 5.90845 9.24157C5.42118 9.03973 5.00471 8.69794 4.71169 8.25941C4.41867 7.82088 4.26228 7.3053 4.26228 6.77789C4.26228 6.07064 4.54323 5.39236 5.04332 4.89227C5.54342 4.39217 6.2217 4.11122 6.92894 4.11122ZM4.33339 21.0001V17.3557L9.66672 11.9512C9.83326 11.7857 10.0586 11.6927 10.2934 11.6927C10.5282 11.6927 10.7535 11.7857 10.9201 11.9512L13.2223 14.2001L6.39561 21.0001H4.33339ZM25.6667 21.0001H8.91116L14.4489 15.4623L19.2489 10.6623C19.4155 10.4968 19.6408 10.4038 19.8756 10.4038C20.1104 10.4038 20.3357 10.4968 20.5023 10.6623L25.6667 15.8268V21.0001Z" fill="white"/>
</svg>
