<svg width="15" height="13" viewBox="0 0 15 13" fill="none" xmlns="http://www.w3.org/2000/svg">
<path d="M10.92 0.720703C9.70202 0.720703 8.53302 1.2504 7.77002 2.08746C7.00702 1.2504 5.83802 0.720703 4.62002 0.720703C2.46402 0.720703 0.77002 2.30326 0.77002 4.31743C0.77002 6.78937 3.15002 8.80354 6.75502 11.864L7.77002 12.7207L8.78502 11.8575C12.39 8.80354 14.77 6.78937 14.77 4.31743C14.77 2.30326 13.076 0.720703 10.92 0.720703ZM7.84002 10.8896L7.77002 10.955L7.70002 10.8896C4.36802 8.07111 2.17002 6.20735 2.17002 4.31743C2.17002 3.00953 3.22002 2.0286 4.62002 2.0286C5.69802 2.0286 6.74802 2.67602 7.11902 3.57193H8.42802C8.79202 2.67602 9.84202 2.0286 10.92 2.0286C12.32 2.0286 13.37 3.00953 13.37 4.31743C13.37 6.20735 11.172 8.07111 7.84002 10.8896Z" fill="url(#paint0_linear)"/>
<defs>
<linearGradient id="paint0_linear" x1="3.39081" y1="-23.1866" x2="18.3919" y2="6.59002" gradientUnits="userSpaceOnUse">
<stop stop-color="#FB09C6"/>
<stop offset="1" stop-color="#35168A"/>
</linearGradient>
</defs>
</svg>
