<svg width="19" height="23" viewBox="0 0 19 23" fill="none" xmlns="http://www.w3.org/2000/svg">
<path d="M16.0506 8.55135C16.0506 6.86719 15.3815 5.252 14.1906 4.06111C12.9998 2.87023 11.3846 2.20119 9.70041 2.20119C8.01624 2.20119 6.40105 2.87023 5.21017 4.06111C4.01928 5.252 3.35025 6.86719 3.35025 8.55135V17.0182H16.0506V8.55135ZM18.1673 17.7242L18.5906 18.2883C18.6496 18.3669 18.6855 18.4604 18.6943 18.5583C18.7032 18.6561 18.6846 18.7545 18.6406 18.8424C18.5967 18.9303 18.5291 19.0043 18.4455 19.0559C18.3619 19.1076 18.2656 19.135 18.1673 19.135H1.23353C1.13525 19.135 1.03892 19.1076 0.95532 19.0559C0.871722 19.0043 0.804163 18.9303 0.760213 18.8424C0.716263 18.7545 0.697659 18.6561 0.706484 18.5583C0.71531 18.4604 0.751217 18.3669 0.810182 18.2883L1.23353 17.7242V8.55135C1.23353 6.3058 2.12557 4.15221 3.71342 2.56436C5.30127 0.976517 7.45485 0.0844727 9.70041 0.0844727C11.946 0.0844727 14.0995 0.976517 15.6874 2.56436C17.2752 4.15221 18.1673 6.3058 18.1673 8.55135V17.7242ZM7.05451 20.1933H12.3463C12.3463 20.8951 12.0675 21.568 11.5713 22.0642C11.0751 22.5605 10.4021 22.8392 9.70041 22.8392C8.99867 22.8392 8.32568 22.5605 7.82947 22.0642C7.33327 21.568 7.05451 20.8951 7.05451 20.1933Z" fill="#696767"/>
</svg>
