<svg width="15" height="13" viewBox="0 0 15 13" fill="none" xmlns="http://www.w3.org/2000/svg">
<path d="M10.7726 0.237305C9.55456 0.237305 8.38556 0.767005 7.62256 1.60406C6.85956 0.767005 5.69056 0.237305 4.47256 0.237305C2.31656 0.237305 0.622559 1.81987 0.622559 3.83403C0.622559 6.30597 3.00256 8.32014 6.60756 11.3806L7.62256 12.2373L8.63756 11.3741C12.2426 8.32014 14.6226 6.30597 14.6226 3.83403C14.6226 1.81987 12.9286 0.237305 10.7726 0.237305ZM7.69256 10.4062L7.62256 10.4716L7.55256 10.4062C4.22056 7.58771 2.02256 5.72395 2.02256 3.83403C2.02256 2.52613 3.07256 1.54521 4.47256 1.54521C5.55056 1.54521 6.60056 2.19262 6.97156 3.08853H8.28056C8.64456 2.19262 9.69456 1.54521 10.7726 1.54521C12.1726 1.54521 13.2226 2.52613 13.2226 3.83403C13.2226 5.72395 11.0246 7.58771 7.69256 10.4062Z" fill="url(#paint0_linear)"/>
<defs>
<linearGradient id="paint0_linear" x1="3.24335" y1="-23.67" x2="18.2444" y2="6.10662" gradientUnits="userSpaceOnUse">
<stop stop-color="#FB09C6"/>
<stop offset="1" stop-color="#35168A"/>
</linearGradient>
</defs>
</svg>
