<svg width="19" height="23" viewBox="0 0 19 23" fill="none" xmlns="http://www.w3.org/2000/svg">
<path d="M16.0504 8.58358C16.0504 6.89941 15.3814 5.28422 14.1905 4.09334C12.9996 2.90245 11.3845 2.23342 9.70028 2.23342C8.01612 2.23342 6.40093 2.90245 5.21004 4.09334C4.01916 5.28422 3.35012 6.89941 3.35012 8.58358V17.0505H16.0504V8.58358ZM18.1672 17.7564L18.5905 18.3205C18.6495 18.3991 18.6854 18.4926 18.6942 18.5905C18.703 18.6884 18.6844 18.7868 18.6405 18.8747C18.5965 18.9626 18.529 19.0365 18.4454 19.0881C18.3618 19.1398 18.2654 19.1672 18.1672 19.1672H1.2334C1.13513 19.1672 1.0388 19.1398 0.955198 19.0881C0.8716 19.0365 0.804041 18.9626 0.760091 18.8747C0.716141 18.7868 0.697536 18.6884 0.706362 18.5905C0.715188 18.4926 0.751095 18.3991 0.81006 18.3205L1.2334 17.7564V8.58358C1.2334 6.33802 2.12545 4.18444 3.7133 2.59659C5.30114 1.00874 7.45473 0.116699 9.70028 0.116699C11.9458 0.116699 14.0994 1.00874 15.6873 2.59659C17.2751 4.18444 18.1672 6.33802 18.1672 8.58358V17.7564ZM7.05438 20.2255H12.3462C12.3462 20.9273 12.0674 21.6003 11.5712 22.0965C11.075 22.5927 10.402 22.8714 9.70028 22.8714C8.99855 22.8714 8.32555 22.5927 7.82935 22.0965C7.33315 21.6003 7.05438 20.9273 7.05438 20.2255Z" fill="black"/>
</svg>
