<svg width="9" height="9" viewBox="0 0 9 9" fill="none" xmlns="http://www.w3.org/2000/svg">
<path fill-rule="evenodd" clip-rule="evenodd" d="M8.93367 4.52543C8.93367 5.64821 8.48765 6.725 7.69373 7.51893C6.89981 8.31285 5.82301 8.75887 4.70024 8.75887C3.57746 8.75887 2.50067 8.31285 1.70674 7.51893C0.912818 6.725 0.466797 5.64821 0.466797 4.52543C0.466797 3.40265 0.912818 2.32586 1.70674 1.53194C2.50067 0.738014 3.57746 0.291992 4.70024 0.291992C5.82301 0.291992 6.89981 0.738014 7.69373 1.53194C8.48765 2.32586 8.93367 3.40265 8.93367 4.52543ZM6.81696 4.52543C6.81696 5.08682 6.59394 5.62522 6.19698 6.02218C5.80002 6.41914 5.26162 6.64215 4.70024 6.64215C4.13885 6.64215 3.60045 6.41914 3.20349 6.02218C2.80653 5.62522 2.58352 5.08682 2.58352 4.52543C2.58352 3.96404 2.80653 3.42565 3.20349 3.02868C3.60045 2.63172 4.13885 2.40871 4.70024 2.40871C5.26162 2.40871 5.80002 2.63172 6.19698 3.02868C6.59394 3.42565 6.81696 3.96404 6.81696 4.52543Z" fill="black"/>
</svg>
