<svg width="142" height="29" viewBox="0 0 142 29" fill="none" xmlns="http://www.w3.org/2000/svg">
<path fill-rule="evenodd" clip-rule="evenodd" d="M28.2416 13.271C28.0497 13.271 27.3785 13.271 27.3785 13.271C25.8426 13.271 24.5956 14.4922 24.5956 16.1213C24.5956 17.4447 24.9794 18.9708 26.6109 18.9708C28.0505 18.9708 28.3387 17.7504 28.3387 16.5276V13.4737C28.338 13.4745 28.4335 13.271 28.2416 13.271ZM71.9741 28.133H68.9512C66.7816 27.8584 64.9026 26.9796 64.9026 24.8748C64.9026 23.3487 66.534 22.2281 67.8773 22.0254C67.8773 22.0254 68.2611 21.924 67.8773 21.924C67.3972 21.821 64.8062 21.6183 63.9423 21.821C63.9423 21.821 63.7504 21.821 63.6541 21.6183C63.5585 21.414 63.0784 19.9892 62.9821 19.8879C62.8865 19.6835 63.0777 19.5822 63.0777 19.5822C64.9974 19.2765 66.7244 18.2588 67.4928 17.9531C67.9729 17.8517 67.4928 17.7504 67.4928 17.7504C64.8055 17.2403 62.1182 15.3055 62.1182 11.9476C62.1182 7.16338 65.8613 5.02587 69.4117 5.02587C71.0432 5.02587 72.0027 5.33077 72.8666 5.43294C72.8666 5.43294 72.9621 5.53431 73.0585 5.33157C73.0585 5.02667 73.3467 4.21173 73.3467 4.21173C73.7305 2.99053 74.3061 2.48129 76.0332 2.48129C76.4177 2.48129 76.8015 2.48129 77.089 2.58266C77.089 2.58266 77.2809 2.48129 77.2809 2.7862C77.1853 2.88756 76.6089 5.33077 76.6089 5.43214C76.5126 5.73784 76.417 5.53351 76.417 5.53351C76.1288 5.32998 76.0324 5.22861 75.3612 5.32998C74.9774 5.32998 74.7855 5.63568 74.7855 6.04274C74.7855 6.75551 77.8566 7.77318 77.8566 11.6411C77.8566 16.8325 73.3459 17.9523 69.4109 18.97C69.4109 18.97 69.0272 19.0713 69.4109 19.0713C72.0019 19.377 77.3765 20.089 77.3765 23.6528C77.3787 26.6548 74.2226 27.8121 71.9741 28.133ZM34.3838 19.8879C34.5757 19.8879 34.9595 19.8879 35.1514 19.8879C35.3433 19.8879 35.3433 20.0906 35.3433 20.0906C35.3433 20.0906 35.3433 21.5153 35.3433 21.7197C35.3433 22.0254 35.055 21.924 35.055 21.924C33.9992 21.924 28.9129 21.924 28.9129 21.924C28.9129 21.924 28.8173 21.924 28.8173 21.7197C28.7218 21.3126 28.5299 20.9055 28.5299 20.6006C28.4343 20.1936 28.2416 20.6006 28.2416 20.6006C26.994 21.6183 25.5544 22.4324 23.8273 22.4324C20.9481 22.4324 18.741 20.4993 18.741 17.3425C18.741 13.4745 21.0445 11.3378 23.9236 11.3378L28.3387 11.1343C28.3387 11.1343 28.3387 11.1343 28.3387 10.9308C28.3387 10.8294 28.3387 10.4215 28.3387 10.4215C28.3387 9.09815 27.6667 8.48755 26.2271 8.48755C24.4037 8.48755 23.5398 9.20032 22.6767 10.3194C22.6767 10.3194 22.6767 10.4207 22.4848 10.4207C22.2929 10.3194 20.7578 9.70796 20.7578 9.70796C20.7578 9.70796 20.5659 9.70796 20.6622 9.50442C20.7578 9.30089 22.6775 4.41527 22.6775 4.41527C22.6775 4.41527 22.6775 4.21173 22.773 4.3139C23.0605 4.41527 24.2126 4.82314 24.5001 4.82314C24.6905 4.92371 24.5949 5.12724 24.5949 5.12724C24.5949 5.12724 24.4986 5.33077 24.403 5.53431C24.3067 5.94217 24.4986 5.73864 24.4986 5.73864C25.7463 5.22941 26.994 5.02587 28.2416 5.02587C31.8884 5.02587 34.2875 6.65415 34.2875 10.6243V19.5822C34.2875 19.5822 34.2875 19.8879 34.3838 19.8879ZM34.7676 6.24708C37.2622 5.53431 39.3738 3.80387 40.4296 1.36146C40.4296 1.36146 40.4296 1.26009 40.6215 1.26009C40.8134 1.26009 42.0611 1.56499 42.253 1.56499C42.4449 1.66636 42.3485 1.76853 42.3485 1.76853C42.253 2.58266 42.1566 3.49897 42.1566 4.21173C42.1566 4.21173 42.1566 5.22941 42.1566 5.43294C42.1566 5.63647 42.3485 5.53431 42.3485 5.53431C42.3485 5.53431 44.8439 5.53431 44.9395 5.53431C45.1314 5.53431 45.0351 5.73784 45.0351 5.73784C45.0351 5.73784 44.6513 7.77398 44.6513 7.97752C44.5557 8.18105 44.4594 8.18105 44.4594 8.18105C44.4594 8.18105 42.5397 8.18105 42.3478 8.18105C42.1559 8.18105 42.1559 8.28242 42.1559 8.28242V17.7496C42.1559 18.8686 43.019 19.0713 43.4991 19.0713C43.9793 19.0713 44.0748 19.0713 44.4586 18.8686C44.4586 18.8686 44.6505 18.6643 44.6505 18.8686C44.7461 19.0713 45.227 20.3947 45.3225 20.599C45.4181 20.7004 45.227 20.8018 45.227 20.8018C43.2117 22.3295 43.019 22.4308 40.3325 22.4308C37.357 22.4308 36.302 20.9047 36.302 18.0537V8.28322C36.302 8.28322 36.302 8.18185 36.1101 8.18185C35.8226 8.18185 34.7668 8.18185 34.7668 8.18185C34.7668 8.18185 34.6705 8.18185 34.6705 7.97832C34.6705 7.57125 34.6705 6.65494 34.6705 6.45141C34.6712 6.34924 34.7676 6.24708 34.7676 6.24708ZM78.5301 13.6789C78.5301 8.38538 82.4651 5.02667 87.647 5.02667C92.8289 5.02667 96.8602 8.38538 96.8602 13.6789C96.8602 19.1759 92.8296 22.4324 87.647 22.4324C82.4643 22.4324 78.5301 19.1751 78.5301 13.6789ZM84.4796 11.337C84.4796 13.7802 85.439 19.8879 88.702 19.8879C90.4298 19.8879 90.9099 17.9531 90.9099 16.1213C90.9099 13.6781 89.9505 7.57045 86.5912 7.57045C84.4796 7.57045 84.4796 10.115 84.4796 11.337ZM115.095 21.924H107.033C107.033 21.924 106.937 21.924 106.937 21.821C106.937 21.6183 106.937 20.1936 106.937 20.0906C106.937 19.8879 107.129 19.8879 107.129 19.8879C107.129 19.8879 107.897 19.8879 108.089 19.8879C108.184 19.8879 108.184 19.7849 108.184 19.7849V10.5221C108.184 9.50442 107.321 9.09656 106.457 9.09656C105.401 9.09656 104.633 9.60579 103.866 10.3186C103.866 10.3186 103.77 10.4199 103.77 10.5221C103.77 10.7256 103.77 19.7841 103.77 19.7841C103.77 19.7841 103.77 19.8871 103.866 19.8871C104.058 19.8871 104.921 19.8871 104.921 19.8871C104.921 19.8871 105.018 19.8871 105.018 20.0898C105.018 20.2941 105.018 21.7189 105.018 21.8202C105.018 21.9232 104.921 21.9232 104.921 21.9232H96.8602C96.8602 21.9232 96.7638 22.0246 96.7638 21.7189C96.7638 21.6175 96.7638 20.1928 96.7638 20.0898C96.7638 19.8871 96.8602 19.8871 96.8602 19.8871C96.8602 19.8871 97.6277 19.8871 97.7233 19.8871C97.9152 19.8871 97.8196 19.7841 97.8196 19.7841V8.89382C97.8196 8.89382 97.9152 8.69029 97.7233 8.69029C97.4351 8.79165 96.8602 8.99599 96.8602 8.99599C96.8602 8.99599 96.7638 9.09735 96.7638 8.89382C96.7638 8.69029 96.7638 7.36691 96.7638 7.16338C96.7638 6.95985 96.8602 7.06201 96.8602 7.06201L103.674 5.12804C103.674 5.12804 103.866 5.02667 103.866 5.2302C103.866 5.33157 103.866 7.36771 103.866 7.57125C103.866 7.87695 103.962 7.67261 103.962 7.67261C105.593 6.34924 107.225 5.02667 109.433 5.02667C113.559 5.02667 114.135 7.97832 114.135 9.81092V19.7857C114.135 19.7857 114.039 19.8887 114.231 19.8887C114.327 19.8887 115.095 19.8887 115.095 19.8887C115.095 19.8887 115.19 19.8887 115.19 20.0914C115.19 20.2957 115.19 21.6191 115.19 21.7205C115.19 22.0254 115.095 21.924 115.095 21.924ZM123.252 5.12724L116.438 7.06121C116.438 7.06121 116.342 7.06121 116.342 7.26475C116.342 7.36612 116.342 8.69029 116.342 8.89382C116.342 9.09735 116.534 8.99599 116.534 8.99599C116.534 8.99599 117.014 8.89382 117.397 8.79245C117.589 8.79245 117.494 8.99599 117.494 9.09735C117.494 9.30089 117.494 19.7849 117.494 19.7849C117.494 19.7849 117.589 19.8879 117.397 19.8879C117.206 19.8879 116.438 19.8879 116.438 19.8879C116.438 19.8879 116.246 19.8879 116.246 20.0906C116.246 20.2949 116.246 21.6183 116.246 21.821C116.246 22.0254 116.438 21.924 116.438 21.924C116.438 21.924 124.115 21.924 124.403 21.924C124.595 21.924 124.5 21.7197 124.5 21.7197C124.5 21.7197 124.5 20.3963 124.5 20.0906C124.5 19.8879 124.307 19.8879 124.307 19.8879C124.307 19.8879 123.828 19.8879 123.54 19.8879C123.348 19.8879 123.443 19.7849 123.443 19.7849C123.443 19.7849 123.443 5.43294 123.443 5.22941C123.443 5.02587 123.252 5.12724 123.252 5.12724ZM120.852 0.0380859C122.196 0.0380859 123.731 0.445154 123.731 2.17559C123.731 4.21173 121.14 5.02587 119.509 5.02587C118.166 5.02587 117.301 4.3131 117.301 2.88836C117.301 1.25929 119.413 0.0380859 120.852 0.0380859ZM54.921 13.271C54.7299 13.271 54.1534 13.271 54.1534 13.271C52.522 13.271 51.3706 14.4922 51.3706 16.1213C51.3706 17.4447 51.7544 18.9708 53.2903 18.9708C54.8262 18.9708 55.1137 17.7504 55.1137 16.5276V13.4737C55.1129 13.4745 55.1129 13.271 54.921 13.271ZM61.1595 19.8879C61.3514 19.8879 61.7352 19.8879 61.8315 19.8879C62.1197 19.8879 62.1197 20.0906 62.1197 20.0906C62.1197 20.0906 62.1197 21.5153 62.1197 21.7197C62.1197 22.0254 61.8315 21.924 61.8315 21.924C60.6801 21.924 55.6894 21.924 55.6894 21.924C55.6894 21.924 55.5938 21.924 55.4975 21.7197C55.4019 21.3126 55.3056 20.9055 55.3056 20.6006C55.21 20.1936 55.0181 20.6006 55.0181 20.6006C53.6741 21.6183 52.3308 22.4324 50.6038 22.4324C47.6283 22.4324 45.4211 20.4993 45.4211 17.3425C45.4211 13.4745 47.8202 11.2357 50.6993 11.2357L55.0181 11.1343C55.0181 11.1343 55.1137 11.1343 55.1137 10.9308C55.1137 10.8294 55.1137 10.4215 55.1137 10.4215C55.1137 9.09815 54.4417 8.48755 53.0021 8.48755C51.1787 8.48755 50.3148 9.20032 49.4509 10.3194C49.4509 10.3194 49.3553 10.4207 49.259 10.3194C49.0671 10.3194 47.4356 9.70876 47.4356 9.70876C47.4356 9.70876 47.3401 9.70876 47.4356 9.50522C47.5319 9.30169 49.3553 4.41607 49.3553 4.41607C49.3553 4.41607 49.3553 4.21253 49.5472 4.3147C49.7391 4.41607 50.9868 4.82393 51.1787 4.82393C51.3706 4.9253 51.275 5.12884 51.275 5.12884C51.275 5.12884 51.275 5.33237 51.1787 5.5359C50.986 5.94217 51.2743 5.73864 51.2743 5.73864C52.522 5.22941 53.7697 5.02587 55.0173 5.02587C58.6641 5.02587 61.0632 6.65415 61.0632 10.6243V19.5822C61.0632 19.5822 60.9668 19.8879 61.1595 19.8879ZM67.4935 9.40305C67.4935 11.2349 68.453 16.2226 70.852 16.2226C72.0997 16.2226 72.5791 15.6112 72.5791 13.9838C72.5791 12.1512 71.5233 7.16338 69.1242 7.16338C67.9736 7.16338 67.4935 7.77478 67.4935 9.40305ZM69.9881 22.7373C69.7007 23.043 69.508 24.1621 69.508 24.8748C69.508 25.689 69.8918 26.6053 70.852 26.6053C71.6196 26.6053 72.0997 26.1982 72.0997 25.3849C72.0997 23.8572 71.2366 23.3487 70.18 22.6368C70.18 22.636 70.0845 22.636 69.9881 22.7373ZM134 13.271C133.809 13.271 133.232 13.271 133.232 13.271C131.601 13.271 130.449 14.4922 130.449 16.1213C130.449 17.4447 130.834 18.9708 132.369 18.9708C133.905 18.9708 134.192 17.7504 134.192 16.5276V13.4737C134.192 13.4745 134.192 13.271 134 13.271ZM140.239 19.8879C140.431 19.8879 140.815 19.8879 141.006 19.8879C141.199 19.8879 141.199 20.0906 141.199 20.0906C141.199 20.0906 141.199 21.5153 141.199 21.7197C141.199 22.0254 140.911 21.924 140.911 21.924C139.76 21.924 134.769 21.924 134.769 21.924C134.769 21.924 134.672 21.924 134.577 21.7197C134.481 21.3126 134.385 20.9055 134.385 20.6006C134.289 20.1936 134.097 20.6006 134.097 20.6006C132.753 21.6183 131.409 22.4324 129.682 22.4324C126.707 22.4324 124.5 20.4993 124.5 17.3425C124.5 13.4745 126.899 11.2357 129.778 11.2357L134.097 11.1343C134.097 11.1343 134.192 11.1343 134.192 10.9308C134.192 10.8294 134.192 10.4215 134.192 10.4215C134.192 9.09815 133.52 8.48755 132.081 8.48755C130.257 8.48755 129.394 9.20032 128.53 10.3194C128.53 10.3194 128.434 10.4207 128.338 10.3194C128.146 10.3194 126.611 9.70876 126.611 9.70876C126.611 9.70876 126.418 9.70876 126.514 9.50522C126.611 9.30169 128.434 4.41607 128.434 4.41607C128.434 4.41607 128.434 4.21253 128.626 4.3147C128.818 4.41687 130.065 4.82393 130.257 4.82393C130.449 4.9253 130.449 5.12884 130.449 5.12884C130.449 5.12884 130.354 5.33237 130.257 5.5359C130.065 5.94297 130.354 5.73944 130.354 5.73944C131.601 5.2302 132.848 5.02667 134.097 5.02667C137.743 5.02667 140.143 6.65494 140.143 10.6251V19.583C140.143 19.5822 140.143 19.8879 140.239 19.8879ZM7.99187 8.99599C7.99187 9.19952 7.99187 17.2411 7.99187 17.2411C7.99187 18.6659 8.47198 19.8879 10.0071 19.8879C11.9261 19.8879 12.79 18.6659 12.79 14.8993C12.79 8.89382 9.91081 8.58892 8.95059 8.58892L8.18301 8.69029C8.18376 8.69029 7.99187 8.79165 7.99187 8.99599ZM8.08744 6.55278C9.52702 5.63727 10.5828 5.02587 12.0224 5.02587C15.7655 5.02587 18.7402 8.28322 18.7402 13.0675C18.7402 17.7504 15.9574 22.4316 11.1585 22.4316C10.199 22.4316 8.95059 22.3303 8.08744 21.8202C8.08744 21.8202 7.99187 21.8202 7.99187 21.9232C7.99187 22.1259 7.99187 24.874 7.99187 24.874C7.99187 24.874 7.99187 25.0784 8.18376 25.0784C8.37566 25.0784 9.91081 25.0784 9.91081 25.0784C9.91081 25.0784 10.1027 25.0784 10.1027 25.2811C10.1027 25.6882 10.1027 26.7059 10.1027 26.9102C10.1027 27.0116 9.91081 27.1145 9.91081 27.1145H1.17772C1.17772 27.1145 0.890259 27.1145 0.890259 26.9102C0.890259 26.9054 0.890259 26.9006 0.890259 26.8942C0.890259 26.8894 0.890259 26.8846 0.890259 26.8783C0.890259 26.8719 0.890259 26.8671 0.890259 26.8615C0.890259 26.8559 0.890259 26.8503 0.890259 26.8447C0.890259 26.8392 0.890259 26.832 0.890259 26.8264C0.890259 26.8184 0.890259 26.8136 0.890259 26.8064C0.890259 26.8 0.890259 26.7937 0.890259 26.7865C0.890259 26.7801 0.890259 26.7721 0.890259 26.7665C0.890259 26.7585 0.890259 26.7506 0.890259 26.7434C0.890259 26.7362 0.890259 26.729 0.890259 26.7218C0.890259 26.7146 0.890259 26.7051 0.890259 26.6987C0.890259 26.6891 0.890259 26.6819 0.890259 26.6739C0.890259 26.6659 0.890259 26.6572 0.890259 26.6492C0.890259 26.6412 0.890259 26.6324 0.890259 26.6244C0.890259 26.6149 0.890259 26.6077 0.890259 26.5981C0.890259 26.5885 0.890259 26.5789 0.890259 26.571C0.890259 26.5614 0.890259 26.5526 0.890259 26.543C0.890259 26.5335 0.890259 26.5247 0.890259 26.5151C0.890259 26.5055 0.890259 26.4967 0.890259 26.4872C0.890259 26.4776 0.890259 26.4688 0.890259 26.4592C0.890259 26.4496 0.890259 26.4393 0.890259 26.4297C0.890259 26.4201 0.890259 26.4113 0.890259 26.4018C0.890259 26.3906 0.890259 26.3818 0.890259 26.3706C0.890259 26.361 0.890259 26.3523 0.890259 26.3427C0.890259 26.3315 0.890259 26.3211 0.890259 26.3116C0.890259 26.3004 0.890259 26.2916 0.890259 26.2804C0.890259 26.2709 0.890259 26.2605 0.890259 26.2509C0.890259 26.2397 0.890259 26.2309 0.890259 26.2214C0.890259 26.2102 0.890259 26.1998 0.890259 26.1902C0.890259 26.1791 0.890259 26.1687 0.890259 26.1591C0.890259 26.1479 0.890259 26.1376 0.890259 26.128C0.890259 26.1168 0.890259 26.108 0.890259 26.0969C0.890259 26.0873 0.890259 26.0769 0.890259 26.0657C0.890259 26.0561 0.890259 26.0458 0.890259 26.0346C0.890259 26.025 0.890259 26.0146 0.890259 26.0035C0.890259 25.9939 0.890259 25.9835 0.890259 25.9723C0.890259 25.9628 0.890259 25.9524 0.890259 25.9412C0.890259 25.9316 0.890259 25.9228 0.890259 25.9117C0.890259 25.9021 0.890259 25.8917 0.890259 25.8821C0.890259 25.871 0.890259 25.8622 0.890259 25.8526C0.890259 25.8414 0.890259 25.8327 0.890259 25.8215C0.890259 25.8119 0.890259 25.8031 0.890259 25.7919C0.890259 25.7824 0.890259 25.7736 0.890259 25.764C0.890259 25.7528 0.890259 25.7441 0.890259 25.7345C0.890259 25.7249 0.890259 25.7161 0.890259 25.7065C0.890259 25.697 0.890259 25.6882 0.890259 25.6786C0.890259 25.669 0.890259 25.6603 0.890259 25.6507C0.890259 25.6411 0.890259 25.6339 0.890259 25.6243C0.890259 25.6164 0.890259 25.6076 0.890259 25.598C0.890259 25.5884 0.890259 25.5812 0.890259 25.5717C0.890259 25.5637 0.890259 25.5549 0.890259 25.5469C0.890259 25.5389 0.890259 25.5301 0.890259 25.5222C0.890259 25.5142 0.890259 25.5054 0.890259 25.4974C0.890259 25.4894 0.890259 25.4815 0.890259 25.4743C0.890259 25.4679 0.890259 25.4599 0.890259 25.4527C0.890259 25.4455 0.890259 25.4368 0.890259 25.4312C0.890259 25.4232 0.890259 25.4152 0.890259 25.4096C0.890259 25.404 0.890259 25.3953 0.890259 25.3897C0.890259 25.3841 0.890259 25.3769 0.890259 25.3713C0.890259 25.3633 0.890259 25.3585 0.890259 25.353C0.890259 25.3474 0.890259 25.3402 0.890259 25.3346C0.890259 25.3298 0.890259 25.3234 0.890259 25.3186C0.890259 25.3122 0.890259 25.3075 0.890259 25.3019C0.890259 25.2971 0.890259 25.2923 0.890259 25.2875C0.890259 25.0848 1.08215 25.0848 1.08215 25.0848C1.08215 25.0848 1.65784 25.0848 1.84973 25.0848C2.04163 25.0848 2.04163 24.8804 2.04163 24.8804C2.04163 24.8804 2.04163 9.10294 2.04163 8.89941C2.04163 8.69587 1.84973 8.79804 1.84973 8.79804L1.08215 9.00157C1.08215 9.00157 0.890259 9.00157 0.890259 8.79804C0.890259 8.79485 0.890259 8.79165 0.890259 8.78687C0.890259 8.78367 0.890259 8.77968 0.890259 8.77569C0.890259 8.7717 0.890259 8.76691 0.890259 8.76132C0.890259 8.75733 0.890259 8.75254 0.890259 8.74696C0.890259 8.74137 0.890259 8.73658 0.890259 8.73099C0.890259 8.72541 0.890259 8.72062 0.890259 8.71423C0.890259 8.70864 0.890259 8.70226 0.890259 8.69587C0.890259 8.68949 0.890259 8.6831 0.890259 8.67672C0.890259 8.67033 0.890259 8.66235 0.890259 8.65596C0.890259 8.64958 0.890259 8.6424 0.890259 8.63521C0.890259 8.62803 0.890259 8.61925 0.890259 8.61206C0.890259 8.60488 0.890259 8.5969 0.890259 8.58892C0.890259 8.58094 0.890259 8.57216 0.890259 8.56417C0.890259 8.55619 0.890259 8.54741 0.890259 8.53943C0.890259 8.53145 0.890259 8.52267 0.890259 8.51309C0.890259 8.50431 0.890259 8.49553 0.890259 8.48675C0.890259 8.47717 0.890259 8.4676 0.890259 8.45802C0.890259 8.44844 0.890259 8.43966 0.890259 8.43008C0.890259 8.4205 0.890259 8.41092 0.890259 8.40055C0.890259 8.39097 0.890259 8.38139 0.890259 8.37102C0.890259 8.36144 0.890259 8.35026 0.890259 8.33989C0.890259 8.32951 0.890259 8.31993 0.890259 8.30956C0.890259 8.29918 0.890259 8.28881 0.890259 8.27843C0.890259 8.26805 0.890259 8.25768 0.890259 8.2465C0.890259 8.23533 0.890259 8.22495 0.890259 8.21378C0.890259 8.2026 0.890259 8.19223 0.890259 8.18105C0.890259 8.16988 0.890259 8.1595 0.890259 8.14753C0.890259 8.13635 0.890259 8.12598 0.890259 8.1148C0.890259 8.10363 0.890259 8.09245 0.890259 8.08128C0.890259 8.0701 0.890259 8.05973 0.890259 8.04776C0.890259 8.03578 0.890259 8.02541 0.890259 8.01423C0.890259 8.00306 0.890259 7.99268 0.890259 7.98151C0.890259 7.97033 0.890259 7.95836 0.890259 7.94798C0.890259 7.93681 0.890259 7.92564 0.890259 7.91446C0.890259 7.90329 0.890259 7.89211 0.890259 7.88094C0.890259 7.86976 0.890259 7.85939 0.890259 7.84821C0.890259 7.83704 0.890259 7.82586 0.890259 7.81469C0.890259 7.80352 0.890259 7.79314 0.890259 7.78196C0.890259 7.77079 0.890259 7.76041 0.890259 7.74924C0.890259 7.73807 0.890259 7.72849 0.890259 7.71731C0.890259 7.70694 0.890259 7.69576 0.890259 7.68539C0.890259 7.67501 0.890259 7.66463 0.890259 7.65346C0.890259 7.64308 0.890259 7.6335 0.890259 7.62233C0.890259 7.61275 0.890259 7.60238 0.890259 7.592C0.890259 7.58242 0.890259 7.57204 0.890259 7.56167C0.890259 7.55209 0.890259 7.54251 0.890259 7.53293C0.890259 7.52336 0.890259 7.51378 0.890259 7.5042C0.890259 7.49462 0.890259 7.48584 0.890259 7.47706C0.890259 7.46828 0.890259 7.4587 0.890259 7.44913C0.890259 7.44035 0.890259 7.43157 0.890259 7.42279C0.890259 7.41401 0.890259 7.40523 0.890259 7.39645C0.890259 7.38767 0.890259 7.38048 0.890259 7.3725C0.890259 7.36452 0.890259 7.35574 0.890259 7.34856C0.890259 7.34137 0.890259 7.33339 0.890259 7.32621C0.890259 7.31902 0.890259 7.31184 0.890259 7.30466C0.890259 7.29747 0.890259 7.29109 0.890259 7.2847C0.890259 7.27832 0.890259 7.27193 0.890259 7.26555C0.890259 7.25916 0.890259 7.25357 0.890259 7.24719C0.890259 7.2408 0.890259 7.23522 0.890259 7.23043C0.890259 7.22484 0.890259 7.22005 0.890259 7.21446C0.890259 7.20888 0.890259 7.20409 0.890259 7.2001C0.890259 7.19531 0.890259 7.19132 0.890259 7.18733C0.890259 7.18333 0.890259 7.17934 0.890259 7.17535C0.890259 7.17216 0.890259 7.16897 0.890259 7.16577C0.890259 6.96224 1.08215 6.96224 1.08215 6.96224L7.79997 5.12963C7.79997 5.12963 7.99187 5.02827 7.99187 5.2318C7.99187 5.43533 7.99187 6.35164 7.99187 6.45301C7.99187 6.65415 8.08744 6.55278 8.08744 6.55278Z" fill="black"/>
</svg>
