<svg width="26" height="26" viewBox="0 0 26 26" fill="none" xmlns="http://www.w3.org/2000/svg">
<path d="M24.7529 11.9183L13.6608 0.826201C13.5464 0.71165 13.4106 0.620771 13.2611 0.558765C13.1116 0.49676 12.9513 0.464844 12.7894 0.464844C12.6276 0.464844 12.4673 0.49676 12.3178 0.558765C12.1683 0.620771 12.0324 0.71165 11.9181 0.826201L0.825996 11.9183C0.653687 12.0907 0.536349 12.3102 0.488816 12.5493C0.441284 12.7883 0.46569 13.0361 0.55895 13.2612C0.65221 13.4864 0.810136 13.6789 1.01276 13.8143C1.21539 13.9497 1.45362 14.022 1.69734 14.0221H2.9298V22.6493C2.9298 24.0087 4.03531 25.1142 5.39471 25.1142H20.1842C21.5436 25.1142 22.6491 24.0087 22.6491 22.6493V14.0221H23.8815C24.1253 14.022 24.3635 13.9497 24.5661 13.8143C24.7687 13.6789 24.9267 13.4864 25.0199 13.2612C25.1132 13.0361 25.1376 12.7883 25.0901 12.5493C25.0425 12.3102 24.9252 12.0907 24.7529 11.9183ZM20.1854 22.6493H5.39471V10.8362L12.7894 3.44147L20.1842 10.8362V16.487L20.1854 22.6493Z" fill="black"/>
</svg>
