<svg width="26" height="26" viewBox="0 0 26 26" fill="none" xmlns="http://www.w3.org/2000/svg">
<path d="M24.7528 11.8861L13.6607 0.793974C13.5464 0.679423 13.4105 0.588544 13.261 0.526539C13.1115 0.464533 12.9512 0.432617 12.7894 0.432617C12.6275 0.432617 12.4672 0.464533 12.3177 0.526539C12.1682 0.588544 12.0324 0.679423 11.918 0.793974L0.825935 11.8861C0.653626 12.0584 0.536288 12.278 0.488755 12.517C0.441223 12.7561 0.465629 13.0039 0.558889 13.229C0.652149 13.4542 0.810075 13.6467 1.0127 13.7821C1.21533 13.9175 1.45356 13.9898 1.69728 13.9899H2.92974V22.6171C2.92974 23.9765 4.03525 25.082 5.39465 25.082H20.1841C21.5435 25.082 22.649 23.9765 22.649 22.6171V13.9899H23.8815C24.1252 13.9898 24.3634 13.9175 24.566 13.7821C24.7687 13.6467 24.9266 13.4542 25.0199 13.229C25.1131 13.0039 25.1375 12.7561 25.09 12.517C25.0425 12.278 24.9251 12.0584 24.7528 11.8861ZM20.1853 22.6171H5.39465V10.804L12.7894 3.40924L20.1841 10.804V16.4548L20.1853 22.6171Z" fill="#696767"/>
</svg>
