<svg width="29" height="44" viewBox="0 0 29 44" fill="none" xmlns="http://www.w3.org/2000/svg">
<g filter="url(#filter0_d)">
<path d="M7.36382 5.3565e-06C7.8057 -0.000460075 8.24332 0.0882736 8.65154 0.261098C9.05976 0.433927 9.43053 0.687444 9.74255 1.0071L24.0149 15.591C24.6457 16.2356 25 17.1097 25 18.0211C25 18.9325 24.6457 19.8066 24.0149 20.4512L9.74255 35.0351C9.10799 35.6613 8.2581 36.0077 7.37593 35.9999C6.49376 35.992 5.64989 35.6306 5.02608 34.9933C4.40227 34.356 4.04842 33.4939 4.04076 32.5927C4.03309 31.6915 4.37222 30.8232 4.9851 30.175L16.8787 18.0211L4.98509 5.86727C4.5147 5.38657 4.19437 4.77419 4.06461 4.10754C3.93485 3.44089 4.00148 2.7499 4.25607 2.12193C4.51067 1.49396 4.9418 0.957197 5.49496 0.579508C6.04812 0.201814 6.69848 0.000150373 7.36382 5.3565e-06Z" fill="url(#paint0_linear)"/>
</g>
<defs>
<filter id="filter0_d" x="0" y="0" width="29" height="44" filterUnits="userSpaceOnUse" color-interpolation-filters="sRGB">
<feFlood flood-opacity="0" result="BackgroundImageFix"/>
<feColorMatrix in="SourceAlpha" type="matrix" values="0 0 0 0 0 0 0 0 0 0 0 0 0 0 0 0 0 0 127 0"/>
<feOffset dy="4"/>
<feGaussianBlur stdDeviation="2"/>
<feColorMatrix type="matrix" values="0 0 0 0 0.283333 0 0 0 0 0.278611 0 0 0 0 0.278611 0 0 0 0.25 0"/>
<feBlend mode="normal" in2="BackgroundImageFix" result="effect1_dropShadow"/>
<feBlend mode="normal" in="SourceGraphic" in2="effect1_dropShadow" result="shape"/>
</filter>
<linearGradient id="paint0_linear" x1="21.0688" y1="107.722" x2="-34.9306" y2="52.1436" gradientUnits="userSpaceOnUse">
<stop stop-color="#FB09C6"/>
<stop offset="1" stop-color="#35168A"/>
</linearGradient>
</defs>
</svg>
