<svg width="73" height="29" viewBox="0 0 73 29" fill="none" xmlns="http://www.w3.org/2000/svg">
<path d="M8.92399 28.3868C6.78181 28.293 5.02919 27.6466 3.65878 26.4461C3.39724 26.2167 2.77402 25.5291 2.56494 25.2391C2.00922 24.4685 1.6314 23.7186 1.3794 22.8866C0.603964 20.3254 1.00306 16.9645 2.52092 13.276C3.82054 10.1182 5.8259 6.98626 9.32455 2.64855C9.83993 2.01027 11.3747 0.143555 11.3846 0.143555C11.3882 0.143555 11.3046 0.30333 11.1993 0.497887C10.2896 2.17812 9.51126 4.15727 9.08723 5.87067C8.40606 8.61997 8.48822 10.9793 9.32785 12.8088C9.90705 14.0692 10.9 15.1609 12.0166 15.7644C13.9713 16.8205 16.8332 16.9079 20.3282 16.02C20.5688 15.9586 32.4924 12.4683 46.8252 8.26362C57.9725 4.99318 67.5446 2.18687 71.2498 1.10232C72.3393 0.783377 72.3765 0.866679 71.35 1.3516C64.6117 4.53468 37.3717 17.3874 22.3013 24.494C19.5634 25.7847 18.8312 26.1108 17.5441 26.6091C14.2538 27.8832 11.3064 28.4912 8.92399 28.3868Z" fill="black"/>
</svg>
