<svg width="4" height="12" viewBox="0 0 4 12" fill="none" xmlns="http://www.w3.org/2000/svg">
<path d="M3.2478 11.7235C3.18945 11.7131 3.09024 11.7017 2.95018 11.6893C2.8218 11.6893 2.68158 11.6839 2.52955 11.6733C2.37751 11.6733 2.23146 11.6681 2.09141 11.6578H1.04051C0.900144 11.6681 0.759778 11.6795 0.619413 11.692C0.491026 11.7026 0.391816 11.7142 0.321787 11.7267L0.305664 11.6573C0.422379 11.5995 0.539092 11.5243 0.655807 11.4315C0.772829 11.3391 0.837179 11.1656 0.848851 10.9111C0.859601 10.6334 0.864974 10.3442 0.864974 10.0435C0.875724 9.74272 0.881101 9.40152 0.881101 9.01988V7.71849V5.96643V4.21391V2.89565C0.881101 2.5137 0.875724 2.17813 0.864974 1.88893C0.864974 1.58818 0.859601 1.29913 0.848851 1.0218C0.838101 0.767267 0.773904 0.593776 0.656267 0.501331C0.539552 0.397025 0.42284 0.315981 0.306125 0.258202L0.321787 0.188871C0.391816 0.211983 0.491026 0.229315 0.619413 0.240871C0.759778 0.240871 0.899987 0.246195 1.04005 0.256838C1.19208 0.267481 1.33813 0.272805 1.47819 0.272805H2.09141C2.23146 0.262161 2.37736 0.256838 2.52909 0.256838C2.68143 0.246195 2.8218 0.234637 2.95018 0.222169C3.09024 0.211526 3.18945 0.199968 3.2478 0.1875L3.26393 0.25729C3.13554 0.315069 3.01284 0.395965 2.89582 0.499967C2.79077 0.592412 2.73242 0.765748 2.72074 1.01997C2.70999 1.29792 2.69832 1.58727 2.68573 1.88802V10.0426C2.69648 10.343 2.70815 10.6321 2.72074 10.9097C2.73119 11.1642 2.78954 11.3377 2.89582 11.4302C3.01253 11.5226 3.13524 11.5979 3.26393 11.6559L3.2478 11.7235Z" fill="black"/>
</svg>
