<svg width="3" height="3" viewBox="0 0 3 3" fill="none" xmlns="http://www.w3.org/2000/svg">
<path fill-rule="evenodd" clip-rule="evenodd" d="M0.990234 1.06585C0.990234 0.484684 1.44684 0 1.99513 0C2.54342 0 3.00003 0.484304 3.00003 1.06585C3.00003 1.69563 2.54378 2.17994 1.99513 2.17994C1.44684 2.17994 0.990234 1.69525 0.990234 1.06585ZM2.86286 1.06585C2.86286 0.581545 2.49722 0.145481 1.99477 0.145481C1.49268 0.145481 1.08155 0.581545 1.08155 1.06585C1.08155 1.59877 1.49232 2.03484 1.99477 2.03484C2.49758 2.03446 2.86286 1.59839 2.86286 1.06585ZM2.49758 1.69525H2.31493L1.99477 1.11409H1.76665V1.69525H1.62948V0.484304H2.0861C2.17742 0.484304 2.31458 0.484304 2.36006 0.532545C2.45138 0.581165 2.49722 0.726266 2.49722 0.823127C2.49722 1.01685 2.36006 1.11409 2.13158 1.11409L2.49758 1.69525ZM1.94929 1.01723C2.13193 1.01723 2.36006 1.06547 2.36006 0.823507C2.36006 0.629785 2.22326 0.581545 2.0861 0.581545H1.76629V1.01723H1.94929Z" fill="black"/>
</svg>
