<svg width="26" height="26" viewBox="0 0 26 26" fill="none" xmlns="http://www.w3.org/2000/svg">
<path d="M24.7529 11.9183L13.6608 0.826201C13.5465 0.71165 13.4107 0.620771 13.2612 0.558765C13.1116 0.49676 12.9514 0.464844 12.7895 0.464844C12.6276 0.464844 12.4674 0.49676 12.3178 0.558765C12.1683 0.620771 12.0325 0.71165 11.9182 0.826201L0.826057 11.9183C0.653748 12.0907 0.53641 12.3102 0.488877 12.5493C0.441345 12.7883 0.465751 13.0361 0.559011 13.2612C0.652271 13.4864 0.810197 13.6789 1.01282 13.8143C1.21545 13.9497 1.45368 14.022 1.6974 14.0221H2.92986V22.6493C2.92986 24.0087 4.03537 25.1142 5.39477 25.1142H20.1842C21.5436 25.1142 22.6491 24.0087 22.6491 22.6493V14.0221H23.8816C24.1253 14.022 24.3635 13.9497 24.5662 13.8143C24.7688 13.6789 24.9267 13.4864 25.02 13.2612C25.1132 13.0361 25.1377 12.7883 25.0901 12.5493C25.0426 12.3102 24.9252 12.0907 24.7529 11.9183ZM20.1855 22.6493H5.39477V10.8362L12.7895 3.44147L20.1842 10.8362V16.487L20.1855 22.6493Z" fill="black"/>
</svg>
