<svg width="5" height="6" viewBox="0 0 5 6" fill="none" xmlns="http://www.w3.org/2000/svg">
<path fill-rule="evenodd" clip-rule="evenodd" d="M0.45459 2.95452C0.45459 1.73331 1.41406 0.714844 2.56619 0.714844C3.71831 0.714844 4.67779 1.73251 4.67779 2.95452C4.67779 4.27789 3.71906 5.29556 2.56619 5.29556C1.41406 5.29556 0.45459 4.27709 0.45459 2.95452ZM4.38956 2.95452C4.38956 1.93685 3.62123 1.02054 2.56543 1.02054C1.51038 1.02054 0.646477 1.93685 0.646477 2.95452C0.646477 4.07436 1.50963 4.99066 2.56543 4.99066C3.62198 4.98986 4.38956 4.07356 4.38956 2.95452ZM3.62199 4.27709H3.23819L2.56543 3.05589H2.08607V4.27709H1.79785V1.73251H2.75733C2.94922 1.73251 3.23744 1.73251 3.33301 1.83388C3.52491 1.93605 3.62123 2.24095 3.62123 2.44449C3.62123 2.85155 3.33301 3.05589 2.8529 3.05589L3.62199 4.27709ZM2.46986 2.85235C2.85365 2.85235 3.33301 2.95372 3.33301 2.44528C3.33301 2.03822 3.04555 1.93685 2.75733 1.93685H2.08532V2.85235H2.46986Z" fill="black"/>
</svg>
