<svg width="18" height="16" viewBox="0 0 18 16" fill="none" xmlns="http://www.w3.org/2000/svg">
<path d="M13.1354 0.71875C11.6383 0.71875 10.2014 1.36982 9.26359 2.39867C8.32576 1.36982 6.88891 0.71875 5.39182 0.71875C2.74182 0.71875 0.659668 2.66393 0.659668 5.1396C0.659668 8.17794 3.585 10.6536 8.01602 14.4154L9.26359 15.4683L10.5112 14.4073C14.9422 10.6536 17.8675 8.17794 17.8675 5.1396C17.8675 2.66393 15.7854 0.71875 13.1354 0.71875ZM9.34963 13.2177L9.26359 13.2981L9.17755 13.2177C5.08208 9.75337 2.38045 7.46256 2.38045 5.1396C2.38045 3.53202 3.67104 2.32633 5.39182 2.32633C6.71683 2.32633 8.00741 3.12209 8.46342 4.22328H10.0724C10.5198 3.12209 11.8103 2.32633 13.1354 2.32633C14.8561 2.32633 16.1467 3.53202 16.1467 5.1396C16.1467 7.46256 13.4451 9.75337 9.34963 13.2177Z" fill="url(#paint0_linear)"/>
<defs>
<linearGradient id="paint0_linear" x1="3.88096" y1="-28.6665" x2="22.3193" y2="7.93291" gradientUnits="userSpaceOnUse">
<stop stop-color="#FB09C6"/>
<stop offset="1" stop-color="#35168A"/>
</linearGradient>
</defs>
</svg>
