<svg width="3" height="12" viewBox="0 0 3 12" fill="none" xmlns="http://www.w3.org/2000/svg">
<path d="M2.77219 11.015C2.71962 11.0056 2.63025 10.9954 2.50408 10.9841C2.38843 10.9841 2.26212 10.9793 2.12516 10.9698C1.9882 10.9698 1.85664 10.9651 1.73047 10.9558H0.783795C0.65735 10.9651 0.530904 10.9754 0.40446 10.9866C0.288805 10.9962 0.199435 11.0066 0.13635 11.0178L0.121826 10.9554C0.226966 10.9033 0.332104 10.8355 0.437245 10.752C0.542661 10.6687 0.600629 10.5124 0.611143 10.2831C0.620827 10.033 0.625668 9.7725 0.625668 9.50158C0.635352 9.23065 0.640195 8.92329 0.640195 8.57949V7.40717V5.82886V4.25015V3.06262C0.640195 2.71855 0.635352 2.41626 0.625668 2.15574C0.625668 1.88482 0.620827 1.62444 0.611143 1.3746C0.60146 1.14532 0.54363 0.989032 0.437659 0.905754C0.332519 0.811793 0.227381 0.738786 0.122241 0.686737L0.13635 0.624282C0.199435 0.645101 0.288805 0.660715 0.40446 0.671125C0.530904 0.671125 0.657209 0.675921 0.783377 0.685508C0.920336 0.695096 1.0519 0.699892 1.17807 0.699892H1.73047C1.85664 0.690304 1.98806 0.685508 2.12475 0.685508C2.26198 0.675921 2.38843 0.665509 2.50408 0.654278C2.63025 0.64469 2.71962 0.634278 2.77219 0.623047L2.78671 0.685916C2.67106 0.737965 2.56052 0.810838 2.45511 0.904525C2.36048 0.987803 2.30791 1.14395 2.2974 1.37296C2.28771 1.62334 2.2772 1.884 2.26586 2.15492V9.50076C2.27554 9.77141 2.28605 10.0318 2.2974 10.2819C2.3068 10.5112 2.35937 10.6675 2.45511 10.7507C2.56025 10.834 2.67078 10.9018 2.78671 10.9541L2.77219 11.015Z" fill="black"/>
</svg>
