<svg width="9" height="9" viewBox="0 0 9 9" fill="none" xmlns="http://www.w3.org/2000/svg">
<path fill-rule="evenodd" clip-rule="evenodd" d="M8.93374 4.52543C8.93374 5.64821 8.48771 6.725 7.69379 7.51893C6.89987 8.31285 5.82307 8.75887 4.7003 8.75887C3.57752 8.75887 2.50073 8.31285 1.7068 7.51893C0.912879 6.725 0.466858 5.64821 0.466858 4.52543C0.466858 3.40265 0.912879 2.32586 1.7068 1.53194C2.50073 0.738014 3.57752 0.291992 4.7003 0.291992C5.82307 0.291992 6.89987 0.738014 7.69379 1.53194C8.48771 2.32586 8.93374 3.40265 8.93374 4.52543ZM6.81702 4.52543C6.81702 5.08682 6.59401 5.62522 6.19704 6.02218C5.80008 6.41914 5.26169 6.64215 4.7003 6.64215C4.13891 6.64215 3.60051 6.41914 3.20355 6.02218C2.80659 5.62522 2.58358 5.08682 2.58358 4.52543C2.58358 3.96404 2.80659 3.42565 3.20355 3.02868C3.60051 2.63172 4.13891 2.40871 4.7003 2.40871C5.26169 2.40871 5.80008 2.63172 6.19704 3.02868C6.59401 3.42565 6.81702 3.96404 6.81702 4.52543Z" fill="black"/>
</svg>
