<svg width="107" height="67" viewBox="0 0 107 67" fill="none" xmlns="http://www.w3.org/2000/svg">
<path fill-rule="evenodd" clip-rule="evenodd" d="M104.527 55.5995H104.859C105.029 55.5995 105.214 55.6324 105.214 55.8468C105.214 56.1026 105.011 56.1139 104.789 56.1139H104.527V55.5995ZM104.276 57.0111H104.527V56.3152H104.793L105.232 57.0111H105.502L105.04 56.2972C105.28 56.2728 105.465 56.1497 105.465 55.8581C105.465 55.5472 105.285 55.3965 104.9 55.3965H104.276V57.0111H104.276ZM103.674 56.1974C103.674 55.5373 104.168 55.0261 104.814 55.0261C105.454 55.0261 105.95 55.5369 105.95 56.1974C105.95 56.8735 105.453 57.3843 104.814 57.3843C104.168 57.3843 103.674 56.8735 103.674 56.1974ZM103.422 56.1974C103.422 56.9913 104.058 57.5877 104.814 57.5877C105.568 57.5877 106.2 56.9913 106.2 56.1974C106.2 55.4177 105.568 54.8234 104.814 54.8234C104.058 54.8234 103.422 55.4177 103.422 56.1974ZM87.9479 54.1434V56.4525H82.1641V57.1862V58.0558V59.0612H82.8264H85.394H86.137C87.4876 59.0612 88.5819 60.155 88.5819 61.5061V62.3756V63.0535V63.651C88.5819 65.002 87.4876 66.0959 86.137 66.0959H79.4174V63.7872H86.0559V63.0535V62.3756V61.3699H85.394H82.8264H82.0828C80.7324 61.3699 79.6378 60.276 79.6378 58.925V58.0558V57.1862V56.5883C79.6378 55.2394 80.7324 54.1434 82.0828 54.1434H87.9479ZM101.204 66.0962H95.3389C93.9885 66.0962 92.894 65.0024 92.894 63.6513V62.076V58.1637V56.5883C92.894 55.2394 93.9885 54.1434 95.3389 54.1434H101.204V56.4525H95.4202V58.1637V59.115H101.204V61.424H95.4202V62.0757V63.7872H101.204V66.0962ZM61.5977 66.0962H55.7326C54.3829 66.0962 53.288 65.0024 53.288 63.6513V62.076V58.1637V56.5883C53.288 55.2394 54.3829 54.1434 55.7326 54.1434H61.5977V56.4525H55.8146V58.1637V59.115H61.5977V61.424H55.8146V62.0757V63.7872H61.5977V66.0962ZM27.8587 54.1434H29.1358H33.4274C34.7777 54.1434 35.8723 55.2394 35.8723 56.5883V66.0962H33.346V56.4525H29.1358V66.0962H26.6095V54.1434H27.8587ZM68.6604 59.1153H73.1402V58.6536V56.9159V56.4525H68.6604V59.1153ZM75.6661 56.9159V58.6536V58.9795C75.6661 60.2304 74.7279 61.2606 73.5176 61.4063L75.8861 66.0962H73.0425L70.9765 61.4244H68.6604V66.0962H66.1345V54.1434H67.3574H68.6607H73.2222C74.5722 54.1434 75.6668 55.2394 75.6668 56.5883V56.9159H75.6661ZM41.6589 54.1434L44.4837 64.0868L47.472 54.1434H50.3514L46.4942 66.0962H42.5281L38.8337 54.1434H41.6589ZM0.0693359 56.5883C0.0693359 55.2394 1.16425 54.1434 2.51389 54.1434H8.78906V56.4525H2.59596V63.7872H8.78941V66.0959H2.51424C1.16461 66.0959 0.0696902 65.002 0.0696902 63.651V56.5883H0.0693359ZM12.6466 56.5883C12.6466 55.2394 13.7415 54.1434 15.0915 54.1434H20.3067C21.6574 54.1434 22.752 55.2394 22.752 56.5883V63.6513C22.752 65.0024 21.6574 66.0962 20.3067 66.0962H15.0915C13.7415 66.0962 12.6466 65.0024 12.6466 63.6513V56.5883ZM15.1732 56.4528H20.2261V63.7875H15.1732V56.4528ZM51.4509 9.57833L54.6995 19.5776H65.2132L56.7075 25.7562L59.9566 35.7573L51.4509 29.5769L42.9452 35.7573L46.1939 25.7562L37.6885 19.5776H48.2019L51.4509 9.57833ZM71.0501 23.704C71.0501 34.5287 62.2752 43.3025 51.4505 43.3025C40.6259 43.3025 31.8506 34.5283 31.8506 23.704C31.8506 12.8797 40.6262 4.10374 51.4505 4.10374C62.2748 4.10374 71.0501 12.8797 71.0501 23.704ZM51.4509 0.75C38.7739 0.75 28.4972 11.026 28.4972 23.7044C28.4972 36.381 38.7739 46.6569 51.4509 46.6569C64.1279 46.6569 74.4042 36.381 74.4042 23.7044C74.4038 11.0256 64.1279 0.75 51.4509 0.75Z" fill="black"/>
</svg>
