<svg width="11" height="10" viewBox="0 0 11 10" fill="none" xmlns="http://www.w3.org/2000/svg">
<path d="M6.06441 1.31496L5.78958 1.5861L5.5135 1.31496C5.00052 0.808505 4.30867 0.524522 3.58779 0.524522C2.86692 0.524522 2.17507 0.808505 1.66208 1.31496C1.40748 1.55989 1.20494 1.8537 1.06659 2.17877C0.928245 2.50384 0.856934 2.85349 0.856934 3.20678C0.856934 3.56007 0.928245 3.90972 1.06659 4.2348C1.20494 4.55987 1.40748 4.85367 1.66208 5.0986L5.78958 9.15215L9.91707 5.0986C10.1717 4.85367 10.3742 4.55987 10.5126 4.2348C10.6509 3.90972 10.7222 3.56007 10.7222 3.20678C10.7222 2.85349 10.6509 2.50384 10.5126 2.17877C10.3742 1.8537 10.1717 1.55989 9.91707 1.31496C9.40387 0.808428 8.71181 0.524414 7.99074 0.524414C7.26967 0.524414 6.57761 0.808428 6.06441 1.31496Z" fill="#696767"/>
</svg>
