<svg width="15" height="12" viewBox="0 0 15 12" fill="none" xmlns="http://www.w3.org/2000/svg">
<path d="M10.7726 0C9.55456 0 8.38556 0.5297 7.62256 1.36676C6.85956 0.5297 5.69056 0 4.47256 0C2.31656 0 0.622559 1.58256 0.622559 3.59673C0.622559 6.06866 3.00256 8.08283 6.60756 11.1433L7.62256 12L8.63756 11.1368C12.2426 8.08283 14.6226 6.06866 14.6226 3.59673C14.6226 1.58256 12.9286 0 10.7726 0ZM7.69256 10.1689L7.62256 10.2343L7.55256 10.1689C4.22056 7.35041 2.02256 5.48665 2.02256 3.59673C2.02256 2.28883 3.07256 1.3079 4.47256 1.3079C5.55056 1.3079 6.60056 1.95531 6.97156 2.85123H8.28056C8.64456 1.95531 9.69456 1.3079 10.7726 1.3079C12.1726 1.3079 13.2226 2.28883 13.2226 3.59673C13.2226 5.48665 11.0246 7.35041 7.69256 10.1689Z" fill="url(#paint0_linear)"/>
<defs>
<linearGradient id="paint0_linear" x1="3.24335" y1="-23.9073" x2="18.2444" y2="5.86932" gradientUnits="userSpaceOnUse">
<stop stop-color="#FB09C6"/>
<stop offset="1" stop-color="#35168A"/>
</linearGradient>
</defs>
</svg>
