<svg width="15" height="13" viewBox="0 0 15 13" fill="none" xmlns="http://www.w3.org/2000/svg">
<path d="M10.2423 0.21875C9.02429 0.21875 7.85529 0.74845 7.09229 1.58551C6.32929 0.74845 5.16028 0.21875 3.94229 0.21875C1.78629 0.21875 0.0922852 1.80131 0.0922852 3.81548C0.0922852 6.28741 2.47229 8.30158 6.07729 11.3621L7.09229 12.2188L8.10728 11.3555C11.7123 8.30158 14.0923 6.28741 14.0923 3.81548C14.0923 1.80131 12.3983 0.21875 10.2423 0.21875ZM7.16229 10.3877L7.09229 10.4531L7.02228 10.3877C3.69028 7.56916 1.49229 5.7054 1.49229 3.81548C1.49229 2.50758 2.54229 1.52665 3.94229 1.52665C5.02029 1.52665 6.07028 2.17406 6.44128 3.06998H7.75028C8.11428 2.17406 9.16428 1.52665 10.2423 1.52665C11.6423 1.52665 12.6923 2.50758 12.6923 3.81548C12.6923 5.7054 10.4943 7.56916 7.16229 10.3877Z" fill="url(#paint0_linear)"/>
<defs>
<linearGradient id="paint0_linear" x1="2.71307" y1="-23.6886" x2="17.7142" y2="6.08807" gradientUnits="userSpaceOnUse">
<stop stop-color="#FB09C6"/>
<stop offset="1" stop-color="#35168A"/>
</linearGradient>
</defs>
</svg>
