<svg width="15" height="13" viewBox="0 0 15 13" fill="none" xmlns="http://www.w3.org/2000/svg">
<path d="M10.201 0.139648C8.98303 0.139648 7.81403 0.669349 7.05103 1.50641C6.28803 0.669349 5.11903 0.139648 3.90103 0.139648C1.74503 0.139648 0.0510254 1.72221 0.0510254 3.73638C0.0510254 6.20831 2.43103 8.22248 6.03603 11.283L7.05103 12.1396L8.06602 11.2764C11.671 8.22248 14.051 6.20831 14.051 3.73638C14.051 1.72221 12.357 0.139648 10.201 0.139648ZM7.12103 10.3086L7.05103 10.374L6.98103 10.3086C3.64902 7.49006 1.45103 5.6263 1.45103 3.73638C1.45103 2.42848 2.50103 1.44755 3.90103 1.44755C4.97903 1.44755 6.02903 2.09496 6.40002 2.99087H7.70902C8.07302 2.09496 9.12302 1.44755 10.201 1.44755C11.601 1.44755 12.651 2.42848 12.651 3.73638C12.651 5.6263 10.453 7.49006 7.12103 10.3086Z" fill="url(#paint0_linear)"/>
<defs>
<linearGradient id="paint0_linear" x1="2.67181" y1="-23.7677" x2="17.6729" y2="6.00897" gradientUnits="userSpaceOnUse">
<stop stop-color="#FB09C6"/>
<stop offset="1" stop-color="#35168A"/>
</linearGradient>
</defs>
</svg>
