<svg width="14" height="13" viewBox="0 0 14 13" fill="none" xmlns="http://www.w3.org/2000/svg">
<path d="M10.151 0.139648C8.93298 0.139648 7.76398 0.669349 7.00098 1.50641C6.23798 0.669349 5.06898 0.139648 3.85098 0.139648C1.69498 0.139648 0.000976562 1.72221 0.000976562 3.73638C0.000976562 6.20831 2.38098 8.22248 5.98598 11.283L7.00098 12.1396L8.01598 11.2764C11.621 8.22248 14.001 6.20831 14.001 3.73638C14.001 1.72221 12.307 0.139648 10.151 0.139648ZM7.07098 10.3086L7.00098 10.374L6.93098 10.3086C3.59898 7.49006 1.40098 5.6263 1.40098 3.73638C1.40098 2.42848 2.45098 1.44755 3.85098 1.44755C4.92898 1.44755 5.97898 2.09496 6.34998 2.99087H7.65898C8.02298 2.09496 9.07298 1.44755 10.151 1.44755C11.551 1.44755 12.601 2.42848 12.601 3.73638C12.601 5.6263 10.403 7.49006 7.07098 10.3086Z" fill="url(#paint0_linear)"/>
<defs>
<linearGradient id="paint0_linear" x1="2.62177" y1="-23.7677" x2="17.6229" y2="6.00897" gradientUnits="userSpaceOnUse">
<stop stop-color="#FB09C6"/>
<stop offset="1" stop-color="#35168A"/>
</linearGradient>
</defs>
</svg>
