<svg width="27" height="19" viewBox="0 0 27 19" fill="none" xmlns="http://www.w3.org/2000/svg">
<path d="M9.77028 18.8347L0.707741 9.78086C0.565394 9.61464 0.491011 9.40083 0.499458 9.18215C0.507904 8.96347 0.598558 8.75603 0.753303 8.60129C0.908048 8.44654 1.11549 8.35589 1.33417 8.34744C1.55284 8.33899 1.76666 8.41338 1.93288 8.55572L9.7529 16.3757L25.0367 1.10932C25.2029 0.966974 25.4167 0.892592 25.6354 0.901039C25.8541 0.909485 26.0615 1.00014 26.2163 1.15488C26.371 1.30963 26.4617 1.51707 26.4701 1.73575C26.4786 1.95443 26.4042 2.16824 26.2618 2.33446L9.77028 18.8347Z" fill="url(#paint0_linear)"/>
<defs>
<linearGradient id="paint0_linear" x1="5.36074" y1="-34.8298" x2="24.8036" y2="13.0759" gradientUnits="userSpaceOnUse">
<stop stop-color="#FB09C6"/>
<stop offset="1" stop-color="#35168A"/>
</linearGradient>
</defs>
</svg>
