<svg width="18" height="32" viewBox="0 0 18 32" fill="none" xmlns="http://www.w3.org/2000/svg">
<path d="M9.9648 11.4644C10.0687 11.1424 10.296 10.875 10.5967 10.721C10.8973 10.5669 11.2466 10.539 11.5678 10.6432C11.889 10.7474 12.1557 10.9753 12.3094 11.2767C12.463 11.5781 12.4909 11.9283 12.3869 12.2504L10.6349 17.6779L12.0493 18.3112L17.1735 22.9116C17.7213 23.4113 17.9011 24.1805 17.6738 24.8848L15.9649 30.1787C15.6071 31.1626 14.5652 31.6964 13.5603 31.4105L5.68845 28.8562C5.22825 28.7069 4.85106 28.3833 4.64593 27.9411L0.357966 20.9159L1.55596 20.2718C1.86837 20.0915 2.23847 20.064 2.57757 20.174L2.844 20.2605L6.04522 23.6064L9.9648 11.4644ZM3.44717 2.6426L5.90448 7.46413L6.68839 5.03573L13.9547 7.39357L14.7387 4.96517L7.47231 2.60732L8.25622 0.178923L3.44717 2.6426Z" fill="white"/>
</svg>
