<svg width="15" height="13" viewBox="0 0 15 13" fill="none" xmlns="http://www.w3.org/2000/svg">
<path d="M10.7726 0.679688C9.55456 0.679688 8.38556 1.20939 7.62256 2.04645C6.85956 1.20939 5.69056 0.679688 4.47256 0.679688C2.31656 0.679688 0.622559 2.26225 0.622559 4.27642C0.622559 6.74835 3.00256 8.76252 6.60756 11.823L7.62256 12.6797L8.63756 11.8165C12.2426 8.76252 14.6226 6.74835 14.6226 4.27642C14.6226 2.26225 12.9286 0.679688 10.7726 0.679688ZM7.69256 10.8486L7.62256 10.914L7.55256 10.8486C4.22056 8.0301 2.02256 6.16634 2.02256 4.27642C2.02256 2.96852 3.07256 1.98759 4.47256 1.98759C5.55056 1.98759 6.60056 2.635 6.97156 3.53091H8.28056C8.64456 2.635 9.69456 1.98759 10.7726 1.98759C12.1726 1.98759 13.2226 2.96852 13.2226 4.27642C13.2226 6.16634 11.0246 8.0301 7.69256 10.8486Z" fill="url(#paint0_linear)"/>
<defs>
<linearGradient id="paint0_linear" x1="3.24335" y1="-23.2276" x2="18.2444" y2="6.54901" gradientUnits="userSpaceOnUse">
<stop stop-color="#FB09C6"/>
<stop offset="1" stop-color="#35168A"/>
</linearGradient>
</defs>
</svg>
