<svg width="67" height="14" viewBox="0 0 67 14" fill="none" xmlns="http://www.w3.org/2000/svg">
<path fill-rule="evenodd" clip-rule="evenodd" d="M13.0164 6.92736C12.9251 6.92736 12.6056 6.92736 12.6056 6.92736C11.8747 6.92736 11.2813 7.50852 11.2813 8.28379C11.2813 8.91358 11.4639 9.63984 12.2403 9.63984C12.9254 9.63984 13.0626 9.05906 13.0626 8.47713V7.02384C13.0622 7.02422 13.1077 6.92736 13.0164 6.92736ZM33.8284 14.0001H32.3898C31.3573 13.8694 30.4631 13.4512 30.4631 12.4496C30.4631 11.7233 31.2395 11.19 31.8788 11.0935C31.8788 11.0935 32.0614 11.0453 31.8788 11.0453C31.6503 10.9963 30.4173 10.8998 30.0061 10.9963C30.0061 10.9963 29.9148 10.9963 29.869 10.8998C29.8235 10.8026 29.595 10.1245 29.5492 10.0763C29.5037 9.97904 29.5947 9.9308 29.5947 9.9308C30.5082 9.78532 31.3301 9.30102 31.6958 9.15554C31.9243 9.1073 31.6958 9.05906 31.6958 9.05906C30.4169 8.81633 29.138 7.89559 29.138 6.29757C29.138 4.02077 30.9194 3.00354 32.609 3.00354C33.3854 3.00354 33.842 3.14864 34.2531 3.19726C34.2531 3.19726 34.2986 3.24551 34.3445 3.14902C34.3445 3.00392 34.4816 2.6161 34.4816 2.6161C34.6643 2.03493 34.9382 1.79259 35.7601 1.79259C35.9431 1.79259 36.1258 1.79259 36.2626 1.84083C36.2626 1.84083 36.3539 1.79259 36.3539 1.93769C36.3084 1.98593 36.0341 3.14864 36.0341 3.19689C35.9882 3.34237 35.9428 3.24513 35.9428 3.24513C35.8056 3.14826 35.7598 3.10002 35.4403 3.14826C35.2577 3.14826 35.1664 3.29375 35.1664 3.48747C35.1664 3.82667 36.6279 4.31097 36.6279 6.15171C36.6279 8.62223 34.4813 9.15516 32.6086 9.63946C32.6086 9.63946 32.426 9.6877 32.6086 9.6877C33.8417 9.83318 36.3994 10.172 36.3994 11.868C36.4004 13.2966 34.8985 13.8474 33.8284 14.0001ZM15.9394 10.0763C16.0307 10.0763 16.2134 10.0763 16.3047 10.0763C16.396 10.0763 16.396 10.1728 16.396 10.1728C16.396 10.1728 16.396 10.8508 16.396 10.948C16.396 11.0935 16.2588 11.0453 16.2588 11.0453C15.7564 11.0453 13.3358 11.0453 13.3358 11.0453C13.3358 11.0453 13.2903 11.0453 13.2903 10.948C13.2449 10.7543 13.1535 10.5606 13.1535 10.4155C13.1081 10.2218 13.0164 10.4155 13.0164 10.4155C12.4226 10.8998 11.7375 11.2872 10.9156 11.2872C9.54544 11.2872 8.49506 10.3672 8.49506 8.86495C8.49506 7.02422 9.59128 6.00737 10.9615 6.00737L13.0626 5.91051C13.0626 5.91051 13.0626 5.91051 13.0626 5.81365C13.0626 5.76541 13.0626 5.57131 13.0626 5.57131C13.0626 4.94152 12.7428 4.65094 12.0577 4.65094C11.1899 4.65094 10.7788 4.99014 10.3681 5.52269C10.3681 5.52269 10.368 5.57093 10.2767 5.57093C10.1854 5.52269 9.45483 5.23172 9.45483 5.23172C9.45483 5.23172 9.36351 5.23172 9.40935 5.13486C9.45483 5.038 10.3684 2.71296 10.3684 2.71296C10.3684 2.71296 10.3684 2.6161 10.4139 2.66472C10.5507 2.71296 11.099 2.90706 11.2358 2.90706C11.3264 2.95492 11.2809 3.05178 11.2809 3.05178C11.2809 3.05178 11.2351 3.14864 11.1896 3.24551C11.1437 3.43961 11.2351 3.34275 11.2351 3.34275C11.8288 3.1004 12.4226 3.00354 13.0164 3.00354C14.7518 3.00354 15.8935 3.77843 15.8935 5.66779V9.9308C15.8935 9.9308 15.8935 10.0763 15.9394 10.0763ZM16.122 3.58471C17.3092 3.24551 18.3141 2.422 18.8166 1.25967C18.8166 1.25967 18.8166 1.21143 18.9079 1.21143C18.9992 1.21143 19.593 1.35653 19.6843 1.35653C19.7756 1.40477 19.7298 1.45339 19.7298 1.45339C19.6843 1.84083 19.6385 2.2769 19.6385 2.6161C19.6385 2.6161 19.6385 3.1004 19.6385 3.19726C19.6385 3.29413 19.7298 3.24551 19.7298 3.24551C19.7298 3.24551 20.9173 3.24551 20.9628 3.24551C21.0541 3.24551 21.0083 3.34237 21.0083 3.34237C21.0083 3.34237 20.8256 4.31135 20.8256 4.40822C20.7801 4.50508 20.7343 4.50508 20.7343 4.50508C20.7343 4.50508 19.8207 4.50508 19.7294 4.50508C19.6381 4.50508 19.6381 4.55332 19.6381 4.55332V9.05867C19.6381 9.59122 20.0489 9.6877 20.2773 9.6877C20.5058 9.6877 20.5513 9.6877 20.734 9.59122C20.734 9.59122 20.8253 9.49398 20.8253 9.59122C20.8708 9.6877 21.0996 10.3175 21.1451 10.4147C21.1906 10.463 21.0996 10.5112 21.0996 10.5112C20.1405 11.2382 20.0489 11.2865 18.7704 11.2865C17.3543 11.2865 16.8522 10.5602 16.8522 9.2034V4.5537C16.8522 4.5537 16.8522 4.50546 16.7609 4.50546C16.6241 4.50546 16.1217 4.50546 16.1217 4.50546C16.1217 4.50546 16.0758 4.50546 16.0758 4.4086C16.0758 4.21487 16.0758 3.77881 16.0758 3.68195C16.0762 3.63333 16.122 3.58471 16.122 3.58471ZM36.9484 7.12146C36.9484 4.60232 38.821 3.00392 41.2871 3.00392C43.7531 3.00392 45.6716 4.60232 45.6716 7.12146C45.6716 9.73746 43.7535 11.2872 41.2871 11.2872C38.8207 11.2872 36.9484 9.73708 36.9484 7.12146ZM39.7797 6.00699C39.7797 7.1697 40.2363 10.0763 41.7891 10.0763C42.6114 10.0763 42.8399 9.15554 42.8399 8.28379C42.8399 7.12108 42.3833 4.21449 40.7846 4.21449C39.7797 4.21449 39.7797 5.42544 39.7797 6.00699ZM54.3493 11.0453H50.5127C50.5127 11.0453 50.4672 11.0453 50.4672 10.9963C50.4672 10.8998 50.4672 10.2218 50.4672 10.1728C50.4672 10.0763 50.5585 10.0763 50.5585 10.0763C50.5585 10.0763 50.9242 10.0763 51.0151 10.0763C51.0606 10.0763 51.0606 10.0273 51.0606 10.0273V5.61917C51.0606 5.13486 50.6498 4.94076 50.2387 4.94076C49.7363 4.94076 49.3706 5.1831 49.0057 5.52231C49.0057 5.52231 48.9599 5.57055 48.9599 5.61917C48.9599 5.71603 48.9599 10.0269 48.9599 10.0269C48.9599 10.0269 48.9599 10.0759 49.0057 10.0759C49.097 10.0759 49.5078 10.0759 49.5078 10.0759C49.5078 10.0759 49.5536 10.0759 49.5536 10.1724C49.5536 10.2696 49.5536 10.9477 49.5536 10.9959C49.5536 11.0449 49.5078 11.0449 49.5078 11.0449H45.6716C45.6716 11.0449 45.6257 11.0931 45.6257 10.9477C45.6257 10.8994 45.6257 10.2214 45.6257 10.1724C45.6257 10.0759 45.6716 10.0759 45.6716 10.0759C45.6716 10.0759 46.0368 10.0759 46.0823 10.0759C46.1737 10.0759 46.1282 10.0269 46.1282 10.0269V4.84428C46.1282 4.84428 46.1737 4.74742 46.0823 4.74742C45.9452 4.79566 45.6716 4.8929 45.6716 4.8929C45.6716 4.8929 45.6257 4.94114 45.6257 4.84428C45.6257 4.74742 45.6257 4.11763 45.6257 4.02077C45.6257 3.92391 45.6716 3.97253 45.6716 3.97253L48.914 3.05216C48.914 3.05216 49.0057 3.00392 49.0057 3.10078C49.0057 3.14902 49.0057 4.11801 49.0057 4.21487C49.0057 4.36035 49.0512 4.26311 49.0512 4.26311C49.8276 3.63333 50.604 3.00392 51.6547 3.00392C53.6183 3.00392 53.8927 4.4086 53.8927 5.28072V10.0277C53.8927 10.0277 53.8468 10.0767 53.9381 10.0767C53.984 10.0767 54.3493 10.0767 54.3493 10.0767C54.3493 10.0767 54.3947 10.0767 54.3947 10.1731C54.3947 10.2704 54.3947 10.9002 54.3947 10.9484C54.3947 11.0935 54.3493 11.0453 54.3493 11.0453ZM58.2313 3.05178L54.9885 3.97215C54.9885 3.97215 54.9427 3.97215 54.9427 4.06901C54.9427 4.11725 54.9427 4.74742 54.9427 4.84428C54.9427 4.94114 55.0344 4.8929 55.0344 4.8929C55.0344 4.8929 55.2628 4.84428 55.4451 4.79604C55.5364 4.79604 55.491 4.8929 55.491 4.94114C55.491 5.038 55.491 10.0273 55.491 10.0273C55.491 10.0273 55.5364 10.0763 55.4451 10.0763C55.3538 10.0763 54.9885 10.0763 54.9885 10.0763C54.9885 10.0763 54.8972 10.0763 54.8972 10.1728C54.8972 10.27 54.8972 10.8998 54.8972 10.9963C54.8972 11.0935 54.9885 11.0453 54.9885 11.0453C54.9885 11.0453 58.6421 11.0453 58.7793 11.0453C58.8706 11.0453 58.8251 10.948 58.8251 10.948C58.8251 10.948 58.8251 10.3182 58.8251 10.1728C58.8251 10.0763 58.7334 10.0763 58.7334 10.0763C58.7334 10.0763 58.5053 10.0763 58.3681 10.0763C58.2768 10.0763 58.3223 10.0273 58.3223 10.0273C58.3223 10.0273 58.3223 3.19726 58.3223 3.1004C58.3223 3.00354 58.2313 3.05178 58.2313 3.05178ZM57.0893 0.629883C57.7289 0.629883 58.4595 0.823604 58.4595 1.64711C58.4595 2.6161 57.2264 3.00354 56.45 3.00354C55.8108 3.00354 55.3993 2.66434 55.3993 1.98631C55.3993 1.21105 56.4042 0.629883 57.0893 0.629883ZM25.713 6.92736C25.622 6.92736 25.3477 6.92736 25.3477 6.92736C24.5713 6.92736 24.0233 7.50852 24.0233 8.28379C24.0233 8.91358 24.206 9.63984 24.9369 9.63984C25.6678 9.63984 25.8046 9.05906 25.8046 8.47713V7.02384C25.8043 7.02422 25.8043 6.92736 25.713 6.92736ZM28.6818 10.0763C28.7731 10.0763 28.9558 10.0763 29.0016 10.0763C29.1388 10.0763 29.1388 10.1728 29.1388 10.1728C29.1388 10.1728 29.1388 10.8508 29.1388 10.948C29.1388 11.0935 29.0016 11.0453 29.0016 11.0453C28.4537 11.0453 26.0786 11.0453 26.0786 11.0453C26.0786 11.0453 26.0331 11.0453 25.9873 10.948C25.9418 10.7543 25.896 10.5606 25.896 10.4155C25.8505 10.2218 25.7591 10.4155 25.7591 10.4155C25.1195 10.8998 24.4803 11.2872 23.6584 11.2872C22.2424 11.2872 21.192 10.3672 21.192 8.86495C21.192 7.02422 22.3337 5.95875 23.7039 5.95875L25.7591 5.91051C25.7591 5.91051 25.8046 5.91051 25.8046 5.81365C25.8046 5.76541 25.8046 5.57131 25.8046 5.57131C25.8046 4.94152 25.4848 4.65094 24.7997 4.65094C23.932 4.65094 23.5209 4.99014 23.1097 5.52269C23.1097 5.52269 23.0643 5.57093 23.0184 5.52269C22.9271 5.52269 22.1507 5.2321 22.1507 5.2321C22.1507 5.2321 22.1052 5.2321 22.1507 5.13524C22.1965 5.03838 23.0643 2.71334 23.0643 2.71334C23.0643 2.71334 23.0643 2.61648 23.1556 2.6651C23.2469 2.71334 23.8407 2.90744 23.932 2.90744C24.0233 2.95568 23.9778 3.05254 23.9778 3.05254C23.9778 3.05254 23.9778 3.1494 23.932 3.24626C23.8403 3.43961 23.9775 3.34275 23.9775 3.34275C24.5713 3.1004 25.165 3.00354 25.7588 3.00354C27.4943 3.00354 28.636 3.77843 28.636 5.66779V9.9308C28.636 9.9308 28.5901 10.0763 28.6818 10.0763ZM31.6961 5.08662C31.6961 5.95837 32.1527 8.33203 33.2944 8.33203C33.8882 8.33203 34.1163 8.04107 34.1163 7.26656C34.1163 6.39443 33.6139 4.02077 32.4722 4.02077C31.9246 4.02077 31.6961 4.31173 31.6961 5.08662ZM32.8833 11.4323C32.7465 11.5778 32.6548 12.1104 32.6548 12.4496C32.6548 12.837 32.8375 13.2731 33.2944 13.2731C33.6597 13.2731 33.8882 13.0794 33.8882 12.6923C33.8882 11.9653 33.4774 11.7233 32.9746 11.3845C32.9746 11.3841 32.9291 11.3841 32.8833 11.4323ZM63.3464 6.92736C63.2551 6.92736 62.9808 6.92736 62.9808 6.92736C62.2047 6.92736 61.6564 7.50852 61.6564 8.28379C61.6564 8.91358 61.8394 9.63984 62.57 9.63984C63.3009 9.63984 63.4377 9.05906 63.4377 8.47713V7.02384C63.4377 7.02422 63.4377 6.92736 63.3464 6.92736ZM66.3153 10.0763C66.4066 10.0763 66.5892 10.0763 66.6806 10.0763C66.7722 10.0763 66.7722 10.1728 66.7722 10.1728C66.7722 10.1728 66.7722 10.8508 66.7722 10.948C66.7722 11.0935 66.6351 11.0453 66.6351 11.0453C66.0871 11.0453 63.7121 11.0453 63.7121 11.0453C63.7121 11.0453 63.6662 11.0453 63.6207 10.948C63.5749 10.7543 63.5294 10.5606 63.5294 10.4155C63.4836 10.2218 63.3923 10.4155 63.3923 10.4155C62.753 10.8998 62.1134 11.2872 61.2915 11.2872C59.8755 11.2872 58.8251 10.3672 58.8251 8.86495C58.8251 7.02422 59.9668 5.95875 61.337 5.95875L63.3923 5.91051C63.3923 5.91051 63.4377 5.91051 63.4377 5.81365C63.4377 5.76541 63.4377 5.57131 63.4377 5.57131C63.4377 4.94152 63.1179 4.65094 62.4328 4.65094C61.5651 4.65094 61.1543 4.99014 60.7429 5.52269C60.7429 5.52269 60.6974 5.57093 60.6515 5.52269C60.5602 5.52269 59.8296 5.2321 59.8296 5.2321C59.8296 5.2321 59.738 5.2321 59.7838 5.13524C59.8296 5.03838 60.6974 2.71334 60.6974 2.71334C60.6974 2.71334 60.6974 2.61648 60.7887 2.6651C60.88 2.71372 61.4738 2.90744 61.5651 2.90744C61.6564 2.95568 61.6564 3.05254 61.6564 3.05254C61.6564 3.05254 61.611 3.1494 61.5651 3.24626C61.4738 3.43999 61.6109 3.34313 61.6109 3.34313C62.2047 3.10078 62.7981 3.00392 63.3923 3.00392C65.1277 3.00392 66.2694 3.77881 66.2694 5.66817V9.93118C66.2694 9.9308 66.2694 10.0763 66.3153 10.0763ZM3.37962 4.8929C3.37962 4.98976 3.37962 8.81671 3.37962 8.81671C3.37962 9.49474 3.6081 10.0763 4.33867 10.0763C5.25189 10.0763 5.66302 9.49474 5.66302 7.70224C5.66302 4.84428 4.29283 4.69918 3.83587 4.69918L3.47058 4.74742C3.47094 4.74742 3.37962 4.79566 3.37962 4.8929ZM3.4251 3.73019C4.11019 3.29451 4.61264 3.00354 5.29773 3.00354C7.07904 3.00354 8.4947 4.5537 8.4947 6.8305C8.4947 9.05906 7.17036 11.2869 4.8866 11.2869C4.43 11.2869 3.83587 11.2386 3.4251 10.9959C3.4251 10.9959 3.37962 10.9959 3.37962 11.0449C3.37962 11.1414 3.37962 12.4492 3.37962 12.4492C3.37962 12.4492 3.37962 12.5464 3.47094 12.5464C3.56226 12.5464 4.29283 12.5464 4.29283 12.5464C4.29283 12.5464 4.38415 12.5464 4.38415 12.6429C4.38415 12.8366 4.38415 13.3209 4.38415 13.4182C4.38415 13.4664 4.29283 13.5154 4.29283 13.5154H0.136803C0.136803 13.5154 0 13.5154 0 13.4182C0 13.4159 0 13.4136 0 13.4106C0 13.4083 0 13.406 0 13.403C0 13.3999 0 13.3977 0 13.395C0 13.3923 0 13.3897 0 13.387C0 13.3844 0 13.3809 0 13.3783C0 13.3745 0 13.3722 0 13.3688C0 13.3658 0 13.3627 0 13.3593C0 13.3563 0 13.3525 0 13.3498C0 13.346 0 13.3422 0 13.3388C0 13.3354 0 13.3319 0 13.3285C0 13.3251 0 13.3206 0 13.3175C0 13.313 0 13.3095 0 13.3057C0 13.3019 0 13.2978 0 13.294C0 13.2902 0 13.286 0 13.2822C0 13.2776 0 13.2742 0 13.2697C0 13.2651 0 13.2605 0 13.2567C0 13.2522 0 13.248 0 13.2434C0 13.2389 0 13.2347 0 13.2301C0 13.2256 0 13.2214 0 13.2169C0 13.2123 0 13.2081 0 13.2036C0 13.199 0 13.1941 0 13.1895C0 13.1849 0 13.1808 0 13.1762C0 13.1709 0 13.1667 0 13.1614C0 13.1568 0 13.1527 0 13.1481C0 13.1428 0 13.1378 0 13.1333C0 13.128 0 13.1238 0 13.1185C0 13.1139 0 13.109 0 13.1044C0 13.0991 0 13.0949 0 13.0904C0 13.085 0 13.0801 0 13.0756C0 13.0702 0 13.0653 0 13.0607C0 13.0554 0 13.0505 0 13.0459C0 13.0406 0 13.0364 0 13.0311C0 13.0266 0 13.0216 0 13.0163C0 13.0117 0 13.0068 0 13.0015C0 12.9969 0 12.992 0 12.9867C0 12.9821 0 12.9772 0 12.9719C0 12.9673 0 12.9624 0 12.957C0 12.9525 0 12.9483 0 12.943C0 12.9384 0 12.9335 0 12.9289C0 12.9236 0 12.9194 0 12.9149C0 12.9096 0 12.9054 0 12.9001C0 12.8955 0 12.8913 0 12.886C0 12.8814 0 12.8773 0 12.8727C0 12.8674 0 12.8632 0 12.8587C0 12.8541 0 12.8499 0 12.8454C0 12.8408 0 12.8366 0 12.8321C0 12.8275 0 12.8233 0 12.8188C0 12.8142 0 12.8108 0 12.8062C0 12.8024 0 12.7983 0 12.7937C0 12.7891 0 12.7857 0 12.7812C0 12.7774 0 12.7732 0 12.7694C0 12.7656 0 12.7614 0 12.7576C0 12.7538 0 12.7496 0 12.7458C0 12.742 0 12.7382 0 12.7348C0 12.7318 0 12.728 0 12.7246C0 12.7212 0 12.717 0 12.7143C0 12.7105 0 12.7067 0 12.7041C0 12.7014 0 12.6972 0 12.6946C0 12.6919 0 12.6885 0 12.6858C0 12.682 0 12.6798 0 12.6771C0 12.6744 0 12.671 0 12.6684C0 12.6661 0 12.663 0 12.6608C0 12.6577 0 12.6554 0 12.6528C0 12.6505 0 12.6482 0 12.6459C0 12.5495 0.0913216 12.5495 0.0913216 12.5495C0.0913216 12.5495 0.365287 12.5495 0.456608 12.5495C0.54793 12.5495 0.54793 12.4522 0.54793 12.4522C0.54793 12.4522 0.54793 4.9438 0.54793 4.84694C0.54793 4.75008 0.456608 4.7987 0.456608 4.7987L0.0913216 4.89556C0.0913216 4.89556 0 4.89556 0 4.7987C0 4.79718 0 4.79566 0 4.79338C0 4.79186 0 4.78996 0 4.78806C0 4.78616 0 4.78388 0 4.78122C0 4.77933 0 4.77705 0 4.77439C0 4.77173 0 4.76945 0 4.76679C0 4.76413 0 4.76185 0 4.75881C0 4.75616 0 4.75312 0 4.75008C0 4.74704 0 4.744 0 4.74096C0 4.73792 0 4.73412 0 4.73108C0 4.72805 0 4.72463 0 4.72121C0 4.71779 0 4.71361 0 4.71019C0 4.70677 0 4.70298 0 4.69918C0 4.69538 0 4.6912 0 4.6874C0 4.6836 0 4.67943 0 4.67563C0 4.67183 0 4.66765 0 4.66309C0 4.65891 0 4.65474 0 4.65056C0 4.646 0 4.64144 0 4.63688C0 4.63232 0 4.62815 0 4.62359C0 4.61903 0 4.61447 0 4.60953C0 4.60498 0 4.60042 0 4.59548C0 4.59092 0 4.5856 0 4.58067C0 4.57573 0 4.57117 0 4.56623C0 4.56129 0 4.55636 0 4.55142C0 4.54648 0 4.54154 0 4.53622C0 4.53091 0 4.52597 0 4.52065C0 4.51533 0 4.51039 0 4.50508C0 4.49976 0 4.49482 0 4.48912C0 4.4838 0 4.47887 0 4.47355C0 4.46823 0 4.46291 0 4.4576C0 4.45228 0 4.44734 0 4.44164C0 4.43594 0 4.43101 0 4.42569C0 4.42037 0 4.41543 0 4.41011C0 4.4048 0 4.3991 0 4.39416C0 4.38884 0 4.38353 0 4.37821C0 4.37289 0 4.36757 0 4.36225C0 4.35694 0 4.352 0 4.34668C0 4.34136 0 4.33604 0 4.33073C0 4.32541 0 4.32047 0 4.31515C0 4.30984 0 4.3049 0 4.29958C0 4.29426 0 4.2897 0 4.28439C0 4.27945 0 4.27413 0 4.26919C0 4.26425 0 4.25932 0 4.254C0 4.24906 0 4.2445 0 4.23918C0 4.23463 0 4.22969 0 4.22475C0 4.22019 0 4.21525 0 4.21032C0 4.20576 0 4.2012 0 4.19664C0 4.19208 0 4.18752 0 4.18297C0 4.17841 0 4.17423 0 4.17005C0 4.16587 0 4.16132 0 4.15676C0 4.15258 0 4.1484 0 4.14422C0 4.14004 0 4.13587 0 4.13169C0 4.12751 0 4.12409 0 4.12029C0 4.11649 0 4.11232 0 4.1089C0 4.10548 0 4.10168 0 4.09826C0 4.09484 0 4.09142 0 4.08801C0 4.08459 0 4.08155 0 4.07851C0 4.07547 0 4.07243 0 4.06939C0 4.06635 0 4.06369 0 4.06066C0 4.05762 0 4.05496 0 4.05268C0 4.05002 0 4.04774 0 4.04508C0 4.04242 0 4.04014 0 4.03824C0 4.03597 0 4.03407 0 4.03217C0 4.03027 0 4.02837 0 4.02647C0 4.02495 0 4.02343 0 4.02191C0 3.92505 0.0913216 3.92505 0.0913216 3.92505L3.2883 3.05292C3.2883 3.05292 3.37962 3.00468 3.37962 3.10154C3.37962 3.1984 3.37962 3.63447 3.37962 3.68271C3.37962 3.77843 3.4251 3.73019 3.4251 3.73019Z" fill="black"/>
</svg>
