<svg width="12" height="12" viewBox="0 0 12 12" fill="none" xmlns="http://www.w3.org/2000/svg">
<path d="M11.1171 3.56032L11.0225 3.59154C10.654 2.79958 10.1277 2.16911 9.44375 1.70013C8.7703 1.23142 7.92309 0.997062 6.90212 0.997062C6.33409 0.997062 5.7922 1.11691 5.27646 1.35661C4.76072 1.58562 4.3082 1.9138 3.91891 2.34115C3.53985 2.75781 3.23466 3.26323 3.00336 3.8574C2.77177 4.45103 2.65598 5.10739 2.65598 5.82649C2.65598 6.5453 2.77177 7.20166 3.00336 7.79556C3.23466 8.38946 3.53985 8.90009 3.91891 9.32743C4.3082 9.74409 4.76058 10.0671 5.27605 10.2964C5.79206 10.5256 6.33409 10.6403 6.90212 10.6403C7.91258 10.6403 8.7335 10.484 9.36489 10.1714C10.0068 9.84819 10.5488 9.35839 10.991 8.70203L11.0856 8.73326L11.0541 9.73341C10.812 9.98352 10.5331 10.2076 10.2174 10.4057C9.90194 10.5933 9.55996 10.7549 9.19141 10.8905C8.83366 11.0152 8.46014 11.1089 8.07084 11.1716C7.68127 11.2445 7.29183 11.2809 6.90254 11.2809C6.09185 11.2809 5.31824 11.1508 4.5817 10.8905C3.84517 10.6297 3.198 10.265 2.64021 9.79628C2.08241 9.31689 1.64041 8.7438 1.3142 8.07703C0.987707 7.39986 0.824463 6.64968 0.824463 5.82649C0.824463 5.0033 0.987707 4.25818 1.3142 3.59114C1.64068 2.91396 2.08269 2.3358 2.64021 1.85668C3.198 1.37729 3.84517 1.01254 4.5817 0.762433C5.31852 0.50219 6.09213 0.37207 6.90254 0.37207C7.29183 0.37207 7.68113 0.403165 8.07043 0.465349C8.46 0.528081 8.83352 0.627107 9.191 0.762433C9.55954 0.887624 9.90166 1.04925 10.2174 1.24731C10.5331 1.43468 10.812 1.65343 11.0541 1.90353L11.1171 3.56032Z" fill="black"/>
</svg>
