<svg width="15" height="13" viewBox="0 0 15 13" fill="none" xmlns="http://www.w3.org/2000/svg">
<path d="M10.701 0.139648C9.48303 0.139648 8.31403 0.669349 7.55103 1.50641C6.78803 0.669349 5.61903 0.139648 4.40103 0.139648C2.24503 0.139648 0.551025 1.72221 0.551025 3.73638C0.551025 6.20831 2.93103 8.22248 6.53603 11.283L7.55103 12.1396L8.56602 11.2764C12.171 8.22248 14.551 6.20831 14.551 3.73638C14.551 1.72221 12.857 0.139648 10.701 0.139648ZM7.62103 10.3086L7.55103 10.374L7.48103 10.3086C4.14902 7.49006 1.95103 5.6263 1.95103 3.73638C1.95103 2.42848 3.00103 1.44755 4.40103 1.44755C5.47903 1.44755 6.52903 2.09496 6.90002 2.99087H8.20902C8.57302 2.09496 9.62302 1.44755 10.701 1.44755C12.101 1.44755 13.151 2.42848 13.151 3.73638C13.151 5.6263 10.953 7.49006 7.62103 10.3086Z" fill="url(#paint0_linear)"/>
<defs>
<linearGradient id="paint0_linear" x1="3.17181" y1="-23.7677" x2="18.1729" y2="6.00897" gradientUnits="userSpaceOnUse">
<stop stop-color="#FB09C6"/>
<stop offset="1" stop-color="#35168A"/>
</linearGradient>
</defs>
</svg>
