<svg width="15" height="13" viewBox="0 0 15 13" fill="none" xmlns="http://www.w3.org/2000/svg">
<path d="M10.7726 0.147461C9.55456 0.147461 8.38556 0.677161 7.62256 1.51422C6.85956 0.677161 5.69056 0.147461 4.47256 0.147461C2.31656 0.147461 0.622559 1.73002 0.622559 3.74419C0.622559 6.21613 3.00256 8.2303 6.60756 11.2908L7.62256 12.1475L8.63756 11.2842C12.2426 8.2303 14.6226 6.21613 14.6226 3.74419C14.6226 1.73002 12.9286 0.147461 10.7726 0.147461ZM7.69256 10.3164L7.62256 10.3818L7.55256 10.3164C4.22056 7.49787 2.02256 5.63411 2.02256 3.74419C2.02256 2.43629 3.07256 1.45536 4.47256 1.45536C5.55056 1.45536 6.60056 2.10277 6.97156 2.99869H8.28056C8.64456 2.10277 9.69456 1.45536 10.7726 1.45536C12.1726 1.45536 13.2226 2.43629 13.2226 3.74419C13.2226 5.63411 11.0246 7.49787 7.69256 10.3164Z" fill="url(#paint0_linear)"/>
<defs>
<linearGradient id="paint0_linear" x1="3.24335" y1="-23.7599" x2="18.2444" y2="6.01678" gradientUnits="userSpaceOnUse">
<stop stop-color="#FB09C6"/>
<stop offset="1" stop-color="#35168A"/>
</linearGradient>
</defs>
</svg>
