<svg width="26" height="23" viewBox="0 0 26 23" fill="none" xmlns="http://www.w3.org/2000/svg">
<path d="M23.1786 4.279H19.1578L18.1999 1.59454C18.1338 1.41085 18.0125 1.25207 17.8527 1.13989C17.6929 1.02771 17.5023 0.967601 17.3071 0.967774H8.23668C7.83756 0.967774 7.47983 1.21907 7.34679 1.59454L6.38594 4.279H2.36516C1.05841 4.279 0 5.33741 0 6.64417V20.1256C0 21.4324 1.05841 22.4908 2.36516 22.4908H23.1786C24.4854 22.4908 25.5438 21.4324 25.5438 20.1256V6.64417C25.5438 5.33741 24.4854 4.279 23.1786 4.279ZM23.4151 20.1256C23.4151 20.2557 23.3087 20.3621 23.1786 20.3621H2.36516C2.23508 20.3621 2.12865 20.2557 2.12865 20.1256V6.64417C2.12865 6.51408 2.23508 6.40765 2.36516 6.40765H7.88486L8.39042 4.99447L9.06745 3.09642H16.4734L17.1504 4.99447L17.6559 6.40765H23.1786C23.3087 6.40765 23.4151 6.51408 23.4151 6.64417V20.1256ZM12.7719 8.29978C10.1584 8.29978 8.04156 10.4166 8.04156 13.0301C8.04156 15.6436 10.1584 17.7604 12.7719 17.7604C15.3854 17.7604 17.5022 15.6436 17.5022 13.0301C17.5022 10.4166 15.3854 8.29978 12.7719 8.29978ZM12.7719 15.8683C11.205 15.8683 9.93369 14.597 9.93369 13.0301C9.93369 11.4632 11.205 10.1919 12.7719 10.1919C14.3388 10.1919 15.6101 11.4632 15.6101 13.0301C15.6101 14.597 14.3388 15.8683 12.7719 15.8683Z" fill="#696767"/>
</svg>
