<svg width="23" height="26" viewBox="0 0 23 26" fill="none" xmlns="http://www.w3.org/2000/svg">
<path d="M22.7967 0.619618C22.5514 0.741029 22.3062 0.899177 22.0609 1.09407C21.815 1.28833 21.6798 1.65287 21.6553 2.18772C21.6327 2.77113 21.6082 3.51238 21.5817 4.41145C21.5817 5.28689 21.5707 6.28373 21.5488 7.40198C21.5488 8.5196 21.5375 9.73467 21.5149 11.0472V15.1304C21.4923 16.71 21.2958 18.059 20.9253 19.1772C20.5574 20.2955 20.0666 21.231 19.4528 21.9837C18.8636 22.7377 18.2008 23.3333 17.4643 23.7704C16.7525 24.2081 16.0406 24.5362 15.3287 24.7547C14.6413 24.9976 13.9908 25.1436 13.377 25.1928C12.7632 25.2656 12.2843 25.302 11.9403 25.302C10.5411 25.302 9.19089 25.1199 7.88975 24.7557C6.58861 24.4151 5.44721 23.856 4.46555 23.0783C3.48389 22.3 2.69843 21.2913 2.10917 20.0523C1.51992 18.8127 1.22529 17.3056 1.22529 15.5311V11.4114V7.61957C1.22529 6.45339 1.21399 5.40861 1.1914 4.48526C1.1914 3.53698 1.18011 2.77113 1.15752 2.18772C1.13558 1.65287 1.00069 1.28864 0.752853 1.09502C0.507598 0.900128 0.262344 0.741668 0.0170898 0.619618L0.0500059 0.4375C0.172633 0.459865 0.369482 0.484136 0.640553 0.510336C0.934858 0.532701 1.22916 0.556987 1.52347 0.583186C1.84294 0.583186 2.14951 0.594372 2.44317 0.616737H3.76948C4.06443 0.594372 4.37132 0.583186 4.69015 0.583186C5.00963 0.560821 5.30425 0.536535 5.57403 0.510336C5.86834 0.48797 6.0768 0.463699 6.19943 0.4375L6.23331 0.619618C5.96353 0.741029 5.7057 0.899177 5.4598 1.09407C5.23907 1.28833 5.11644 1.65287 5.09191 2.18772C5.06932 2.77113 5.0448 3.53666 5.01834 4.4843V15.5311C5.01834 18.1804 5.64438 20.137 6.89647 21.4009C8.14856 22.6649 10.0018 23.2969 12.4563 23.2969C13.1682 23.2969 13.9782 23.2116 14.8863 23.0409C15.795 22.8467 16.6421 22.4578 17.4276 21.8744C18.2375 21.291 18.9126 20.4648 19.4528 19.3957C20.0176 18.3261 20.2999 16.9043 20.2999 15.1304C20.2999 13.2102 20.2886 11.5696 20.266 10.2085C20.266 8.82313 20.2548 7.64417 20.2322 6.67161C20.2322 5.67476 20.2209 4.82425 20.1983 4.12007C20.1763 3.41525 20.1518 2.77113 20.1247 2.18772C20.1028 1.65287 19.9679 1.28833 19.72 1.09407C19.4748 0.899816 19.2295 0.741668 18.9843 0.619618L19.0172 0.4375C19.2876 0.486064 19.5945 0.534948 19.9379 0.584151C20.2819 0.605877 20.6013 0.616737 20.8963 0.616737C21.1654 0.616737 21.472 0.605877 21.816 0.584151C22.1839 0.535587 22.503 0.486703 22.7734 0.4375L22.7967 0.619618Z" fill="black"/>
</svg>
