<svg width="20" height="17" viewBox="0 0 20 17" fill="none" xmlns="http://www.w3.org/2000/svg">
<path d="M1.88341 2.38484C1.90352 2.13425 2.01729 1.90042 2.20205 1.72993C2.38681 1.55944 2.62901 1.46479 2.88041 1.46484H16.7844C17.0358 1.46479 17.278 1.55944 17.4628 1.72993C17.6475 1.90042 17.7613 2.13425 17.7814 2.38484L18.6584 13.3048C18.6805 13.58 18.6454 13.8568 18.5552 14.1178C18.4651 14.3787 18.3219 14.6182 18.1347 14.8211C17.9475 15.024 17.7203 15.1859 17.4674 15.2967C17.2146 15.4075 16.9415 15.4648 16.6654 15.4648H2.99941C2.72333 15.4648 2.45026 15.4075 2.19739 15.2967C1.94452 15.1859 1.71732 15.024 1.53011 14.8211C1.34289 14.6182 1.19971 14.3787 1.10958 14.1178C1.01945 13.8568 0.984324 13.58 1.00641 13.3048L1.88241 2.38484H1.88341Z" stroke="white" stroke-width="2" stroke-linecap="round" stroke-linejoin="round"/>
</svg>
