<svg width="15" height="13" viewBox="0 0 15 13" fill="none" xmlns="http://www.w3.org/2000/svg">
<path d="M10.858 0.591797C9.64001 0.591797 8.47101 1.1215 7.70801 1.95855C6.94501 1.1215 5.77601 0.591797 4.55801 0.591797C2.40201 0.591797 0.708008 2.17436 0.708008 4.18853C0.708008 6.66046 3.08801 8.67463 6.69301 11.7351L7.70801 12.5918L8.72301 11.7286C12.328 8.67463 14.708 6.66046 14.708 4.18853C14.708 2.17436 13.014 0.591797 10.858 0.591797ZM7.77801 10.7607L7.70801 10.8261L7.63801 10.7607C4.30601 7.9422 2.10801 6.07845 2.10801 4.18853C2.10801 2.88063 3.15801 1.8997 4.55801 1.8997C5.63601 1.8997 6.68601 2.54711 7.05701 3.44302H8.36601C8.73001 2.54711 9.78001 1.8997 10.858 1.8997C12.258 1.8997 13.308 2.88063 13.308 4.18853C13.308 6.07845 11.11 7.9422 7.77801 10.7607Z" fill="url(#paint0_linear)"/>
<defs>
<linearGradient id="paint0_linear" x1="3.3288" y1="-23.3155" x2="18.3299" y2="6.46112" gradientUnits="userSpaceOnUse">
<stop stop-color="#FB09C6"/>
<stop offset="1" stop-color="#35168A"/>
</linearGradient>
</defs>
</svg>
