<svg width="24" height="24" viewBox="0 0 24 24" fill="none" xmlns="http://www.w3.org/2000/svg">
<path fill-rule="evenodd" clip-rule="evenodd" d="M11.7003 0.0263672C5.27077 0.0263672 0.0583496 5.23879 0.0583496 11.6683C0.0583496 18.0979 5.27077 23.3103 11.7003 23.3103C18.1298 23.3103 23.3423 18.0979 23.3423 11.6683C23.3423 5.23879 18.1298 0.0263672 11.7003 0.0263672ZM2.17507 11.6683C2.17507 13.8803 2.92968 15.9166 4.19442 17.5338C5.08263 16.3673 6.22848 15.4221 7.54247 14.7718C8.85646 14.1215 10.303 13.7838 11.7691 13.785C13.2162 13.7837 14.6446 14.1126 15.9453 14.7469C17.2461 15.3811 18.3849 16.3039 19.275 17.4449C20.192 16.2421 20.8094 14.8383 21.0762 13.3496C21.343 11.8609 21.2514 10.3301 20.8091 8.88377C20.3668 7.43746 19.5864 6.11728 18.5325 5.03245C17.4787 3.94762 16.1817 3.12933 14.7488 2.64529C13.3159 2.16125 11.7884 2.02537 10.2925 2.24889C8.79672 2.47242 7.37563 3.04893 6.14685 3.93071C4.91807 4.8125 3.91693 5.97421 3.22626 7.31973C2.5356 8.66525 2.17526 10.1559 2.17507 11.6683ZM11.7003 21.1936C9.51369 21.1968 7.39307 20.4446 5.69729 19.0641C6.37986 18.087 7.28836 17.2892 8.34551 16.7386C9.40266 16.188 10.5772 15.9009 11.7691 15.9018C12.9462 15.9008 14.1065 16.1807 15.1537 16.7182C16.2008 17.2557 17.1047 18.0353 17.7901 18.9922C16.0812 20.4175 13.9256 21.1967 11.7003 21.1936Z" fill="#696767"/>
</svg>
