<svg width="15" height="13" viewBox="0 0 15 13" fill="none" xmlns="http://www.w3.org/2000/svg">
<path d="M10.4856 0.481445C9.26757 0.481445 8.09857 1.01115 7.33557 1.8482C6.57257 1.01115 5.40357 0.481445 4.18557 0.481445C2.02957 0.481445 0.335571 2.06401 0.335571 4.07818C0.335571 6.55011 2.71557 8.56428 6.32057 11.6248L7.33557 12.4814L8.35057 11.6182C11.9556 8.56428 14.3356 6.55011 14.3356 4.07818C14.3356 2.06401 12.6416 0.481445 10.4856 0.481445ZM7.40557 10.6504L7.33557 10.7158L7.26557 10.6504C3.93357 7.83185 1.73557 5.96809 1.73557 4.07818C1.73557 2.77027 2.78557 1.78935 4.18557 1.78935C5.26357 1.78935 6.31357 2.43676 6.68457 3.33267H7.99357C8.35757 2.43676 9.40757 1.78935 10.4856 1.78935C11.8856 1.78935 12.9356 2.77027 12.9356 4.07818C12.9356 5.96809 10.7376 7.83185 7.40557 10.6504Z" fill="url(#paint0_linear)"/>
<defs>
<linearGradient id="paint0_linear" x1="2.95636" y1="-23.4259" x2="17.9575" y2="6.35076" gradientUnits="userSpaceOnUse">
<stop stop-color="#FB09C6"/>
<stop offset="1" stop-color="#35168A"/>
</linearGradient>
</defs>
</svg>
