<svg width="18" height="16" viewBox="0 0 18 16" fill="none" xmlns="http://www.w3.org/2000/svg">
<path d="M12.8609 0.425781C11.3638 0.425781 9.92697 1.07685 8.98914 2.10571C8.05132 1.07685 6.61446 0.425781 5.11738 0.425781C2.46737 0.425781 0.385223 2.37096 0.385223 4.84663C0.385223 7.88497 3.31056 10.3606 7.74157 14.1224L8.98914 15.1754L10.2367 14.1144C14.6677 10.3606 17.5931 7.88497 17.5931 4.84663C17.5931 2.37096 15.5109 0.425781 12.8609 0.425781ZM9.07518 12.9247L8.98914 13.0051L8.9031 12.9247C4.80764 9.4604 2.10601 7.16959 2.10601 4.84663C2.10601 3.23905 3.3966 2.03336 5.11738 2.03336C6.44238 2.03336 7.73297 2.82912 8.18898 3.93031H9.79791C10.2453 2.82912 11.5359 2.03336 12.8609 2.03336C14.5817 2.03336 15.8723 3.23905 15.8723 4.84663C15.8723 7.16959 13.1706 9.4604 9.07518 12.9247Z" fill="url(#paint0_linear)"/>
<defs>
<linearGradient id="paint0_linear" x1="3.60652" y1="-28.9595" x2="22.0448" y2="7.63995" gradientUnits="userSpaceOnUse">
<stop stop-color="#FB09C6"/>
<stop offset="1" stop-color="#35168A"/>
</linearGradient>
</defs>
</svg>
