<svg width="26" height="26" viewBox="0 0 26 26" fill="none" xmlns="http://www.w3.org/2000/svg">
<path d="M24.7529 11.8861L13.6608 0.793974C13.5465 0.679423 13.4107 0.588544 13.2612 0.526539C13.1116 0.464533 12.9514 0.432617 12.7895 0.432617C12.6276 0.432617 12.4674 0.464533 12.3178 0.526539C12.1683 0.588544 12.0325 0.679423 11.9182 0.793974L0.826057 11.8861C0.653748 12.0584 0.53641 12.278 0.488877 12.517C0.441345 12.7561 0.465751 13.0039 0.559011 13.229C0.652271 13.4542 0.810197 13.6467 1.01282 13.7821C1.21545 13.9175 1.45368 13.9898 1.6974 13.9899H2.92986V22.6171C2.92986 23.9765 4.03537 25.082 5.39477 25.082H20.1842C21.5436 25.082 22.6491 23.9765 22.6491 22.6171V13.9899H23.8816C24.1253 13.9898 24.3635 13.9175 24.5662 13.7821C24.7688 13.6467 24.9267 13.4542 25.02 13.229C25.1132 13.0039 25.1377 12.7561 25.0901 12.517C25.0426 12.278 24.9252 12.0584 24.7529 11.8861ZM20.1855 22.6171H5.39477V10.804L12.7895 3.40924L20.1842 10.804V16.4548L20.1855 22.6171Z" fill="#696767"/>
</svg>
