<svg width="12" height="14" viewBox="0 0 12 14" fill="none" xmlns="http://www.w3.org/2000/svg">
<path d="M11.7598 4.44842L11.6547 4.48309C11.2456 3.60394 10.6614 2.90406 9.90217 2.38344C9.15458 1.86313 8.2141 1.60298 7.08074 1.60298C6.45017 1.60298 5.84862 1.73602 5.27611 2.00211C4.70359 2.25633 4.20125 2.62064 3.7691 3.09503C3.34831 3.55757 3.00953 4.11863 2.75275 4.77822C2.49567 5.4372 2.36713 6.16582 2.36713 6.96408C2.36713 7.76203 2.49567 8.49064 2.75275 9.14993C3.00953 9.80921 3.34831 10.376 3.7691 10.8504C4.20125 11.313 4.70343 11.6715 5.27564 11.926C5.84847 12.1806 6.45017 12.3078 7.08074 12.3078C8.20243 12.3078 9.11373 12.1343 9.81464 11.7874C10.5272 11.4285 11.1289 10.8848 11.6197 10.1562L11.7248 10.1909L11.6898 11.3011C11.421 11.5788 11.1114 11.8275 10.761 12.0474C10.4108 12.2557 10.0312 12.4351 9.62206 12.5856C9.22492 12.724 8.81027 12.828 8.37812 12.8976C7.94566 12.9785 7.51335 13.019 7.0812 13.019C6.18126 13.019 5.32248 12.8745 4.50486 12.5856C3.68724 12.2961 2.96883 11.8912 2.34963 11.3709C1.73042 10.8387 1.23976 10.2026 0.877632 9.46239C0.5152 8.71066 0.333984 7.87789 0.333984 6.96408C0.333984 6.05026 0.5152 5.22311 0.877632 4.48263C1.24006 3.7309 1.73073 3.0891 2.34963 2.55723C2.96883 2.02506 3.68724 1.62016 4.50486 1.34252C5.32279 1.05362 6.18157 0.90918 7.0812 0.90918C7.51335 0.90918 7.94551 0.943697 8.37766 1.01273C8.81012 1.08237 9.22476 1.19229 9.6216 1.34252C10.0307 1.48149 10.4105 1.66091 10.761 1.88077C11.1114 2.08878 11.421 2.3316 11.6898 2.60924L11.7598 4.44842Z" fill="black"/>
</svg>
