<svg width="15" height="13" viewBox="0 0 15 13" fill="none" xmlns="http://www.w3.org/2000/svg">
<path d="M10.4857 0.71875C9.26769 0.71875 8.09869 1.24845 7.33569 2.08551C6.57269 1.24845 5.40369 0.71875 4.18569 0.71875C2.02969 0.71875 0.335693 2.30131 0.335693 4.31548C0.335693 6.78741 2.71569 8.80158 6.32069 11.8621L7.33569 12.7188L8.35069 11.8555C11.9557 8.80158 14.3357 6.78741 14.3357 4.31548C14.3357 2.30131 12.6417 0.71875 10.4857 0.71875ZM7.40569 10.8877L7.33569 10.9531L7.26569 10.8877C3.93369 8.06916 1.73569 6.2054 1.73569 4.31548C1.73569 3.00758 2.78569 2.02665 4.18569 2.02665C5.26369 2.02665 6.31369 2.67406 6.68469 3.56998H7.99369C8.35769 2.67406 9.40769 2.02665 10.4857 2.02665C11.8857 2.02665 12.9357 3.00758 12.9357 4.31548C12.9357 6.2054 10.7377 8.06916 7.40569 10.8877Z" fill="url(#paint0_linear)"/>
<defs>
<linearGradient id="paint0_linear" x1="2.95648" y1="-23.1886" x2="17.9576" y2="6.58807" gradientUnits="userSpaceOnUse">
<stop stop-color="#FB09C6"/>
<stop offset="1" stop-color="#35168A"/>
</linearGradient>
</defs>
</svg>
