<svg width="9" height="9" viewBox="0 0 9 9" fill="none" xmlns="http://www.w3.org/2000/svg">
<path fill-rule="evenodd" clip-rule="evenodd" d="M8.93367 4.49321C8.93367 5.61598 8.48765 6.69278 7.69373 7.4867C6.89981 8.28062 5.82301 8.72664 4.70024 8.72664C3.57746 8.72664 2.50067 8.28062 1.70674 7.4867C0.912818 6.69278 0.466797 5.61598 0.466797 4.49321C0.466797 3.37043 0.912818 2.29364 1.70674 1.49971C2.50067 0.705787 3.57746 0.259766 4.70024 0.259766C5.82301 0.259766 6.89981 0.705787 7.69373 1.49971C8.48765 2.29364 8.93367 3.37043 8.93367 4.49321ZM6.81696 4.49321C6.81696 5.05459 6.59394 5.59299 6.19698 5.98995C5.80002 6.38691 5.26162 6.60992 4.70024 6.60992C4.13885 6.60992 3.60045 6.38691 3.20349 5.98995C2.80653 5.59299 2.58352 5.05459 2.58352 4.49321C2.58352 3.93182 2.80653 3.39342 3.20349 2.99646C3.60045 2.5995 4.13885 2.37649 4.70024 2.37649C5.26162 2.37649 5.80002 2.5995 6.19698 2.99646C6.59394 3.39342 6.81696 3.93182 6.81696 4.49321Z" fill="#696767"/>
</svg>
