<svg width="19" height="23" viewBox="0 0 19 23" fill="none" xmlns="http://www.w3.org/2000/svg">
<path d="M16.0506 8.58358C16.0506 6.89941 15.3815 5.28422 14.1906 4.09334C12.9998 2.90245 11.3846 2.23342 9.70041 2.23342C8.01624 2.23342 6.40105 2.90245 5.21017 4.09334C4.01928 5.28422 3.35025 6.89941 3.35025 8.58358V17.0505H16.0506V8.58358ZM18.1673 17.7564L18.5906 18.3205C18.6496 18.3991 18.6855 18.4926 18.6943 18.5905C18.7032 18.6884 18.6846 18.7868 18.6406 18.8747C18.5967 18.9626 18.5291 19.0365 18.4455 19.0881C18.3619 19.1398 18.2656 19.1672 18.1673 19.1672H1.23353C1.13525 19.1672 1.03892 19.1398 0.95532 19.0881C0.871722 19.0365 0.804163 18.9626 0.760213 18.8747C0.716263 18.7868 0.697659 18.6884 0.706484 18.5905C0.71531 18.4926 0.751217 18.3991 0.810182 18.3205L1.23353 17.7564V8.58358C1.23353 6.33802 2.12557 4.18444 3.71342 2.59659C5.30127 1.00874 7.45485 0.116699 9.70041 0.116699C11.946 0.116699 14.0995 1.00874 15.6874 2.59659C17.2752 4.18444 18.1673 6.33802 18.1673 8.58358V17.7564ZM7.05451 20.2255H12.3463C12.3463 20.9273 12.0675 21.6003 11.5713 22.0965C11.0751 22.5927 10.4021 22.8714 9.70041 22.8714C8.99867 22.8714 8.32568 22.5927 7.82947 22.0965C7.33327 21.6003 7.05451 20.9273 7.05451 20.2255Z" fill="black"/>
</svg>
