<svg width="12" height="14" viewBox="0 0 12 14" fill="none" xmlns="http://www.w3.org/2000/svg">
<path d="M11.9663 4.44842L11.8613 4.48309C11.4525 3.60394 10.8683 2.90406 10.1087 2.38344C9.36114 1.86313 8.42081 1.60298 7.28776 1.60298C6.65688 1.60298 6.05518 1.73602 5.48267 2.00211C4.91015 2.25633 4.40781 2.62064 3.97566 3.09503C3.55487 3.55757 3.21609 4.11863 2.95932 4.77822C2.70224 5.4372 2.5737 6.16582 2.5737 6.96408C2.5737 7.76203 2.70224 8.49064 2.95932 9.14993C3.2164 9.80921 3.55518 10.376 3.97566 10.8504C4.40781 11.313 4.91 11.6715 5.48221 11.926C6.05503 12.1806 6.65688 12.3078 7.28776 12.3078C8.40914 12.3078 9.32029 12.1343 10.0212 11.7874C10.7338 11.4285 11.3355 10.8848 11.8263 10.1562L11.9313 10.1909L11.8963 11.3011C11.6276 11.5788 11.318 11.8275 10.9675 12.0474C10.6174 12.2557 10.2377 12.4351 9.82861 12.5856C9.43147 12.724 9.01683 12.828 8.58468 12.8976C8.15222 12.9785 7.71991 13.019 7.28776 13.019C6.38813 13.019 5.5295 12.8745 4.71189 12.5856C3.89396 12.2961 3.17539 11.8912 2.55619 11.3709C1.93699 10.8387 1.44632 10.2026 1.0842 9.46239C0.722074 8.71066 0.541016 7.87789 0.541016 6.96408C0.541016 6.05026 0.722231 5.22311 1.08466 4.48263C1.44648 3.7309 1.93699 3.0891 2.55619 2.55723C3.17539 2.02506 3.89396 1.62016 4.71189 1.34252C5.5295 1.05362 6.38798 0.90918 7.2873 0.90918C7.71976 0.90918 8.15222 0.943697 8.58468 1.01273C9.01683 1.08237 9.43147 1.19229 9.82861 1.34252C10.2374 1.48149 10.6171 1.66091 10.9675 1.88077C11.318 2.08878 11.6276 2.3316 11.8963 2.60924L11.9663 4.44842Z" fill="black"/>
</svg>
