<svg width="15" height="13" viewBox="0 0 15 13" fill="none" xmlns="http://www.w3.org/2000/svg">
<path d="M10.4856 0.161133C9.26757 0.161133 8.09857 0.690833 7.33557 1.52789C6.57257 0.690833 5.40357 0.161133 4.18557 0.161133C2.02957 0.161133 0.335571 1.74369 0.335571 3.75786C0.335571 6.2298 2.71557 8.24397 6.32057 11.3045L7.33557 12.1611L8.35057 11.2979C11.9556 8.24397 14.3356 6.2298 14.3356 3.75786C14.3356 1.74369 12.6416 0.161133 10.4856 0.161133ZM7.40557 10.3301L7.33557 10.3955L7.26557 10.3301C3.93357 7.51154 1.73557 5.64778 1.73557 3.75786C1.73557 2.44996 2.78557 1.46903 4.18557 1.46903C5.26357 1.46903 6.31357 2.11645 6.68457 3.01236H7.99357C8.35757 2.11645 9.40757 1.46903 10.4856 1.46903C11.8856 1.46903 12.9356 2.44996 12.9356 3.75786C12.9356 5.64778 10.7376 7.51154 7.40557 10.3301Z" fill="url(#paint0_linear)"/>
<defs>
<linearGradient id="paint0_linear" x1="2.95636" y1="-23.7462" x2="17.9575" y2="6.03045" gradientUnits="userSpaceOnUse">
<stop stop-color="#FB09C6"/>
<stop offset="1" stop-color="#35168A"/>
</linearGradient>
</defs>
</svg>
