<svg width="19" height="23" viewBox="0 0 19 23" fill="none" xmlns="http://www.w3.org/2000/svg">
<path d="M16.0506 8.55184C16.0506 6.86767 15.3815 5.25249 14.1906 4.0616C12.9998 2.87071 11.3846 2.20168 9.70041 2.20168C8.01624 2.20168 6.40105 2.87071 5.21017 4.0616C4.01928 5.25249 3.35025 6.86767 3.35025 8.55184V17.0187H16.0506V8.55184ZM18.1673 17.7246L18.5906 18.2888C18.6496 18.3674 18.6855 18.4609 18.6943 18.5587C18.7032 18.6566 18.6846 18.755 18.6406 18.8429C18.5967 18.9308 18.5291 19.0047 18.4455 19.0564C18.3619 19.1081 18.2656 19.1354 18.1673 19.1354H1.23353C1.13525 19.1354 1.03892 19.1081 0.95532 19.0564C0.871722 19.0047 0.804163 18.9308 0.760213 18.8429C0.716263 18.755 0.697659 18.6566 0.706484 18.5587C0.71531 18.4609 0.751217 18.3674 0.810182 18.2888L1.23353 17.7246V8.55184C1.23353 6.30629 2.12557 4.1527 3.71342 2.56485C5.30127 0.977005 7.45485 0.0849609 9.70041 0.0849609C11.946 0.0849609 14.0995 0.977005 15.6874 2.56485C17.2752 4.1527 18.1673 6.30629 18.1673 8.55184V17.7246ZM7.05451 20.1938H12.3463C12.3463 20.8955 12.0675 21.5685 11.5713 22.0647C11.0751 22.5609 10.4021 22.8397 9.70041 22.8397C8.99867 22.8397 8.32568 22.5609 7.82947 22.0647C7.33327 21.5685 7.05451 20.8955 7.05451 20.1938Z" fill="#696767"/>
</svg>
