<svg width="14" height="14" viewBox="0 0 14 14" fill="none" xmlns="http://www.w3.org/2000/svg">
<path d="M13.3512 7.76233C13.2228 7.82011 13.1003 7.89522 12.9836 7.98767C12.8668 8.08012 12.8085 8.20738 12.8085 8.36946V10.5038C12.2473 11.3017 11.5286 11.9206 10.6523 12.3603C9.77635 12.7997 8.80685 13.0194 7.74382 13.0194C6.84419 13.0194 5.98541 12.8748 5.16749 12.5856C4.34987 12.2964 3.63145 11.8915 3.01225 11.3709C2.39305 10.8387 1.90238 10.2027 1.54026 9.46285C1.17813 8.71081 0.99707 7.87789 0.99707 6.96408C0.99707 6.05056 1.17829 5.22357 1.54072 4.48309C1.90253 3.73136 2.39305 3.08941 3.01225 2.55723C3.63145 2.02506 4.34987 1.62031 5.16749 1.34298C5.98541 1.05378 6.84419 0.90918 7.74382 0.90918C8.17597 0.90918 8.60813 0.943845 9.04028 1.01318C9.47274 1.08251 9.88739 1.19245 10.2842 1.34298C10.6933 1.48165 11.0731 1.66091 11.4236 1.88077C11.774 2.08908 12.0836 2.3319 12.3524 2.60924L12.4229 4.44843L12.3174 4.48309C11.9089 3.60424 11.3248 2.90452 10.5653 2.3839C9.81736 1.86329 8.87688 1.60298 7.74382 1.60298C7.11295 1.60298 6.51125 1.73602 5.93873 2.00211C5.36652 2.25664 4.86434 2.62094 4.43218 3.09503C4.01139 3.55787 3.67246 4.11893 3.41538 4.77822C3.1583 5.4375 3.02976 6.16612 3.02976 6.96408C3.02976 7.75047 3.15262 8.47331 3.39833 9.1326C3.6551 9.79219 3.99373 10.359 4.41421 10.8331C4.84667 11.2956 5.34901 11.66 5.92122 11.926C6.49374 12.1806 7.10127 12.3078 7.74382 12.3078C8.95889 12.3078 9.99857 12.0766 10.8629 11.614V8.36946C10.8629 8.20768 10.7987 8.08042 10.6703 7.98767C10.5536 7.89522 10.4369 7.81996 10.3202 7.76187L10.3358 7.6752C10.3942 7.68585 10.4994 7.6974 10.6514 7.70987C10.8034 7.72052 10.9612 7.73207 11.1246 7.74454H12.6316C12.7719 7.7339 12.9063 7.72234 13.0347 7.70987C13.1631 7.69923 13.2623 7.68767 13.3323 7.6752L13.3512 7.76233Z" fill="black"/>
</svg>
