<svg width="15" height="13" viewBox="0 0 15 13" fill="none" xmlns="http://www.w3.org/2000/svg">
<path d="M10.92 0.0917969C9.70202 0.0917969 8.53302 0.621497 7.77002 1.45855C7.00702 0.621497 5.83802 0.0917969 4.62002 0.0917969C2.46402 0.0917969 0.77002 1.67436 0.77002 3.68853C0.77002 6.16046 3.15002 8.17463 6.75502 11.2351L7.77002 12.0918L8.78502 11.2286C12.39 8.17463 14.77 6.16046 14.77 3.68853C14.77 1.67436 13.076 0.0917969 10.92 0.0917969ZM7.84002 10.2607L7.77002 10.3261L7.70002 10.2607C4.36802 7.4422 2.17002 5.57845 2.17002 3.68853C2.17002 2.38063 3.22002 1.3997 4.62002 1.3997C5.69802 1.3997 6.74802 2.04711 7.11902 2.94302H8.42802C8.79202 2.04711 9.84202 1.3997 10.92 1.3997C12.32 1.3997 13.37 2.38063 13.37 3.68853C13.37 5.57845 11.172 7.4422 7.84002 10.2607Z" fill="url(#paint0_linear)"/>
<defs>
<linearGradient id="paint0_linear" x1="3.39081" y1="-23.8155" x2="18.3919" y2="5.96112" gradientUnits="userSpaceOnUse">
<stop stop-color="#FB09C6"/>
<stop offset="1" stop-color="#35168A"/>
</linearGradient>
</defs>
</svg>
