<svg width="7" height="25" viewBox="0 0 7 25" fill="none" xmlns="http://www.w3.org/2000/svg">
<path d="M6.36556 24.68C6.24294 24.6583 6.03447 24.6343 5.74017 24.6081C5.47039 24.6081 5.17576 24.597 4.85628 24.5746C4.53681 24.5746 4.22992 24.5637 3.93562 24.542H1.72736C1.43241 24.5637 1.13746 24.5877 0.842509 24.6139C0.57273 24.6363 0.36426 24.6605 0.217107 24.6867L0.183228 24.541C0.428482 24.4196 0.673731 24.2615 0.918985 24.0666C1.16488 23.8723 1.3001 23.5078 1.32463 22.9729C1.34722 22.3895 1.35851 21.7818 1.35851 21.1499C1.3811 20.5179 1.3924 19.8009 1.3924 18.999V16.2644V12.5827V8.90018V6.1301C1.3924 5.32752 1.3811 4.62238 1.35851 4.01468C1.35851 3.38271 1.34722 2.77534 1.32463 2.19257C1.30204 1.65772 1.16714 1.29316 0.919952 1.09891C0.674698 0.879729 0.429449 0.709431 0.184195 0.58802L0.217107 0.442334C0.36426 0.490899 0.57273 0.52732 0.842509 0.551602C1.13746 0.551602 1.43208 0.562788 1.72639 0.585153C2.04586 0.607519 2.35276 0.618705 2.64706 0.618705H3.93562C4.22992 0.59634 4.53649 0.585153 4.85532 0.585153C5.17544 0.562788 5.47039 0.538502 5.74017 0.512303C6.03447 0.489938 6.24294 0.465652 6.36556 0.439453L6.39945 0.586104C6.12967 0.707515 5.87183 0.877502 5.62593 1.09604C5.4052 1.2903 5.28257 1.65453 5.25805 2.18873C5.23546 2.77278 5.21094 3.38079 5.18448 4.01277V21.1479C5.20707 21.7793 5.23159 22.3867 5.25805 22.9701C5.27999 23.5049 5.40262 23.8694 5.62593 24.0637C5.87118 24.258 6.12902 24.4161 6.39945 24.5382L6.36556 24.68Z" fill="black"/>
</svg>
