<svg width="15" height="13" viewBox="0 0 15 13" fill="none" xmlns="http://www.w3.org/2000/svg">
<path d="M10.7726 0.384766C9.55456 0.384766 8.38556 0.914466 7.62256 1.75152C6.85956 0.914466 5.69056 0.384766 4.47256 0.384766C2.31656 0.384766 0.622559 1.96733 0.622559 3.9815C0.622559 6.45343 3.00256 8.4676 6.60756 11.5281L7.62256 12.3848L8.63756 11.5216C12.2426 8.4676 14.6226 6.45343 14.6226 3.9815C14.6226 1.96733 12.9286 0.384766 10.7726 0.384766ZM7.69256 10.5537L7.62256 10.6191L7.55256 10.5537C4.22056 7.73517 2.02256 5.87141 2.02256 3.9815C2.02256 2.67359 3.07256 1.69267 4.47256 1.69267C5.55056 1.69267 6.60056 2.34008 6.97156 3.23599H8.28056C8.64456 2.34008 9.69456 1.69267 10.7726 1.69267C12.1726 1.69267 13.2226 2.67359 13.2226 3.9815C13.2226 5.87141 11.0246 7.73517 7.69256 10.5537Z" fill="url(#paint0_linear)"/>
<defs>
<linearGradient id="paint0_linear" x1="3.24335" y1="-23.5226" x2="18.2444" y2="6.25409" gradientUnits="userSpaceOnUse">
<stop stop-color="#FB09C6"/>
<stop offset="1" stop-color="#35168A"/>
</linearGradient>
</defs>
</svg>
