<svg width="54" height="33" viewBox="0 0 54 33" fill="none" xmlns="http://www.w3.org/2000/svg">
<path fill-rule="evenodd" clip-rule="evenodd" d="M53.1484 27.6991H53.3176C53.4042 27.6991 53.498 27.7158 53.498 27.824C53.498 27.9532 53.3947 27.9589 53.2822 27.9589H53.1484V27.6991ZM53.021 28.412H53.1484V28.0606H53.2838L53.5075 28.412H53.6447L53.4096 28.0514C53.5316 28.0391 53.6258 27.9769 53.6258 27.8297C53.6258 27.6727 53.5342 27.5966 53.3383 27.5966H53.0208V28.412H53.021ZM52.7144 28.0011C52.7144 27.6677 52.9661 27.4095 53.2948 27.4095C53.6202 27.4095 53.8726 27.6675 53.8726 28.0011C53.8726 28.3425 53.62 28.6005 53.2948 28.6005C52.9661 28.6005 52.7144 28.3425 52.7144 28.0011ZM52.5865 28.0011C52.5865 28.402 52.9097 28.7032 53.2948 28.7032C53.6785 28.7032 54 28.402 54 28.0011C54 27.6073 53.6783 27.3072 53.2948 27.3072C52.9097 27.3072 52.5865 27.6073 52.5865 28.0011ZM44.7131 26.9638V28.1299H41.7703V28.5004V28.9395V29.4473H42.1072H43.4137H43.7917C44.4789 29.4473 45.0356 29.9997 45.0356 30.682V31.1211V31.4634V31.7651C45.0356 32.4474 44.4789 32.9998 43.7917 32.9998H40.3727V31.8339H43.7504V31.4634V31.1211V30.6132H43.4137H42.1072H41.7289C41.0418 30.6132 40.4849 30.0608 40.4849 29.3785V28.9395V28.5004V28.1985C40.4849 27.5173 41.0418 26.9638 41.7289 26.9638H44.7131ZM51.4579 33H48.4736C47.7866 33 47.2297 32.4476 47.2297 31.7653V30.9698V28.994V28.1985C47.2297 27.5173 47.7866 26.9638 48.4736 26.9638H51.4579V28.1299H48.515V28.994V29.4744H51.4579V30.6405H48.515V30.9696V31.8339H51.4579V33ZM31.306 33H28.3217C27.635 33 27.0779 32.4476 27.0779 31.7653V30.9698V28.994V28.1985C27.0779 27.5173 27.635 26.9638 28.3217 26.9638H31.306V28.1299H28.3635V28.994V29.4744H31.306V30.6405H28.3635V30.9696V31.8339H31.306V33ZM14.1394 26.9638H14.7892H16.9727C17.6598 26.9638 18.2167 27.5173 18.2167 28.1985V33H16.9313V28.1299H14.7892V33H13.5038V26.9638H14.1394ZM34.8995 29.4746H37.1788V29.2415V28.3639V28.1299H34.8995V29.4746ZM38.464 28.3639V29.2415V29.406C38.464 30.0377 37.9867 30.558 37.3709 30.6316L38.576 33H37.1291L36.0779 30.6407H34.8995V33H33.6143V26.9638H34.2365H34.8997H37.2206C37.9075 26.9638 38.4644 27.5173 38.4644 28.1985V28.3639H38.464ZM21.161 26.9638L22.5983 31.9852L24.1187 26.9638H25.5838L23.6212 33H21.6032L19.7235 26.9638H21.161ZM0 28.1985C0 27.5173 0.5571 26.9638 1.2438 26.9638H4.43664V28.1299H1.28556V31.8339H4.43682V32.9998H1.24398C0.55728 32.9998 0.000180244 32.4474 0.000180244 31.7651V28.1985H0ZM6.39936 28.1985C6.39936 27.5173 6.95646 26.9638 7.64334 26.9638H10.2969C10.9841 26.9638 11.5411 27.5173 11.5411 28.1985V31.7653C11.5411 32.4476 10.9841 33 10.2969 33H7.64334C6.95646 33 6.39936 32.4476 6.39936 31.7653V28.1985ZM7.68492 28.1301H10.2559V31.8341H7.68492V28.1301ZM26.1432 4.45832L27.7961 9.508H33.1456L28.8178 12.6282L30.4709 17.6788L26.1432 14.5577L21.8155 17.6788L23.4684 12.6282L19.1408 9.508H24.4901L26.1432 4.45832ZM36.1154 11.5918C36.1154 17.0583 31.6507 21.4891 26.143 21.4891C20.6354 21.4891 16.1705 17.0581 16.1705 11.5918C16.1705 6.12553 20.6356 1.69365 26.143 1.69365C31.6505 1.69365 36.1154 6.12553 36.1154 11.5918ZM26.1432 0C19.6931 0 14.4643 5.18938 14.4643 11.592C14.4643 17.9937 19.6931 23.1831 26.1432 23.1831C32.5933 23.1831 37.822 17.9937 37.822 11.592C37.8218 5.1892 32.5933 0 26.1432 0Z" fill="black"/>
</svg>
