<svg width="9" height="9" viewBox="0 0 9 9" fill="none" xmlns="http://www.w3.org/2000/svg">
<path fill-rule="evenodd" clip-rule="evenodd" d="M8.9338 4.49321C8.9338 5.61598 8.48777 6.69278 7.69385 7.4867C6.89993 8.28062 5.82314 8.72664 4.70036 8.72664C3.57758 8.72664 2.50079 8.28062 1.70686 7.4867C0.912941 6.69278 0.466919 5.61598 0.466919 4.49321C0.466919 3.37043 0.912941 2.29364 1.70686 1.49971C2.50079 0.705787 3.57758 0.259766 4.70036 0.259766C5.82314 0.259766 6.89993 0.705787 7.69385 1.49971C8.48777 2.29364 8.9338 3.37043 8.9338 4.49321ZM6.81708 4.49321C6.81708 5.05459 6.59407 5.59299 6.1971 5.98995C5.80014 6.38691 5.26175 6.60992 4.70036 6.60992C4.13897 6.60992 3.60057 6.38691 3.20361 5.98995C2.80665 5.59299 2.58364 5.05459 2.58364 4.49321C2.58364 3.93182 2.80665 3.39342 3.20361 2.99646C3.60057 2.5995 4.13897 2.37649 4.70036 2.37649C5.26175 2.37649 5.80014 2.5995 6.1971 2.99646C6.59407 3.39342 6.81708 3.93182 6.81708 4.49321Z" fill="#696767"/>
</svg>
