<svg width="12" height="12" viewBox="0 0 12 12" fill="none" xmlns="http://www.w3.org/2000/svg">
<path d="M11.0142 3.56032L10.9195 3.59154C10.5513 2.79958 10.025 2.16911 9.34078 1.70013C8.66733 1.23142 7.82026 0.997062 6.79957 0.997062C6.23126 0.997062 5.68924 1.11691 5.1735 1.35661C4.65776 1.58562 4.20524 1.9138 3.81594 2.34115C3.43689 2.75781 3.1317 3.26323 2.9004 3.8574C2.66881 4.45103 2.55302 5.10739 2.55302 5.82649C2.55302 6.5453 2.66881 7.20166 2.9004 7.79556C3.13198 8.38946 3.43716 8.90009 3.81594 9.32743C4.20524 9.74409 4.65762 10.0671 5.17308 10.2964C5.6891 10.5256 6.23126 10.6403 6.79957 10.6403C7.80975 10.6403 8.63053 10.484 9.26192 10.1714C9.90383 9.84819 10.4459 9.35839 10.888 8.70203L10.9826 8.73326L10.9511 9.73341C10.709 9.98352 10.4301 10.2076 10.1144 10.4057C9.79897 10.5933 9.45699 10.7549 9.08844 10.8905C8.73069 11.0152 8.35717 11.1089 7.96787 11.1716C7.5783 11.2445 7.18887 11.2809 6.79957 11.2809C5.98916 11.2809 5.21569 11.1508 4.47916 10.8905C3.74235 10.6297 3.09504 10.265 2.53725 9.79628C1.97945 9.31689 1.53745 8.7438 1.21124 8.07703C0.885026 7.39986 0.721924 6.64968 0.721924 5.82649C0.721924 5.0033 0.885168 4.25818 1.21166 3.59114C1.53759 2.91396 1.97945 2.3358 2.53725 1.85668C3.09504 1.37729 3.74235 1.01254 4.47916 0.762433C5.21569 0.50219 5.98903 0.37207 6.79916 0.37207C7.18873 0.37207 7.5783 0.403165 7.96787 0.465349C8.35717 0.528081 8.73069 0.627107 9.08844 0.762433C9.45671 0.887624 9.79869 1.04925 10.1144 1.24731C10.4301 1.43468 10.709 1.65343 10.9511 1.90353L11.0142 3.56032Z" fill="black"/>
</svg>
