<svg width="26" height="22" viewBox="0 0 26 22" fill="none" xmlns="http://www.w3.org/2000/svg">
<path d="M23.1786 3.31123H19.1578L18.1999 0.626769C18.1338 0.443078 18.0125 0.284298 17.8527 0.172118C17.6929 0.0599373 17.5023 -0.000172248 17.3071 3.70748e-07H8.23668C7.83756 3.70748e-07 7.47983 0.251299 7.34679 0.626769L6.38594 3.31123H2.36516C1.05841 3.31123 0 4.36964 0 5.67639V19.1578C0 20.4646 1.05841 21.523 2.36516 21.523H23.1786C24.4854 21.523 25.5438 20.4646 25.5438 19.1578V5.67639C25.5438 4.36964 24.4854 3.31123 23.1786 3.31123ZM23.4151 19.1578C23.4151 19.2879 23.3087 19.3943 23.1786 19.3943H2.36516C2.23508 19.3943 2.12865 19.2879 2.12865 19.1578V5.67639C2.12865 5.54631 2.23508 5.43988 2.36516 5.43988H7.88486L8.39042 4.02669L9.06745 2.12865H16.4734L17.1504 4.02669L17.6559 5.43988H23.1786C23.3087 5.43988 23.4151 5.54631 23.4151 5.67639V19.1578ZM12.7719 7.33201C10.1584 7.33201 8.04156 9.44883 8.04156 12.0623C8.04156 14.6758 10.1584 16.7927 12.7719 16.7927C15.3854 16.7927 17.5022 14.6758 17.5022 12.0623C17.5022 9.44883 15.3854 7.33201 12.7719 7.33201ZM12.7719 14.9005C11.205 14.9005 9.93369 13.6293 9.93369 12.0623C9.93369 10.4954 11.205 9.22414 12.7719 9.22414C14.3388 9.22414 15.6101 10.4954 15.6101 12.0623C15.6101 13.6293 14.3388 14.9005 12.7719 14.9005Z" fill="black"/>
</svg>
