<svg width="15" height="13" viewBox="0 0 15 13" fill="none" xmlns="http://www.w3.org/2000/svg">
<path d="M10.4856 0.866211C9.26757 0.866211 8.09857 1.39591 7.33557 2.23297C6.57257 1.39591 5.40357 0.866211 4.18557 0.866211C2.02957 0.866211 0.335571 2.44877 0.335571 4.46294C0.335571 6.93488 2.71557 8.94905 6.32057 12.0095L7.33557 12.8662L8.35057 12.003C11.9556 8.94905 14.3356 6.93488 14.3356 4.46294C14.3356 2.44877 12.6416 0.866211 10.4856 0.866211ZM7.40557 11.0351L7.33557 11.1005L7.26557 11.0351C3.93357 8.21662 1.73557 6.35286 1.73557 4.46294C1.73557 3.15504 2.78557 2.17411 4.18557 2.17411C5.26357 2.17411 6.31357 2.82152 6.68457 3.71744H7.99357C8.35757 2.82152 9.40757 2.17411 10.4856 2.17411C11.8856 2.17411 12.9356 3.15504 12.9356 4.46294C12.9356 6.35286 10.7376 8.21662 7.40557 11.0351Z" fill="url(#paint0_linear)"/>
<defs>
<linearGradient id="paint0_linear" x1="2.95636" y1="-23.0411" x2="17.9575" y2="6.73553" gradientUnits="userSpaceOnUse">
<stop stop-color="#FB09C6"/>
<stop offset="1" stop-color="#35168A"/>
</linearGradient>
</defs>
</svg>
