<svg width="65" height="83" viewBox="0 0 65 83" fill="none" xmlns="http://www.w3.org/2000/svg">
<path d="M55.3152 30.9177C55.3152 24.8851 52.9166 19.0996 48.6471 14.8339C44.3775 10.5682 38.5868 8.1718 32.5488 8.1718C26.5108 8.1718 20.72 10.5682 16.4505 14.8339C12.181 19.0996 9.78238 24.8851 9.78238 30.9177V61.2455H55.3152V30.9177ZM62.904 63.7741L64.4217 65.7947C64.6331 66.0763 64.7619 66.4111 64.7935 66.7617C64.8251 67.1123 64.7584 67.4648 64.6009 67.7797C64.4433 68.0945 64.2011 68.3593 63.9014 68.5444C63.6017 68.7294 63.2563 68.8275 62.904 68.8275H2.19359C1.84125 68.8275 1.49588 68.7294 1.19617 68.5444C0.896458 68.3593 0.654248 68.0945 0.49668 67.7797C0.339112 67.4648 0.272412 67.1123 0.304054 66.7617C0.335695 66.4111 0.464428 66.0763 0.675827 65.7947L2.19359 63.7741V30.9177C2.19359 22.8742 5.39171 15.1602 11.0844 9.47266C16.7771 3.78509 24.4981 0.589844 32.5488 0.589844C40.5995 0.589844 48.3204 3.78509 54.0131 9.47266C59.7058 15.1602 62.904 22.8742 62.904 30.9177V63.7741ZM23.0628 72.6184H42.0348C42.0348 75.132 41.0354 77.5426 39.2564 79.32C37.4774 81.0974 35.0646 82.0959 32.5488 82.0959C30.0329 82.0959 27.6201 81.0974 25.8412 79.32C24.0622 77.5426 23.0628 75.132 23.0628 72.6184Z" fill="url(#paint0_linear)"/>
<defs>
<linearGradient id="paint0_linear" x1="12.3716" y1="-161.793" x2="133.75" y2="1.64325" gradientUnits="userSpaceOnUse">
<stop offset="0.511708" stop-color="#FB09C6"/>
<stop offset="1" stop-color="#35168A"/>
</linearGradient>
</defs>
</svg>
