<svg width="15" height="13" viewBox="0 0 15 13" fill="none" xmlns="http://www.w3.org/2000/svg">
<path d="M10.7726 0.294922C9.55456 0.294922 8.38556 0.824622 7.62256 1.66168C6.85956 0.824622 5.69056 0.294922 4.47256 0.294922C2.31656 0.294922 0.622559 1.87748 0.622559 3.89165C0.622559 6.36359 3.00256 8.37776 6.60756 11.4382L7.62256 12.2949L8.63756 11.4317C12.2426 8.37776 14.6226 6.36359 14.6226 3.89165C14.6226 1.87748 12.9286 0.294922 10.7726 0.294922ZM7.69256 10.4639L7.62256 10.5293L7.55256 10.4639C4.22056 7.64533 2.02256 5.78157 2.02256 3.89165C2.02256 2.58375 3.07256 1.60282 4.47256 1.60282C5.55056 1.60282 6.60056 2.25024 6.97156 3.14615H8.28056C8.64456 2.25024 9.69456 1.60282 10.7726 1.60282C12.1726 1.60282 13.2226 2.58375 13.2226 3.89165C13.2226 5.78157 11.0246 7.64533 7.69256 10.4639Z" fill="url(#paint0_linear)"/>
<defs>
<linearGradient id="paint0_linear" x1="3.24335" y1="-23.6124" x2="18.2444" y2="6.16424" gradientUnits="userSpaceOnUse">
<stop stop-color="#FB09C6"/>
<stop offset="1" stop-color="#35168A"/>
</linearGradient>
</defs>
</svg>
