<svg width="92" height="78" viewBox="0 0 92 78" fill="none" xmlns="http://www.w3.org/2000/svg">
<path d="M82.8668 12.3222H68.6228L65.2293 2.75439C64.9949 2.0997 64.5652 1.53378 63.9991 1.13396C63.433 0.734132 62.758 0.519894 62.0663 0.520509H29.9333C28.5194 0.520509 27.2521 1.41617 26.7808 2.75439L23.3769 12.3222H9.13278C4.50345 12.3222 0.753906 16.0945 0.753906 20.7519V68.8015C0.753906 73.4589 4.50345 77.2313 9.13278 77.2313H82.8668C87.4962 77.2313 91.2457 73.4589 91.2457 68.8015V20.7519C91.2457 16.0945 87.4962 12.3222 82.8668 12.3222ZM83.7047 68.8015C83.7047 69.2651 83.3277 69.6445 82.8668 69.6445H9.13278C8.67194 69.6445 8.29489 69.2651 8.29489 68.8015V20.7519C8.29489 20.2883 8.67194 19.9089 9.13278 19.9089H28.687L30.478 14.8722L32.8764 8.10729H59.1127L61.5112 14.8722L63.3022 19.9089H82.8668C83.3277 19.9089 83.7047 20.2883 83.7047 20.7519V68.8015ZM45.9998 26.6527C36.7412 26.6527 29.2421 34.1974 29.2421 43.5122C29.2421 52.8271 36.7412 60.3717 45.9998 60.3717C55.2585 60.3717 62.7576 52.8271 62.7576 43.5122C62.7576 34.1974 55.2585 26.6527 45.9998 26.6527ZM45.9998 53.6279C40.4488 53.6279 35.9452 49.097 35.9452 43.5122C35.9452 37.9275 40.4488 33.3965 45.9998 33.3965C51.5508 33.3965 56.0545 37.9275 56.0545 43.5122C56.0545 49.097 51.5508 53.6279 45.9998 53.6279Z" fill="url(#paint0_linear)"/>
<defs>
<linearGradient id="paint0_linear" x1="17.6939" y1="-152.309" x2="112.956" y2="38.8877" gradientUnits="userSpaceOnUse">
<stop offset="0.48997" stop-color="#FB09C6"/>
<stop offset="1" stop-color="#35168A"/>
</linearGradient>
</defs>
</svg>
