<svg width="15" height="13" viewBox="0 0 15 13" fill="none" xmlns="http://www.w3.org/2000/svg">
<path d="M11.0121 0.21875C9.79406 0.21875 8.62506 0.74845 7.86206 1.58551C7.09906 0.74845 5.93006 0.21875 4.71206 0.21875C2.55606 0.21875 0.862061 1.80131 0.862061 3.81548C0.862061 6.28741 3.24206 8.30158 6.84706 11.3621L7.86206 12.2188L8.87706 11.3555C12.4821 8.30158 14.8621 6.28741 14.8621 3.81548C14.8621 1.80131 13.1681 0.21875 11.0121 0.21875ZM7.93206 10.3877L7.86206 10.4531L7.79206 10.3877C4.46006 7.56916 2.26206 5.7054 2.26206 3.81548C2.26206 2.50758 3.31206 1.52665 4.71206 1.52665C5.79006 1.52665 6.84006 2.17406 7.21106 3.06998H8.52006C8.88406 2.17406 9.93406 1.52665 11.0121 1.52665C12.4121 1.52665 13.4621 2.50758 13.4621 3.81548C13.4621 5.7054 11.2641 7.56916 7.93206 10.3877Z" fill="url(#paint0_linear)"/>
<defs>
<linearGradient id="paint0_linear" x1="3.48285" y1="-23.6886" x2="18.4839" y2="6.08807" gradientUnits="userSpaceOnUse">
<stop stop-color="#FB09C6"/>
<stop offset="1" stop-color="#35168A"/>
</linearGradient>
</defs>
</svg>
