<svg width="15" height="13" viewBox="0 0 15 13" fill="none" xmlns="http://www.w3.org/2000/svg">
<path d="M10.4856 0.628906C9.26757 0.628906 8.09857 1.15861 7.33557 1.99566C6.57257 1.15861 5.40357 0.628906 4.18557 0.628906C2.02957 0.628906 0.335571 2.21147 0.335571 4.22564C0.335571 6.69757 2.71557 8.71174 6.32057 11.7722L7.33557 12.6289L8.35057 11.7657C11.9556 8.71174 14.3356 6.69757 14.3356 4.22564C14.3356 2.21147 12.6416 0.628906 10.4856 0.628906ZM7.40557 10.7978L7.33557 10.8632L7.26557 10.7978C3.93357 7.97931 1.73557 6.11555 1.73557 4.22564C1.73557 2.91773 2.78557 1.93681 4.18557 1.93681C5.26357 1.93681 6.31357 2.58422 6.68457 3.48013H7.99357C8.35757 2.58422 9.40757 1.93681 10.4856 1.93681C11.8856 1.93681 12.9356 2.91773 12.9356 4.22564C12.9356 6.11555 10.7376 7.97931 7.40557 10.7978Z" fill="url(#paint0_linear)"/>
<defs>
<linearGradient id="paint0_linear" x1="2.95636" y1="-23.2784" x2="17.9575" y2="6.49823" gradientUnits="userSpaceOnUse">
<stop stop-color="#FB09C6"/>
<stop offset="1" stop-color="#35168A"/>
</linearGradient>
</defs>
</svg>
