<svg width="18" height="16" viewBox="0 0 18 16" fill="none" xmlns="http://www.w3.org/2000/svg">
<path d="M13.1354 0.425781C11.6383 0.425781 10.2014 1.07685 9.26359 2.10571C8.32576 1.07685 6.88891 0.425781 5.39182 0.425781C2.74182 0.425781 0.659668 2.37096 0.659668 4.84663C0.659668 7.88497 3.585 10.3606 8.01602 14.1224L9.26359 15.1754L10.5112 14.1144C14.9422 10.3606 17.8675 7.88497 17.8675 4.84663C17.8675 2.37096 15.7854 0.425781 13.1354 0.425781ZM9.34963 12.9247L9.26359 13.0051L9.17755 12.9247C5.08208 9.4604 2.38045 7.16959 2.38045 4.84663C2.38045 3.23905 3.67104 2.03336 5.39182 2.03336C6.71683 2.03336 8.00741 2.82912 8.46342 3.93031H10.0724C10.5198 2.82912 11.8103 2.03336 13.1354 2.03336C14.8561 2.03336 16.1467 3.23905 16.1467 4.84663C16.1467 7.16959 13.4451 9.4604 9.34963 12.9247Z" fill="url(#paint0_linear)"/>
<defs>
<linearGradient id="paint0_linear" x1="3.88096" y1="-28.9595" x2="22.3193" y2="7.63995" gradientUnits="userSpaceOnUse">
<stop stop-color="#FB09C6"/>
<stop offset="1" stop-color="#35168A"/>
</linearGradient>
</defs>
</svg>
