<svg width="15" height="13" viewBox="0 0 15 13" fill="none" xmlns="http://www.w3.org/2000/svg">
<path d="M10.701 0.639648C9.48303 0.639648 8.31403 1.16935 7.55103 2.00641C6.78803 1.16935 5.61903 0.639648 4.40103 0.639648C2.24503 0.639648 0.551025 2.22221 0.551025 4.23638C0.551025 6.70831 2.93103 8.72248 6.53603 11.783L7.55103 12.6396L8.56602 11.7764C12.171 8.72248 14.551 6.70831 14.551 4.23638C14.551 2.22221 12.857 0.639648 10.701 0.639648ZM7.62103 10.8086L7.55103 10.874L7.48103 10.8086C4.14902 7.99006 1.95103 6.1263 1.95103 4.23638C1.95103 2.92848 3.00103 1.94755 4.40103 1.94755C5.47903 1.94755 6.52903 2.59496 6.90002 3.49087H8.20902C8.57302 2.59496 9.62302 1.94755 10.701 1.94755C12.101 1.94755 13.151 2.92848 13.151 4.23638C13.151 6.1263 10.953 7.99006 7.62103 10.8086Z" fill="url(#paint0_linear)"/>
<defs>
<linearGradient id="paint0_linear" x1="3.17181" y1="-23.2677" x2="18.1729" y2="6.50897" gradientUnits="userSpaceOnUse">
<stop stop-color="#FB09C6"/>
<stop offset="1" stop-color="#35168A"/>
</linearGradient>
</defs>
</svg>
