<svg width="27" height="27" viewBox="0 0 27 27" fill="none" xmlns="http://www.w3.org/2000/svg">
<path d="M26.1248 15.2551C25.855 15.3765 25.5975 15.5343 25.3522 15.7286C25.1069 15.9228 24.9843 16.1902 24.9843 16.5308V21.0157C23.8052 22.6924 22.2949 23.9928 20.4536 24.9168C18.6129 25.8401 16.5757 26.3018 14.3419 26.3018C12.4515 26.3018 10.647 25.998 8.92824 25.3903C7.21017 24.7826 5.70056 23.9318 4.39942 22.8378C3.09829 21.7195 2.06725 20.3831 1.30632 18.8284C0.545384 17.2481 0.164917 15.4979 0.164917 13.5777C0.164917 11.6581 0.545706 9.92033 1.30729 8.36436C2.06757 6.78475 3.09829 5.43581 4.39942 4.31756C5.70056 3.1993 7.21017 2.3488 8.92824 1.76603C10.647 1.15834 12.4515 0.854492 14.3419 0.854492C15.25 0.854492 16.1581 0.927335 17.0662 1.07303C17.9749 1.21872 18.8462 1.44973 19.6801 1.76603C20.5397 2.05742 21.3378 2.43411 22.0742 2.89611C22.8106 3.33383 23.4612 3.84407 24.0259 4.42684L24.174 8.29153L23.9523 8.36436C23.0939 6.51765 21.8667 5.04731 20.2706 3.95334C18.699 2.85936 16.7228 2.31237 14.3419 2.31237C13.0162 2.31237 11.7519 2.59194 10.5489 3.15106C9.34646 3.68591 8.29122 4.45143 7.38314 5.44764C6.49893 6.4202 5.78672 7.59916 5.24652 8.98452C4.70632 10.3699 4.43621 11.9009 4.43621 13.5777C4.43621 15.2301 4.69438 16.749 5.2107 18.1344C5.75026 19.5204 6.46182 20.7115 7.34538 21.7077C8.25411 22.6796 9.30967 23.4451 10.5121 24.0043C11.7151 24.5391 12.9917 24.8065 14.3419 24.8065C16.8951 24.8065 19.0798 24.3206 20.896 23.3487V16.5308C20.896 16.1909 20.7611 15.9235 20.4913 15.7286C20.2461 15.5343 20.0008 15.3761 19.7556 15.2541L19.7885 15.072C19.9111 15.0943 20.1322 15.1186 20.4516 15.1448C20.7711 15.1672 21.1025 15.1915 21.4459 15.2177H24.6126C24.9075 15.1953 25.1899 15.171 25.4597 15.1448C25.7294 15.1225 25.9379 15.0982 26.0851 15.072L26.1248 15.2551Z" fill="black"/>
</svg>
