<svg width="12" height="12" viewBox="0 0 12 12" fill="none" xmlns="http://www.w3.org/2000/svg">
<path d="M11.2286 6.54558C11.1129 6.59763 11.0025 6.66529 10.8974 6.74857C10.7922 6.83185 10.7397 6.94649 10.7397 7.0925V9.01514C10.2342 9.73396 9.58671 10.2914 8.79733 10.6875C8.00823 11.0834 7.13487 11.2813 6.17727 11.2813C5.36686 11.2813 4.59325 11.151 3.85644 10.8905C3.1199 10.63 2.47273 10.2653 1.91494 9.79628C1.35714 9.31689 0.915138 8.74394 0.588926 8.07745C0.262715 7.4 0.0996094 6.64968 0.0996094 5.82649C0.0996094 5.00357 0.262853 4.25859 0.589341 3.59154C0.915276 2.91437 1.35714 2.33608 1.91494 1.85668C2.47273 1.37729 3.1199 1.01268 3.85644 0.762847C4.59325 0.50233 5.36686 0.37207 6.17727 0.37207C6.56656 0.37207 6.95586 0.403298 7.34515 0.465756C7.73472 0.528215 8.10825 0.627247 8.46573 0.762847C8.83427 0.887764 9.17639 1.04925 9.49209 1.24731C9.80779 1.43496 10.0867 1.6537 10.3288 1.90353L10.3923 3.56032L10.2972 3.59154C9.92925 2.79986 9.40314 2.16953 8.71889 1.70054C8.04517 1.23156 7.19796 0.997062 6.17727 0.997062C5.60896 0.997062 5.06693 1.11691 4.55119 1.35661C4.03573 1.5859 3.58335 1.91407 3.19405 2.34115C2.81499 2.75808 2.50967 3.2635 2.27809 3.8574C2.0465 4.45131 1.93071 5.10767 1.93071 5.82649C1.93071 6.53489 2.04138 7.18605 2.26273 7.77995C2.49404 8.37413 2.79908 8.88475 3.17787 9.31182C3.56744 9.72848 4.01996 10.0567 4.53542 10.2964C5.05116 10.5256 5.59844 10.6403 6.17727 10.6403C7.27183 10.6403 8.20841 10.432 8.987 10.0153V7.0925C8.987 6.94676 8.92917 6.83212 8.81352 6.74857C8.70838 6.66529 8.60324 6.59749 8.4981 6.54516L8.51221 6.46709C8.56478 6.47668 8.65954 6.48709 8.7965 6.49832C8.93346 6.50791 9.07554 6.51832 9.22274 6.52955H10.5803C10.7067 6.51996 10.8278 6.50955 10.9434 6.49832C11.0591 6.48873 11.1485 6.47832 11.2115 6.46709L11.2286 6.54558Z" fill="black"/>
</svg>
