<svg width="11" height="10" viewBox="0 0 11 10" fill="none" xmlns="http://www.w3.org/2000/svg">
<path d="M6.06429 1.34719L5.78945 1.61833L5.51338 1.34719C5.0004 0.840731 4.30854 0.556749 3.58767 0.556749C2.8668 0.556749 2.17495 0.840731 1.66196 1.34719C1.40736 1.59212 1.20482 1.88592 1.06647 2.21099C0.928123 2.53607 0.856812 2.88572 0.856812 3.23901C0.856812 3.5923 0.928123 3.94195 1.06647 4.26702C1.20482 4.59209 1.40736 4.8859 1.66196 5.13083L5.78945 9.18437L9.91694 5.13083C10.1715 4.8859 10.3741 4.59209 10.5124 4.26702C10.6508 3.94195 10.7221 3.5923 10.7221 3.23901C10.7221 2.88572 10.6508 2.53607 10.5124 2.21099C10.3741 1.88592 10.1715 1.59212 9.91694 1.34719C9.40375 0.840654 8.71169 0.556641 7.99062 0.556641C7.26954 0.556641 6.57749 0.840654 6.06429 1.34719Z" fill="black"/>
</svg>
