<svg width="11" height="10" viewBox="0 0 11 10" fill="none" xmlns="http://www.w3.org/2000/svg">
<path d="M6.06441 1.34719L5.78958 1.61833L5.5135 1.34719C5.00052 0.840731 4.30867 0.556749 3.58779 0.556749C2.86692 0.556749 2.17507 0.840731 1.66208 1.34719C1.40748 1.59212 1.20494 1.88592 1.06659 2.21099C0.928245 2.53607 0.856934 2.88572 0.856934 3.23901C0.856934 3.5923 0.928245 3.94195 1.06659 4.26702C1.20494 4.59209 1.40748 4.8859 1.66208 5.13083L5.78958 9.18437L9.91707 5.13083C10.1717 4.8859 10.3742 4.59209 10.5126 4.26702C10.6509 3.94195 10.7222 3.5923 10.7222 3.23901C10.7222 2.88572 10.6509 2.53607 10.5126 2.21099C10.3742 1.88592 10.1717 1.59212 9.91707 1.34719C9.40387 0.840654 8.71181 0.556641 7.99074 0.556641C7.26967 0.556641 6.57761 0.840654 6.06441 1.34719Z" fill="black"/>
</svg>
