<svg width="22" height="21" viewBox="0 0 22 21" fill="none" xmlns="http://www.w3.org/2000/svg">
<path d="M15.95 0.464844C14.036 0.464844 12.199 1.34768 11 2.74277C9.801 1.34768 7.964 0.464844 6.05 0.464844C2.662 0.464844 0 3.10245 0 6.45939C0 10.5793 3.74 13.9362 9.405 19.0371L11 20.4648L12.595 19.0262C18.26 13.9362 22 10.5793 22 6.45939C22 3.10245 19.338 0.464844 15.95 0.464844ZM11.11 17.4131L11 17.5221L10.89 17.4131C5.654 12.7155 2.2 9.60926 2.2 6.45939C2.2 4.27956 3.85 2.64468 6.05 2.64468C7.744 2.64468 9.394 3.7237 9.977 5.21689H12.034C12.606 3.7237 14.256 2.64468 15.95 2.64468C18.15 2.64468 19.8 4.27956 19.8 6.45939C19.8 9.60926 16.346 12.7155 11.11 17.4131Z" fill="white"/>
</svg>
