<svg width="19" height="23" viewBox="0 0 19 23" fill="none" xmlns="http://www.w3.org/2000/svg">
<path d="M16.0504 8.55184C16.0504 6.86767 15.3814 5.25249 14.1905 4.0616C12.9996 2.87071 11.3845 2.20168 9.70028 2.20168C8.01612 2.20168 6.40093 2.87071 5.21004 4.0616C4.01916 5.25249 3.35012 6.86767 3.35012 8.55184V17.0187H16.0504V8.55184ZM18.1672 17.7246L18.5905 18.2888C18.6495 18.3674 18.6854 18.4609 18.6942 18.5587C18.703 18.6566 18.6844 18.755 18.6405 18.8429C18.5965 18.9308 18.529 19.0047 18.4454 19.0564C18.3618 19.1081 18.2654 19.1354 18.1672 19.1354H1.2334C1.13513 19.1354 1.0388 19.1081 0.955198 19.0564C0.8716 19.0047 0.804041 18.9308 0.760091 18.8429C0.716141 18.755 0.697536 18.6566 0.706362 18.5587C0.715188 18.4609 0.751095 18.3674 0.81006 18.2888L1.2334 17.7246V8.55184C1.2334 6.30629 2.12545 4.1527 3.7133 2.56485C5.30114 0.977005 7.45473 0.0849609 9.70028 0.0849609C11.9458 0.0849609 14.0994 0.977005 15.6873 2.56485C17.2751 4.1527 18.1672 6.30629 18.1672 8.55184V17.7246ZM7.05438 20.1938H12.3462C12.3462 20.8955 12.0674 21.5685 11.5712 22.0647C11.075 22.5609 10.402 22.8397 9.70028 22.8397C8.99855 22.8397 8.32555 22.5609 7.82935 22.0647C7.33315 21.5685 7.05438 20.8955 7.05438 20.1938Z" fill="#696767"/>
</svg>
