<svg width="15" height="13" viewBox="0 0 15 13" fill="none" xmlns="http://www.w3.org/2000/svg">
<path d="M10.7726 0.442383C9.55456 0.442383 8.38556 0.972083 7.62256 1.80914C6.85956 0.972083 5.69056 0.442383 4.47256 0.442383C2.31656 0.442383 0.622559 2.02494 0.622559 4.03911C0.622559 6.51105 3.00256 8.52522 6.60756 11.5857L7.62256 12.4424L8.63756 11.5792C12.2426 8.52522 14.6226 6.51105 14.6226 4.03911C14.6226 2.02494 12.9286 0.442383 10.7726 0.442383ZM7.69256 10.6113L7.62256 10.6767L7.55256 10.6113C4.22056 7.79279 2.02256 5.92903 2.02256 4.03911C2.02256 2.73121 3.07256 1.75028 4.47256 1.75028C5.55056 1.75028 6.60056 2.3977 6.97156 3.29361H8.28056C8.64456 2.3977 9.69456 1.75028 10.7726 1.75028C12.1726 1.75028 13.2226 2.73121 13.2226 4.03911C13.2226 5.92903 11.0246 7.79279 7.69256 10.6113Z" fill="url(#paint0_linear)"/>
<defs>
<linearGradient id="paint0_linear" x1="3.24335" y1="-23.465" x2="18.2444" y2="6.3117" gradientUnits="userSpaceOnUse">
<stop stop-color="#FB09C6"/>
<stop offset="1" stop-color="#35168A"/>
</linearGradient>
</defs>
</svg>
