<svg width="15" height="13" viewBox="0 0 15 13" fill="none" xmlns="http://www.w3.org/2000/svg">
<path d="M10.7011 0.639648C9.48306 0.639648 8.31406 1.16935 7.55106 2.00641C6.78806 1.16935 5.61906 0.639648 4.40106 0.639648C2.24506 0.639648 0.551056 2.22221 0.551056 4.23638C0.551056 6.70831 2.93106 8.72248 6.53606 11.783L7.55106 12.6396L8.56606 11.7764C12.1711 8.72248 14.5511 6.70831 14.5511 4.23638C14.5511 2.22221 12.8571 0.639648 10.7011 0.639648ZM7.62106 10.8086L7.55106 10.874L7.48106 10.8086C4.14906 7.99006 1.95106 6.1263 1.95106 4.23638C1.95106 2.92848 3.00106 1.94755 4.40106 1.94755C5.47906 1.94755 6.52906 2.59496 6.90006 3.49087H8.20906C8.57306 2.59496 9.62306 1.94755 10.7011 1.94755C12.1011 1.94755 13.1511 2.92848 13.1511 4.23638C13.1511 6.1263 10.9531 7.99006 7.62106 10.8086Z" fill="url(#paint0_linear)"/>
<defs>
<linearGradient id="paint0_linear" x1="3.17185" y1="-23.2677" x2="18.1729" y2="6.50897" gradientUnits="userSpaceOnUse">
<stop stop-color="#FB09C6"/>
<stop offset="1" stop-color="#35168A"/>
</linearGradient>
</defs>
</svg>
