<svg width="31" height="31" viewBox="0 0 31 31" fill="none" xmlns="http://www.w3.org/2000/svg">
<path fill-rule="evenodd" clip-rule="evenodd" d="M30.6053 15.4451C30.6053 19.3987 29.033 23.1903 26.2344 25.986C23.4358 28.7816 19.6401 30.3521 15.6823 30.3521C11.7245 30.3521 7.92873 28.7816 5.13012 25.986C2.33152 23.1903 0.759277 19.3987 0.759277 15.4451C0.759277 11.4915 2.33152 7.69986 5.13012 4.90425C7.92873 2.10864 11.7245 0.538086 15.6823 0.538086C19.6401 0.538086 23.4358 2.10864 26.2344 4.90425C29.033 7.69986 30.6053 11.4915 30.6053 15.4451ZM23.1438 15.4451C23.1438 17.4219 22.3577 19.3177 20.9584 20.7155C19.559 22.1133 17.6612 22.8986 15.6823 22.8986C13.7034 22.8986 11.8055 22.1133 10.4062 20.7155C9.0069 19.3177 8.22078 17.4219 8.22078 15.4451C8.22078 13.4683 9.0069 11.5725 10.4062 10.1747C11.8055 8.77687 13.7034 7.99159 15.6823 7.99159C17.6612 7.99159 19.559 8.77687 20.9584 10.1747C22.3577 11.5725 23.1438 13.4683 23.1438 15.4451Z" fill="url(#paint0_linear)"/>
<defs>
<linearGradient id="paint0_linear" x1="6.34643" y1="-58.8597" x2="46.8453" y2="10.1189" gradientUnits="userSpaceOnUse">
<stop stop-color="#FB09C6"/>
<stop offset="1" stop-color="#35168A"/>
</linearGradient>
</defs>
</svg>
