<svg width="19" height="23" viewBox="0 0 19 23" fill="none" xmlns="http://www.w3.org/2000/svg">
<path d="M16.0505 8.58358C16.0505 6.89941 15.3814 5.28422 14.1906 4.09334C12.9997 2.90245 11.3845 2.23342 9.70032 2.23342C8.01615 2.23342 6.40096 2.90245 5.21007 4.09334C4.01919 5.28422 3.35015 6.89941 3.35015 8.58358V17.0505H16.0505V8.58358ZM18.1672 17.7564L18.5905 18.3205C18.6495 18.3991 18.6854 18.4926 18.6942 18.5905C18.7031 18.6884 18.6845 18.7868 18.6405 18.8747C18.5966 18.9626 18.529 19.0365 18.4454 19.0881C18.3618 19.1398 18.2655 19.1672 18.1672 19.1672H1.23343C1.13516 19.1672 1.03883 19.1398 0.955228 19.0881C0.87163 19.0365 0.804071 18.9626 0.760121 18.8747C0.716171 18.7868 0.697567 18.6884 0.706393 18.5905C0.715218 18.4926 0.751125 18.3991 0.81009 18.3205L1.23343 17.7564V8.58358C1.23343 6.33802 2.12548 4.18444 3.71333 2.59659C5.30117 1.00874 7.45476 0.116699 9.70032 0.116699C11.9459 0.116699 14.0995 1.00874 15.6873 2.59659C17.2752 4.18444 18.1672 6.33802 18.1672 8.58358V17.7564ZM7.05441 20.2255H12.3462C12.3462 20.9273 12.0675 21.6003 11.5712 22.0965C11.075 22.5927 10.4021 22.8714 9.70032 22.8714C8.99858 22.8714 8.32558 22.5927 7.82938 22.0965C7.33318 21.6003 7.05441 20.9273 7.05441 20.2255Z" fill="black"/>
</svg>
