<svg width="15" height="13" viewBox="0 0 15 13" fill="none" xmlns="http://www.w3.org/2000/svg">
<path d="M10.4857 0.923828C9.26769 0.923828 8.09869 1.45353 7.33569 2.29059C6.57269 1.45353 5.40369 0.923828 4.18569 0.923828C2.02969 0.923828 0.335693 2.50639 0.335693 4.52056C0.335693 6.99249 2.71569 9.00666 6.32069 12.0672L7.33569 12.9238L8.35069 12.0606C11.9557 9.00666 14.3357 6.99249 14.3357 4.52056C14.3357 2.50639 12.6417 0.923828 10.4857 0.923828ZM7.40569 11.0928L7.33569 11.1582L7.26569 11.0928C3.93369 8.27424 1.73569 6.41048 1.73569 4.52056C1.73569 3.21266 2.78569 2.23173 4.18569 2.23173C5.26369 2.23173 6.31369 2.87914 6.68469 3.77505H7.99369C8.35769 2.87914 9.40769 2.23173 10.4857 2.23173C11.8857 2.23173 12.9357 3.21266 12.9357 4.52056C12.9357 6.41048 10.7377 8.27424 7.40569 11.0928Z" fill="url(#paint0_linear)"/>
<defs>
<linearGradient id="paint0_linear" x1="2.95648" y1="-22.9835" x2="17.9576" y2="6.79315" gradientUnits="userSpaceOnUse">
<stop stop-color="#FB09C6"/>
<stop offset="1" stop-color="#35168A"/>
</linearGradient>
</defs>
</svg>
