<svg width="15" height="13" viewBox="0 0 15 13" fill="none" xmlns="http://www.w3.org/2000/svg">
<path d="M10.5101 0.21875C9.29211 0.21875 8.12311 0.74845 7.36011 1.58551C6.59711 0.74845 5.42811 0.21875 4.21011 0.21875C2.05411 0.21875 0.360107 1.80131 0.360107 3.81548C0.360107 6.28741 2.74011 8.30158 6.34511 11.3621L7.36011 12.2188L8.37511 11.3555C11.9801 8.30158 14.3601 6.28741 14.3601 3.81548C14.3601 1.80131 12.6661 0.21875 10.5101 0.21875ZM7.43011 10.3877L7.36011 10.4531L7.29011 10.3877C3.95811 7.56916 1.76011 5.7054 1.76011 3.81548C1.76011 2.50758 2.81011 1.52665 4.21011 1.52665C5.28811 1.52665 6.33811 2.17406 6.70911 3.06998H8.01811C8.38211 2.17406 9.43211 1.52665 10.5101 1.52665C11.9101 1.52665 12.9601 2.50758 12.9601 3.81548C12.9601 5.7054 10.7621 7.56916 7.43011 10.3877Z" fill="url(#paint0_linear)"/>
<defs>
<linearGradient id="paint0_linear" x1="2.9809" y1="-23.6886" x2="17.982" y2="6.08807" gradientUnits="userSpaceOnUse">
<stop stop-color="#FB09C6"/>
<stop offset="1" stop-color="#35168A"/>
</linearGradient>
</defs>
</svg>
