<svg width="11" height="12" viewBox="0 0 11 12" fill="none" xmlns="http://www.w3.org/2000/svg">
<path d="M10.6628 0.700144C10.5577 0.752193 10.4525 0.819991 10.3474 0.903542C10.242 0.98682 10.184 1.1431 10.1735 1.37239C10.1638 1.62249 10.1533 1.94027 10.1419 2.3257C10.1419 2.701 10.1372 3.12834 10.1278 3.60774C10.1278 4.08686 10.123 4.60776 10.1133 5.17043V6.9209C10.1036 7.59808 10.0194 8.17637 9.86056 8.65576C9.70285 9.13516 9.49243 9.5362 9.2293 9.8589C8.97669 10.1822 8.69253 10.4375 8.37684 10.6248C8.07165 10.8125 7.76647 10.9532 7.46129 11.0468C7.16662 11.1509 6.88772 11.2135 6.62459 11.2346C6.36146 11.2659 6.15616 11.2815 6.00869 11.2815C5.40884 11.2815 4.83001 11.2034 4.27222 11.0473C3.71442 10.9013 3.2251 10.6616 2.80427 10.3282C2.38343 9.99451 2.0467 9.56209 1.79409 9.03092C1.54148 8.49948 1.41517 7.85339 1.41517 7.09266V5.32657V3.70101C1.41517 3.20107 1.41033 2.75318 1.40064 2.35734C1.40064 1.95081 1.3958 1.62249 1.38612 1.37239C1.37671 1.1431 1.31888 0.986954 1.21264 0.90395C1.1075 0.820398 1.00236 0.752467 0.897217 0.700144L0.911328 0.62207C0.963898 0.631658 1.04829 0.642063 1.16449 0.653295C1.29066 0.662883 1.41683 0.673294 1.543 0.684526C1.67996 0.684526 1.81138 0.689321 1.93727 0.698909H2.50586C2.63231 0.689321 2.76387 0.684526 2.90055 0.684526C3.03751 0.674938 3.16382 0.664526 3.27947 0.653295C3.40564 0.643707 3.49501 0.633302 3.54758 0.62207L3.56211 0.700144C3.44645 0.752193 3.33592 0.819991 3.2305 0.903542C3.13587 0.98682 3.0833 1.1431 3.07279 1.37239C3.0631 1.62249 3.05259 1.95068 3.04125 2.35693V7.09266C3.04125 8.22842 3.30963 9.06722 3.8464 9.60908C4.38317 10.1509 5.17767 10.4219 6.2299 10.4219C6.53508 10.4219 6.88232 10.3853 7.27162 10.3121C7.66119 10.2289 8.02434 10.0622 8.36106 9.81206C8.7083 9.56195 8.99772 9.20775 9.2293 8.74945C9.4714 8.29087 9.59245 7.68136 9.59245 6.9209C9.59245 6.09771 9.58761 5.39438 9.57792 4.81088C9.57792 4.21698 9.57308 3.71156 9.5634 3.29463C9.5634 2.86728 9.55856 2.50267 9.54887 2.20078C9.53946 1.89863 9.52895 1.62249 9.51733 1.37239C9.50792 1.1431 9.4501 0.98682 9.34385 0.903542C9.23871 0.820265 9.13357 0.752467 9.02843 0.700144L9.04254 0.62207C9.15847 0.64289 9.29003 0.663846 9.43723 0.684939C9.5847 0.694253 9.72166 0.698909 9.84811 0.698909C9.96348 0.698909 10.0949 0.694253 10.2424 0.684939C10.4001 0.66412 10.5369 0.643164 10.6528 0.62207L10.6628 0.700144Z" fill="black"/>
</svg>
