<svg width="15" height="13" viewBox="0 0 15 13" fill="none" xmlns="http://www.w3.org/2000/svg">
<path d="M10.4857 0.866211C9.26769 0.866211 8.09869 1.39591 7.33569 2.23297C6.57269 1.39591 5.40369 0.866211 4.18569 0.866211C2.02969 0.866211 0.335693 2.44877 0.335693 4.46294C0.335693 6.93488 2.71569 8.94905 6.32069 12.0095L7.33569 12.8662L8.35069 12.003C11.9557 8.94905 14.3357 6.93488 14.3357 4.46294C14.3357 2.44877 12.6417 0.866211 10.4857 0.866211ZM7.40569 11.0351L7.33569 11.1005L7.26569 11.0351C3.93369 8.21662 1.73569 6.35286 1.73569 4.46294C1.73569 3.15504 2.78569 2.17411 4.18569 2.17411C5.26369 2.17411 6.31369 2.82152 6.68469 3.71744H7.99369C8.35769 2.82152 9.40769 2.17411 10.4857 2.17411C11.8857 2.17411 12.9357 3.15504 12.9357 4.46294C12.9357 6.35286 10.7377 8.21662 7.40569 11.0351Z" fill="url(#paint0_linear)"/>
<defs>
<linearGradient id="paint0_linear" x1="2.95648" y1="-23.0411" x2="17.9576" y2="6.73553" gradientUnits="userSpaceOnUse">
<stop stop-color="#FB09C6"/>
<stop offset="1" stop-color="#35168A"/>
</linearGradient>
</defs>
</svg>
