<svg width="18" height="16" viewBox="0 0 18 16" fill="none" xmlns="http://www.w3.org/2000/svg">
<path d="M12.8609 0.71875C11.3638 0.71875 9.92697 1.36982 8.98914 2.39867C8.05132 1.36982 6.61446 0.71875 5.11738 0.71875C2.46737 0.71875 0.385223 2.66393 0.385223 5.1396C0.385223 8.17794 3.31056 10.6536 7.74157 14.4154L8.98914 15.4683L10.2367 14.4073C14.6677 10.6536 17.5931 8.17794 17.5931 5.1396C17.5931 2.66393 15.5109 0.71875 12.8609 0.71875ZM9.07518 13.2177L8.98914 13.2981L8.9031 13.2177C4.80764 9.75337 2.10601 7.46256 2.10601 5.1396C2.10601 3.53202 3.3966 2.32633 5.11738 2.32633C6.44238 2.32633 7.73297 3.12209 8.18898 4.22328H9.79791C10.2453 3.12209 11.5359 2.32633 12.8609 2.32633C14.5817 2.32633 15.8723 3.53202 15.8723 5.1396C15.8723 7.46256 13.1706 9.75337 9.07518 13.2177Z" fill="url(#paint0_linear)"/>
<defs>
<linearGradient id="paint0_linear" x1="3.60652" y1="-28.6665" x2="22.0448" y2="7.93291" gradientUnits="userSpaceOnUse">
<stop stop-color="#FB09C6"/>
<stop offset="1" stop-color="#35168A"/>
</linearGradient>
</defs>
</svg>
