<svg width="15" height="13" viewBox="0 0 15 13" fill="none" xmlns="http://www.w3.org/2000/svg">
<path d="M10.4857 0.161133C9.26769 0.161133 8.09869 0.690833 7.33569 1.52789C6.57269 0.690833 5.40369 0.161133 4.18569 0.161133C2.02969 0.161133 0.335693 1.74369 0.335693 3.75786C0.335693 6.2298 2.71569 8.24397 6.32069 11.3045L7.33569 12.1611L8.35069 11.2979C11.9557 8.24397 14.3357 6.2298 14.3357 3.75786C14.3357 1.74369 12.6417 0.161133 10.4857 0.161133ZM7.40569 10.3301L7.33569 10.3955L7.26569 10.3301C3.93369 7.51154 1.73569 5.64778 1.73569 3.75786C1.73569 2.44996 2.78569 1.46903 4.18569 1.46903C5.26369 1.46903 6.31369 2.11645 6.68469 3.01236H7.99369C8.35769 2.11645 9.40769 1.46903 10.4857 1.46903C11.8857 1.46903 12.9357 2.44996 12.9357 3.75786C12.9357 5.64778 10.7377 7.51154 7.40569 10.3301Z" fill="url(#paint0_linear)"/>
<defs>
<linearGradient id="paint0_linear" x1="2.95648" y1="-23.7462" x2="17.9576" y2="6.03045" gradientUnits="userSpaceOnUse">
<stop stop-color="#FB09C6"/>
<stop offset="1" stop-color="#35168A"/>
</linearGradient>
</defs>
</svg>
