<svg width="16" height="12" viewBox="0 0 16 12" fill="none" xmlns="http://www.w3.org/2000/svg">
<path fill-rule="evenodd" clip-rule="evenodd" d="M8.33033 2.46081C10.5462 2.46092 12.6774 3.34937 14.2833 4.94255C14.4043 5.06555 14.5976 5.064 14.7167 4.93907L15.8727 3.72168C15.933 3.65832 15.9666 3.57249 15.9661 3.48319C15.9656 3.39389 15.931 3.30848 15.87 3.24586C11.6549 -0.969322 5.0051 -0.969322 0.789998 3.24586C0.728939 3.30843 0.694296 3.39382 0.693733 3.48312C0.69317 3.57242 0.726734 3.65828 0.786998 3.72168L1.94333 4.93907C2.06236 5.06419 2.25581 5.06574 2.37666 4.94255C3.98282 3.34927 6.11422 2.46081 8.33033 2.46081ZM8.33033 6.42151C9.54782 6.42143 10.7219 6.89364 11.6243 7.74638C11.7464 7.8674 11.9387 7.86478 12.0577 7.74047L13.2123 6.52308C13.2731 6.45922 13.3069 6.37259 13.306 6.28258C13.3051 6.19256 13.2697 6.10667 13.2077 6.04412C10.4595 3.37659 6.20353 3.37659 3.45533 6.04412C3.39325 6.10667 3.35784 6.19261 3.35702 6.28265C3.35621 6.37269 3.39006 6.45931 3.451 6.52308L4.60533 7.74047C4.72432 7.86478 4.9166 7.8674 5.03866 7.74638C5.94054 6.8942 7.11365 6.42204 8.33033 6.42151ZM10.6433 9.08636C10.6451 9.17663 10.6111 9.26366 10.5493 9.3269L8.552 11.4302C8.49345 11.492 8.41362 11.5268 8.33033 11.5268C8.24704 11.5268 8.16722 11.492 8.10867 11.4302L6.111 9.3269C6.04929 9.26361 6.01534 9.17656 6.01717 9.08629C6.019 8.99602 6.05644 8.91054 6.12066 8.85003C7.39624 7.72424 9.26443 7.72424 10.54 8.85003C10.6042 8.91059 10.6416 8.9961 10.6433 9.08636Z" fill="white"/>
</svg>
