<svg width="16" height="12" viewBox="0 0 16 12" fill="none" xmlns="http://www.w3.org/2000/svg">
<path d="M8.00609 11.3309C7.96479 11.3307 7.92392 11.3224 7.88582 11.3065C7.84773 11.2905 7.81316 11.2672 7.78409 11.2379L5.77809 9.21586C5.74728 9.18596 5.72301 9.14999 5.70683 9.11022C5.69065 9.07046 5.68291 9.02777 5.68409 8.98486C5.68458 8.94223 5.6937 8.90014 5.71088 8.86113C5.72807 8.82212 5.75297 8.78699 5.78409 8.75786C6.40443 8.2336 7.19039 7.94597 8.00259 7.94597C8.81479 7.94597 9.60075 8.2336 10.2211 8.75786C10.2528 8.78668 10.2784 8.82169 10.2961 8.86073C10.3139 8.89978 10.3235 8.94203 10.3243 8.98491C10.3252 9.0278 10.3172 9.0704 10.301 9.11011C10.2848 9.14982 10.2607 9.1858 10.2301 9.21586L8.22809 11.2379C8.19902 11.2672 8.16445 11.2905 8.12635 11.3065C8.08826 11.3224 8.04739 11.3307 8.00609 11.3309ZM11.5291 7.78186C11.4491 7.78173 11.3721 7.75095 11.3141 7.69585C10.4081 6.87622 9.22985 6.42238 8.00809 6.42238C6.78633 6.42238 5.60813 6.87622 4.70209 7.69585C4.64405 7.75095 4.56711 7.78173 4.48709 7.78186C4.44621 7.78204 4.40571 7.77409 4.36794 7.75847C4.33017 7.74285 4.29589 7.71986 4.26709 7.69086L3.10709 6.51986C3.07649 6.48987 3.05218 6.45409 3.03558 6.4146C3.01899 6.3751 3.01044 6.33269 3.01044 6.28986C3.01044 6.24702 3.01899 6.20461 3.03558 6.16511C3.05218 6.12562 3.07649 6.08984 3.10709 6.05985C4.43755 4.82363 6.18645 4.13653 8.00259 4.13653C9.81873 4.13653 11.5676 4.82363 12.8981 6.05985C12.9292 6.08959 12.9541 6.12525 12.9713 6.16475C12.9885 6.20425 12.9976 6.24679 12.9981 6.28986C12.9985 6.3326 12.9903 6.37499 12.9739 6.4145C12.9576 6.45401 12.9335 6.48984 12.9031 6.51986L11.7481 7.69086C11.7194 7.7197 11.6852 7.74258 11.6477 7.7582C11.6101 7.77382 11.5698 7.78186 11.5291 7.78186ZM14.1981 5.08885C14.1582 5.08922 14.1186 5.08162 14.0817 5.06651C14.0448 5.0514 14.0113 5.02908 13.9831 5.00085C12.37 3.46883 10.2303 2.61465 8.00559 2.61465C5.78092 2.61465 3.64118 3.46883 2.02809 5.00085C1.99957 5.02949 1.96567 5.05221 1.92835 5.06771C1.89102 5.08321 1.851 5.09119 1.81059 5.09119C1.77017 5.09119 1.73015 5.08321 1.69283 5.06771C1.65551 5.05221 1.62161 5.02949 1.59309 5.00085L0.433088 3.83085C0.403063 3.80086 0.379245 3.76524 0.362994 3.72603C0.346743 3.68682 0.338379 3.6448 0.338379 3.60236C0.338379 3.55991 0.346743 3.51789 0.362994 3.47868C0.379245 3.43947 0.403063 3.40385 0.433088 3.37385C2.4708 1.42327 5.18276 0.334473 8.00359 0.334473C10.8244 0.334473 13.5364 1.42327 15.5741 3.37385C15.6041 3.40385 15.6279 3.43947 15.6442 3.47868C15.6604 3.51789 15.6688 3.55991 15.6688 3.60236C15.6688 3.6448 15.6604 3.68682 15.6442 3.72603C15.6279 3.76524 15.6041 3.80086 15.5741 3.83085L14.4131 5.00085C14.3558 5.05731 14.2785 5.08892 14.1981 5.08885Z" fill="white"/>
</svg>
