<svg width="16" height="12" viewBox="0 0 16 12" fill="none" xmlns="http://www.w3.org/2000/svg">
<path fill-rule="evenodd" clip-rule="evenodd" d="M8.33045 2.46033C10.5463 2.46043 12.6775 3.34888 14.2835 4.94206C14.4044 5.06506 14.5977 5.06351 14.7168 4.93859L15.8728 3.7212C15.9331 3.65783 15.9667 3.57201 15.9662 3.4827C15.9657 3.3934 15.9311 3.30799 15.8701 3.24537C11.655 -0.969811 5.00522 -0.969811 0.79012 3.24537C0.729062 3.30794 0.694418 3.39333 0.693855 3.48263C0.693292 3.57193 0.726856 3.65779 0.78712 3.7212L1.94345 4.93859C2.06248 5.0637 2.25593 5.06525 2.37679 4.94206C3.98294 3.34878 6.11434 2.46032 8.33045 2.46033ZM8.33045 6.42102C9.54794 6.42094 10.722 6.89315 11.6245 7.74589C11.7465 7.86691 11.9388 7.86429 12.0578 7.73998L13.2125 6.52259C13.2733 6.45873 13.307 6.37211 13.3061 6.28209C13.3052 6.19207 13.2698 6.10618 13.2078 6.04363C10.4596 3.3761 6.20365 3.3761 3.45545 6.04363C3.39338 6.10618 3.35796 6.19212 3.35714 6.28216C3.35633 6.37221 3.39018 6.45882 3.45112 6.52259L4.60545 7.73998C4.72444 7.86429 4.91672 7.86691 5.03879 7.74589C5.94066 6.89371 7.11377 6.42155 8.33045 6.42102ZM10.6434 9.08588C10.6452 9.17614 10.6112 9.26317 10.5495 9.32641L8.55212 11.4297C8.49357 11.4915 8.41374 11.5263 8.33045 11.5263C8.24716 11.5263 8.16734 11.4915 8.10879 11.4297L6.11112 9.32641C6.04941 9.26312 6.01546 9.17607 6.01729 9.0858C6.01912 8.99553 6.05657 8.91005 6.12079 8.84954C7.39636 7.72375 9.26455 7.72375 10.5401 8.84954C10.6043 8.9101 10.6417 8.99561 10.6434 9.08588Z" fill="white"/>
</svg>
