<svg width="16" height="12" viewBox="0 0 16 12" fill="none" xmlns="http://www.w3.org/2000/svg">
<path fill-rule="evenodd" clip-rule="evenodd" d="M8.33045 2.46081C10.5463 2.46092 12.6775 3.34937 14.2835 4.94255C14.4044 5.06555 14.5977 5.064 14.7168 4.93907L15.8728 3.72168C15.9331 3.65832 15.9667 3.57249 15.9662 3.48319C15.9657 3.39389 15.9311 3.30848 15.8701 3.24586C11.655 -0.969322 5.00522 -0.969322 0.79012 3.24586C0.729062 3.30843 0.694418 3.39382 0.693855 3.48312C0.693292 3.57242 0.726856 3.65828 0.78712 3.72168L1.94345 4.93907C2.06248 5.06419 2.25593 5.06574 2.37679 4.94255C3.98294 3.34927 6.11434 2.46081 8.33045 2.46081ZM8.33045 6.42151C9.54794 6.42143 10.722 6.89364 11.6245 7.74638C11.7465 7.8674 11.9388 7.86478 12.0578 7.74047L13.2125 6.52308C13.2733 6.45922 13.307 6.37259 13.3061 6.28258C13.3052 6.19256 13.2698 6.10667 13.2078 6.04412C10.4596 3.37659 6.20365 3.37659 3.45545 6.04412C3.39338 6.10667 3.35796 6.19261 3.35714 6.28265C3.35633 6.37269 3.39018 6.45931 3.45112 6.52308L4.60545 7.74047C4.72444 7.86478 4.91672 7.8674 5.03879 7.74638C5.94066 6.8942 7.11377 6.42204 8.33045 6.42151ZM10.6434 9.08636C10.6452 9.17663 10.6112 9.26366 10.5495 9.3269L8.55212 11.4302C8.49357 11.492 8.41374 11.5268 8.33045 11.5268C8.24716 11.5268 8.16734 11.492 8.10879 11.4302L6.11112 9.3269C6.04941 9.26361 6.01546 9.17656 6.01729 9.08629C6.01912 8.99602 6.05657 8.91054 6.12079 8.85003C7.39636 7.72424 9.26455 7.72424 10.5401 8.85003C10.6043 8.91059 10.6417 8.9961 10.6434 9.08636Z" fill="white"/>
</svg>
