<svg width="17" height="12" viewBox="0 0 17 12" fill="none" xmlns="http://www.w3.org/2000/svg">
<path d="M8.50609 11.3309C8.46479 11.3307 8.42392 11.3224 8.38582 11.3065C8.34773 11.2905 8.31316 11.2672 8.28409 11.2379L6.27809 9.21586C6.24728 9.18596 6.22301 9.14999 6.20683 9.11022C6.19065 9.07046 6.18291 9.02777 6.18409 8.98486C6.18458 8.94223 6.1937 8.90014 6.21088 8.86113C6.22807 8.82212 6.25297 8.78699 6.28409 8.75786C6.90443 8.2336 7.69039 7.94597 8.50259 7.94597C9.31479 7.94597 10.1007 8.2336 10.7211 8.75786C10.7528 8.78668 10.7784 8.82169 10.7961 8.86073C10.8139 8.89978 10.8235 8.94203 10.8243 8.98491C10.8252 9.0278 10.8172 9.0704 10.801 9.11011C10.7848 9.14982 10.7607 9.1858 10.7301 9.21586L8.72809 11.2379C8.69902 11.2672 8.66445 11.2905 8.62635 11.3065C8.58826 11.3224 8.54739 11.3307 8.50609 11.3309ZM12.0291 7.78186C11.9491 7.78173 11.8721 7.75095 11.8141 7.69585C10.9081 6.87622 9.72985 6.42238 8.50809 6.42238C7.28633 6.42238 6.10813 6.87622 5.20209 7.69585C5.14405 7.75095 5.06711 7.78173 4.98709 7.78186C4.94621 7.78204 4.90571 7.77409 4.86794 7.75847C4.83017 7.74285 4.79589 7.71986 4.76709 7.69086L3.60709 6.51986C3.57649 6.48987 3.55218 6.45409 3.53558 6.4146C3.51899 6.3751 3.51044 6.33269 3.51044 6.28986C3.51044 6.24702 3.51899 6.20461 3.53558 6.16511C3.55218 6.12562 3.57649 6.08984 3.60709 6.05985C4.93755 4.82363 6.68645 4.13653 8.50259 4.13653C10.3187 4.13653 12.0676 4.82363 13.3981 6.05985C13.4292 6.08959 13.4541 6.12525 13.4713 6.16475C13.4885 6.20425 13.4976 6.24679 13.4981 6.28986C13.4985 6.3326 13.4903 6.37499 13.4739 6.4145C13.4576 6.45401 13.4335 6.48984 13.4031 6.51986L12.2481 7.69086C12.2194 7.7197 12.1852 7.74258 12.1477 7.7582C12.1101 7.77382 12.0698 7.78186 12.0291 7.78186ZM14.6981 5.08885C14.6582 5.08922 14.6186 5.08162 14.5817 5.06651C14.5448 5.0514 14.5113 5.02908 14.4831 5.00085C12.87 3.46883 10.7303 2.61465 8.50559 2.61465C6.28092 2.61465 4.14118 3.46883 2.52809 5.00085C2.49957 5.02949 2.46567 5.05221 2.42835 5.06771C2.39102 5.08321 2.351 5.09119 2.31059 5.09119C2.27017 5.09119 2.23015 5.08321 2.19283 5.06771C2.15551 5.05221 2.12161 5.02949 2.09309 5.00085L0.933088 3.83085C0.903063 3.80086 0.879245 3.76524 0.862994 3.72603C0.846743 3.68682 0.838379 3.6448 0.838379 3.60236C0.838379 3.55991 0.846743 3.51789 0.862994 3.47868C0.879245 3.43947 0.903063 3.40385 0.933088 3.37385C2.9708 1.42327 5.68276 0.334473 8.50359 0.334473C11.3244 0.334473 14.0364 1.42327 16.0741 3.37385C16.1041 3.40385 16.1279 3.43947 16.1442 3.47868C16.1604 3.51789 16.1688 3.55991 16.1688 3.60236C16.1688 3.6448 16.1604 3.68682 16.1442 3.72603C16.1279 3.76524 16.1041 3.80086 16.0741 3.83085L14.9131 5.00085C14.8558 5.05731 14.7785 5.08892 14.6981 5.08885Z" fill="black"/>
</svg>
