<svg width="17" height="12" viewBox="0 0 17 12" fill="none" xmlns="http://www.w3.org/2000/svg">
<path d="M8.506 11.3309C8.46469 11.3307 8.42383 11.3224 8.38573 11.3065C8.34764 11.2905 8.31307 11.2672 8.284 11.2379L6.278 9.21586C6.24719 9.18596 6.22292 9.14999 6.20674 9.11022C6.19056 9.07046 6.18282 9.02777 6.184 8.98486C6.18449 8.94223 6.19361 8.90014 6.21079 8.86113C6.22798 8.82212 6.25288 8.78699 6.284 8.75786C6.90434 8.2336 7.6903 7.94597 8.5025 7.94597C9.3147 7.94597 10.1007 8.2336 10.721 8.75786C10.7528 8.78668 10.7783 8.82169 10.796 8.86073C10.8138 8.89978 10.8234 8.94203 10.8242 8.98491C10.8251 9.0278 10.8171 9.0704 10.8009 9.11011C10.7847 9.14982 10.7606 9.1858 10.73 9.21586L8.728 11.2379C8.69893 11.2672 8.66436 11.2905 8.62626 11.3065C8.58817 11.3224 8.5473 11.3307 8.506 11.3309ZM12.029 7.78186C11.949 7.78173 11.872 7.75095 11.814 7.69585C10.908 6.87622 9.72976 6.42238 8.508 6.42238C7.28624 6.42238 6.10803 6.87622 5.202 7.69585C5.14396 7.75095 5.06702 7.78173 4.987 7.78186C4.94612 7.78204 4.90562 7.77409 4.86785 7.75847C4.83008 7.74285 4.79579 7.71986 4.767 7.69086L3.607 6.51986C3.5764 6.48987 3.55209 6.45409 3.53549 6.4146C3.5189 6.3751 3.51035 6.33269 3.51035 6.28986C3.51035 6.24702 3.5189 6.20461 3.53549 6.16511C3.55209 6.12562 3.5764 6.08984 3.607 6.05985C4.93746 4.82363 6.68635 4.13653 8.5025 4.13653C10.3186 4.13653 12.0675 4.82363 13.398 6.05985C13.4292 6.08959 13.4541 6.12525 13.4712 6.16475C13.4884 6.20425 13.4975 6.24679 13.498 6.28986C13.4984 6.3326 13.4902 6.37499 13.4738 6.4145C13.4575 6.45401 13.4334 6.48984 13.403 6.51986L12.248 7.69086C12.2193 7.7197 12.1852 7.74258 12.1476 7.7582C12.11 7.77382 12.0697 7.78186 12.029 7.78186ZM14.698 5.08885C14.6581 5.08922 14.6185 5.08162 14.5816 5.06651C14.5447 5.0514 14.5112 5.02908 14.483 5.00085C12.8699 3.46883 10.7302 2.61465 8.5055 2.61465C6.28083 2.61465 4.14108 3.46883 2.528 5.00085C2.49947 5.02949 2.46558 5.05221 2.42825 5.06771C2.39093 5.08321 2.35091 5.09119 2.3105 5.09119C2.27008 5.09119 2.23006 5.08321 2.19274 5.06771C2.15542 5.05221 2.12152 5.02949 2.093 5.00085L0.932996 3.83085C0.902972 3.80086 0.879153 3.76524 0.862903 3.72603C0.846652 3.68682 0.838287 3.6448 0.838287 3.60236C0.838287 3.55991 0.846652 3.51789 0.862903 3.47868C0.879153 3.43947 0.902972 3.40385 0.932996 3.37385C2.9707 1.42327 5.68267 0.334473 8.5035 0.334473C11.3243 0.334473 14.0363 1.42327 16.074 3.37385C16.104 3.40385 16.1278 3.43947 16.1441 3.47868C16.1603 3.51789 16.1687 3.55991 16.1687 3.60236C16.1687 3.6448 16.1603 3.68682 16.1441 3.72603C16.1278 3.76524 16.104 3.80086 16.074 3.83085L14.913 5.00085C14.8557 5.05731 14.7784 5.08892 14.698 5.08885Z" fill="black"/>
</svg>
