<svg width="17" height="12" viewBox="0 0 17 12" fill="none" xmlns="http://www.w3.org/2000/svg">
<path d="M8.5056 11.3313C8.4643 11.3312 8.42343 11.3229 8.38533 11.307C8.34724 11.291 8.31267 11.2677 8.2836 11.2383L6.2776 9.21634C6.24679 9.18645 6.22253 9.15048 6.20635 9.11071C6.19016 9.07095 6.18242 9.02826 6.1836 8.98534C6.18409 8.94272 6.19321 8.90063 6.2104 8.86162C6.22758 8.82261 6.25248 8.78748 6.2836 8.75834C6.90394 8.23409 7.6899 7.94646 8.5021 7.94646C9.3143 7.94646 10.1003 8.23409 10.7206 8.75834C10.7524 8.78717 10.7779 8.82218 10.7956 8.86122C10.8134 8.90026 10.823 8.94252 10.8238 8.9854C10.8247 9.02828 10.8168 9.07089 10.8005 9.1106C10.7843 9.15031 10.7602 9.18629 10.7296 9.21634L8.7276 11.2383C8.69853 11.2677 8.66396 11.291 8.62586 11.307C8.58777 11.3229 8.5469 11.3312 8.5056 11.3313ZM12.0286 7.78234C11.9486 7.78222 11.8716 7.75144 11.8136 7.69634C10.9076 6.87671 9.72936 6.42287 8.5076 6.42287C7.28584 6.42287 6.10764 6.87671 5.2016 7.69634C5.14356 7.75144 5.06662 7.78222 4.9866 7.78234C4.94573 7.78253 4.90522 7.77458 4.86745 7.75896C4.82968 7.74334 4.7954 7.72035 4.7666 7.69134L3.6066 6.52034C3.576 6.49036 3.55169 6.45458 3.5351 6.41508C3.5185 6.37559 3.50995 6.33318 3.50995 6.29034C3.50995 6.2475 3.5185 6.2051 3.5351 6.1656C3.55169 6.12611 3.576 6.09032 3.6066 6.06034C4.93706 4.82412 6.68596 4.13702 8.5021 4.13702C10.3182 4.13702 12.0671 4.82412 13.3976 6.06034C13.4288 6.09008 13.4537 6.12574 13.4708 6.16524C13.488 6.20474 13.4971 6.24728 13.4976 6.29034C13.498 6.33309 13.4898 6.37548 13.4735 6.41499C13.4571 6.4545 13.433 6.49033 13.4026 6.52034L12.2476 7.69134C12.2189 7.72019 12.1848 7.74307 12.1472 7.75869C12.1096 7.77431 12.0693 7.78234 12.0286 7.78234ZM14.6976 5.08934C14.6577 5.0897 14.6182 5.08211 14.5812 5.067C14.5443 5.05189 14.5108 5.02957 14.4826 5.00134C12.8695 3.46932 10.7298 2.61514 8.5051 2.61514C6.28043 2.61514 4.14069 3.46932 2.5276 5.00134C2.49908 5.02998 2.46518 5.0527 2.42786 5.0682C2.39053 5.0837 2.35052 5.09168 2.3101 5.09168C2.26968 5.09168 2.22967 5.0837 2.19234 5.0682C2.15502 5.0527 2.12112 5.02998 2.0926 5.00134L0.9326 3.83134C0.902575 3.80135 0.878757 3.76573 0.862506 3.72652C0.846255 3.68731 0.837891 3.64529 0.837891 3.60284C0.837891 3.5604 0.846255 3.51838 0.862506 3.47917C0.878757 3.43996 0.902575 3.40434 0.9326 3.37434C2.97031 1.42375 5.68228 0.334961 8.5031 0.334961C11.3239 0.334961 14.0359 1.42375 16.0736 3.37434C16.1036 3.40434 16.1274 3.43996 16.1437 3.47917C16.1599 3.51838 16.1683 3.5604 16.1683 3.60284C16.1683 3.64529 16.1599 3.68731 16.1437 3.72652C16.1274 3.76573 16.1036 3.80135 16.0736 3.83134L14.9126 5.00134C14.8553 5.0578 14.778 5.08941 14.6976 5.08934Z" fill="white"/>
</svg>
