<svg width="16" height="12" viewBox="0 0 16 12" fill="none" xmlns="http://www.w3.org/2000/svg">
<path fill-rule="evenodd" clip-rule="evenodd" d="M8.32996 2.46033C10.5459 2.46043 12.677 3.34888 14.283 4.94206C14.4039 5.06506 14.5972 5.06351 14.7163 4.93859L15.8723 3.7212C15.9326 3.65783 15.9662 3.57201 15.9657 3.4827C15.9652 3.3934 15.9306 3.30799 15.8696 3.24537C11.6545 -0.969811 5.00473 -0.969811 0.789632 3.24537C0.728573 3.30794 0.693929 3.39333 0.693366 3.48263C0.692803 3.57193 0.726368 3.65779 0.786632 3.7212L1.94297 4.93859C2.06199 5.0637 2.25544 5.06525 2.3763 4.94206C3.98245 3.34878 6.11385 2.46032 8.32996 2.46033ZM8.32996 6.42102C9.54745 6.42094 10.7215 6.89315 11.624 7.74589C11.746 7.86691 11.9383 7.86429 12.0573 7.73998L13.212 6.52259C13.2728 6.45873 13.3065 6.37211 13.3056 6.28209C13.3048 6.19207 13.2693 6.10618 13.2073 6.04363C10.4591 3.3761 6.20316 3.3761 3.45496 6.04363C3.39289 6.10618 3.35747 6.19212 3.35665 6.28216C3.35584 6.37221 3.3897 6.45882 3.45063 6.52259L4.60496 7.73998C4.72395 7.86429 4.91623 7.86691 5.0383 7.74589C5.94017 6.89371 7.11328 6.42155 8.32996 6.42102ZM10.643 9.08588C10.6447 9.17614 10.6107 9.26317 10.549 9.32641L8.55163 11.4297C8.49308 11.4915 8.41326 11.5263 8.32997 11.5263C8.24667 11.5263 8.16685 11.4915 8.1083 11.4297L6.11063 9.32641C6.04892 9.26312 6.01497 9.17607 6.0168 9.0858C6.01863 8.99553 6.05608 8.91005 6.1203 8.84954C7.39587 7.72375 9.26406 7.72375 10.5396 8.84954C10.6038 8.9101 10.6412 8.99561 10.643 9.08588Z" fill="white"/>
</svg>
