<svg width="16" height="12" viewBox="0 0 16 12" fill="none" xmlns="http://www.w3.org/2000/svg">
<path fill-rule="evenodd" clip-rule="evenodd" d="M8.33033 2.46033C10.5462 2.46043 12.6774 3.34888 14.2833 4.94206C14.4043 5.06506 14.5976 5.06351 14.7167 4.93859L15.8727 3.7212C15.933 3.65783 15.9666 3.57201 15.9661 3.4827C15.9656 3.3934 15.931 3.30799 15.87 3.24537C11.6549 -0.969811 5.0051 -0.969811 0.789998 3.24537C0.728939 3.30794 0.694296 3.39333 0.693733 3.48263C0.69317 3.57193 0.726734 3.65779 0.786998 3.7212L1.94333 4.93859C2.06236 5.0637 2.25581 5.06525 2.37666 4.94206C3.98282 3.34878 6.11422 2.46032 8.33033 2.46033ZM8.33033 6.42102C9.54782 6.42094 10.7219 6.89315 11.6243 7.74589C11.7464 7.86691 11.9387 7.86429 12.0577 7.73998L13.2123 6.52259C13.2731 6.45873 13.3069 6.37211 13.306 6.28209C13.3051 6.19207 13.2697 6.10618 13.2077 6.04363C10.4595 3.3761 6.20353 3.3761 3.45533 6.04363C3.39325 6.10618 3.35784 6.19212 3.35702 6.28216C3.35621 6.37221 3.39006 6.45882 3.451 6.52259L4.60533 7.73998C4.72432 7.86429 4.9166 7.86691 5.03866 7.74589C5.94054 6.89371 7.11365 6.42155 8.33033 6.42102ZM10.6433 9.08588C10.6451 9.17614 10.6111 9.26317 10.5493 9.32641L8.552 11.4297C8.49345 11.4915 8.41362 11.5263 8.33033 11.5263C8.24704 11.5263 8.16722 11.4915 8.10867 11.4297L6.111 9.32641C6.04929 9.26312 6.01534 9.17607 6.01717 9.0858C6.019 8.99553 6.05644 8.91005 6.12066 8.84954C7.39624 7.72375 9.26443 7.72375 10.54 8.84954C10.6042 8.9101 10.6416 8.99561 10.6433 9.08588Z" fill="white"/>
</svg>
